<svg width="1248" height="431" viewBox="0 0 1248 431" fill="none" xmlns="http://www.w3.org/2000/svg">
<rect width="888" height="117" fill="#F46A27"/>
<path d="M94.8 24.088H117.552V29.056H100.128V70.672H94.8V24.088ZM124.392 43.672H187.968V49.144H124.392V43.672ZM147.648 74.56L152.184 71.392C153.912 72.736 155.688 74.248 157.512 75.928C159.384 77.56 161.136 79.216 162.768 80.896C164.4 82.528 165.72 83.992 166.728 85.288L161.904 89.104C160.944 87.76 159.672 86.248 158.088 84.568C156.504 82.84 154.8 81.112 152.976 79.384C151.152 77.608 149.376 76 147.648 74.56ZM160.176 46.192C161.76 52.24 163.896 57.88 166.584 63.112C169.272 68.296 172.536 72.856 176.376 76.792C180.264 80.68 184.752 83.728 189.84 85.936C189.408 86.32 188.928 86.8 188.4 87.376C187.872 87.952 187.368 88.552 186.888 89.176C186.456 89.8 186.096 90.376 185.808 90.904C180.528 88.36 175.896 84.976 171.912 80.752C167.976 76.48 164.616 71.536 161.832 65.92C159.048 60.304 156.768 54.136 154.992 47.416L160.176 46.192ZM152.544 24.592H158.376C158.376 27.856 158.28 31.432 158.088 35.32C157.944 39.16 157.584 43.144 157.008 47.272C156.432 51.4 155.496 55.552 154.2 59.728C152.904 63.856 151.104 67.84 148.8 71.68C146.496 75.472 143.544 79 139.944 82.264C136.344 85.528 131.928 88.36 126.696 90.76C126.264 90.04 125.664 89.248 124.896 88.384C124.128 87.568 123.36 86.872 122.592 86.296C127.68 84.136 131.952 81.52 135.408 78.448C138.912 75.376 141.744 72.064 143.904 68.512C146.064 64.912 147.744 61.168 148.944 57.28C150.144 53.392 150.984 49.528 151.464 45.688C151.992 41.8 152.304 38.056 152.4 34.456C152.496 30.856 152.544 27.568 152.544 24.592ZM209.136 31.936C209.952 32.032 210.816 32.104 211.728 32.152C212.688 32.2 213.528 32.224 214.248 32.224C214.968 32.224 216.144 32.2 217.776 32.152C219.456 32.104 221.328 32.056 223.392 32.008C225.504 31.912 227.592 31.84 229.656 31.792C231.768 31.696 233.64 31.6 235.272 31.504C236.952 31.408 238.176 31.336 238.944 31.288C240 31.192 240.816 31.096 241.392 31C241.968 30.904 242.448 30.808 242.832 30.712L246.144 34.888C245.52 35.32 244.848 35.776 244.128 36.256C243.456 36.736 242.784 37.264 242.112 37.84C241.2 38.512 239.976 39.496 238.44 40.792C236.904 42.04 235.2 43.456 233.328 45.04C231.504 46.576 229.704 48.088 227.928 49.576C226.152 51.064 224.544 52.408 223.104 53.608C224.784 53.032 226.464 52.648 228.144 52.456C229.872 52.216 231.528 52.096 233.112 52.096C237.096 52.096 240.624 52.84 243.696 54.328C246.816 55.768 249.24 57.76 250.968 60.304C252.744 62.848 253.632 65.752 253.632 69.016C253.632 72.856 252.624 76.216 250.608 79.096C248.592 81.976 245.736 84.184 242.04 85.72C238.344 87.304 233.952 88.096 228.864 88.096C225.6 88.096 222.792 87.664 220.44 86.8C218.088 85.936 216.264 84.736 214.968 83.2C213.72 81.664 213.096 79.888 213.096 77.872C213.096 76.24 213.552 74.704 214.464 73.264C215.376 71.824 216.672 70.672 218.352 69.808C220.032 68.944 221.976 68.512 224.184 68.512C227.4 68.512 230.064 69.184 232.176 70.528C234.288 71.824 235.92 73.552 237.072 75.712C238.224 77.824 238.872 80.104 239.016 82.552L233.832 83.416C233.64 80.344 232.68 77.824 230.952 75.856C229.272 73.84 226.992 72.832 224.112 72.832C222.48 72.832 221.112 73.288 220.008 74.2C218.904 75.112 218.352 76.192 218.352 77.44C218.352 79.168 219.24 80.536 221.016 81.544C222.792 82.552 225.096 83.056 227.928 83.056C232.008 83.056 235.536 82.504 238.512 81.4C241.536 80.296 243.84 78.688 245.424 76.576C247.056 74.464 247.872 71.92 247.872 68.944C247.872 66.592 247.176 64.48 245.784 62.608C244.392 60.736 242.472 59.272 240.024 58.216C237.624 57.112 234.864 56.56 231.744 56.56C228.72 56.56 226.008 56.896 223.608 57.568C221.208 58.192 218.952 59.104 216.84 60.304C214.776 61.504 212.712 63.016 210.648 64.84C208.632 66.616 206.472 68.656 204.168 70.96L200.064 66.712C201.552 65.512 203.184 64.168 204.96 62.68C206.784 61.144 208.608 59.632 210.432 58.144C212.256 56.608 213.936 55.192 215.472 53.896C217.056 52.552 218.376 51.448 219.432 50.584C220.44 49.768 221.688 48.736 223.176 47.488C224.712 46.192 226.296 44.848 227.928 43.456C229.56 42.064 231.096 40.744 232.536 39.496C234.024 38.248 235.224 37.24 236.136 36.472C235.368 36.472 234.24 36.52 232.752 36.616C231.264 36.664 229.608 36.736 227.784 36.832C225.96 36.88 224.136 36.952 222.312 37.048C220.536 37.144 218.904 37.24 217.416 37.336C215.976 37.384 214.872 37.432 214.104 37.48C213.336 37.528 212.544 37.576 211.728 37.624C210.912 37.672 210.12 37.768 209.352 37.912L209.136 31.936ZM289.2 91.192H266.448V86.224H283.872V44.608H289.2V91.192ZM367.896 28.336C367.656 29.152 367.416 30.136 367.176 31.288C366.936 32.44 366.744 33.376 366.6 34.096C366.264 35.824 365.856 37.84 365.376 40.144C364.944 42.4 364.44 44.776 363.864 47.272C363.336 49.768 362.736 52.216 362.064 54.616C361.44 57.16 360.672 59.944 359.76 62.968C358.848 65.944 357.888 68.944 356.88 71.968C355.872 74.992 354.84 77.848 353.784 80.536C352.728 83.224 351.744 85.576 350.832 87.592L344.496 85.432C345.6 83.56 346.704 81.328 347.808 78.736C348.96 76.096 350.064 73.288 351.12 70.312C352.224 67.336 353.232 64.384 354.144 61.456C355.104 58.48 355.92 55.744 356.592 53.248C357.072 51.568 357.528 49.792 357.96 47.92C358.392 46.048 358.8 44.224 359.184 42.448C359.568 40.624 359.88 38.968 360.12 37.48C360.408 35.944 360.624 34.696 360.768 33.736C360.912 32.728 361.008 31.672 361.056 30.568C361.104 29.464 361.08 28.528 360.984 27.76L367.896 28.336ZM351.912 40.36C354.6 40.36 357.48 40.24 360.552 40C363.672 39.712 366.84 39.304 370.056 38.776C373.272 38.248 376.368 37.6 379.344 36.832V42.52C376.368 43.192 373.248 43.768 369.984 44.248C366.72 44.728 363.504 45.112 360.336 45.4C357.216 45.64 354.384 45.76 351.84 45.76C350.256 45.76 348.792 45.736 347.448 45.688C346.104 45.592 344.784 45.52 343.488 45.472L343.272 39.856C345 40.048 346.536 40.192 347.88 40.288C349.272 40.336 350.616 40.36 351.912 40.36ZM374.664 50.296C376.584 50.104 378.672 49.96 380.928 49.864C383.232 49.72 385.536 49.648 387.84 49.648C389.952 49.648 392.064 49.696 394.176 49.792C396.336 49.888 398.376 50.056 400.296 50.296L400.152 55.768C398.328 55.528 396.384 55.336 394.32 55.192C392.256 55 390.168 54.904 388.056 54.904C385.8 54.904 383.544 54.976 381.288 55.12C379.08 55.216 376.872 55.384 374.664 55.624V50.296ZM376.176 67.792C375.888 68.944 375.648 70.072 375.456 71.176C375.264 72.28 375.168 73.312 375.168 74.272C375.168 75.136 375.312 75.976 375.6 76.792C375.936 77.56 376.536 78.256 377.4 78.88C378.264 79.504 379.488 80.008 381.072 80.392C382.704 80.776 384.792 80.968 387.336 80.968C389.688 80.968 392.064 80.848 394.464 80.608C396.864 80.368 399.168 80.008 401.376 79.528L401.16 85.36C399.24 85.648 397.104 85.888 394.752 86.08C392.4 86.272 389.904 86.368 387.264 86.368C381.6 86.368 377.256 85.504 374.232 83.776C371.208 82 369.696 79.336 369.696 75.784C369.696 74.392 369.792 73 369.984 71.608C370.224 70.216 370.488 68.776 370.776 67.288L376.176 67.792ZM456.168 29.272C456.024 29.848 455.88 30.496 455.736 31.216C455.592 31.888 455.448 32.56 455.304 33.232C455.208 33.904 455.088 34.456 454.944 34.888C454.272 37.912 453.456 41.032 452.496 44.248C451.584 47.464 450.552 50.656 449.4 53.824C448.248 56.992 447 59.944 445.656 62.68C444.36 65.416 442.992 67.792 441.552 69.808C439.728 72.304 437.88 74.56 436.008 76.576C434.184 78.544 432.312 80.08 430.392 81.184C428.472 82.288 426.408 82.84 424.2 82.84C422.424 82.84 420.768 82.336 419.232 81.328C417.696 80.32 416.472 78.856 415.56 76.936C414.648 75.016 414.192 72.664 414.192 69.88C414.192 66.856 414.744 63.832 415.848 60.808C417 57.784 418.56 55 420.528 52.456C422.544 49.912 424.8 47.8 427.296 46.12C430.848 43.672 434.424 41.944 438.024 40.936C441.624 39.928 445.248 39.424 448.896 39.424C453.6 39.424 457.776 40.408 461.424 42.376C465.12 44.344 468 47.104 470.064 50.656C472.176 54.16 473.232 58.264 473.232 62.968C473.232 67.72 472.152 71.872 469.992 75.424C467.88 78.928 464.88 81.76 460.992 83.92C457.152 86.032 452.664 87.448 447.528 88.168L444.144 83.056C447.936 82.72 451.272 82 454.152 80.896C457.08 79.792 459.528 78.352 461.496 76.576C463.464 74.8 464.952 72.736 465.96 70.384C467.016 68.032 467.544 65.488 467.544 62.752C467.544 59.2 466.752 56.056 465.168 53.32C463.584 50.536 461.328 48.352 458.4 46.768C455.52 45.184 452.16 44.392 448.32 44.392C444.816 44.392 441.48 44.968 438.312 46.12C435.192 47.224 432.216 48.808 429.384 50.872C427.368 52.312 425.616 54.088 424.128 56.2C422.64 58.312 421.464 60.52 420.6 62.824C419.784 65.08 419.376 67.288 419.376 69.448C419.376 71.848 419.856 73.744 420.816 75.136C421.824 76.48 423.144 77.152 424.776 77.152C425.928 77.152 427.104 76.816 428.304 76.144C429.504 75.424 430.68 74.488 431.832 73.336C432.984 72.184 434.088 70.912 435.144 69.52C436.248 68.08 437.232 66.64 438.096 65.2C439.296 63.328 440.472 61.168 441.624 58.72C442.776 56.272 443.856 53.656 444.864 50.872C445.92 48.04 446.832 45.208 447.6 42.376C448.416 39.496 449.064 36.76 449.544 34.168C449.688 33.448 449.784 32.56 449.832 31.504C449.928 30.448 449.976 29.512 449.976 28.696L456.168 29.272ZM426.72 32.512C426.912 33.52 427.128 34.6 427.368 35.752C427.656 36.856 427.92 37.912 428.16 38.92C428.64 40.648 429.24 42.592 429.96 44.752C430.68 46.912 431.424 49.072 432.192 51.232C433.008 53.392 433.848 55.432 434.712 57.352C435.576 59.224 436.392 60.784 437.16 62.032C438.408 64.144 439.824 66.304 441.408 68.512C442.992 70.72 444.648 72.64 446.376 74.272L441.84 78.016C440.4 76.384 439.008 74.656 437.664 72.832C436.32 71.008 434.976 68.92 433.632 66.568C432.72 65.176 431.808 63.496 430.896 61.528C429.984 59.512 429.048 57.352 428.088 55.048C427.176 52.744 426.288 50.392 425.424 47.992C424.56 45.544 423.792 43.192 423.12 40.936C422.784 39.784 422.4 38.656 421.968 37.552C421.584 36.4 421.176 35.368 420.744 34.456L426.72 32.512ZM520.608 35.824C520.128 39.568 519.504 43.48 518.736 47.56C518.016 51.64 517.08 55.6 515.928 59.44C514.488 64.384 512.88 68.512 511.104 71.824C509.376 75.136 507.504 77.632 505.488 79.312C503.472 80.992 501.36 81.832 499.152 81.832C497.04 81.832 495 81.064 493.032 79.528C491.064 77.992 489.456 75.784 488.208 72.904C486.96 69.976 486.336 66.544 486.336 62.608C486.336 58.672 487.128 54.952 488.712 51.448C490.344 47.944 492.576 44.848 495.408 42.16C498.288 39.424 501.648 37.264 505.488 35.68C509.328 34.096 513.432 33.304 517.8 33.304C522.024 33.304 525.816 34 529.176 35.392C532.584 36.784 535.488 38.704 537.888 41.152C540.288 43.552 542.136 46.36 543.432 49.576C544.728 52.744 545.376 56.152 545.376 59.8C545.376 64.84 544.296 69.28 542.136 73.12C540.024 76.96 536.952 80.08 532.92 82.48C528.936 84.88 524.088 86.464 518.376 87.232L514.992 81.904C516.144 81.76 517.248 81.616 518.304 81.472C519.36 81.328 520.32 81.16 521.184 80.968C523.488 80.44 525.72 79.624 527.88 78.52C530.088 77.368 532.056 75.928 533.784 74.2C535.512 72.424 536.88 70.336 537.888 67.936C538.944 65.488 539.472 62.704 539.472 59.584C539.472 56.656 538.992 53.944 538.032 51.448C537.072 48.904 535.656 46.672 533.784 44.752C531.912 42.832 529.632 41.32 526.944 40.216C524.256 39.112 521.184 38.56 517.728 38.56C513.792 38.56 510.216 39.28 507 40.72C503.832 42.16 501.12 44.056 498.864 46.408C496.656 48.712 494.952 51.256 493.752 54.04C492.552 56.776 491.952 59.464 491.952 62.104C491.952 65.128 492.336 67.624 493.104 69.592C493.92 71.512 494.88 72.928 495.984 73.84C497.136 74.752 498.264 75.208 499.368 75.208C500.52 75.208 501.696 74.656 502.896 73.552C504.096 72.4 505.32 70.576 506.568 68.08C507.816 65.536 509.04 62.248 510.24 58.216C511.296 54.76 512.184 51.088 512.904 47.2C513.672 43.312 514.224 39.496 514.56 35.752L520.608 35.824ZM582.744 46.12H608.16V51.16H582.744V46.12ZM575.76 59.008H612.768V64.12H575.76V59.008ZM589.224 61.816H594.624V90.688H589.224V61.816ZM595.272 30.208C593.688 32.896 591.648 35.704 589.152 38.632C586.704 41.56 583.968 44.368 580.944 47.056C577.968 49.744 574.8 52.144 571.44 54.256C571.104 53.584 570.624 52.816 570 51.952C569.424 51.04 568.872 50.296 568.344 49.72C570.84 48.232 573.288 46.528 575.688 44.608C578.088 42.64 580.344 40.552 582.456 38.344C584.568 36.088 586.464 33.832 588.144 31.576C589.824 29.272 591.216 27.04 592.32 24.88H597.648C599.664 27.904 602.016 30.88 604.704 33.808C607.392 36.688 610.248 39.352 613.272 41.8C616.296 44.2 619.272 46.192 622.2 47.776C621.624 48.4 621.024 49.168 620.4 50.08C619.776 50.944 619.224 51.784 618.744 52.6C615.864 50.824 612.936 48.688 609.96 46.192C607.032 43.696 604.272 41.08 601.68 38.344C599.136 35.56 597 32.848 595.272 30.208ZM610.32 59.008H615.648V77.584C615.648 78.976 615.48 80.104 615.144 80.968C614.808 81.784 614.088 82.432 612.984 82.912C611.928 83.344 610.512 83.608 608.736 83.704C606.96 83.752 604.776 83.776 602.184 83.776C602.136 82.96 601.944 82.072 601.608 81.112C601.32 80.152 600.96 79.288 600.528 78.52C602.592 78.568 604.392 78.616 605.928 78.664C607.464 78.664 608.496 78.64 609.024 78.592C609.552 78.544 609.888 78.448 610.032 78.304C610.224 78.16 610.32 77.872 610.32 77.44V59.008ZM555.672 32.44L559.344 28.624C560.88 29.68 562.44 30.856 564.024 32.152C565.656 33.4 567.168 34.672 568.56 35.968C570 37.264 571.152 38.44 572.016 39.496L568.056 43.816C567.288 42.712 566.208 41.488 564.816 40.144C563.424 38.8 561.936 37.456 560.352 36.112C558.768 34.72 557.208 33.496 555.672 32.44ZM554.52 81.184C555.912 79.408 557.448 77.296 559.128 74.848C560.808 72.4 562.512 69.808 564.24 67.072C565.968 64.288 567.576 61.6 569.064 59.008L573.096 62.608C571.752 65.056 570.288 67.6 568.704 70.24C567.12 72.832 565.512 75.4 563.88 77.944C562.296 80.44 560.76 82.792 559.272 85L554.52 81.184ZM644.376 31.576H692.04V36.4H644.376V31.576ZM665.544 24.52H670.8V90.688H665.544V24.52ZM672.672 65.272C674.16 67.816 676.032 70.312 678.288 72.76C680.592 75.208 683.064 77.44 685.704 79.456C688.392 81.424 691.032 83.056 693.624 84.352C693.24 84.64 692.784 85.048 692.256 85.576C691.776 86.104 691.32 86.632 690.888 87.16C690.456 87.736 690.096 88.24 689.808 88.672C687.168 87.184 684.528 85.288 681.888 82.984C679.248 80.68 676.776 78.136 674.472 75.352C672.168 72.52 670.224 69.664 668.64 66.784L672.672 65.272ZM663.024 65.272L667.488 66.928C665.76 70 663.6 72.952 661.008 75.784C658.416 78.568 655.608 81.088 652.584 83.344C649.608 85.6 646.584 87.448 643.512 88.888C643.272 88.456 642.936 87.976 642.504 87.448C642.072 86.92 641.616 86.392 641.136 85.864C640.704 85.336 640.296 84.904 639.912 84.568C642.888 83.368 645.84 81.784 648.768 79.816C651.696 77.8 654.408 75.544 656.904 73.048C659.4 70.504 661.44 67.912 663.024 65.272ZM653.016 57.136V63.544H683.688V57.136H653.016ZM653.016 46.696V53.104H683.688V46.696H653.016ZM648.12 42.52H688.872V67.792H648.12V42.52ZM627.528 32.8L631.2 29.344C632.592 30.4 634.032 31.6 635.52 32.944C637.008 34.24 638.376 35.56 639.624 36.904C640.92 38.2 641.928 39.4 642.648 40.504L638.76 44.392C638.04 43.288 637.056 42.064 635.808 40.72C634.608 39.328 633.264 37.936 631.776 36.544C630.336 35.152 628.92 33.904 627.528 32.8ZM626.736 79.096C627.936 77.32 629.28 75.208 630.768 72.76C632.256 70.264 633.744 67.648 635.232 64.912C636.768 62.128 638.16 59.416 639.408 56.776L643.512 60.232C642.312 62.68 641.016 65.224 639.624 67.864C638.28 70.504 636.888 73.096 635.448 75.64C634.056 78.184 632.712 80.536 631.416 82.696L626.736 79.096ZM716.88 48.424H722.28V58.216C722.28 60.952 722.088 63.76 721.704 66.64C721.32 69.52 720.504 72.4 719.256 75.28C718.056 78.16 716.184 80.944 713.64 83.632C711.144 86.272 707.784 88.72 703.56 90.976C703.32 90.544 702.96 90.088 702.48 89.608C702 89.128 701.496 88.648 700.968 88.168C700.488 87.688 700.032 87.304 699.6 87.016C703.536 84.952 706.656 82.744 708.96 80.392C711.312 77.992 713.04 75.52 714.144 72.976C715.296 70.432 716.04 67.912 716.376 65.416C716.712 62.872 716.88 60.424 716.88 58.072V48.424ZM742.152 47.704H747.696V90.832H742.152V47.704ZM699.744 58.648H764.328V63.76H699.744V58.648ZM701.76 41.296C704.976 41.296 708.672 41.272 712.848 41.224C717.024 41.128 721.488 41.032 726.24 40.936C730.992 40.792 735.912 40.672 741 40.576C746.088 40.432 751.152 40.288 756.192 40.144L755.976 44.824C749.544 45.112 743.064 45.4 736.536 45.688C730.008 45.928 723.816 46.144 717.96 46.336C712.104 46.528 706.92 46.696 702.408 46.84L701.76 41.296ZM722.424 24.16L728.4 25.6C727.248 27.808 725.952 30.088 724.512 32.44C723.12 34.792 721.728 37.072 720.336 39.28C718.944 41.44 717.6 43.336 716.304 44.968L711.696 43.456C712.944 41.776 714.24 39.808 715.584 37.552C716.928 35.296 718.2 32.992 719.4 30.64C720.6 28.288 721.608 26.128 722.424 24.16ZM738.48 31.936L742.728 28.984C745.32 30.808 748.008 32.824 750.792 35.032C753.576 37.192 756.168 39.376 758.568 41.584C761.016 43.792 762.984 45.808 764.472 47.632L759.864 50.944C758.472 49.12 756.6 47.104 754.248 44.896C751.896 42.64 749.328 40.384 746.544 38.128C743.808 35.824 741.12 33.76 738.48 31.936ZM800.976 24.52H806.88V52.888H800.976V24.52ZM776.712 29.632L781.608 27.688C782.952 29.368 784.248 31.192 785.496 33.16C786.744 35.08 787.872 37 788.88 38.92C789.888 40.792 790.656 42.496 791.184 44.032L786 46.408C785.472 44.824 784.728 43.072 783.768 41.152C782.808 39.184 781.704 37.192 780.456 35.176C779.256 33.16 778.008 31.312 776.712 29.632ZM825.672 27.04L831.504 28.984C830.448 31.048 829.32 33.16 828.12 35.32C826.968 37.432 825.792 39.496 824.592 41.512C823.392 43.528 822.24 45.304 821.136 46.84L816.456 45.04C817.512 43.408 818.616 41.56 819.768 39.496C820.92 37.384 822.024 35.248 823.08 33.088C824.136 30.88 825 28.864 825.672 27.04ZM777.72 50.008H830.568V90.832H824.88V55.408H777.72V50.008ZM780.096 65.848H827.04V71.032H780.096V65.848ZM776.28 82.264H827.76V87.664H776.28V82.264Z" fill="white"/>
<rect width="1032" height="117" transform="translate(0 157)" fill="#F46A27"/>
<path d="M52.68 196.712H115.464V202.184H52.68V196.712ZM67.008 228.824H100.56V234.296H67.008V228.824ZM81.12 181.592H86.808V247.76H81.12V181.592ZM79.392 198.512L84.288 200.096C82.128 205.184 79.488 210.056 76.368 214.712C73.248 219.32 69.792 223.496 66 227.24C62.208 230.936 58.248 233.984 54.12 236.384C53.832 235.952 53.448 235.472 52.968 234.944C52.488 234.368 52.008 233.816 51.528 233.288C51.096 232.76 50.664 232.304 50.232 231.92C53.256 230.336 56.184 228.368 59.016 226.016C61.896 223.664 64.608 221.024 67.152 218.096C69.744 215.12 72.072 211.976 74.136 208.664C76.2 205.352 77.952 201.968 79.392 198.512ZM88.536 198.728C90.456 203.288 92.928 207.704 95.952 211.976C98.976 216.2 102.36 220.016 106.104 223.424C109.896 226.784 113.856 229.472 117.984 231.488C117.552 231.872 117.072 232.328 116.544 232.856C116.064 233.384 115.584 233.96 115.104 234.584C114.624 235.16 114.216 235.712 113.88 236.24C109.704 233.888 105.696 230.888 101.856 227.24C98.064 223.544 94.632 219.392 91.56 214.784C88.488 210.176 85.896 205.376 83.784 200.384L88.536 198.728ZM137.352 189.152H186.672V193.832H137.352V189.152ZM138.144 199.448H179.832V203.984H138.144V199.448ZM129.864 209.744H173.28V214.424H129.864V209.744ZM138.288 181.376L143.904 182.6C142.176 188.168 139.896 193.352 137.064 198.152C134.232 202.904 131.088 206.888 127.632 210.104C127.296 209.768 126.816 209.384 126.192 208.952C125.616 208.472 125.016 208.016 124.392 207.584C123.768 207.152 123.216 206.816 122.736 206.576C126.24 203.696 129.336 200.048 132.024 195.632C134.712 191.168 136.8 186.416 138.288 181.376ZM157.584 215.72L162.768 217.448C160.224 222.008 157.152 226.232 153.552 230.12C149.952 233.96 146.04 237.416 141.816 240.488C137.64 243.512 133.248 246.128 128.64 248.336C128.4 247.952 128.04 247.496 127.56 246.968C127.08 246.44 126.576 245.912 126.048 245.384C125.52 244.904 125.04 244.496 124.608 244.16C129.216 242.192 133.584 239.792 137.712 236.96C141.888 234.128 145.68 230.912 149.088 227.312C152.496 223.712 155.328 219.848 157.584 215.72ZM171.264 209.744H176.736C176.784 214.448 176.88 218.792 177.024 222.776C177.216 226.712 177.528 230.168 177.96 233.144C178.44 236.072 179.112 238.376 179.976 240.056C180.84 241.688 181.944 242.504 183.288 242.504C184.008 242.504 184.488 241.568 184.728 239.696C184.968 237.776 185.112 235.28 185.16 232.208C185.736 232.784 186.36 233.384 187.032 234.008C187.752 234.584 188.4 235.064 188.976 235.448C188.832 238.424 188.568 240.824 188.184 242.648C187.8 244.472 187.2 245.768 186.384 246.536C185.568 247.352 184.416 247.784 182.928 247.832C180.384 247.832 178.344 246.896 176.808 245.024C175.272 243.152 174.096 240.536 173.28 237.176C172.512 233.768 171.984 229.76 171.696 225.152C171.456 220.496 171.312 215.36 171.264 209.744ZM131.592 222.128L135.48 218.672C138.264 220.16 141.12 221.84 144.048 223.712C147.024 225.536 149.904 227.456 152.688 229.472C155.52 231.488 158.136 233.48 160.536 235.448C162.936 237.416 164.928 239.288 166.512 241.064L162.264 245.168C160.728 243.392 158.784 241.496 156.432 239.48C154.128 237.464 151.584 235.424 148.8 233.36C146.016 231.296 143.16 229.304 140.232 227.384C137.304 225.464 134.424 223.712 131.592 222.128ZM232.608 192.824C232.128 196.568 231.504 200.48 230.736 204.56C230.016 208.64 229.08 212.6 227.928 216.44C226.488 221.384 224.88 225.512 223.104 228.824C221.376 232.136 219.504 234.632 217.488 236.312C215.472 237.992 213.36 238.832 211.152 238.832C209.04 238.832 207 238.064 205.032 236.528C203.064 234.992 201.456 232.784 200.208 229.904C198.96 226.976 198.336 223.544 198.336 219.608C198.336 215.672 199.128 211.952 200.712 208.448C202.344 204.944 204.576 201.848 207.408 199.16C210.288 196.424 213.648 194.264 217.488 192.68C221.328 191.096 225.432 190.304 229.8 190.304C234.024 190.304 237.816 191 241.176 192.392C244.584 193.784 247.488 195.704 249.888 198.152C252.288 200.552 254.136 203.36 255.432 206.576C256.728 209.744 257.376 213.152 257.376 216.8C257.376 221.84 256.296 226.28 254.136 230.12C252.024 233.96 248.952 237.08 244.92 239.48C240.936 241.88 236.088 243.464 230.376 244.232L226.992 238.904C228.144 238.76 229.248 238.616 230.304 238.472C231.36 238.328 232.32 238.16 233.184 237.968C235.488 237.44 237.72 236.624 239.88 235.52C242.088 234.368 244.056 232.928 245.784 231.2C247.512 229.424 248.88 227.336 249.888 224.936C250.944 222.488 251.472 219.704 251.472 216.584C251.472 213.656 250.992 210.944 250.032 208.448C249.072 205.904 247.656 203.672 245.784 201.752C243.912 199.832 241.632 198.32 238.944 197.216C236.256 196.112 233.184 195.56 229.728 195.56C225.792 195.56 222.216 196.28 219 197.72C215.832 199.16 213.12 201.056 210.864 203.408C208.656 205.712 206.952 208.256 205.752 211.04C204.552 213.776 203.952 216.464 203.952 219.104C203.952 222.128 204.336 224.624 205.104 226.592C205.92 228.512 206.88 229.928 207.984 230.84C209.136 231.752 210.264 232.208 211.368 232.208C212.52 232.208 213.696 231.656 214.896 230.552C216.096 229.4 217.32 227.576 218.568 225.08C219.816 222.536 221.04 219.248 222.24 215.216C223.296 211.76 224.184 208.088 224.904 204.2C225.672 200.312 226.224 196.496 226.56 192.752L232.608 192.824ZM331.032 193.328C330.744 193.664 330.408 194.072 330.024 194.552C329.688 195.032 329.376 195.488 329.088 195.92C328.176 197.552 326.808 199.568 324.984 201.968C323.208 204.32 321.144 206.744 318.792 209.24C316.44 211.688 313.896 213.872 311.16 215.792L306.408 211.976C308.088 211.016 309.72 209.864 311.304 208.52C312.936 207.128 314.448 205.688 315.84 204.2C317.28 202.664 318.528 201.176 319.584 199.736C320.688 198.248 321.552 196.952 322.176 195.848C321.408 195.848 320.16 195.848 318.432 195.848C316.752 195.848 314.736 195.848 312.384 195.848C310.08 195.848 307.608 195.848 304.968 195.848C302.328 195.848 299.712 195.848 297.12 195.848C294.528 195.848 292.104 195.848 289.848 195.848C287.592 195.848 285.696 195.848 284.16 195.848C282.624 195.848 281.616 195.848 281.136 195.848C279.792 195.848 278.448 195.896 277.104 195.992C275.76 196.04 274.368 196.136 272.928 196.28V189.728C274.176 189.92 275.52 190.088 276.96 190.232C278.4 190.328 279.792 190.376 281.136 190.376C281.616 190.376 282.648 190.376 284.232 190.376C285.816 190.376 287.736 190.376 289.992 190.376C292.296 190.376 294.792 190.376 297.48 190.376C300.168 190.376 302.832 190.376 305.472 190.376C308.16 190.376 310.68 190.376 313.032 190.376C315.384 190.376 317.376 190.376 319.008 190.376C320.688 190.376 321.84 190.376 322.464 190.376C322.944 190.376 323.496 190.376 324.12 190.376C324.792 190.328 325.44 190.256 326.064 190.16C326.688 190.064 327.168 189.992 327.504 189.944L331.032 193.328ZM302.304 202.832C302.304 206.72 302.184 210.368 301.944 213.776C301.704 217.184 301.224 220.376 300.504 223.352C299.784 226.328 298.68 229.088 297.192 231.632C295.752 234.128 293.808 236.48 291.36 238.688C288.912 240.848 285.864 242.84 282.216 244.664L276.888 240.344C277.896 240.008 278.976 239.576 280.128 239.048C281.28 238.472 282.36 237.824 283.368 237.104C286.2 235.424 288.456 233.528 290.136 231.416C291.816 229.304 293.064 227.024 293.88 224.576C294.744 222.08 295.32 219.464 295.608 216.728C295.944 213.944 296.112 211.064 296.112 208.088C296.112 207.176 296.088 206.312 296.04 205.496C296.04 204.68 295.968 203.792 295.824 202.832H302.304ZM393.6 193.832C393.36 194.12 393.048 194.6 392.664 195.272C392.328 195.896 392.04 196.472 391.8 197C390.888 199.352 389.688 201.968 388.2 204.848C386.712 207.68 385.056 210.488 383.232 213.272C381.408 216.056 379.488 218.576 377.472 220.832C374.832 223.808 371.928 226.712 368.76 229.544C365.592 232.328 362.256 234.944 358.752 237.392C355.248 239.792 351.6 241.856 347.808 243.584L343.2 238.76C347.088 237.224 350.808 235.328 354.36 233.072C357.96 230.768 361.32 228.272 364.44 225.584C367.608 222.848 370.416 220.112 372.864 217.376C374.496 215.504 376.104 213.416 377.688 211.112C379.32 208.76 380.76 206.384 382.008 203.984C383.304 201.536 384.24 199.328 384.816 197.36C384.432 197.36 383.52 197.36 382.08 197.36C380.64 197.36 378.936 197.36 376.968 197.36C375 197.36 372.936 197.36 370.776 197.36C368.616 197.36 366.552 197.36 364.584 197.36C362.616 197.36 360.912 197.36 359.472 197.36C358.08 197.36 357.168 197.36 356.736 197.36C355.92 197.36 354.984 197.384 353.928 197.432C352.92 197.48 351.984 197.528 351.12 197.576C350.304 197.624 349.752 197.672 349.464 197.72V191.168C349.8 191.216 350.4 191.288 351.264 191.384C352.176 191.432 353.136 191.48 354.144 191.528C355.152 191.576 356.016 191.6 356.736 191.6C357.264 191.6 358.224 191.6 359.616 191.6C361.008 191.6 362.664 191.6 364.584 191.6C366.552 191.6 368.592 191.6 370.704 191.6C372.816 191.6 374.832 191.6 376.752 191.6C378.72 191.6 380.4 191.6 381.792 191.6C383.184 191.6 384.096 191.6 384.528 191.6C385.728 191.6 386.784 191.552 387.696 191.456C388.656 191.36 389.4 191.216 389.928 191.024L393.6 193.832ZM378.408 217.016C380.376 218.648 382.392 220.448 384.456 222.416C386.568 224.384 388.632 226.424 390.648 228.536C392.664 230.6 394.536 232.592 396.264 234.512C397.992 236.384 399.48 238.088 400.728 239.624L395.688 243.944C394.008 241.64 391.992 239.168 389.64 236.528C387.288 233.84 384.792 231.176 382.152 228.536C379.56 225.848 376.944 223.376 374.304 221.12L378.408 217.016ZM463.872 187.352C463.824 188.264 463.776 189.248 463.728 190.304C463.68 191.312 463.656 192.416 463.656 193.616C463.656 194.576 463.656 195.8 463.656 197.288C463.656 198.776 463.656 200.264 463.656 201.752C463.656 203.192 463.656 204.368 463.656 205.28C463.656 209.6 463.488 213.272 463.152 216.296C462.864 219.32 462.408 221.912 461.784 224.072C461.208 226.184 460.44 228.056 459.48 229.688C458.52 231.32 457.392 232.904 456.096 234.44C454.56 236.264 452.784 237.872 450.768 239.264C448.8 240.608 446.784 241.736 444.72 242.648C442.656 243.608 440.736 244.376 438.96 244.952L434.28 239.984C437.592 239.168 440.712 238.016 443.64 236.528C446.616 234.992 449.232 232.952 451.488 230.408C452.784 228.92 453.816 227.408 454.584 225.872C455.4 224.288 456 222.536 456.384 220.616C456.816 218.696 457.104 216.464 457.248 213.92C457.392 211.376 457.464 208.4 457.464 204.992C457.464 204.032 457.464 202.832 457.464 201.392C457.464 199.952 457.464 198.512 457.464 197.072C457.464 195.584 457.464 194.432 457.464 193.616C457.464 192.416 457.416 191.312 457.32 190.304C457.272 189.248 457.2 188.264 457.104 187.352H463.872ZM430.464 187.928C430.416 188.6 430.344 189.416 430.248 190.376C430.2 191.336 430.176 192.248 430.176 193.112C430.176 193.448 430.176 194.216 430.176 195.416C430.176 196.568 430.176 197.96 430.176 199.592C430.176 201.224 430.176 202.952 430.176 204.776C430.176 206.6 430.176 208.376 430.176 210.104C430.176 211.784 430.176 213.248 430.176 214.496C430.176 215.744 430.176 216.632 430.176 217.16C430.176 218.072 430.2 219.056 430.248 220.112C430.344 221.12 430.416 221.96 430.464 222.632H423.84C423.936 222.056 424.008 221.264 424.056 220.256C424.152 219.2 424.2 218.144 424.2 217.088C424.2 216.608 424.2 215.744 424.2 214.496C424.2 213.2 424.2 211.712 424.2 210.032C424.2 208.352 424.2 206.6 424.2 204.776C424.2 202.952 424.2 201.224 424.2 199.592C424.2 197.96 424.2 196.568 424.2 195.416C424.2 194.216 424.2 193.448 424.2 193.112C424.2 192.488 424.176 191.648 424.128 190.592C424.08 189.488 424.008 188.6 423.912 187.928H430.464ZM487.344 210.824C488.064 210.872 488.952 210.944 490.008 211.04C491.064 211.088 492.216 211.136 493.464 211.184C494.76 211.184 496.056 211.184 497.352 211.184C498.12 211.184 499.296 211.184 500.88 211.184C502.512 211.184 504.408 211.184 506.568 211.184C508.728 211.184 511.008 211.184 513.408 211.184C515.856 211.184 518.28 211.184 520.68 211.184C523.128 211.184 525.432 211.184 527.592 211.184C529.8 211.184 531.696 211.184 533.28 211.184C534.864 211.184 536.04 211.184 536.808 211.184C538.632 211.184 540.192 211.136 541.488 211.04C542.784 210.944 543.816 210.872 544.584 210.824V217.88C543.864 217.832 542.784 217.76 541.344 217.664C539.952 217.568 538.464 217.52 536.88 217.52C536.112 217.52 534.912 217.52 533.28 217.52C531.648 217.52 529.752 217.52 527.592 217.52C525.48 217.52 523.2 217.52 520.752 217.52C518.304 217.52 515.856 217.52 513.408 217.52C511.008 217.52 508.728 217.52 506.568 217.52C504.456 217.52 502.584 217.52 500.952 217.52C499.32 217.52 498.12 217.52 497.352 217.52C495.384 217.52 493.512 217.568 491.736 217.664C489.96 217.712 488.496 217.784 487.344 217.88V210.824ZM576.264 235.664C576.264 234.992 576.264 233.648 576.264 231.632C576.264 229.568 576.264 227.144 576.264 224.36C576.264 221.528 576.264 218.576 576.264 215.504C576.264 212.384 576.264 209.36 576.264 206.432C576.264 203.504 576.264 200.912 576.264 198.656C576.264 196.4 576.264 194.768 576.264 193.76C576.264 192.752 576.216 191.528 576.12 190.088C576.024 188.648 575.88 187.376 575.688 186.272H582.744C582.648 187.328 582.528 188.576 582.384 190.016C582.288 191.456 582.24 192.704 582.24 193.76C582.24 195.632 582.24 197.888 582.24 200.528C582.24 203.12 582.24 205.904 582.24 208.88C582.24 211.808 582.24 214.736 582.24 217.664C582.288 220.544 582.312 223.256 582.312 225.8C582.312 228.296 582.312 230.432 582.312 232.208C582.312 233.936 582.312 235.088 582.312 235.664C582.312 236.432 582.312 237.32 582.312 238.328C582.36 239.336 582.432 240.368 582.528 241.424C582.624 242.432 582.696 243.344 582.744 244.16H575.76C575.952 243.008 576.072 241.64 576.12 240.056C576.216 238.472 576.264 237.008 576.264 235.664ZM581.016 205.136C583.368 205.856 585.96 206.72 588.792 207.728C591.672 208.688 594.6 209.72 597.576 210.824C600.552 211.928 603.36 213.056 606 214.208C608.688 215.312 611.016 216.368 612.984 217.376L610.536 223.496C608.472 222.344 606.144 221.216 603.552 220.112C600.96 218.96 598.296 217.832 595.56 216.728C592.872 215.624 590.256 214.64 587.712 213.776C585.216 212.864 582.984 212.12 581.016 211.544V205.136ZM657.12 185.048C656.832 186.488 656.448 188.192 655.968 190.16C655.536 192.08 654.816 194.264 653.808 196.712C652.944 198.872 651.864 201.104 650.568 203.408C649.32 205.712 647.976 207.8 646.536 209.672C647.448 209.096 648.48 208.616 649.632 208.232C650.784 207.8 651.96 207.488 653.16 207.296C654.408 207.104 655.536 207.008 656.544 207.008C659.328 207.008 661.68 207.8 663.6 209.384C665.52 210.92 666.48 213.176 666.48 216.152C666.48 217.064 666.48 218.24 666.48 219.68C666.48 221.072 666.48 222.56 666.48 224.144C666.528 225.68 666.576 227.192 666.624 228.68C666.672 230.168 666.696 231.464 666.696 232.568H661.152C661.2 231.608 661.248 230.48 661.296 229.184C661.344 227.888 661.368 226.52 661.368 225.08C661.416 223.64 661.416 222.272 661.368 220.976C661.368 219.68 661.368 218.576 661.368 217.664C661.368 215.552 660.72 214.016 659.424 213.056C658.176 212.048 656.592 211.544 654.672 211.544C652.416 211.544 650.184 212.048 647.976 213.056C645.816 214.016 643.92 215.264 642.288 216.8C641.232 217.808 640.176 218.96 639.12 220.256C638.112 221.504 636.984 222.848 635.736 224.288L630.84 220.688C634.296 217.328 637.176 214.184 639.48 211.256C641.784 208.328 643.656 205.616 645.096 203.12C646.536 200.576 647.664 198.296 648.48 196.28C649.248 194.264 649.872 192.248 650.352 190.232C650.832 188.168 651.12 186.272 651.216 184.544L657.12 185.048ZM632.496 192.824C634.416 193.064 636.504 193.256 638.76 193.4C641.016 193.544 642.984 193.616 644.664 193.616C647.88 193.616 651.336 193.544 655.032 193.4C658.728 193.208 662.448 192.944 666.192 192.608C669.984 192.272 673.584 191.792 676.992 191.168L676.92 196.496C674.424 196.928 671.76 197.288 668.928 197.576C666.096 197.816 663.216 198.032 660.288 198.224C657.36 198.368 654.528 198.488 651.792 198.584C649.104 198.632 646.608 198.656 644.304 198.656C643.296 198.656 642.12 198.656 640.776 198.656C639.48 198.608 638.112 198.56 636.672 198.512C635.232 198.416 633.84 198.32 632.496 198.224V192.824ZM687.504 210.248C686.88 210.392 686.184 210.608 685.416 210.896C684.696 211.136 683.952 211.4 683.184 211.688C682.464 211.976 681.768 212.264 681.096 212.552C678.6 213.512 675.696 214.688 672.384 216.08C669.072 217.472 665.688 219.08 662.232 220.904C659.832 222.104 657.72 223.376 655.896 224.72C654.072 226.016 652.632 227.384 651.576 228.824C650.52 230.216 649.992 231.752 649.992 233.432C649.992 234.824 650.304 235.952 650.928 236.816C651.6 237.68 652.536 238.352 653.736 238.832C654.936 239.264 656.304 239.552 657.84 239.696C659.424 239.84 661.152 239.912 663.024 239.912C665.808 239.912 668.976 239.768 672.528 239.48C676.128 239.144 679.512 238.712 682.68 238.184L682.536 243.944C680.712 244.184 678.648 244.4 676.344 244.592C674.088 244.784 671.784 244.928 669.432 245.024C667.128 245.168 664.92 245.24 662.808 245.24C659.4 245.24 656.28 244.928 653.448 244.304C650.664 243.68 648.432 242.576 646.752 240.992C645.072 239.408 644.232 237.152 644.232 234.224C644.232 232.064 644.736 230.096 645.744 228.32C646.752 226.496 648.096 224.84 649.776 223.352C651.504 221.864 653.4 220.496 655.464 219.248C657.528 217.952 659.64 216.776 661.8 215.72C664.104 214.472 666.264 213.392 668.28 212.48C670.344 211.568 672.288 210.728 674.112 209.96C675.936 209.192 677.64 208.424 679.224 207.656C680.28 207.176 681.288 206.72 682.248 206.288C683.208 205.856 684.168 205.376 685.128 204.848L687.504 210.248ZM731.712 186.776C730.272 188.936 728.472 191.216 726.312 193.616C724.2 195.968 721.848 198.32 719.256 200.672C716.664 203.024 713.904 205.28 710.976 207.44C708.096 209.6 705.144 211.568 702.12 213.344C701.736 212.72 701.208 212 700.536 211.184C699.912 210.32 699.288 209.624 698.664 209.096C702.84 206.792 706.848 204.08 710.688 200.96C714.576 197.84 718.08 194.576 721.2 191.168C724.32 187.76 726.816 184.496 728.688 181.376H734.16C736.032 184.064 738.192 186.704 740.64 189.296C743.088 191.888 745.704 194.36 748.488 196.712C751.272 199.064 754.104 201.224 756.984 203.192C759.912 205.16 762.768 206.84 765.552 208.232C764.88 208.904 764.232 209.672 763.608 210.536C762.984 211.352 762.432 212.168 761.952 212.984C759.216 211.352 756.384 209.504 753.456 207.44C750.576 205.376 747.792 203.192 745.104 200.888C742.416 198.536 739.92 196.16 737.616 193.76C735.312 191.36 733.344 189.032 731.712 186.776ZM707.376 224.144H756.48V228.968H707.376V224.144ZM710.616 208.088H753.744V212.912H710.616V208.088ZM701.472 240.848H762.888V245.744H701.472V240.848ZM728.976 210.104H734.592V243.584H728.976V210.104ZM773.976 197.216H829.848V202.76H773.976V197.216ZM827.76 197.216H833.304C833.304 197.216 833.304 197.408 833.304 197.792C833.304 198.176 833.28 198.584 833.232 199.016C833.232 199.448 833.208 199.808 833.16 200.096C832.776 207.536 832.368 213.872 831.936 219.104C831.552 224.336 831.096 228.656 830.568 232.064C830.088 235.424 829.536 238.088 828.912 240.056C828.336 241.976 827.64 243.368 826.824 244.232C825.96 245.288 825.048 246.008 824.088 246.392C823.176 246.776 822.024 247.04 820.632 247.184C819.432 247.28 817.752 247.304 815.592 247.256C813.48 247.208 811.32 247.136 809.112 247.04C809.064 246.224 808.872 245.288 808.536 244.232C808.248 243.176 807.816 242.264 807.24 241.496C809.736 241.688 812.016 241.832 814.08 241.928C816.192 241.976 817.704 242 818.616 242C819.384 242 820.008 241.928 820.488 241.784C821.016 241.64 821.496 241.328 821.928 240.848C822.6 240.224 823.2 239 823.728 237.176C824.304 235.304 824.808 232.712 825.24 229.4C825.72 226.04 826.152 221.816 826.536 216.728C826.968 211.64 827.376 205.52 827.76 198.368V197.216ZM797.52 181.664H803.136V194.12C803.136 197.432 802.992 200.936 802.704 204.632C802.416 208.28 801.792 212.024 800.832 215.864C799.872 219.656 798.408 223.448 796.44 227.24C794.472 231.032 791.832 234.704 788.52 238.256C785.208 241.76 781.032 245.024 775.992 248.048C775.704 247.568 775.32 247.064 774.84 246.536C774.36 246.008 773.856 245.48 773.328 244.952C772.8 244.472 772.296 244.088 771.816 243.8C776.616 240.92 780.576 237.848 783.696 234.584C786.864 231.32 789.36 227.96 791.184 224.504C793.056 221 794.424 217.496 795.288 213.992C796.2 210.488 796.8 207.056 797.088 203.696C797.376 200.336 797.52 197.144 797.52 194.12V181.664ZM860.952 214.064C864.84 222.032 870.912 228.44 879.168 233.288C887.424 238.088 897.456 241.256 909.264 242.792C908.832 243.224 908.4 243.728 907.968 244.304C907.584 244.928 907.176 245.552 906.744 246.176C906.36 246.848 906.048 247.448 905.808 247.976C897.792 246.728 890.568 244.736 884.136 242C877.752 239.264 872.208 235.736 867.504 231.416C862.8 227.048 858.96 221.864 855.984 215.864L860.952 214.064ZM848.856 209.024H895.728V214.28H848.856V209.024ZM845.544 192.536H906.312V197.864H845.544V192.536ZM873.048 181.52H878.664V211.4H873.048V181.52ZM894.072 209.024H895.296L896.304 208.808L900.048 210.968C897.84 216.536 894.888 221.384 891.192 225.512C887.496 229.64 883.272 233.168 878.52 236.096C873.768 238.976 868.608 241.352 863.04 243.224C857.52 245.144 851.784 246.656 845.832 247.76C845.688 247.28 845.424 246.704 845.04 246.032C844.704 245.408 844.32 244.76 843.888 244.088C843.504 243.464 843.144 242.96 842.808 242.576C848.664 241.664 854.256 240.392 859.584 238.76C864.96 237.08 869.904 234.944 874.416 232.352C878.928 229.76 882.864 226.64 886.224 222.992C889.584 219.296 892.2 214.976 894.072 210.032V209.024ZM938.856 200.96H978.384V205.424H938.856V200.96ZM937.2 211.112H980.544V215.72H937.2V211.112ZM947.064 220.616H971.832V224.792H947.064V220.616ZM940.944 191.816L945.192 190.664C945.912 192.056 946.608 193.592 947.28 195.272C947.952 196.952 948.456 198.344 948.792 199.448L944.328 200.96C944.04 199.76 943.56 198.296 942.888 196.568C942.264 194.792 941.616 193.208 940.944 191.816ZM953.832 190.304L958.224 189.584C958.704 191.12 959.136 192.776 959.52 194.552C959.952 196.328 960.264 197.816 960.456 199.016L955.848 200.096C955.704 198.848 955.44 197.288 955.056 195.416C954.672 193.544 954.264 191.84 953.832 190.304ZM974.064 182.024L977.232 186.056C974.784 186.584 972 187.064 968.88 187.496C965.808 187.928 962.568 188.312 959.16 188.648C955.8 188.936 952.392 189.176 948.936 189.368C945.528 189.512 942.216 189.632 939 189.728C938.952 189.104 938.784 188.408 938.496 187.64C938.256 186.824 937.992 186.128 937.704 185.552C940.824 185.456 944.064 185.312 947.424 185.12C950.784 184.88 954.096 184.616 957.36 184.328C960.624 183.992 963.696 183.656 966.576 183.32C969.456 182.936 971.952 182.504 974.064 182.024ZM951.24 223.424C952.968 226.832 955.296 229.88 958.224 232.568C961.152 235.256 964.608 237.512 968.592 239.336C972.624 241.16 977.04 242.504 981.84 243.368C981.264 243.896 980.64 244.616 979.968 245.528C979.344 246.44 978.84 247.256 978.456 247.976C971.064 246.344 964.656 243.584 959.232 239.696C953.808 235.76 949.632 230.792 946.704 224.792L951.24 223.424ZM971.184 188.792L976.368 190.448C975.072 192.656 973.68 194.936 972.192 197.288C970.704 199.64 969.312 201.656 968.016 203.336L963.984 201.824C964.8 200.624 965.664 199.28 966.576 197.792C967.488 196.256 968.352 194.696 969.168 193.112C969.984 191.528 970.656 190.088 971.184 188.792ZM970.536 220.616H971.616L972.552 220.4L975.576 221.768C974.04 226.808 971.808 231.056 968.88 234.512C965.952 237.968 962.52 240.752 958.584 242.864C954.696 245.024 950.424 246.704 945.768 247.904C945.624 247.52 945.36 247.064 944.976 246.536C944.64 246.056 944.28 245.552 943.896 245.024C943.512 244.496 943.128 244.088 942.744 243.8C947.208 242.84 951.288 241.448 954.984 239.624C958.728 237.752 961.92 235.328 964.56 232.352C967.248 229.376 969.24 225.728 970.536 221.408V220.616ZM948.504 203.84H953.688C953.448 206.72 953.112 209.768 952.68 212.984C952.296 216.152 951.696 219.368 950.88 222.632C950.064 225.848 948.96 229.016 947.568 232.136C946.224 235.208 944.496 238.064 942.384 240.704C940.32 243.344 937.752 245.672 934.68 247.688C934.296 247.064 933.744 246.368 933.024 245.6C932.352 244.88 931.68 244.304 931.008 243.872C933.888 242.096 936.312 239.984 938.28 237.536C940.248 235.04 941.856 232.376 943.104 229.544C944.4 226.664 945.384 223.736 946.056 220.76C946.776 217.736 947.304 214.784 947.64 211.904C947.976 209.024 948.264 206.336 948.504 203.84ZM914.376 221.408C917.208 220.64 920.592 219.656 924.528 218.456C928.512 217.208 932.544 215.912 936.624 214.568L937.344 219.608C933.504 220.856 929.664 222.104 925.824 223.352C921.984 224.6 918.504 225.728 915.384 226.736L914.376 221.408ZM915.024 196.064H936.84V201.104H915.024V196.064ZM924.024 181.592H929.064V241.496C929.064 242.936 928.872 244.064 928.488 244.88C928.152 245.696 927.528 246.32 926.616 246.752C925.752 247.184 924.6 247.472 923.16 247.616C921.72 247.76 919.848 247.808 917.544 247.76C917.496 247.136 917.304 246.32 916.968 245.312C916.68 244.352 916.368 243.488 916.032 242.72C917.568 242.768 918.96 242.792 920.208 242.792C921.504 242.84 922.368 242.84 922.8 242.792C923.232 242.792 923.544 242.696 923.736 242.504C923.928 242.36 924.024 242.024 924.024 241.496V181.592Z" fill="white"/>
<rect width="1248" height="117" transform="translate(0 314)" fill="#F46A27"/>
<path d="M94.8 338.088H117.552V343.056H100.128V384.672H94.8V338.088ZM139.512 398.136H177.6V402.384H139.512V398.136ZM153.192 353.064H158.448V361.056H153.192V353.064ZM125.904 358.752H186.672V372.288H181.416V363H131.016V372.288H125.904V358.752ZM139.224 367.464H176.16V381.936H139.224V377.832H170.76V371.64H139.224V367.464ZM139.44 386.904H180.768V404.688H175.368V391.152H139.44V386.904ZM136.344 367.464H141.456V404.832H136.344V367.464ZM131.808 344.064H155.064V348.456H131.808V344.064ZM159.816 344.064H188.904V348.456H159.816V344.064ZM133.176 338.16L138.216 339.528C136.92 342.648 135.264 345.696 133.248 348.672C131.28 351.648 129.264 354.144 127.2 356.16C126.864 355.92 126.408 355.608 125.832 355.224C125.304 354.84 124.752 354.456 124.176 354.072C123.648 353.688 123.168 353.4 122.736 353.208C124.848 351.336 126.84 349.08 128.712 346.44C130.584 343.752 132.072 340.992 133.176 338.16ZM161.472 338.16L166.656 339.456C165.36 342.528 163.656 345.456 161.544 348.24C159.432 351.024 157.224 353.352 154.92 355.224C154.584 354.984 154.128 354.696 153.552 354.36C153.024 353.976 152.448 353.616 151.824 353.28C151.248 352.944 150.72 352.68 150.24 352.488C152.64 350.76 154.824 348.648 156.792 346.152C158.808 343.608 160.368 340.944 161.472 338.16ZM135.768 347.448L140.448 346.224C141.312 347.472 142.152 348.888 142.968 350.472C143.784 352.008 144.384 353.328 144.768 354.432L139.8 355.872C139.512 354.768 138.984 353.424 138.216 351.84C137.448 350.208 136.632 348.744 135.768 347.448ZM166.368 347.52L171.048 346.08C172.2 347.328 173.328 348.744 174.432 350.328C175.584 351.864 176.448 353.232 177.024 354.432L172.128 356.088C171.6 354.888 170.784 353.496 169.68 351.912C168.576 350.28 167.472 348.816 166.368 347.52ZM226.272 360.12V369.408H252.984V360.12H226.272ZM226.272 346.584V355.728H252.984V346.584H226.272ZM221.304 341.832H258.168V374.088H221.304V341.832ZM220.44 382.584H259.176V387.48H220.44V382.584ZM214.896 397.416H261.624V402.384H214.896V397.416ZM195.312 343.344H217.776V348.456H195.312V343.344ZM196.032 364.224H216.696V369.264H196.032V364.224ZM194.52 391.8C196.488 391.224 198.696 390.576 201.144 389.856C203.64 389.088 206.256 388.248 208.992 387.336C211.776 386.376 214.56 385.44 217.344 384.528L218.28 389.784C214.392 391.08 210.48 392.4 206.544 393.744C202.608 395.04 199.056 396.216 195.888 397.272L194.52 391.8ZM204.24 345.36H209.424V390L204.24 391.008V345.36ZM237.288 344.064H241.968V371.784H242.4V399.648H236.856V371.784H237.288V344.064ZM270.192 372H330.528V376.968H270.192V372ZM297.12 361.632H302.664V404.976H297.12V361.632ZM295.536 374.592L300 376.464C297.792 380.064 295.08 383.52 291.864 386.832C288.696 390.096 285.24 393.024 281.496 395.616C277.752 398.16 273.96 400.248 270.12 401.88C269.832 401.4 269.448 400.872 268.968 400.296C268.536 399.768 268.08 399.24 267.6 398.712C267.168 398.136 266.736 397.656 266.304 397.272C270.096 395.88 273.84 394.032 277.536 391.728C281.28 389.376 284.712 386.736 287.832 383.808C290.952 380.88 293.52 377.808 295.536 374.592ZM304.32 374.52C306.336 377.736 308.928 380.808 312.096 383.736C315.264 386.664 318.72 389.304 322.464 391.656C326.208 393.96 329.952 395.808 333.696 397.2C333.264 397.584 332.808 398.064 332.328 398.64C331.848 399.168 331.368 399.72 330.888 400.296C330.456 400.872 330.096 401.424 329.808 401.952C326.016 400.32 322.224 398.184 318.432 395.544C314.688 392.904 311.208 389.952 307.992 386.688C304.824 383.376 302.112 379.92 299.856 376.32L304.32 374.52ZM270.12 353.496H330.456V368.04H325.056V358.536H275.376V368.04H270.12V353.496ZM321.312 339.168L327.144 341.184C325.512 343.584 323.736 346.056 321.816 348.6C319.896 351.096 318.12 353.208 316.488 354.936L312.024 353.136C313.08 351.888 314.184 350.448 315.336 348.816C316.488 347.184 317.592 345.528 318.648 343.848C319.704 342.12 320.592 340.56 321.312 339.168ZM274.08 341.976L278.688 339.744C280.224 341.52 281.712 343.488 283.152 345.648C284.64 347.76 285.672 349.632 286.248 351.264L281.424 353.712C280.992 352.656 280.368 351.456 279.552 350.112C278.784 348.72 277.92 347.304 276.96 345.864C276.048 344.424 275.088 343.128 274.08 341.976ZM293.232 340.248L297.984 338.736C299.184 340.656 300.288 342.768 301.296 345.072C302.352 347.376 303.072 349.368 303.456 351.048L298.344 352.776C298.104 351.672 297.72 350.4 297.192 348.96C296.664 347.52 296.064 346.056 295.392 344.568C294.72 343.032 294 341.592 293.232 340.248ZM344.064 345.864H399.72V350.112H344.064V345.864ZM348.096 354.216H395.832V358.32H348.096V354.216ZM340.032 362.424H403.896V366.672H340.032V362.424ZM356.448 379.992H386.76V383.304H356.448V379.992ZM369.12 347.952H374.664V364.584H369.12V347.952ZM369.264 368.472H374.448V374.88H369.264V368.472ZM353.928 340.032L358.608 338.376C359.664 339.432 360.672 340.656 361.632 342.048C362.592 343.44 363.312 344.664 363.792 345.72L358.824 347.736C358.392 346.632 357.696 345.36 356.736 343.92C355.824 342.48 354.888 341.184 353.928 340.032ZM384.672 338.376L390.432 339.816C389.472 341.256 388.488 342.648 387.48 343.992C386.52 345.288 385.608 346.416 384.744 347.376L380.208 345.936C380.976 344.88 381.792 343.632 382.656 342.192C383.52 340.704 384.192 339.432 384.672 338.376ZM384.312 363.576C385.752 365.64 387.576 367.608 389.784 369.48C392.04 371.304 394.512 372.936 397.2 374.376C399.888 375.768 402.648 376.872 405.48 377.688C404.904 378.168 404.28 378.84 403.608 379.704C402.936 380.52 402.408 381.264 402.024 381.936C399.096 380.928 396.24 379.584 393.456 377.904C390.72 376.176 388.176 374.232 385.824 372.072C383.52 369.912 381.6 367.608 380.064 365.16L384.312 363.576ZM372.72 388.56C374.592 390.768 377.088 392.688 380.208 394.32C383.376 395.904 387 397.2 391.08 398.208C395.208 399.216 399.576 399.912 404.184 400.296C403.656 400.824 403.104 401.52 402.528 402.384C401.952 403.296 401.496 404.112 401.16 404.832C396.408 404.256 391.92 403.32 387.696 402.024C383.52 400.728 379.776 399.072 376.464 397.056C373.2 394.992 370.536 392.544 368.472 389.712L372.72 388.56ZM357.024 372.432H390.504V390.864H357.024V387.192H385.104V376.176H357.024V372.432ZM353.496 372.432H358.824V400.728H353.496V372.432ZM345.216 399.288C347.856 399.096 350.904 398.88 354.36 398.64C357.864 398.4 361.584 398.112 365.52 397.776C369.504 397.44 373.488 397.104 377.472 396.768V401.16C373.68 401.544 369.888 401.904 366.096 402.24C362.304 402.624 358.68 402.96 355.224 403.248C351.768 403.536 348.624 403.824 345.792 404.112L345.216 399.288ZM395.112 389.496L399.144 391.944C397.032 393.288 394.68 394.56 392.088 395.76C389.496 396.96 387.12 397.968 384.96 398.784L381.792 396.624C383.184 396 384.696 395.28 386.328 394.464C387.96 393.6 389.544 392.736 391.08 391.872C392.664 391.008 394.008 390.216 395.112 389.496ZM359.4 363.576L364.44 365.088C362.76 367.632 360.696 370.032 358.248 372.288C355.848 374.496 353.256 376.488 350.472 378.264C347.688 380.04 344.904 381.576 342.12 382.872C341.88 382.536 341.52 382.128 341.04 381.648C340.608 381.12 340.128 380.616 339.6 380.136C339.12 379.608 338.688 379.2 338.304 378.912C341.136 377.808 343.872 376.488 346.512 374.952C349.2 373.368 351.648 371.616 353.856 369.696C356.112 367.776 357.96 365.736 359.4 363.576ZM415.848 395.4H472.512V400.8H415.848V395.4ZM411.816 361.416H476.4V366.744H411.816V361.416ZM440.976 338.736H446.736V399.432H440.976V338.736ZM485.76 370.704H516.576V375.024H485.76V370.704ZM521.688 367.248H546.024V371.856H521.688V367.248ZM525.072 338.808L529.896 339.744C528.792 344.352 527.304 348.744 525.432 352.92C523.608 357.096 521.568 360.624 519.312 363.504C519.024 363.216 518.616 362.904 518.088 362.568C517.608 362.184 517.104 361.8 516.576 361.416C516.096 361.032 515.64 360.72 515.208 360.48C517.56 357.888 519.552 354.672 521.184 350.832C522.864 346.992 524.16 342.984 525.072 338.808ZM485.76 341.256H515.928V345.504H490.728V372.432H485.76V341.256ZM488.352 350.904H514.632V364.944H488.352V361.128H510.024V354.72H488.352V350.904ZM499.368 342.696H503.832V352.992H499.368V342.696ZM499.368 362.28H503.832V372.504H499.368V362.28ZM524.28 349.392H547.824V354.072H522.48L524.28 349.392ZM483.24 397.92H548.832V402.744H483.24V397.92ZM491.304 380.136H540.984V400.512H535.728V384.528H525.792V400.512H520.824V384.528H511.104V400.512H506.064V384.528H496.344V400.512H491.304V380.136ZM602.256 371.208L606.36 372.936C604.92 374.424 603.168 375.84 601.104 377.184C599.088 378.528 596.928 379.728 594.624 380.784C592.32 381.84 590.016 382.752 587.712 383.52C587.376 382.992 586.896 382.44 586.272 381.864C585.696 381.24 585.168 380.712 584.688 380.28C586.848 379.608 589.032 378.816 591.24 377.904C593.448 376.992 595.512 375.96 597.432 374.808C599.352 373.656 600.96 372.456 602.256 371.208ZM609.168 378.192L613.2 379.848C611.376 381.864 609.144 383.712 606.504 385.392C603.912 387.024 601.056 388.488 597.936 389.784C594.864 391.032 591.696 392.112 588.432 393.024C588.144 392.496 587.736 391.896 587.208 391.224C586.68 390.504 586.152 389.904 585.624 389.424C588.696 388.704 591.72 387.816 594.696 386.76C597.672 385.656 600.408 384.384 602.904 382.944C605.448 381.456 607.536 379.872 609.168 378.192ZM615.864 386.04L620.544 388.056C618.192 390.888 615.168 393.384 611.472 395.544C607.776 397.656 603.624 399.432 599.016 400.872C594.456 402.36 589.632 403.56 584.544 404.472C584.256 403.848 583.848 403.104 583.32 402.24C582.792 401.376 582.264 400.656 581.736 400.08C586.584 399.36 591.192 398.376 595.56 397.128C599.928 395.88 603.864 394.344 607.368 392.52C610.92 390.648 613.752 388.488 615.864 386.04ZM592.68 338.448L597.648 339.744C595.92 344.016 593.736 348.096 591.096 351.984C588.456 355.824 585.696 359.064 582.816 361.704C582.528 361.416 582.12 361.08 581.592 360.696C581.112 360.264 580.608 359.856 580.08 359.472C579.552 359.04 579.072 358.728 578.64 358.536C581.568 356.088 584.256 353.112 586.704 349.608C589.2 346.056 591.192 342.336 592.68 338.448ZM591.096 346.368H620.4V350.904H588.36L591.096 346.368ZM610.536 347.376L615.648 348.528C613.68 353.088 611.04 357.048 607.728 360.408C604.464 363.72 600.672 366.528 596.352 368.832C592.08 371.136 587.448 373.08 582.456 374.664C582.264 374.232 581.976 373.752 581.592 373.224C581.208 372.696 580.8 372.168 580.368 371.64C579.936 371.112 579.576 370.68 579.288 370.344C584.136 369.096 588.6 367.464 592.68 365.448C596.808 363.384 600.384 360.864 603.408 357.888C606.48 354.912 608.856 351.408 610.536 347.376ZM590.592 349.176C592.08 352.056 594.24 354.864 597.072 357.6C599.952 360.336 603.528 362.76 607.8 364.872C612.12 366.984 617.088 368.568 622.704 369.624C622.368 369.96 622.008 370.392 621.624 370.92C621.24 371.448 620.88 371.976 620.544 372.504C620.208 373.032 619.92 373.536 619.68 374.016C614.064 372.72 609.12 370.896 604.848 368.544C600.576 366.192 596.976 363.576 594.048 360.696C591.12 357.768 588.84 354.816 587.208 351.84L590.592 349.176ZM574.32 347.088H579.144V392.808H574.32V347.088ZM568.776 338.952L573.744 340.32C572.4 344.496 570.792 348.624 568.92 352.704C567.096 356.784 565.08 360.624 562.872 364.224C560.712 367.824 558.456 371.04 556.104 373.872C555.96 373.44 555.72 372.888 555.384 372.216C555.048 371.496 554.688 370.8 554.304 370.128C553.92 369.408 553.584 368.808 553.296 368.328C555.36 365.928 557.352 363.168 559.272 360.048C561.24 356.88 563.016 353.496 564.6 349.896C566.232 346.296 567.624 342.648 568.776 338.952ZM563.016 356.52L567.984 351.552L568.128 351.696V404.76H563.016V356.52ZM660 364.008C661.44 364.008 662.736 364.344 663.888 365.016C665.04 365.688 665.952 366.6 666.624 367.752C667.296 368.904 667.632 370.2 667.632 371.64C667.632 373.032 667.296 374.328 666.624 375.528C665.952 376.68 665.04 377.592 663.888 378.264C662.736 378.936 661.44 379.272 660 379.272C658.608 379.272 657.312 378.936 656.112 378.264C654.96 377.592 654.048 376.68 653.376 375.528C652.704 374.328 652.368 373.032 652.368 371.64C652.368 370.2 652.704 368.904 653.376 367.752C654.048 366.6 654.96 365.688 656.112 365.016C657.312 364.344 658.608 364.008 660 364.008ZM700.68 345.36H763.248V350.112H700.68V345.36ZM728.832 338.448H734.376V347.664H728.832V338.448ZM703.92 373.512H757.416V378.12H709.176V404.76H703.92V373.512ZM755.184 373.512H760.584V398.28C760.584 399.768 760.368 400.944 759.936 401.808C759.552 402.672 758.784 403.32 757.632 403.752C756.48 404.184 754.896 404.424 752.88 404.472C750.912 404.568 748.416 404.616 745.392 404.616C745.296 403.848 745.08 402.984 744.744 402.024C744.408 401.064 744.048 400.224 743.664 399.504C746.016 399.552 748.104 399.576 749.928 399.576C751.8 399.624 753.024 399.624 753.6 399.576C754.224 399.528 754.632 399.408 754.824 399.216C755.064 399.024 755.184 398.688 755.184 398.208V373.512ZM718.32 382.8H723.072V401.736H718.32V382.8ZM720.84 382.8H745.752V398.064H720.84V394.104H740.928V386.76H720.84V382.8ZM717.816 358.104V365.016H746.04V358.104H717.816ZM712.632 354.144H751.44V369.048H712.632V354.144ZM804.576 342.336C804.48 343.152 804.384 344.136 804.288 345.288C804.24 346.392 804.192 347.376 804.144 348.24C803.952 355.584 803.304 362.016 802.2 367.536C801.096 373.008 799.56 377.808 797.592 381.936C795.672 386.016 793.32 389.592 790.536 392.664C787.8 395.736 784.656 398.496 781.104 400.944L775.848 396.696C777 396.072 778.248 395.28 779.592 394.32C780.936 393.36 782.16 392.376 783.264 391.368C785.52 389.352 787.536 387.024 789.312 384.384C791.136 381.744 792.696 378.72 793.992 375.312C795.336 371.904 796.368 367.992 797.088 363.576C797.856 359.112 798.264 354.024 798.312 348.312C798.312 347.784 798.288 347.16 798.24 346.44C798.192 345.72 798.12 345 798.024 344.28C797.976 343.56 797.904 342.912 797.808 342.336H804.576ZM829.56 357.312C829.464 357.936 829.368 358.56 829.272 359.184C829.224 359.808 829.2 360.36 829.2 360.84C829.152 362.184 829.056 364.032 828.912 366.384C828.816 368.736 828.648 371.304 828.408 374.088C828.216 376.824 827.952 379.584 827.616 382.368C827.328 385.152 826.944 387.72 826.464 390.072C825.984 392.376 825.432 394.224 824.808 395.616C824.088 397.104 823.104 398.208 821.856 398.928C820.656 399.648 819.072 400.008 817.104 400.008C815.28 400.008 813.36 399.936 811.344 399.792C809.328 399.696 807.384 399.6 805.512 399.504L804.792 393.528C806.76 393.768 808.656 393.96 810.48 394.104C812.352 394.248 814.032 394.32 815.52 394.32C816.576 394.32 817.44 394.152 818.112 393.816C818.784 393.48 819.312 392.856 819.696 391.944C820.272 390.84 820.752 389.328 821.136 387.408C821.52 385.488 821.856 383.328 822.144 380.928C822.432 378.528 822.672 376.104 822.864 373.656C823.056 371.208 823.176 368.88 823.224 366.672C823.32 364.464 823.368 362.592 823.368 361.056H785.424C783.984 361.056 782.568 361.08 781.176 361.128C779.784 361.128 778.44 361.2 777.144 361.344V355.224C778.392 355.368 779.736 355.488 781.176 355.584C782.616 355.632 784.008 355.656 785.352 355.656H820.92C821.88 355.656 822.72 355.632 823.44 355.584C824.208 355.488 824.904 355.392 825.528 355.296L829.56 357.312ZM850.512 349.68C851.952 349.728 853.176 349.776 854.184 349.824C855.192 349.824 856.104 349.824 856.92 349.824C857.496 349.824 858.552 349.824 860.088 349.824C861.624 349.824 863.472 349.824 865.632 349.824C867.84 349.824 870.192 349.824 872.688 349.824C875.184 349.824 877.656 349.824 880.104 349.824C882.6 349.824 884.928 349.824 887.088 349.824C889.248 349.824 891.072 349.824 892.56 349.824C894.048 349.824 895.056 349.824 895.584 349.824C896.352 349.824 897.312 349.824 898.464 349.824C899.664 349.776 900.816 349.728 901.92 349.68C901.872 350.544 901.824 351.48 901.776 352.488C901.776 353.448 901.776 354.384 901.776 355.296C901.776 355.776 901.776 356.736 901.776 358.176C901.776 359.568 901.776 361.272 901.776 363.288C901.776 365.304 901.776 367.488 901.776 369.84C901.776 372.144 901.776 374.448 901.776 376.752C901.776 379.056 901.776 381.192 901.776 383.16C901.776 385.128 901.776 386.808 901.776 388.2C901.776 389.544 901.776 390.408 901.776 390.792C901.776 391.32 901.776 392.04 901.776 392.952C901.776 393.864 901.776 394.776 901.776 395.688C901.824 396.6 901.848 397.416 901.848 398.136C901.896 398.808 901.92 399.264 901.92 399.504H895.728C895.728 399.216 895.728 398.64 895.728 397.776C895.776 396.864 895.8 395.856 895.8 394.752C895.848 393.6 895.872 392.52 895.872 391.512C895.872 391.176 895.872 390.264 895.872 388.776C895.872 387.288 895.872 385.464 895.872 383.304C895.872 381.096 895.872 378.744 895.872 376.248C895.872 373.704 895.872 371.232 895.872 368.832C895.872 366.384 895.872 364.152 895.872 362.136C895.872 360.12 895.872 358.512 895.872 357.312C895.872 356.112 895.872 355.512 895.872 355.512H856.488C856.488 355.512 856.488 356.112 856.488 357.312C856.488 358.464 856.488 360.048 856.488 362.064C856.488 364.08 856.488 366.312 856.488 368.76C856.488 371.16 856.488 373.608 856.488 376.104C856.488 378.6 856.488 380.952 856.488 383.16C856.488 385.32 856.488 387.144 856.488 388.632C856.488 390.12 856.488 391.08 856.488 391.512C856.488 392.136 856.488 392.856 856.488 393.672C856.488 394.488 856.488 395.304 856.488 396.12C856.536 396.888 856.56 397.584 856.56 398.208C856.608 398.832 856.632 399.264 856.632 399.504H850.44C850.44 399.264 850.44 398.808 850.44 398.136C850.488 397.416 850.512 396.6 850.512 395.688C850.56 394.776 850.584 393.888 850.584 393.024C850.584 392.112 850.584 391.344 850.584 390.72C850.584 390.336 850.584 389.448 850.584 388.056C850.584 386.664 850.584 384.96 850.584 382.944C850.584 380.928 850.584 378.768 850.584 376.464C850.584 374.112 850.584 371.784 850.584 369.48C850.584 367.128 850.584 364.968 850.584 363C850.584 360.984 850.584 359.304 850.584 357.96C850.584 356.568 850.584 355.68 850.584 355.296C850.584 354.432 850.584 353.496 850.584 352.488C850.584 351.48 850.56 350.544 850.512 349.68ZM898.176 389.712V395.328H853.68V389.712H898.176ZM967.872 344.352C967.824 345.264 967.776 346.248 967.728 347.304C967.68 348.312 967.656 349.416 967.656 350.616C967.656 351.576 967.656 352.8 967.656 354.288C967.656 355.776 967.656 357.264 967.656 358.752C967.656 360.192 967.656 361.368 967.656 362.28C967.656 366.6 967.488 370.272 967.152 373.296C966.864 376.32 966.408 378.912 965.784 381.072C965.208 383.184 964.44 385.056 963.48 386.688C962.52 388.32 961.392 389.904 960.096 391.44C958.56 393.264 956.784 394.872 954.768 396.264C952.8 397.608 950.784 398.736 948.72 399.648C946.656 400.608 944.736 401.376 942.96 401.952L938.28 396.984C941.592 396.168 944.712 395.016 947.64 393.528C950.616 391.992 953.232 389.952 955.488 387.408C956.784 385.92 957.816 384.408 958.584 382.872C959.4 381.288 960 379.536 960.384 377.616C960.816 375.696 961.104 373.464 961.248 370.92C961.392 368.376 961.464 365.4 961.464 361.992C961.464 361.032 961.464 359.832 961.464 358.392C961.464 356.952 961.464 355.512 961.464 354.072C961.464 352.584 961.464 351.432 961.464 350.616C961.464 349.416 961.416 348.312 961.32 347.304C961.272 346.248 961.2 345.264 961.104 344.352H967.872ZM934.464 344.928C934.416 345.6 934.344 346.416 934.248 347.376C934.2 348.336 934.176 349.248 934.176 350.112C934.176 350.448 934.176 351.216 934.176 352.416C934.176 353.568 934.176 354.96 934.176 356.592C934.176 358.224 934.176 359.952 934.176 361.776C934.176 363.6 934.176 365.376 934.176 367.104C934.176 368.784 934.176 370.248 934.176 371.496C934.176 372.744 934.176 373.632 934.176 374.16C934.176 375.072 934.2 376.056 934.248 377.112C934.344 378.12 934.416 378.96 934.464 379.632H927.84C927.936 379.056 928.008 378.264 928.056 377.256C928.152 376.2 928.2 375.144 928.2 374.088C928.2 373.608 928.2 372.744 928.2 371.496C928.2 370.2 928.2 368.712 928.2 367.032C928.2 365.352 928.2 363.6 928.2 361.776C928.2 359.952 928.2 358.224 928.2 356.592C928.2 354.96 928.2 353.568 928.2 352.416C928.2 351.216 928.2 350.448 928.2 350.112C928.2 349.488 928.176 348.648 928.128 347.592C928.08 346.488 928.008 345.6 927.912 344.928H934.464ZM991.344 367.824C992.064 367.872 992.952 367.944 994.008 368.04C995.064 368.088 996.216 368.136 997.464 368.184C998.76 368.184 1000.06 368.184 1001.35 368.184C1002.12 368.184 1003.3 368.184 1004.88 368.184C1006.51 368.184 1008.41 368.184 1010.57 368.184C1012.73 368.184 1015.01 368.184 1017.41 368.184C1019.86 368.184 1022.28 368.184 1024.68 368.184C1027.13 368.184 1029.43 368.184 1031.59 368.184C1033.8 368.184 1035.7 368.184 1037.28 368.184C1038.86 368.184 1040.04 368.184 1040.81 368.184C1042.63 368.184 1044.19 368.136 1045.49 368.04C1046.78 367.944 1047.82 367.872 1048.58 367.824V374.88C1047.86 374.832 1046.78 374.76 1045.34 374.664C1043.95 374.568 1042.46 374.52 1040.88 374.52C1040.11 374.52 1038.91 374.52 1037.28 374.52C1035.65 374.52 1033.75 374.52 1031.59 374.52C1029.48 374.52 1027.2 374.52 1024.75 374.52C1022.3 374.52 1019.86 374.52 1017.41 374.52C1015.01 374.52 1012.73 374.52 1010.57 374.52C1008.46 374.52 1006.58 374.52 1004.95 374.52C1003.32 374.52 1002.12 374.52 1001.35 374.52C999.384 374.52 997.512 374.568 995.736 374.664C993.96 374.712 992.496 374.784 991.344 374.88V367.824ZM1091.78 340.824H1096.9V349.608C1096.9 351.624 1096.66 353.784 1096.18 356.088C1095.7 358.392 1094.81 360.624 1093.51 362.784C1092.22 364.944 1090.27 366.888 1087.68 368.616C1087.44 368.232 1087.06 367.824 1086.53 367.392C1086.05 366.912 1085.54 366.456 1085.02 366.024C1084.54 365.544 1084.1 365.208 1083.72 365.016C1086.02 363.48 1087.75 361.848 1088.9 360.12C1090.06 358.344 1090.82 356.544 1091.21 354.72C1091.59 352.896 1091.78 351.144 1091.78 349.464V340.824ZM1109.28 340.824H1114.46V358.464C1114.46 359.28 1114.54 359.808 1114.68 360.048C1114.87 360.24 1115.26 360.336 1115.83 360.336C1116.02 360.336 1116.36 360.336 1116.84 360.336C1117.32 360.336 1117.82 360.336 1118.35 360.336C1118.88 360.336 1119.26 360.336 1119.5 360.336C1119.89 360.336 1120.18 360.168 1120.37 359.832C1120.61 359.496 1120.78 358.776 1120.87 357.672C1121.02 356.52 1121.09 354.792 1121.09 352.488C1121.62 352.92 1122.34 353.304 1123.25 353.64C1124.16 353.976 1124.98 354.24 1125.7 354.432C1125.55 357.264 1125.26 359.448 1124.83 360.984C1124.45 362.52 1123.87 363.6 1123.1 364.224C1122.38 364.8 1121.38 365.088 1120.08 365.088C1119.74 365.088 1119.24 365.088 1118.57 365.088C1117.9 365.088 1117.2 365.088 1116.48 365.088C1115.81 365.088 1115.33 365.088 1115.04 365.088C1113.55 365.088 1112.38 364.896 1111.51 364.512C1110.7 364.128 1110.12 363.48 1109.78 362.568C1109.45 361.608 1109.28 360.264 1109.28 358.536V340.824ZM1095.67 374.736C1098.12 380.976 1101.94 386.304 1107.12 390.72C1112.35 395.136 1118.59 398.256 1125.84 400.08C1125.46 400.416 1125.02 400.872 1124.54 401.448C1124.11 402.024 1123.68 402.6 1123.25 403.176C1122.86 403.752 1122.53 404.256 1122.24 404.688C1114.8 402.528 1108.42 399.024 1103.09 394.176C1097.81 389.28 1093.73 383.328 1090.85 376.32L1095.67 374.736ZM1115.83 369.696H1116.84L1117.78 369.48L1121.3 370.848C1120.06 375.6 1118.28 379.824 1115.98 383.52C1113.72 387.168 1111.08 390.384 1108.06 393.168C1105.03 395.952 1101.72 398.28 1098.12 400.152C1094.57 402.072 1090.8 403.608 1086.82 404.76C1086.67 404.28 1086.43 403.728 1086.1 403.104C1085.76 402.528 1085.4 401.952 1085.02 401.376C1084.63 400.8 1084.25 400.344 1083.86 400.008C1087.51 399.048 1091.02 397.728 1094.38 396.048C1097.74 394.368 1100.83 392.328 1103.66 389.928C1106.54 387.48 1109.02 384.648 1111.08 381.432C1113.14 378.216 1114.73 374.616 1115.83 370.632V369.696ZM1087.1 369.696H1117.92V374.664H1087.1V369.696ZM1093.94 340.824H1111.94V345.648H1093.94V340.824ZM1062.19 360.336H1083.65V364.584H1062.19V360.336ZM1062.48 341.04H1083.5V345.36H1062.48V341.04ZM1062.19 369.912H1083.65V374.232H1062.19V369.912ZM1058.74 350.472H1086.17V355.008H1058.74V350.472ZM1064.71 379.632H1083.58V400.656H1064.71V396.192H1078.82V384.168H1064.71V379.632ZM1062.05 379.632H1066.8V403.968H1062.05V379.632ZM1159.32 363.144H1197.91V368.472H1159.32V363.144ZM1176.24 338.736H1181.64V404.76H1176.24V338.736ZM1134.19 360.336H1156.66V364.584H1134.19V360.336ZM1134.55 341.04H1156.73V345.36H1134.55V341.04ZM1134.19 369.912H1156.66V374.232H1134.19V369.912ZM1130.74 350.472H1159.39V355.008H1130.74V350.472ZM1136.71 379.632H1156.44V400.656H1136.71V396.192H1151.62V384.168H1136.71V379.632ZM1134.05 379.632H1138.87V403.968H1134.05V379.632Z" fill="white"/>
</svg>
