<svg width="749" height="263" viewBox="0 0 749 263" fill="none" xmlns="http://www.w3.org/2000/svg">
<rect width="635" height="77" fill="#F36A27"/>
<path d="M41.05 10.778H59.062V14.711H45.268V47.657H41.05V10.778ZM64.477 26.282H114.808V30.614H64.477V26.282ZM82.888 50.735L86.479 48.227C87.847 49.291 89.253 50.488 90.697 51.818C92.179 53.11 93.566 54.421 94.858 55.751C96.15 57.043 97.195 58.202 97.993 59.228L94.174 62.249C93.414 61.185 92.407 59.988 91.153 58.658C89.899 57.29 88.55 55.922 87.106 54.554C85.662 53.148 84.256 51.875 82.888 50.735ZM92.806 28.277C94.06 33.065 95.751 37.53 97.879 41.672C100.007 45.776 102.591 49.386 105.631 52.502C108.709 55.58 112.262 57.993 116.29 59.741C115.948 60.045 115.568 60.425 115.15 60.881C114.732 61.337 114.333 61.812 113.953 62.306C113.611 62.8 113.326 63.256 113.098 63.674C108.918 61.66 105.251 58.981 102.097 55.637C98.981 52.255 96.321 48.341 94.117 43.895C91.913 39.449 90.108 34.566 88.702 29.246L92.806 28.277ZM86.764 11.177H91.381C91.381 13.761 91.305 16.592 91.153 19.67C91.039 22.71 90.754 25.864 90.298 29.132C89.842 32.4 89.101 35.687 88.075 38.993C87.049 42.261 85.624 45.415 83.8 48.455C81.976 51.457 79.639 54.25 76.789 56.834C73.939 59.418 70.443 61.66 66.301 63.56C65.959 62.99 65.484 62.363 64.876 61.679C64.268 61.033 63.66 60.482 63.052 60.026C67.08 58.316 70.462 56.245 73.198 53.813C75.972 51.381 78.214 48.759 79.924 45.947C81.634 43.097 82.964 40.133 83.914 37.055C84.864 33.977 85.529 30.918 85.909 27.878C86.327 24.8 86.574 21.836 86.65 18.986C86.726 16.136 86.764 13.533 86.764 11.177ZM131.566 16.991C132.212 17.067 132.896 17.124 133.618 17.162C134.378 17.2 135.043 17.219 135.613 17.219C136.183 17.219 137.114 17.2 138.406 17.162C139.736 17.124 141.218 17.086 142.852 17.048C144.524 16.972 146.177 16.915 147.811 16.877C149.483 16.801 150.965 16.725 152.257 16.649C153.587 16.573 154.556 16.516 155.164 16.478C156 16.402 156.646 16.326 157.102 16.25C157.558 16.174 157.938 16.098 158.242 16.022L160.864 19.328C160.37 19.67 159.838 20.031 159.268 20.411C158.736 20.791 158.204 21.209 157.672 21.665C156.95 22.197 155.981 22.976 154.765 24.002C153.549 24.99 152.2 26.111 150.718 27.365C149.274 28.581 147.849 29.778 146.443 30.956C145.037 32.134 143.764 33.198 142.624 34.148C143.954 33.692 145.284 33.388 146.614 33.236C147.982 33.046 149.293 32.951 150.547 32.951C153.701 32.951 156.494 33.54 158.926 34.718C161.396 35.858 163.315 37.435 164.683 39.449C166.089 41.463 166.792 43.762 166.792 46.346C166.792 49.386 165.994 52.046 164.398 54.326C162.802 56.606 160.541 58.354 157.615 59.57C154.689 60.824 151.212 61.451 147.184 61.451C144.6 61.451 142.377 61.109 140.515 60.425C138.653 59.741 137.209 58.791 136.183 57.575C135.195 56.359 134.701 54.953 134.701 53.357C134.701 52.065 135.062 50.849 135.784 49.709C136.506 48.569 137.532 47.657 138.862 46.973C140.192 46.289 141.731 45.947 143.479 45.947C146.025 45.947 148.134 46.479 149.806 47.543C151.478 48.569 152.77 49.937 153.682 51.647C154.594 53.319 155.107 55.124 155.221 57.062L151.117 57.746C150.965 55.314 150.205 53.319 148.837 51.761C147.507 50.165 145.702 49.367 143.422 49.367C142.13 49.367 141.047 49.728 140.173 50.45C139.299 51.172 138.862 52.027 138.862 53.015C138.862 54.383 139.565 55.466 140.971 56.264C142.377 57.062 144.201 57.461 146.443 57.461C149.673 57.461 152.466 57.024 154.822 56.15C157.216 55.276 159.04 54.003 160.294 52.331C161.586 50.659 162.232 48.645 162.232 46.289C162.232 44.427 161.681 42.755 160.579 41.273C159.477 39.791 157.957 38.632 156.019 37.796C154.119 36.922 151.934 36.485 149.464 36.485C147.07 36.485 144.923 36.751 143.023 37.283C141.123 37.777 139.337 38.499 137.665 39.449C136.031 40.399 134.397 41.596 132.763 43.04C131.167 44.446 129.457 46.061 127.633 47.885L124.384 44.522C125.562 43.572 126.854 42.508 128.26 41.33C129.704 40.114 131.148 38.917 132.592 37.739C134.036 36.523 135.366 35.402 136.582 34.376C137.836 33.312 138.881 32.438 139.717 31.754C140.515 31.108 141.503 30.291 142.681 29.303C143.897 28.277 145.151 27.213 146.443 26.111C147.735 25.009 148.951 23.964 150.091 22.976C151.269 21.988 152.219 21.19 152.941 20.582C152.333 20.582 151.44 20.62 150.262 20.696C149.084 20.734 147.773 20.791 146.329 20.867C144.885 20.905 143.441 20.962 141.997 21.038C140.591 21.114 139.299 21.19 138.121 21.266C136.981 21.304 136.107 21.342 135.499 21.38C134.891 21.418 134.264 21.456 133.618 21.494C132.972 21.532 132.345 21.608 131.737 21.722L131.566 16.991ZM194.95 63.902H176.938V59.969H190.732V27.023H194.95V63.902ZM257.251 14.141C257.061 14.787 256.871 15.566 256.681 16.478C256.491 17.39 256.339 18.131 256.225 18.701C255.959 20.069 255.636 21.665 255.256 23.489C254.914 25.275 254.515 27.156 254.059 29.132C253.641 31.108 253.166 33.046 252.634 34.946C252.14 36.96 251.532 39.164 250.81 41.558C250.088 43.914 249.328 46.289 248.53 48.683C247.732 51.077 246.915 53.338 246.079 55.466C245.243 57.594 244.464 59.456 243.742 61.052L238.726 59.342C239.6 57.86 240.474 56.093 241.348 54.041C242.26 51.951 243.134 49.728 243.97 47.372C244.844 45.016 245.642 42.679 246.364 40.361C247.124 38.005 247.77 35.839 248.302 33.863C248.682 32.533 249.043 31.127 249.385 29.645C249.727 28.163 250.05 26.719 250.354 25.313C250.658 23.869 250.905 22.558 251.095 21.38C251.323 20.164 251.494 19.176 251.608 18.416C251.722 17.618 251.798 16.782 251.836 15.908C251.874 15.034 251.855 14.293 251.779 13.685L257.251 14.141ZM244.597 23.66C246.725 23.66 249.005 23.565 251.437 23.375C253.907 23.147 256.415 22.824 258.961 22.406C261.507 21.988 263.958 21.475 266.314 20.867V25.37C263.958 25.902 261.488 26.358 258.904 26.738C256.32 27.118 253.774 27.422 251.266 27.65C248.796 27.84 246.554 27.935 244.54 27.935C243.286 27.935 242.127 27.916 241.063 27.878C239.999 27.802 238.954 27.745 237.928 27.707L237.757 23.261C239.125 23.413 240.341 23.527 241.405 23.603C242.507 23.641 243.571 23.66 244.597 23.66ZM262.609 31.526C264.129 31.374 265.782 31.26 267.568 31.184C269.392 31.07 271.216 31.013 273.04 31.013C274.712 31.013 276.384 31.051 278.056 31.127C279.766 31.203 281.381 31.336 282.901 31.526L282.787 35.858C281.343 35.668 279.804 35.516 278.17 35.402C276.536 35.25 274.883 35.174 273.211 35.174C271.425 35.174 269.639 35.231 267.853 35.345C266.105 35.421 264.357 35.554 262.609 35.744V31.526ZM263.806 45.377C263.578 46.289 263.388 47.182 263.236 48.056C263.084 48.93 263.008 49.747 263.008 50.507C263.008 51.191 263.122 51.856 263.35 52.502C263.616 53.11 264.091 53.661 264.775 54.155C265.459 54.649 266.428 55.048 267.682 55.352C268.974 55.656 270.627 55.808 272.641 55.808C274.503 55.808 276.384 55.713 278.284 55.523C280.184 55.333 282.008 55.048 283.756 54.668L283.585 59.285C282.065 59.513 280.374 59.703 278.512 59.855C276.65 60.007 274.674 60.083 272.584 60.083C268.1 60.083 264.661 59.399 262.267 58.031C259.873 56.625 258.676 54.516 258.676 51.704C258.676 50.602 258.752 49.5 258.904 48.398C259.094 47.296 259.303 46.156 259.531 44.978L263.806 45.377ZM327.133 14.882C327.019 15.338 326.905 15.851 326.791 16.421C326.677 16.953 326.563 17.485 326.449 18.017C326.373 18.549 326.278 18.986 326.164 19.328C325.632 21.722 324.986 24.192 324.226 26.738C323.504 29.284 322.687 31.811 321.775 34.319C320.863 36.827 319.875 39.164 318.811 41.33C317.785 43.496 316.702 45.377 315.562 46.973C314.118 48.949 312.655 50.735 311.173 52.331C309.729 53.889 308.247 55.105 306.727 55.979C305.207 56.853 303.573 57.29 301.825 57.29C300.419 57.29 299.108 56.891 297.892 56.093C296.676 55.295 295.707 54.136 294.985 52.616C294.263 51.096 293.902 49.234 293.902 47.03C293.902 44.636 294.339 42.242 295.213 39.848C296.125 37.454 297.36 35.25 298.918 33.236C300.514 31.222 302.3 29.55 304.276 28.22C307.088 26.282 309.919 24.914 312.769 24.116C315.619 23.318 318.488 22.919 321.376 22.919C325.1 22.919 328.406 23.698 331.294 25.256C334.22 26.814 336.5 28.999 338.134 31.811C339.806 34.585 340.642 37.834 340.642 41.558C340.642 45.32 339.787 48.607 338.077 51.419C336.405 54.193 334.03 56.435 330.952 58.145C327.912 59.817 324.359 60.938 320.293 61.508L317.614 57.461C320.616 57.195 323.257 56.625 325.537 55.751C327.855 54.877 329.793 53.737 331.351 52.331C332.909 50.925 334.087 49.291 334.885 47.429C335.721 45.567 336.139 43.553 336.139 41.387C336.139 38.575 335.512 36.086 334.258 33.92C333.004 31.716 331.218 29.987 328.9 28.733C326.62 27.479 323.96 26.852 320.92 26.852C318.146 26.852 315.505 27.308 312.997 28.22C310.527 29.094 308.171 30.348 305.929 31.982C304.333 33.122 302.946 34.528 301.768 36.2C300.59 37.872 299.659 39.62 298.975 41.444C298.329 43.23 298.006 44.978 298.006 46.688C298.006 48.588 298.386 50.089 299.146 51.191C299.944 52.255 300.989 52.787 302.281 52.787C303.193 52.787 304.124 52.521 305.074 51.989C306.024 51.419 306.955 50.678 307.867 49.766C308.779 48.854 309.653 47.847 310.489 46.745C311.363 45.605 312.142 44.465 312.826 43.325C313.776 41.843 314.707 40.133 315.619 38.195C316.531 36.257 317.386 34.186 318.184 31.982C319.02 29.74 319.742 27.498 320.35 25.256C320.996 22.976 321.509 20.81 321.889 18.758C322.003 18.188 322.079 17.485 322.117 16.649C322.193 15.813 322.231 15.072 322.231 14.426L327.133 14.882ZM303.82 17.447C303.972 18.245 304.143 19.1 304.333 20.012C304.561 20.886 304.77 21.722 304.96 22.52C305.34 23.888 305.815 25.427 306.385 27.137C306.955 28.847 307.544 30.557 308.152 32.267C308.798 33.977 309.463 35.592 310.147 37.112C310.831 38.594 311.477 39.829 312.085 40.817C313.073 42.489 314.194 44.199 315.448 45.947C316.702 47.695 318.013 49.215 319.381 50.507L315.79 53.471C314.65 52.179 313.548 50.811 312.484 49.367C311.42 47.923 310.356 46.27 309.292 44.408C308.57 43.306 307.848 41.976 307.126 40.418C306.404 38.822 305.663 37.112 304.903 35.288C304.181 33.464 303.478 31.602 302.794 29.702C302.11 27.764 301.502 25.902 300.97 24.116C300.704 23.204 300.4 22.311 300.058 21.437C299.754 20.525 299.431 19.708 299.089 18.986L303.82 17.447ZM378.148 20.069C377.768 23.033 377.274 26.13 376.666 29.36C376.096 32.59 375.355 35.725 374.443 38.765C373.303 42.679 372.03 45.947 370.624 48.569C369.256 51.191 367.774 53.167 366.178 54.497C364.582 55.827 362.91 56.492 361.162 56.492C359.49 56.492 357.875 55.884 356.317 54.668C354.759 53.452 353.486 51.704 352.498 49.424C351.51 47.106 351.016 44.389 351.016 41.273C351.016 38.157 351.643 35.212 352.897 32.438C354.189 29.664 355.956 27.213 358.198 25.085C360.478 22.919 363.138 21.209 366.178 19.955C369.218 18.701 372.467 18.074 375.925 18.074C379.269 18.074 382.271 18.625 384.931 19.727C387.629 20.829 389.928 22.349 391.828 24.287C393.728 26.187 395.191 28.41 396.217 30.956C397.243 33.464 397.756 36.162 397.756 39.05C397.756 43.04 396.901 46.555 395.191 49.595C393.519 52.635 391.087 55.105 387.895 57.005C384.741 58.905 380.903 60.159 376.381 60.767L373.702 56.549C374.614 56.435 375.488 56.321 376.324 56.207C377.16 56.093 377.92 55.96 378.604 55.808C380.428 55.39 382.195 54.744 383.905 53.87C385.653 52.958 387.211 51.818 388.579 50.45C389.947 49.044 391.03 47.391 391.828 45.491C392.664 43.553 393.082 41.349 393.082 38.879C393.082 36.561 392.702 34.414 391.942 32.438C391.182 30.424 390.061 28.657 388.579 27.137C387.097 25.617 385.292 24.42 383.164 23.546C381.036 22.672 378.604 22.235 375.868 22.235C372.752 22.235 369.921 22.805 367.375 23.945C364.867 25.085 362.72 26.586 360.934 28.448C359.186 30.272 357.837 32.286 356.887 34.49C355.937 36.656 355.462 38.784 355.462 40.874C355.462 43.268 355.766 45.244 356.374 46.802C357.02 48.322 357.78 49.443 358.654 50.165C359.566 50.887 360.459 51.248 361.333 51.248C362.245 51.248 363.176 50.811 364.126 49.937C365.076 49.025 366.045 47.581 367.033 45.605C368.021 43.591 368.99 40.988 369.94 37.796C370.776 35.06 371.479 32.153 372.049 29.075C372.657 25.997 373.094 22.976 373.36 20.012L378.148 20.069ZM427.339 28.22H447.46V32.21H427.339V28.22ZM421.81 38.423H451.108V42.47H421.81V38.423ZM432.469 40.646H436.744V63.503H432.469V40.646ZM437.257 15.623C436.003 17.751 434.388 19.974 432.412 22.292C430.474 24.61 428.308 26.833 425.914 28.961C423.558 31.089 421.05 32.989 418.39 34.661C418.124 34.129 417.744 33.521 417.25 32.837C416.794 32.115 416.357 31.526 415.939 31.07C417.915 29.892 419.853 28.543 421.753 27.023C423.653 25.465 425.439 23.812 427.111 22.064C428.783 20.278 430.284 18.492 431.614 16.706C432.944 14.882 434.046 13.115 434.92 11.405H439.138C440.734 13.799 442.596 16.155 444.724 18.473C446.852 20.753 449.113 22.862 451.507 24.8C453.901 26.7 456.257 28.277 458.575 29.531C458.119 30.025 457.644 30.633 457.15 31.355C456.656 32.039 456.219 32.704 455.839 33.35C453.559 31.944 451.241 30.253 448.885 28.277C446.567 26.301 444.382 24.23 442.33 22.064C440.316 19.86 438.625 17.713 437.257 15.623ZM449.17 38.423H453.388V53.129C453.388 54.231 453.255 55.124 452.989 55.808C452.723 56.454 452.153 56.967 451.279 57.347C450.443 57.689 449.322 57.898 447.916 57.974C446.51 58.012 444.781 58.031 442.729 58.031C442.691 57.385 442.539 56.682 442.273 55.922C442.045 55.162 441.76 54.478 441.418 53.87C443.052 53.908 444.477 53.946 445.693 53.984C446.909 53.984 447.726 53.965 448.144 53.927C448.562 53.889 448.828 53.813 448.942 53.699C449.094 53.585 449.17 53.357 449.17 53.015V38.423ZM405.907 17.39L408.814 14.369C410.03 15.205 411.265 16.136 412.519 17.162C413.811 18.15 415.008 19.157 416.11 20.183C417.25 21.209 418.162 22.14 418.846 22.976L415.711 26.396C415.103 25.522 414.248 24.553 413.146 23.489C412.044 22.425 410.866 21.361 409.612 20.297C408.358 19.195 407.123 18.226 405.907 17.39ZM404.995 55.979C406.097 54.573 407.313 52.901 408.643 50.963C409.973 49.025 411.322 46.973 412.69 44.807C414.058 42.603 415.331 40.475 416.509 38.423L419.701 41.273C418.637 43.211 417.478 45.225 416.224 47.315C414.97 49.367 413.697 51.4 412.405 53.414C411.151 55.39 409.935 57.252 408.757 59L404.995 55.979ZM476.131 16.706H513.865V20.525H476.131V16.706ZM492.889 11.12H497.05V63.503H492.889V11.12ZM498.532 43.382C499.71 45.396 501.192 47.372 502.978 49.31C504.802 51.248 506.759 53.015 508.849 54.611C510.977 56.169 513.067 57.461 515.119 58.487C514.815 58.715 514.454 59.038 514.036 59.456C513.656 59.874 513.295 60.292 512.953 60.71C512.611 61.166 512.326 61.565 512.098 61.907C510.008 60.729 507.918 59.228 505.828 57.404C503.738 55.58 501.781 53.566 499.957 51.362C498.133 49.12 496.594 46.859 495.34 44.579L498.532 43.382ZM490.894 43.382L494.428 44.693C493.06 47.125 491.35 49.462 489.298 51.704C487.246 53.908 485.023 55.903 482.629 57.689C480.273 59.475 477.879 60.938 475.447 62.078C475.257 61.736 474.991 61.356 474.649 60.938C474.307 60.52 473.946 60.102 473.566 59.684C473.224 59.266 472.901 58.924 472.597 58.658C474.953 57.708 477.29 56.454 479.608 54.896C481.926 53.3 484.073 51.514 486.049 49.538C488.025 47.524 489.64 45.472 490.894 43.382ZM482.971 36.941V42.014H507.253V36.941H482.971ZM482.971 28.676V33.749H507.253V28.676H482.971ZM479.095 25.37H511.357V45.377H479.095V25.37ZM462.793 17.675L465.7 14.939C466.802 15.775 467.942 16.725 469.12 17.789C470.298 18.815 471.381 19.86 472.369 20.924C473.395 21.95 474.193 22.9 474.763 23.774L471.685 26.852C471.115 25.978 470.336 25.009 469.348 23.945C468.398 22.843 467.334 21.741 466.156 20.639C465.016 19.537 463.895 18.549 462.793 17.675ZM462.166 54.326C463.116 52.92 464.18 51.248 465.358 49.31C466.536 47.334 467.714 45.263 468.892 43.097C470.108 40.893 471.21 38.746 472.198 36.656L475.447 39.392C474.497 41.33 473.471 43.344 472.369 45.434C471.305 47.524 470.203 49.576 469.063 51.59C467.961 53.604 466.897 55.466 465.871 57.176L462.166 54.326ZM533.53 30.044H537.805V37.796C537.805 39.962 537.653 42.185 537.349 44.465C537.045 46.745 536.399 49.025 535.411 51.305C534.461 53.585 532.979 55.789 530.965 57.917C528.989 60.007 526.329 61.945 522.985 63.731C522.795 63.389 522.51 63.028 522.13 62.648C521.75 62.268 521.351 61.888 520.933 61.508C520.553 61.128 520.192 60.824 519.85 60.596C522.966 58.962 525.436 57.214 527.26 55.352C529.122 53.452 530.49 51.495 531.364 49.481C532.276 47.467 532.865 45.472 533.131 43.496C533.397 41.482 533.53 39.544 533.53 37.682V30.044ZM553.537 29.474H557.926V63.617H553.537V29.474ZM519.964 38.138H571.093V42.185H519.964V38.138ZM521.56 24.401C524.106 24.401 527.032 24.382 530.338 24.344C533.644 24.268 537.178 24.192 540.94 24.116C544.702 24.002 548.597 23.907 552.625 23.831C556.653 23.717 560.662 23.603 564.652 23.489L564.481 27.194C559.389 27.422 554.259 27.65 549.091 27.878C543.923 28.068 539.021 28.239 534.385 28.391C529.749 28.543 525.645 28.676 522.073 28.79L521.56 24.401ZM537.919 10.835L542.65 11.975C541.738 13.723 540.712 15.528 539.572 17.39C538.47 19.252 537.368 21.057 536.266 22.805C535.164 24.515 534.1 26.016 533.074 27.308L529.426 26.111C530.414 24.781 531.44 23.223 532.504 21.437C533.568 19.651 534.575 17.827 535.525 15.965C536.475 14.103 537.273 12.393 537.919 10.835ZM550.63 16.991L553.993 14.654C556.045 16.098 558.173 17.694 560.377 19.442C562.581 21.152 564.633 22.881 566.533 24.629C568.471 26.377 570.029 27.973 571.207 29.417L567.559 32.039C566.457 30.595 564.975 28.999 563.113 27.251C561.251 25.465 559.218 23.679 557.014 21.893C554.848 20.069 552.72 18.435 550.63 16.991ZM600.106 11.12H604.78V33.578H600.106V11.12ZM580.897 15.167L584.773 13.628C585.837 14.958 586.863 16.402 587.851 17.96C588.839 19.48 589.732 21 590.53 22.52C591.328 24.002 591.936 25.351 592.354 26.567L588.25 28.448C587.832 27.194 587.243 25.807 586.483 24.287C585.723 22.729 584.849 21.152 583.861 19.556C582.911 17.96 581.923 16.497 580.897 15.167ZM619.657 13.115L624.274 14.654C623.438 16.288 622.545 17.96 621.595 19.67C620.683 21.342 619.752 22.976 618.802 24.572C617.852 26.168 616.94 27.574 616.066 28.79L612.361 27.365C613.197 26.073 614.071 24.61 614.983 22.976C615.895 21.304 616.769 19.613 617.605 17.903C618.441 16.155 619.125 14.559 619.657 13.115ZM581.695 31.298H623.533V63.617H619.03V35.573H581.695V31.298ZM583.576 43.838H620.74V47.942H583.576V43.838ZM580.555 56.834H621.31V61.109H580.555V56.834Z" fill="white"/>
<rect width="513" height="77" transform="translate(0 93)" fill="#F36A27"/>
<path d="M55.8651 110.545V152H50.8452V115.808H50.6023L40.4815 122.528V117.428L50.8452 110.545H55.8651ZM91.7681 107.882C90.1721 109.896 88.1201 111.967 85.6121 114.095C83.1041 116.185 80.3301 118.199 77.2901 120.137C74.2881 122.075 71.1911 123.766 67.9991 125.21C67.8471 124.906 67.6191 124.545 67.3151 124.127C67.0491 123.671 66.7641 123.253 66.4601 122.873C66.1561 122.455 65.8521 122.094 65.5481 121.79C68.7781 120.384 71.9131 118.712 74.9531 116.774C78.0311 114.798 80.8241 112.708 83.3321 110.504C85.8401 108.3 87.8541 106.153 89.3741 104.063H93.6491C95.2071 105.849 96.9741 107.597 98.9501 109.307C100.926 110.979 102.997 112.556 105.163 114.038C107.367 115.52 109.609 116.869 111.889 118.085C114.207 119.263 116.468 120.27 118.672 121.106C118.216 121.638 117.741 122.265 117.247 122.987C116.753 123.671 116.335 124.317 115.993 124.925C113.143 123.633 110.198 122.075 107.158 120.251C104.118 118.389 101.249 116.394 98.5511 114.266C95.8911 112.138 93.6301 110.01 91.7681 107.882ZM78.2591 128.117H105.562V131.423H78.2591V128.117ZM89.6591 114.095H94.0481V121.847H89.6591V114.095ZM69.2531 152.057C71.3811 151.867 73.8131 151.658 76.5491 151.43C79.3231 151.202 82.2491 150.936 85.3271 150.632C88.4431 150.328 91.5781 150.024 94.7321 149.72V153.596C91.7681 153.9 88.7851 154.204 85.7831 154.508C82.8191 154.812 79.9691 155.097 77.2331 155.363C74.5351 155.629 72.0841 155.876 69.8801 156.104L69.2531 152.057ZM92.2811 138.32C94.4091 142.31 97.6771 145.521 102.085 147.953C106.531 150.347 111.794 151.981 117.874 152.855C117.57 153.121 117.247 153.463 116.905 153.881C116.563 154.337 116.24 154.793 115.936 155.249C115.67 155.743 115.423 156.18 115.195 156.56C111.053 155.8 107.272 154.679 103.852 153.197C100.432 151.715 97.4301 149.834 94.8461 147.554C92.3001 145.274 90.2101 142.557 88.5761 139.403L92.2811 138.32ZM111.49 137.351L114.682 139.859C113.238 140.923 111.642 141.987 109.894 143.051C108.146 144.115 106.379 145.122 104.593 146.072C102.845 147.022 101.192 147.877 99.6341 148.637L96.8981 146.3C98.4941 145.54 100.166 144.647 101.914 143.621C103.7 142.595 105.429 141.55 107.101 140.486C108.811 139.384 110.274 138.339 111.49 137.351ZM78.3161 119.795H108.355V139.916H78.3161V136.439H104.08V123.329H78.3161V119.795ZM75.7511 119.795H79.9691V152.57L75.7511 153.026V119.795ZM126.481 107.939H171.397V112.214H126.481V107.939ZM123.46 132.164H174.589V136.439H123.46V132.164ZM130.414 116.09L134.29 114.95C135.05 116.318 135.791 117.781 136.513 119.339C137.235 120.897 137.881 122.436 138.451 123.956C139.059 125.438 139.477 126.73 139.705 127.832L135.658 129.257C135.392 128.117 134.974 126.806 134.404 125.324C133.872 123.804 133.264 122.246 132.58 120.65C131.896 119.016 131.174 117.496 130.414 116.09ZM163.531 114.665L168.034 115.919C167.35 117.477 166.59 119.073 165.754 120.707C164.956 122.341 164.158 123.918 163.36 125.438C162.562 126.958 161.783 128.288 161.023 129.428L157.318 128.231C158.04 127.015 158.781 125.628 159.541 124.07C160.339 122.474 161.08 120.859 161.764 119.225C162.448 117.553 163.037 116.033 163.531 114.665ZM146.659 109.592H151.105V156.503H146.659V109.592ZM202.462 125.096H220.189V129.029H202.462V125.096ZM199.84 143.507C201.588 142.899 203.602 142.196 205.882 141.398C208.162 140.6 210.594 139.726 213.178 138.776C215.762 137.826 218.327 136.876 220.873 135.926L221.614 139.631C218.156 140.999 214.641 142.386 211.069 143.792C207.535 145.198 204.381 146.433 201.607 147.497L199.84 143.507ZM204.856 113.582H228.34V117.686H204.856V113.582ZM226.972 113.582H231.247C231.247 113.582 231.247 113.734 231.247 114.038C231.247 114.304 231.247 114.627 231.247 115.007C231.247 115.387 231.228 115.672 231.19 115.862C231 122.436 230.791 128.022 230.563 132.62C230.335 137.18 230.069 140.923 229.765 143.849C229.461 146.737 229.1 148.998 228.682 150.632C228.302 152.266 227.827 153.425 227.257 154.109C226.611 154.945 225.927 155.515 225.205 155.819C224.483 156.161 223.609 156.389 222.583 156.503C221.595 156.617 220.284 156.655 218.65 156.617C217.016 156.617 215.344 156.56 213.634 156.446C213.596 155.8 213.444 155.059 213.178 154.223C212.95 153.425 212.627 152.722 212.209 152.114C214.109 152.304 215.857 152.399 217.453 152.399C219.087 152.437 220.246 152.456 220.93 152.456C221.5 152.494 221.956 152.437 222.298 152.285C222.678 152.171 223.039 151.924 223.381 151.544C223.837 151.05 224.236 150.043 224.578 148.523C224.958 146.965 225.281 144.742 225.547 141.854C225.851 138.966 226.117 135.299 226.345 130.853C226.573 126.369 226.782 120.935 226.972 114.551V113.582ZM206.395 104.12L210.727 105.089C209.891 107.977 208.884 110.808 207.706 113.582C206.566 116.318 205.293 118.883 203.887 121.277C202.519 123.633 201.075 125.723 199.555 127.547C199.289 127.281 198.928 126.977 198.472 126.635C198.016 126.293 197.541 125.951 197.047 125.609C196.591 125.267 196.173 125.001 195.793 124.811C198.149 122.303 200.22 119.225 202.006 115.577C203.83 111.929 205.293 108.11 206.395 104.12ZM180.46 117.401H198.529V121.448H180.46V117.401ZM187.642 104.462H191.803V141.74H187.642V104.462ZM179.434 142.823C181.068 142.215 182.93 141.512 185.02 140.714C187.148 139.878 189.409 138.985 191.803 138.035C194.197 137.085 196.572 136.116 198.928 135.128L199.84 139.175C196.572 140.581 193.266 141.987 189.922 143.393C186.616 144.799 183.633 146.034 180.973 147.098L179.434 142.823ZM253.361 110.545V152H248.341V115.808H248.098L237.978 122.528V117.428L248.341 110.545H253.361ZM278.805 152.567C275.755 152.567 273.157 151.737 271.012 150.077C268.866 148.404 267.227 145.982 266.093 142.81C264.96 139.626 264.393 135.78 264.393 131.273C264.393 126.793 264.96 122.967 266.093 119.796C267.24 116.611 268.886 114.182 271.032 112.509C273.191 110.822 275.782 109.979 278.805 109.979C281.827 109.979 284.412 110.822 286.557 112.509C288.716 114.182 290.363 116.611 291.496 119.796C292.643 122.967 293.217 126.793 293.217 131.273C293.217 135.78 292.65 139.626 291.516 142.81C290.383 145.982 288.743 148.404 286.598 150.077C284.452 151.737 281.854 152.567 278.805 152.567ZM278.805 148.114C281.827 148.114 284.175 146.656 285.849 143.741C287.522 140.827 288.359 136.67 288.359 131.273C288.359 127.683 287.974 124.627 287.205 122.103C286.449 119.58 285.356 117.657 283.926 116.335C282.509 115.012 280.802 114.351 278.805 114.351C275.809 114.351 273.468 115.828 271.781 118.784C270.094 121.725 269.251 125.888 269.251 131.273C269.251 134.862 269.629 137.912 270.384 140.422C271.14 142.932 272.226 144.841 273.643 146.15C275.074 147.459 276.794 148.114 278.805 148.114ZM314.43 152.567C311.38 152.567 308.782 151.737 306.637 150.077C304.491 148.404 302.852 145.982 301.718 142.81C300.585 139.626 300.018 135.78 300.018 131.273C300.018 126.793 300.585 122.967 301.718 119.796C302.865 116.611 304.511 114.182 306.657 112.509C308.816 110.822 311.407 109.979 314.43 109.979C317.452 109.979 320.037 110.822 322.182 112.509C324.341 114.182 325.988 116.611 327.121 119.796C328.268 122.967 328.842 126.793 328.842 131.273C328.842 135.78 328.275 139.626 327.141 142.81C326.008 145.982 324.368 148.404 322.223 150.077C320.077 151.737 317.479 152.567 314.43 152.567ZM314.43 148.114C317.452 148.114 319.8 146.656 321.474 143.741C323.147 140.827 323.984 136.67 323.984 131.273C323.984 127.683 323.599 124.627 322.83 122.103C322.074 119.58 320.981 117.657 319.551 116.335C318.134 115.012 316.427 114.351 314.43 114.351C311.434 114.351 309.093 115.828 307.406 118.784C305.719 121.725 304.876 125.888 304.876 131.273C304.876 134.862 305.254 137.912 306.009 140.422C306.765 142.932 307.851 144.841 309.268 146.15C310.699 147.459 312.419 148.114 314.43 148.114ZM350.055 152.567C347.005 152.567 344.407 151.737 342.262 150.077C340.116 148.404 338.477 145.982 337.343 142.81C336.21 139.626 335.643 135.78 335.643 131.273C335.643 126.793 336.21 122.967 337.343 119.796C338.49 116.611 340.136 114.182 342.282 112.509C344.441 110.822 347.032 109.979 350.055 109.979C353.077 109.979 355.662 110.822 357.807 112.509C359.966 114.182 361.613 116.611 362.746 119.796C363.893 122.967 364.467 126.793 364.467 131.273C364.467 135.78 363.9 139.626 362.766 142.81C361.633 145.982 359.993 148.404 357.848 150.077C355.702 151.737 353.104 152.567 350.055 152.567ZM350.055 148.114C353.077 148.114 355.425 146.656 357.099 143.741C358.772 140.827 359.609 136.67 359.609 131.273C359.609 127.683 359.224 124.627 358.455 122.103C357.699 119.58 356.606 117.657 355.176 116.335C353.759 115.012 352.052 114.351 350.055 114.351C347.059 114.351 344.718 115.828 343.031 118.784C341.344 121.725 340.501 125.888 340.501 131.273C340.501 134.862 340.879 137.912 341.634 140.422C342.39 142.932 343.476 144.841 344.893 146.15C346.324 147.459 348.044 148.114 350.055 148.114ZM376.692 140.665L376.612 134.754H377.583L391.185 120.909H397.096L382.603 135.564H382.198L376.692 140.665ZM372.239 152V110.545H377.016V152H372.239ZM391.995 152L379.85 136.616L383.251 133.297L398.067 152H391.995ZM414.595 152.648C411.68 152.648 409.17 151.96 407.065 150.583C404.96 149.207 403.34 147.311 402.207 144.895C401.073 142.48 400.507 139.72 400.507 136.616C400.507 133.459 401.087 130.672 402.247 128.257C403.421 125.828 405.054 123.932 407.146 122.569C409.251 121.192 411.707 120.504 414.514 120.504C416.7 120.504 418.67 120.909 420.424 121.719C422.178 122.528 423.616 123.662 424.736 125.119C425.856 126.577 426.551 128.277 426.82 130.22H422.044C421.679 128.803 420.869 127.548 419.615 126.455C418.373 125.349 416.7 124.795 414.595 124.795C412.732 124.795 411.1 125.281 409.696 126.253C408.306 127.211 407.22 128.567 406.437 130.321C405.668 132.062 405.284 134.107 405.284 136.455C405.284 138.857 405.661 140.948 406.417 142.729C407.186 144.511 408.266 145.894 409.656 146.879C411.059 147.864 412.705 148.357 414.595 148.357C415.836 148.357 416.963 148.141 417.975 147.709C418.987 147.277 419.844 146.656 420.546 145.847C421.247 145.037 421.747 144.065 422.044 142.932H426.82C426.551 144.767 425.883 146.42 424.817 147.891C423.764 149.348 422.367 150.509 420.627 151.373C418.899 152.223 416.889 152.648 414.595 152.648ZM442.953 152.729C440.983 152.729 439.195 152.358 437.589 151.615C435.983 150.86 434.708 149.773 433.763 148.357C432.819 146.926 432.346 145.199 432.346 143.175C432.346 141.393 432.697 139.95 433.399 138.843C434.101 137.723 435.039 136.846 436.213 136.212C437.387 135.577 438.682 135.105 440.099 134.795C441.529 134.471 442.966 134.214 444.41 134.026C446.3 133.783 447.831 133.6 449.005 133.479C450.193 133.344 451.056 133.121 451.596 132.811C452.149 132.501 452.426 131.961 452.426 131.192V131.03C452.426 129.033 451.879 127.481 450.786 126.374C449.707 125.268 448.067 124.714 445.868 124.714C443.587 124.714 441.799 125.214 440.504 126.212C439.208 127.211 438.297 128.277 437.771 129.411L433.237 127.791C434.047 125.902 435.126 124.431 436.476 123.379C437.839 122.312 439.323 121.57 440.929 121.152C442.548 120.72 444.14 120.504 445.706 120.504C446.704 120.504 447.851 120.626 449.147 120.869C450.456 121.098 451.718 121.577 452.932 122.306C454.16 123.034 455.179 124.134 455.988 125.605C456.798 127.076 457.203 129.046 457.203 131.516V152H452.426V147.79H452.183C451.859 148.464 451.319 149.186 450.564 149.956C449.808 150.725 448.803 151.379 447.548 151.919C446.293 152.459 444.761 152.729 442.953 152.729ZM443.682 148.438C445.571 148.438 447.163 148.066 448.459 147.324C449.768 146.582 450.753 145.624 451.414 144.45C452.089 143.276 452.426 142.041 452.426 140.746V136.374C452.224 136.616 451.778 136.839 451.09 137.042C450.415 137.23 449.633 137.399 448.742 137.548C447.865 137.683 447.008 137.804 446.171 137.912C445.348 138.006 444.68 138.087 444.167 138.155C442.926 138.317 441.765 138.58 440.686 138.944C439.62 139.295 438.756 139.828 438.095 140.543C437.447 141.245 437.123 142.203 437.123 143.418C437.123 145.077 437.737 146.332 438.965 147.183C440.207 148.019 441.779 148.438 443.682 148.438ZM470.699 110.545V152H465.922V110.545H470.699Z" fill="white"/>
<rect width="749" height="77" transform="translate(0 186)" fill="#F36A27"/>
<path d="M7.705 209.147H57.409V213.479H7.705V209.147ZM19.048 234.569H45.61V238.901H19.048V234.569ZM30.22 197.177H34.723V249.56H30.22V197.177ZM28.852 210.572L32.728 211.826C31.018 215.854 28.928 219.711 26.458 223.397C23.988 227.045 21.252 230.351 18.25 233.315C15.248 236.241 12.113 238.654 8.845 240.554C8.617 240.212 8.313 239.832 7.933 239.414C7.553 238.958 7.173 238.521 6.793 238.103C6.451 237.685 6.109 237.324 5.767 237.02C8.161 235.766 10.479 234.208 12.721 232.346C15.001 230.484 17.148 228.394 19.162 226.076C21.214 223.72 23.057 221.231 24.691 218.609C26.325 215.987 27.712 213.308 28.852 210.572ZM36.091 210.743C37.611 214.353 39.568 217.849 41.962 221.231C44.356 224.575 47.035 227.596 49.999 230.294C53.001 232.954 56.136 235.082 59.404 236.678C59.062 236.982 58.682 237.343 58.264 237.761C57.884 238.179 57.504 238.635 57.124 239.129C56.744 239.585 56.421 240.022 56.155 240.44C52.849 238.578 49.676 236.203 46.636 233.315C43.634 230.389 40.917 227.102 38.485 223.454C36.053 219.806 34.001 216.006 32.329 212.054L36.091 210.743ZM74.737 203.162H113.782V206.867H74.737V203.162ZM75.364 211.313H108.367V214.904H75.364V211.313ZM68.809 219.464H103.18V223.169H68.809V219.464ZM75.478 197.006L79.924 197.975C78.556 202.383 76.751 206.487 74.509 210.287C72.267 214.049 69.778 217.203 67.042 219.749C66.776 219.483 66.396 219.179 65.902 218.837C65.446 218.457 64.971 218.096 64.477 217.754C63.983 217.412 63.546 217.146 63.166 216.956C65.94 214.676 68.391 211.788 70.519 208.292C72.647 204.758 74.3 200.996 75.478 197.006ZM90.754 224.195L94.858 225.563C92.844 229.173 90.412 232.517 87.562 235.595C84.712 238.635 81.615 241.371 78.271 243.803C74.965 246.197 71.488 248.268 67.84 250.016C67.65 249.712 67.365 249.351 66.985 248.933C66.605 248.515 66.206 248.097 65.788 247.679C65.37 247.299 64.99 246.976 64.648 246.71C68.296 245.152 71.754 243.252 75.022 241.01C78.328 238.768 81.33 236.222 84.028 233.372C86.726 230.522 88.968 227.463 90.754 224.195ZM101.584 219.464H105.916C105.954 223.188 106.03 226.627 106.144 229.781C106.296 232.897 106.543 235.633 106.885 237.989C107.265 240.307 107.797 242.131 108.481 243.461C109.165 244.753 110.039 245.399 111.103 245.399C111.673 245.399 112.053 244.658 112.243 243.176C112.433 241.656 112.547 239.68 112.585 237.248C113.041 237.704 113.535 238.179 114.067 238.673C114.637 239.129 115.15 239.509 115.606 239.813C115.492 242.169 115.283 244.069 114.979 245.513C114.675 246.957 114.2 247.983 113.554 248.591C112.908 249.237 111.996 249.579 110.818 249.617C108.804 249.617 107.189 248.876 105.973 247.394C104.757 245.912 103.826 243.841 103.18 241.181C102.572 238.483 102.154 235.31 101.926 231.662C101.736 227.976 101.622 223.91 101.584 219.464ZM70.177 229.268L73.255 226.532C75.459 227.71 77.72 229.04 80.038 230.522C82.394 231.966 84.674 233.486 86.878 235.082C89.12 236.678 91.191 238.255 93.091 239.813C94.991 241.371 96.568 242.853 97.822 244.259L94.459 247.508C93.243 246.102 91.704 244.601 89.842 243.005C88.018 241.409 86.004 239.794 83.8 238.16C81.596 236.526 79.335 234.949 77.017 233.429C74.699 231.909 72.419 230.522 70.177 229.268ZM150.148 206.069C149.768 209.033 149.274 212.13 148.666 215.36C148.096 218.59 147.355 221.725 146.443 224.765C145.303 228.679 144.03 231.947 142.624 234.569C141.256 237.191 139.774 239.167 138.178 240.497C136.582 241.827 134.91 242.492 133.162 242.492C131.49 242.492 129.875 241.884 128.317 240.668C126.759 239.452 125.486 237.704 124.498 235.424C123.51 233.106 123.016 230.389 123.016 227.273C123.016 224.157 123.643 221.212 124.897 218.438C126.189 215.664 127.956 213.213 130.198 211.085C132.478 208.919 135.138 207.209 138.178 205.955C141.218 204.701 144.467 204.074 147.925 204.074C151.269 204.074 154.271 204.625 156.931 205.727C159.629 206.829 161.928 208.349 163.828 210.287C165.728 212.187 167.191 214.41 168.217 216.956C169.243 219.464 169.756 222.162 169.756 225.05C169.756 229.04 168.901 232.555 167.191 235.595C165.519 238.635 163.087 241.105 159.895 243.005C156.741 244.905 152.903 246.159 148.381 246.767L145.702 242.549C146.614 242.435 147.488 242.321 148.324 242.207C149.16 242.093 149.92 241.96 150.604 241.808C152.428 241.39 154.195 240.744 155.905 239.87C157.653 238.958 159.211 237.818 160.579 236.45C161.947 235.044 163.03 233.391 163.828 231.491C164.664 229.553 165.082 227.349 165.082 224.879C165.082 222.561 164.702 220.414 163.942 218.438C163.182 216.424 162.061 214.657 160.579 213.137C159.097 211.617 157.292 210.42 155.164 209.546C153.036 208.672 150.604 208.235 147.868 208.235C144.752 208.235 141.921 208.805 139.375 209.945C136.867 211.085 134.72 212.586 132.934 214.448C131.186 216.272 129.837 218.286 128.887 220.49C127.937 222.656 127.462 224.784 127.462 226.874C127.462 229.268 127.766 231.244 128.374 232.802C129.02 234.322 129.78 235.443 130.654 236.165C131.566 236.887 132.459 237.248 133.333 237.248C134.245 237.248 135.176 236.811 136.126 235.937C137.076 235.025 138.045 233.581 139.033 231.605C140.021 229.591 140.99 226.988 141.94 223.796C142.776 221.06 143.479 218.153 144.049 215.075C144.657 211.997 145.094 208.976 145.36 206.012L150.148 206.069ZM228.067 206.468C227.839 206.734 227.573 207.057 227.269 207.437C227.003 207.817 226.756 208.178 226.528 208.52C225.806 209.812 224.723 211.408 223.279 213.308C221.873 215.17 220.239 217.089 218.377 219.065C216.515 221.003 214.501 222.732 212.335 224.252L208.573 221.231C209.903 220.471 211.195 219.559 212.449 218.495C213.741 217.393 214.938 216.253 216.04 215.075C217.18 213.859 218.168 212.681 219.004 211.541C219.878 210.363 220.562 209.337 221.056 208.463C220.448 208.463 219.46 208.463 218.092 208.463C216.762 208.463 215.166 208.463 213.304 208.463C211.48 208.463 209.523 208.463 207.433 208.463C205.343 208.463 203.272 208.463 201.22 208.463C199.168 208.463 197.249 208.463 195.463 208.463C193.677 208.463 192.176 208.463 190.96 208.463C189.744 208.463 188.946 208.463 188.566 208.463C187.502 208.463 186.438 208.501 185.374 208.577C184.31 208.615 183.208 208.691 182.068 208.805V203.618C183.056 203.77 184.12 203.903 185.26 204.017C186.4 204.093 187.502 204.131 188.566 204.131C188.946 204.131 189.763 204.131 191.017 204.131C192.271 204.131 193.791 204.131 195.577 204.131C197.401 204.131 199.377 204.131 201.505 204.131C203.633 204.131 205.742 204.131 207.832 204.131C209.96 204.131 211.955 204.131 213.817 204.131C215.679 204.131 217.256 204.131 218.548 204.131C219.878 204.131 220.79 204.131 221.284 204.131C221.664 204.131 222.101 204.131 222.595 204.131C223.127 204.093 223.64 204.036 224.134 203.96C224.628 203.884 225.008 203.827 225.274 203.789L228.067 206.468ZM205.324 213.992C205.324 217.07 205.229 219.958 205.039 222.656C204.849 225.354 204.469 227.881 203.899 230.237C203.329 232.593 202.455 234.778 201.277 236.792C200.137 238.768 198.598 240.63 196.66 242.378C194.722 244.088 192.309 245.665 189.421 247.109L185.203 243.689C186.001 243.423 186.856 243.081 187.768 242.663C188.68 242.207 189.535 241.694 190.333 241.124C192.575 239.794 194.361 238.293 195.691 236.621C197.021 234.949 198.009 233.144 198.655 231.206C199.339 229.23 199.795 227.159 200.023 224.993C200.289 222.789 200.422 220.509 200.422 218.153C200.422 217.431 200.403 216.747 200.365 216.101C200.365 215.455 200.308 214.752 200.194 213.992H205.324ZM277.6 206.867C277.41 207.095 277.163 207.475 276.859 208.007C276.593 208.501 276.365 208.957 276.175 209.375C275.453 211.237 274.503 213.308 273.325 215.588C272.147 217.83 270.836 220.053 269.392 222.257C267.948 224.461 266.428 226.456 264.832 228.242C262.742 230.598 260.443 232.897 257.935 235.139C255.427 237.343 252.786 239.414 250.012 241.352C247.238 243.252 244.35 244.886 241.348 246.254L237.7 242.435C240.778 241.219 243.723 239.718 246.535 237.932C249.385 236.108 252.045 234.132 254.515 232.004C257.023 229.838 259.246 227.672 261.184 225.506C262.476 224.024 263.749 222.371 265.003 220.547C266.295 218.685 267.435 216.804 268.423 214.904C269.449 212.966 270.19 211.218 270.646 209.66C270.342 209.66 269.62 209.66 268.48 209.66C267.34 209.66 265.991 209.66 264.433 209.66C262.875 209.66 261.241 209.66 259.531 209.66C257.821 209.66 256.187 209.66 254.629 209.66C253.071 209.66 251.722 209.66 250.582 209.66C249.48 209.66 248.758 209.66 248.416 209.66C247.77 209.66 247.029 209.679 246.193 209.717C245.395 209.755 244.654 209.793 243.97 209.831C243.324 209.869 242.887 209.907 242.659 209.945V204.758C242.925 204.796 243.4 204.853 244.084 204.929C244.806 204.967 245.566 205.005 246.364 205.043C247.162 205.081 247.846 205.1 248.416 205.1C248.834 205.1 249.594 205.1 250.696 205.1C251.798 205.1 253.109 205.1 254.629 205.1C256.187 205.1 257.802 205.1 259.474 205.1C261.146 205.1 262.742 205.1 264.262 205.1C265.82 205.1 267.15 205.1 268.252 205.1C269.354 205.1 270.076 205.1 270.418 205.1C271.368 205.1 272.204 205.062 272.926 204.986C273.686 204.91 274.275 204.796 274.693 204.644L277.6 206.867ZM265.573 225.221C267.131 226.513 268.727 227.938 270.361 229.496C272.033 231.054 273.667 232.669 275.263 234.341C276.859 235.975 278.341 237.552 279.709 239.072C281.077 240.554 282.255 241.903 283.243 243.119L279.253 246.539C277.923 244.715 276.327 242.758 274.465 240.668C272.603 238.54 270.627 236.431 268.537 234.341C266.485 232.213 264.414 230.256 262.324 228.47L265.573 225.221ZM333.232 201.737C333.194 202.459 333.156 203.238 333.118 204.074C333.08 204.872 333.061 205.746 333.061 206.696C333.061 207.456 333.061 208.425 333.061 209.603C333.061 210.781 333.061 211.959 333.061 213.137C333.061 214.277 333.061 215.208 333.061 215.93C333.061 219.35 332.928 222.257 332.662 224.651C332.434 227.045 332.073 229.097 331.579 230.807C331.123 232.479 330.515 233.961 329.755 235.253C328.995 236.545 328.102 237.799 327.076 239.015C325.86 240.459 324.454 241.732 322.858 242.834C321.3 243.898 319.704 244.791 318.07 245.513C316.436 246.273 314.916 246.881 313.51 247.337L309.805 243.404C312.427 242.758 314.897 241.846 317.215 240.668C319.571 239.452 321.642 237.837 323.428 235.823C324.454 234.645 325.271 233.448 325.879 232.232C326.525 230.978 327 229.591 327.304 228.071C327.646 226.551 327.874 224.784 327.988 222.77C328.102 220.756 328.159 218.4 328.159 215.702C328.159 214.942 328.159 213.992 328.159 212.852C328.159 211.712 328.159 210.572 328.159 209.432C328.159 208.254 328.159 207.342 328.159 206.696C328.159 205.746 328.121 204.872 328.045 204.074C328.007 203.238 327.95 202.459 327.874 201.737H333.232ZM306.784 202.193C306.746 202.725 306.689 203.371 306.613 204.131C306.575 204.891 306.556 205.613 306.556 206.297C306.556 206.563 306.556 207.171 306.556 208.121C306.556 209.033 306.556 210.135 306.556 211.427C306.556 212.719 306.556 214.087 306.556 215.531C306.556 216.975 306.556 218.381 306.556 219.749C306.556 221.079 306.556 222.238 306.556 223.226C306.556 224.214 306.556 224.917 306.556 225.335C306.556 226.057 306.575 226.836 306.613 227.672C306.689 228.47 306.746 229.135 306.784 229.667H301.54C301.616 229.211 301.673 228.584 301.711 227.786C301.787 226.95 301.825 226.114 301.825 225.278C301.825 224.898 301.825 224.214 301.825 223.226C301.825 222.2 301.825 221.022 301.825 219.692C301.825 218.362 301.825 216.975 301.825 215.531C301.825 214.087 301.825 212.719 301.825 211.427C301.825 210.135 301.825 209.033 301.825 208.121C301.825 207.171 301.825 206.563 301.825 206.297C301.825 205.803 301.806 205.138 301.768 204.302C301.73 203.428 301.673 202.725 301.597 202.193H306.784ZM351.814 220.319C352.384 220.357 353.087 220.414 353.923 220.49C354.759 220.528 355.671 220.566 356.659 220.604C357.685 220.604 358.711 220.604 359.737 220.604C360.345 220.604 361.276 220.604 362.53 220.604C363.822 220.604 365.323 220.604 367.033 220.604C368.743 220.604 370.548 220.604 372.448 220.604C374.386 220.604 376.305 220.604 378.205 220.604C380.143 220.604 381.967 220.604 383.677 220.604C385.425 220.604 386.926 220.604 388.18 220.604C389.434 220.604 390.365 220.604 390.973 220.604C392.417 220.604 393.652 220.566 394.678 220.49C395.704 220.414 396.521 220.357 397.129 220.319V225.905C396.559 225.867 395.704 225.81 394.564 225.734C393.462 225.658 392.284 225.62 391.03 225.62C390.422 225.62 389.472 225.62 388.18 225.62C386.888 225.62 385.387 225.62 383.677 225.62C382.005 225.62 380.2 225.62 378.262 225.62C376.324 225.62 374.386 225.62 372.448 225.62C370.548 225.62 368.743 225.62 367.033 225.62C365.361 225.62 363.879 225.62 362.587 225.62C361.295 225.62 360.345 225.62 359.737 225.62C358.179 225.62 356.697 225.658 355.291 225.734C353.885 225.772 352.726 225.829 351.814 225.905V220.319ZM422.209 239.984C422.209 239.452 422.209 238.388 422.209 236.792C422.209 235.158 422.209 233.239 422.209 231.035C422.209 228.793 422.209 226.456 422.209 224.024C422.209 221.554 422.209 219.16 422.209 216.842C422.209 214.524 422.209 212.472 422.209 210.686C422.209 208.9 422.209 207.608 422.209 206.81C422.209 206.012 422.171 205.043 422.095 203.903C422.019 202.763 421.905 201.756 421.753 200.882H427.339C427.263 201.718 427.168 202.706 427.054 203.846C426.978 204.986 426.94 205.974 426.94 206.81C426.94 208.292 426.94 210.078 426.94 212.168C426.94 214.22 426.94 216.424 426.94 218.78C426.94 221.098 426.94 223.416 426.94 225.734C426.978 228.014 426.997 230.161 426.997 232.175C426.997 234.151 426.997 235.842 426.997 237.248C426.997 238.616 426.997 239.528 426.997 239.984C426.997 240.592 426.997 241.295 426.997 242.093C427.035 242.891 427.092 243.708 427.168 244.544C427.244 245.342 427.301 246.064 427.339 246.71H421.81C421.962 245.798 422.057 244.715 422.095 243.461C422.171 242.207 422.209 241.048 422.209 239.984ZM425.971 215.816C427.833 216.386 429.885 217.07 432.127 217.868C434.407 218.628 436.725 219.445 439.081 220.319C441.437 221.193 443.66 222.086 445.75 222.998C447.878 223.872 449.721 224.708 451.279 225.506L449.341 230.351C447.707 229.439 445.864 228.546 443.812 227.672C441.76 226.76 439.651 225.867 437.485 224.993C435.357 224.119 433.286 223.34 431.272 222.656C429.296 221.934 427.529 221.345 425.971 220.889V215.816ZM486.22 199.913C485.992 201.053 485.688 202.402 485.308 203.96C484.966 205.48 484.396 207.209 483.598 209.147C482.914 210.857 482.059 212.624 481.033 214.448C480.045 216.272 478.981 217.925 477.841 219.407C478.563 218.951 479.38 218.571 480.292 218.267C481.204 217.925 482.135 217.678 483.085 217.526C484.073 217.374 484.966 217.298 485.764 217.298C487.968 217.298 489.83 217.925 491.35 219.179C492.87 220.395 493.63 222.181 493.63 224.537C493.63 225.259 493.63 226.19 493.63 227.33C493.63 228.432 493.63 229.61 493.63 230.864C493.668 232.08 493.706 233.277 493.744 234.455C493.782 235.633 493.801 236.659 493.801 237.533H489.412C489.45 236.773 489.488 235.88 489.526 234.854C489.564 233.828 489.583 232.745 489.583 231.605C489.621 230.465 489.621 229.382 489.583 228.356C489.583 227.33 489.583 226.456 489.583 225.734C489.583 224.062 489.07 222.846 488.044 222.086C487.056 221.288 485.802 220.889 484.282 220.889C482.496 220.889 480.729 221.288 478.981 222.086C477.271 222.846 475.77 223.834 474.478 225.05C473.642 225.848 472.806 226.76 471.97 227.786C471.172 228.774 470.279 229.838 469.291 230.978L465.415 228.128C468.151 225.468 470.431 222.979 472.255 220.661C474.079 218.343 475.561 216.196 476.701 214.22C477.841 212.206 478.734 210.401 479.38 208.805C479.988 207.209 480.482 205.613 480.862 204.017C481.242 202.383 481.47 200.882 481.546 199.514L486.22 199.913ZM466.726 206.069C468.246 206.259 469.899 206.411 471.685 206.525C473.471 206.639 475.029 206.696 476.359 206.696C478.905 206.696 481.641 206.639 484.567 206.525C487.493 206.373 490.438 206.164 493.402 205.898C496.404 205.632 499.254 205.252 501.952 204.758L501.895 208.976C499.919 209.318 497.81 209.603 495.568 209.831C493.326 210.021 491.046 210.192 488.728 210.344C486.41 210.458 484.168 210.553 482.002 210.629C479.874 210.667 477.898 210.686 476.074 210.686C475.276 210.686 474.345 210.686 473.281 210.686C472.255 210.648 471.172 210.61 470.032 210.572C468.892 210.496 467.79 210.42 466.726 210.344V206.069ZM510.274 219.863C509.78 219.977 509.229 220.148 508.621 220.376C508.051 220.566 507.462 220.775 506.854 221.003C506.284 221.231 505.733 221.459 505.201 221.687C503.225 222.447 500.926 223.378 498.304 224.48C495.682 225.582 493.003 226.855 490.267 228.299C488.367 229.249 486.695 230.256 485.251 231.32C483.807 232.346 482.667 233.429 481.831 234.569C480.995 235.671 480.577 236.887 480.577 238.217C480.577 239.319 480.824 240.212 481.318 240.896C481.85 241.58 482.591 242.112 483.541 242.492C484.491 242.834 485.574 243.062 486.79 243.176C488.044 243.29 489.412 243.347 490.894 243.347C493.098 243.347 495.606 243.233 498.418 243.005C501.268 242.739 503.947 242.397 506.455 241.979L506.341 246.539C504.897 246.729 503.263 246.9 501.439 247.052C499.653 247.204 497.829 247.318 495.967 247.394C494.143 247.508 492.395 247.565 490.723 247.565C488.025 247.565 485.555 247.318 483.313 246.824C481.109 246.33 479.342 245.456 478.012 244.202C476.682 242.948 476.017 241.162 476.017 238.844C476.017 237.134 476.416 235.576 477.214 234.17C478.012 232.726 479.076 231.415 480.406 230.237C481.774 229.059 483.275 227.976 484.909 226.988C486.543 225.962 488.215 225.031 489.925 224.195C491.749 223.207 493.459 222.352 495.055 221.63C496.689 220.908 498.228 220.243 499.672 219.635C501.116 219.027 502.465 218.419 503.719 217.811C504.555 217.431 505.353 217.07 506.113 216.728C506.873 216.386 507.633 216.006 508.393 215.588L510.274 219.863ZM545.272 201.281C544.132 202.991 542.707 204.796 540.997 206.696C539.325 208.558 537.463 210.42 535.411 212.282C533.359 214.144 531.174 215.93 528.856 217.64C526.576 219.35 524.239 220.908 521.845 222.314C521.541 221.82 521.123 221.25 520.591 220.604C520.097 219.92 519.603 219.369 519.109 218.951C522.415 217.127 525.588 214.98 528.628 212.51C531.706 210.04 534.48 207.456 536.95 204.758C539.42 202.06 541.396 199.476 542.878 197.006H547.21C548.692 199.134 550.402 201.224 552.34 203.276C554.278 205.328 556.349 207.285 558.553 209.147C560.757 211.009 562.999 212.719 565.279 214.277C567.597 215.835 569.858 217.165 572.062 218.267C571.53 218.799 571.017 219.407 570.523 220.091C570.029 220.737 569.592 221.383 569.212 222.029C567.046 220.737 564.804 219.274 562.486 217.64C560.206 216.006 558.002 214.277 555.874 212.453C553.746 210.591 551.77 208.71 549.946 206.81C548.122 204.91 546.564 203.067 545.272 201.281ZM526.006 230.864H564.88V234.683H526.006V230.864ZM528.571 218.153H562.714V221.972H528.571V218.153ZM521.332 244.088H569.953V247.964H521.332V244.088ZM543.106 219.749H547.552V246.254H543.106V219.749ZM578.731 209.546H622.963V213.935H578.731V209.546ZM621.31 209.546H625.699C625.699 209.546 625.699 209.698 625.699 210.002C625.699 210.306 625.68 210.629 625.642 210.971C625.642 211.313 625.623 211.598 625.585 211.826C625.281 217.716 624.958 222.732 624.616 226.874C624.312 231.016 623.951 234.436 623.533 237.134C623.153 239.794 622.716 241.903 622.222 243.461C621.766 244.981 621.215 246.083 620.569 246.767C619.885 247.603 619.163 248.173 618.403 248.477C617.681 248.781 616.769 248.99 615.667 249.104C614.717 249.18 613.387 249.199 611.677 249.161C610.005 249.123 608.295 249.066 606.547 248.99C606.509 248.344 606.357 247.603 606.091 246.767C605.863 245.931 605.521 245.209 605.065 244.601C607.041 244.753 608.846 244.867 610.48 244.943C612.152 244.981 613.349 245 614.071 245C614.679 245 615.173 244.943 615.553 244.829C615.971 244.715 616.351 244.468 616.693 244.088C617.225 243.594 617.7 242.625 618.118 241.181C618.574 239.699 618.973 237.647 619.315 235.025C619.695 232.365 620.037 229.021 620.341 224.993C620.683 220.965 621.006 216.12 621.31 210.458V209.546ZM597.37 197.234H601.816V207.095C601.816 209.717 601.702 212.491 601.474 215.417C601.246 218.305 600.752 221.269 599.992 224.309C599.232 227.311 598.073 230.313 596.515 233.315C594.957 236.317 592.867 239.224 590.245 242.036C587.623 244.81 584.317 247.394 580.327 249.788C580.099 249.408 579.795 249.009 579.415 248.591C579.035 248.173 578.636 247.755 578.218 247.337C577.8 246.957 577.401 246.653 577.021 246.425C580.821 244.145 583.956 241.713 586.426 239.129C588.934 236.545 590.91 233.885 592.354 231.149C593.836 228.375 594.919 225.601 595.603 222.827C596.325 220.053 596.8 217.336 597.028 214.676C597.256 212.016 597.37 209.489 597.37 207.095V197.234ZM647.587 222.884C650.665 229.192 655.472 234.265 662.008 238.103C668.544 241.903 676.486 244.411 685.834 245.627C685.492 245.969 685.15 246.368 684.808 246.824C684.504 247.318 684.181 247.812 683.839 248.306C683.535 248.838 683.288 249.313 683.098 249.731C676.752 248.743 671.033 247.166 665.941 245C660.887 242.834 656.498 240.041 652.774 236.621C649.05 233.163 646.01 229.059 643.654 224.309L647.587 222.884ZM638.011 218.894H675.118V223.055H638.011V218.894ZM635.389 205.841H683.497V210.059H635.389V205.841ZM657.163 197.12H661.609V220.775H657.163V197.12ZM673.807 218.894H674.776L675.574 218.723L678.538 220.433C676.79 224.841 674.453 228.679 671.527 231.947C668.601 235.215 665.257 238.008 661.495 240.326C657.733 242.606 653.648 244.487 649.24 245.969C644.87 247.489 640.329 248.686 635.617 249.56C635.503 249.18 635.294 248.724 634.99 248.192C634.724 247.698 634.42 247.185 634.078 246.653C633.774 246.159 633.489 245.76 633.223 245.456C637.859 244.734 642.286 243.727 646.504 242.435C650.76 241.105 654.674 239.414 658.246 237.362C661.818 235.31 664.934 232.84 667.594 229.952C670.254 227.026 672.325 223.606 673.807 219.692V218.894ZM709.261 212.51H740.554V216.044H709.261V212.51ZM707.95 220.547H742.264V224.195H707.95V220.547ZM715.759 228.071H735.367V231.377H715.759V228.071ZM710.914 205.271L714.277 204.359C714.847 205.461 715.398 206.677 715.93 208.007C716.462 209.337 716.861 210.439 717.127 211.313L713.593 212.51C713.365 211.56 712.985 210.401 712.453 209.033C711.959 207.627 711.446 206.373 710.914 205.271ZM721.117 204.074L724.594 203.504C724.974 204.72 725.316 206.031 725.62 207.437C725.962 208.843 726.209 210.021 726.361 210.971L722.713 211.826C722.599 210.838 722.39 209.603 722.086 208.121C721.782 206.639 721.459 205.29 721.117 204.074ZM737.134 197.519L739.642 200.711C737.704 201.129 735.5 201.509 733.03 201.851C730.598 202.193 728.033 202.497 725.335 202.763C722.675 202.991 719.977 203.181 717.241 203.333C714.543 203.447 711.921 203.542 709.375 203.618C709.337 203.124 709.204 202.573 708.976 201.965C708.786 201.319 708.577 200.768 708.349 200.312C710.819 200.236 713.384 200.122 716.044 199.97C718.704 199.78 721.326 199.571 723.91 199.343C726.494 199.077 728.926 198.811 731.206 198.545C733.486 198.241 735.462 197.899 737.134 197.519ZM719.065 230.294C720.433 232.992 722.276 235.405 724.594 237.533C726.912 239.661 729.648 241.447 732.802 242.891C735.994 244.335 739.49 245.399 743.29 246.083C742.834 246.501 742.34 247.071 741.808 247.793C741.314 248.515 740.915 249.161 740.611 249.731C734.759 248.439 729.686 246.254 725.392 243.176C721.098 240.06 717.792 236.127 715.474 231.377L719.065 230.294ZM734.854 202.877L738.958 204.188C737.932 205.936 736.83 207.741 735.652 209.603C734.474 211.465 733.372 213.061 732.346 214.391L729.154 213.194C729.8 212.244 730.484 211.18 731.206 210.002C731.928 208.786 732.612 207.551 733.258 206.297C733.904 205.043 734.436 203.903 734.854 202.877ZM734.341 228.071H735.196L735.937 227.9L738.331 228.983C737.115 232.973 735.348 236.336 733.03 239.072C730.712 241.808 727.995 244.012 724.879 245.684C721.801 247.394 718.419 248.724 714.733 249.674C714.619 249.37 714.41 249.009 714.106 248.591C713.84 248.211 713.555 247.812 713.251 247.394C712.947 246.976 712.643 246.653 712.339 246.425C715.873 245.665 719.103 244.563 722.029 243.119C724.993 241.637 727.52 239.718 729.61 237.362C731.738 235.006 733.315 232.118 734.341 228.698V228.071ZM716.899 214.79H721.003C720.813 217.07 720.547 219.483 720.205 222.029C719.901 224.537 719.426 227.083 718.78 229.667C718.134 232.213 717.26 234.721 716.158 237.191C715.094 239.623 713.726 241.884 712.054 243.974C710.42 246.064 708.387 247.907 705.955 249.503C705.651 249.009 705.214 248.458 704.644 247.85C704.112 247.28 703.58 246.824 703.048 246.482C705.328 245.076 707.247 243.404 708.805 241.466C710.363 239.49 711.636 237.381 712.624 235.139C713.65 232.859 714.429 230.541 714.961 228.185C715.531 225.791 715.949 223.454 716.215 221.174C716.481 218.894 716.709 216.766 716.899 214.79ZM689.881 228.698C692.123 228.09 694.802 227.311 697.918 226.361C701.072 225.373 704.264 224.347 707.494 223.283L708.064 227.273C705.024 228.261 701.984 229.249 698.944 230.237C695.904 231.225 693.149 232.118 690.679 232.916L689.881 228.698ZM690.394 208.634H707.665V212.624H690.394V208.634ZM697.519 197.177H701.509V244.601C701.509 245.741 701.357 246.634 701.053 247.28C700.787 247.926 700.293 248.42 699.571 248.762C698.887 249.104 697.975 249.332 696.835 249.446C695.695 249.56 694.213 249.598 692.389 249.56C692.351 249.066 692.199 248.42 691.933 247.622C691.705 246.862 691.458 246.178 691.192 245.57C692.408 245.608 693.51 245.627 694.498 245.627C695.524 245.665 696.208 245.665 696.55 245.627C696.892 245.627 697.139 245.551 697.291 245.399C697.443 245.285 697.519 245.019 697.519 244.601V197.177Z" fill="white"/>
</svg>
