<svg width="1081" height="284" viewBox="0 0 1081 284" fill="none" xmlns="http://www.w3.org/2000/svg">
<path d="M2.86349 237.216C7.85338 232.588 15.3635 228.44 21.5408 225.672C23.462 224.81 23.6334 226.896 24.996 226.374C27.7082 225.319 29.2508 223.149 32.0371 222.207C32.9635 221.904 33.6704 224.9 34.5867 224.54C39.5239 222.605 43.2836 219.069 47.8881 216.572C70.976 203.996 92.631 190.131 115.028 176.067C122.441 171.407 132.584 167.488 139.321 161.407C140.104 160.697 138.157 158.998 138.203 158.714C138.967 154.325 141.007 159.073 143.082 158.446C146.923 157.282 150.563 155.612 154.053 153.555C158.315 151.009 162.372 148.244 165.979 145.528C168.89 143.351 163.266 140.846 167.819 141.463C168.13 141.504 168.65 144.268 169.643 144.033C171.905 143.481 175.332 141.104 176.975 140.5C180.057 139.387 180.564 139.107 183.333 137.79C187.162 136.003 192.248 135.14 196.082 132.839C196.909 132.336 194.661 130.329 195.896 129.297C197.13 128.261 200.952 126.93 202.469 127.018C203.961 127.111 204.226 129.317 204.629 129.685C207.961 132.812 210.17 125.796 210.682 125.455C219.993 119.332 229.881 119.433 239.387 116.374C246.651 114.034 254.087 110.66 261.05 108.788C269.343 106.572 276.746 106.045 284.668 103.626C285.512 103.372 283.677 100.545 284.704 100.23C295.57 96.8973 306.557 94.3913 317.994 93.688C319.141 93.6206 318.435 96.7107 319.622 96.8065C326.893 97.3274 338.799 100.043 339.762 87.1481C344.399 86.4677 349.993 85.565 354.666 86.9347C354.914 87.0071 355.13 87.0982 355.318 87.203C357.516 88.3564 356.077 91.2565 358.929 89.3436C359.644 88.8795 358.015 86.495 359.156 85.9948C363.904 83.9095 369.448 83.8154 374.109 81.7421C375.066 81.313 374.459 78.9679 374.685 78.4978C376.614 74.6721 381.372 79.9503 382.206 80.2868C389.038 82.6958 393.573 81.0977 399.54 80.7965C400.936 80.7308 399.085 77.6018 400.433 77.4231C407.358 76.5484 414.54 76.5801 421.302 77.889C422.795 78.1888 421.477 80.9687 422.192 81.2532C425.351 82.4783 425.993 77.2666 428.998 78.3654C429.636 78.5911 429.294 80.9526 429.412 81.2108C431.243 85.2645 432.819 79.4987 433.263 79.3706C439.131 77.6253 442.863 83.672 448.493 82.9007C449.167 82.803 447.694 79.7951 449.59 79.7036C462.285 79.0812 475.681 80.359 488.003 83.2927C489.908 83.7446 488.436 85.9238 488.545 86.2052C490.32 90.6071 491.875 84.8866 492.523 84.6985C497.597 83.3637 501.99 88.446 505.722 81.7406C526.658 85.2387 547.865 82.7519 568.242 90.3985C568.499 90.4886 567.826 93.2975 568.34 93.4651C574.545 95.5158 573.685 91.014 578.305 85.9205C579.447 84.6402 582.168 91.3996 582.42 91.8992C583.326 93.738 581.936 97.8862 582.258 98.2532C584.936 101.147 585.502 87.1281 589.44 87.42C589.561 87.4526 588.849 89.987 589.161 90.2679C589.229 90.3304 589.299 90.3836 589.369 90.4291C590.278 91.0239 591.286 90.2736 592.154 91.1718C594.291 93.41 594.515 100.262 598.327 96.6307C598.817 96.1612 598.868 88.1702 602.37 88.8883C603.764 89.1747 609.984 89.6952 611.658 90.412C613.328 91.1204 611.85 93.5315 611.961 93.6558C616.206 97.5601 614.284 98.7529 615.987 104.011C617.657 109.252 618.49 97.3436 619.6 96.141C620.711 94.941 623.757 98.1542 624.45 99.2286C625.149 100.302 623.904 101.78 624.565 102.423C628.943 106.641 627.498 96.8473 629.371 95.193C633.822 91.2849 635.539 100.468 638.863 101.841C639.764 102.213 639.299 100.107 640.163 100.046C643.584 99.8369 645.147 102.871 649.3 100.973C649.975 100.662 653.885 95.9093 655.22 100.086C655.406 100.687 654.257 102.729 655.581 103.449C657.56 104.528 661.253 105.643 663.631 105.309C665.387 105.06 664.101 101.152 666.004 102.628C666.849 103.287 664.759 105.077 666.374 106.141C667.979 107.201 672.429 107.9 674.129 108.135C675.827 108.367 675.398 105.49 675.567 105.332C676.582 104.435 680.061 103.723 680.347 103.78C694.864 106.12 707.214 113.299 721.469 114.606C722.584 114.712 722.431 111.719 722.607 111.706C726.599 111.271 722.113 118.241 724.222 121.305C725.011 115.452 726.351 116.812 729.109 116.712C730.44 116.659 730.205 114.283 730.366 114.077C732.952 111.066 733.373 115.72 733.528 116.686C734.107 120.241 736.247 116.614 736.653 118.994C737.06 121.358 734.438 124.206 736.986 124.681C738.117 122.758 737.333 116.973 739.436 116.489C747.357 114.654 760.004 121.625 765.742 123.21C771.443 124.792 773.402 124.772 776.651 126.173C782.505 128.691 781.027 124.246 785.162 123.114C789.277 121.971 785.62 131.529 785.774 133.758C785.922 135.983 786.925 133.904 787.387 135.196C787.849 136.488 786.125 137.67 787.633 138.397C789.136 139.125 794.141 136.101 795.083 133.966C797.078 129.447 796.007 124.163 799.828 126.607C800.051 126.751 798.829 129.229 799.705 129.648C801.113 130.302 802.532 130.875 803.95 131.394C809.732 133.472 815.623 134.744 821.258 136.994C822.237 137.387 820.919 140.174 821.485 140.435C827.352 143.151 825.797 137.922 829.894 132.906C828.179 140.079 829.47 144.79 834.113 145.411C836.956 145.788 836.848 142.545 838.913 140.515C839.534 139.904 841.214 142.313 841.772 140.858C843.511 136.094 842.297 130.418 846.777 133.115C846.973 133.24 846.028 135.852 846.724 136.09C851.28 137.643 852.327 132.571 857.409 132.41C861.296 132.276 868.135 135.955 872.527 136.716C871.948 144.95 876.408 143.308 878.361 137.698C881.3 138.067 884.442 137.855 887.211 138.706C888.155 138.995 887.478 141.369 887.592 141.63C889.431 145.72 890.811 140.202 891.424 139.992C898.212 137.953 903.875 142.051 910.153 137.603C910.378 137.441 910.407 131.704 912.323 135.771C912.471 136.049 910.509 138.797 913.558 138.79C916.518 138.795 922.673 141.287 926.427 138.007C927.339 137.225 928.948 132.248 931.566 135.418C931.919 135.849 931.968 137.517 932.525 138.336C934.448 140.91 933.756 135.133 936.395 139.551C938.675 143.435 942.503 145.979 945.684 143.078C945.841 143.027 946.268 142.793 946.414 142.715C946.72 142.277 946.992 141.749 947.224 141.125C947.294 140.966 945.741 136.527 946.942 135.854C948.831 134.804 951.979 133.905 953.854 132.625C954.759 132.005 952.596 130.019 952.726 129.87C957.901 124.494 963.576 123.622 970.59 119.855C971.882 119.167 972.869 113.589 976.925 114.358C981.406 115.162 987.405 128.231 991.075 121.154C992.588 118.274 984.301 102.194 994.053 106.104C1000.28 98.0598 1010.35 95.5812 1015.57 86.4136C1015.81 86.002 1013.5 81.3967 1014.31 80.7411C1015.52 79.7681 1017.72 80.8793 1018.64 80.2288C1022.53 77.5404 1024.23 73.1459 1027.62 70.2118C1028.91 69.0869 1030.18 71.2034 1031.71 69.8501C1033.24 68.4939 1031.95 65.3094 1034.95 64.3974C1037.23 63.6978 1043.34 66.6247 1045.84 65.0431C1041.26 60.6297 1042.65 59.3393 1043.68 55.6884C1043.87 54.9874 1041.76 54.0251 1041.77 53.6181C1041.75 51.9322 1043.87 52.3113 1043.72 50.5951C1043.69 50.1821 1042.06 48.7396 1041.94 48.3233C1040.83 44.7478 1046.62 45.4861 1047.64 45.5847C1051.5 46.0151 1049.98 43.4222 1052.01 42.9441C1054.04 42.4564 1053.71 45.3914 1055.53 44.3603C1059.35 42.1869 1062.26 37.8061 1064.76 34.4502C1065.73 33.1181 1062.71 32.366 1062.8 32.1362C1062.9 31.8994 1063.02 31.6752 1063.14 31.4607C1064.5 28.6378 1067.92 27.0194 1064.07 22.9389C1078.29 28.0446 1063.76 20.4521 1068.76 17.6428C1069.16 17.4202 1075.53 20.4909 1075.73 22.2437C1075.93 24.0019 1072.95 24.8376 1073.4 27.3881C1073.51 27.9839 1077.99 33.5791 1078.15 34.1217C1079.42 38.3054 1069.97 33.5603 1069.4 33.4019C1067.99 33.073 1067.13 33.1262 1066.62 33.4344C1066.58 33.4977 1066.46 33.6925 1066.42 33.7517C1064.59 34.6155 1066.82 39.0233 1066.69 39.8359C1066.02 44.5562 1062.61 46.5023 1061.67 50.2221C1061.03 52.6557 1066.19 57.2536 1064.85 58.5309C1060.3 62.8435 1051.77 57.9324 1054.16 67.7544C1054.66 69.849 1061.06 74.0713 1053.68 73.2892C1053.2 73.2581 1047.05 71.8742 1048.24 75.5987C1048.39 76.069 1049.98 77.5865 1049.9 77.9413C1049.31 80.2809 1047.08 80.0549 1046.08 82.2716C1045.09 84.4702 1044.01 87.3173 1041.64 88.5954C1040.21 89.3754 1035.91 87.8297 1034.69 87.6116C1031.19 86.9662 1032.83 91.9487 1029.49 90.285C1026.14 88.6019 1024.3 83.0025 1020.31 83.6226C1024.12 87.8865 1027.91 92.3753 1031.68 96.7242C1026.01 101.732 1019.26 105.273 1013.71 110.358C1013.02 110.993 1015.75 112.708 1015.06 113.451C1012.14 116.585 1007.89 117.276 1005.04 120.726C1002.84 123.41 1001.95 128.296 999.629 131.157C993.864 127.369 991.064 132.342 987.619 134.173C986.412 134.82 985.439 133.364 984.333 133.477C980.196 133.919 984.984 137.566 984.72 138.892C983.537 144.57 975.56 134.194 971.732 137.302C971.538 137.458 972.862 145.044 972.732 145.658C971.993 149.609 970.972 143.924 969.202 144.514C965.971 145.579 963.182 145.447 961.107 149.241C960.487 150.368 960.586 155.477 956.894 153.821C956.414 153.602 955.325 151.563 955.057 151.571C953.697 151.66 953.044 152.223 952.776 153.069C952.242 153.357 950.679 154.212 950.101 154.4C948.601 156.518 949.248 160.718 947.607 163.069C945.207 166.4 939.564 162.574 938.519 161.313C935.533 158.142 939.837 159.396 939.877 158.996C940.254 154.427 937.486 155.875 935.253 155.933C933.539 149.04 930.785 149.975 932.94 156.012C933.16 156.677 934.769 155.702 935.253 155.933C934.67 163.163 931.134 164.696 926.616 158.72C924.526 155.903 925.667 152.216 920.826 154.055C918.674 154.86 920.011 159.647 918.047 161.16C913.577 164.606 907.27 160.352 902.657 161.17C900.925 161.47 902.667 164.111 901.496 164.406C898.414 165.191 895.673 163.196 892.521 164.202C892.237 164.297 892.898 167.106 891.939 167.133C884.562 167.383 878.262 165.348 870.731 164.856C867.165 164.63 860.492 165.692 856.791 165.054C850.263 163.977 842.884 159.105 837.283 159.442C833.67 159.654 834.1 162.525 832.322 164.233C828.886 167.547 824.52 160.282 823.938 159.164C823.916 159.128 827.102 158.884 825.641 157.239C825.081 154.139 823.968 159.155 823.938 159.164C823.596 158.454 817.602 156.981 816.284 157.326C815.597 157.523 815.578 160.204 815.226 160.257C809.859 161.007 804.564 161.026 799.274 160.251C796.296 159.815 793.264 159.102 790.362 158.137C790.226 158.059 790.955 155.17 790.629 155.022C786.093 152.887 782.416 155.909 778.133 157.308C773.795 158.694 770.888 157.401 769.539 151.946C766.521 152.019 762.749 148.981 760.633 147.167C758.5 145.35 757.026 150.953 756.799 151.025C749.53 153.308 746.349 149.287 739.697 147.412C736.512 146.506 729.97 146.031 726.374 145.945C723.512 145.884 722.145 144.223 719.441 144.56C719.075 144.604 718.91 147.199 718.786 147.275C715.35 149.723 717.955 143.827 717.594 142.607C716.297 138.173 715.428 135.776 711.427 136.934C710.508 137.199 706.313 145.604 704.696 145.823C702.598 146.091 703.966 143.05 701.76 143.415C701.572 143.443 701.219 145.417 699.968 145.079C694.14 143.535 687.964 141.146 681.813 140.186C680.977 140.048 681.452 143.374 680.236 143.227C674.525 142.532 668.378 141.283 663.159 138.848C661.875 138.238 663.108 136.196 662.93 135.493C661.819 131.234 658.26 136.515 657.824 136.552C647.337 137.582 640.507 131.148 629.944 132.138C629.357 132.199 624.259 137.766 623.092 132.218C623.015 131.849 621.857 126.174 619.708 129.662C619.573 129.88 620.376 132.823 618.373 132.272C616.36 131.72 612.891 133.177 610.451 129.776C609.685 128.705 608.204 123.04 605.069 127.069C604.839 127.346 599.785 136.692 599.037 129.807C598.916 128.674 599.858 121.55 596.346 124.911C595.68 125.565 596.616 127.26 594.949 128.109C592.474 129.395 589.473 127.319 586.381 130.024C586.311 130.08 586.241 130.139 586.172 130.199C585.577 130.722 582.876 135.403 581.298 131.578C581.051 130.979 581.78 128.631 580.821 128.291C576.303 126.664 571.269 127.902 566.691 125.912C565.074 125.212 566.196 121.41 564.547 120.252C562.902 119.094 559.381 117.845 557.451 119.485C555.511 121.125 557.062 127.42 554.319 127.725C542.287 129.045 530.809 124.671 519.029 123.448C517.268 123.266 518.596 125.555 516.007 125.447C506.482 125.049 490.014 126.293 482.02 121.279C475.574 117.255 483.989 114.731 479.012 113C476.645 112.175 473.693 119.249 473.108 119.454C467.355 121.546 463.457 118.247 458.301 119.094C457.231 119.27 458.203 122.203 457.297 122.321C454.233 122.753 451.026 121.391 448.107 121.584C446.806 121.678 447.014 123.903 445.835 123.716C442.896 123.294 440.459 122.34 437.629 120.247C437.371 120.057 439.126 117.299 436.972 117.189C433.539 117.02 429.214 114.982 425.326 117.158C424.153 117.813 424.181 122.887 421.643 119.428C421.101 118.707 421.684 112.593 418.848 117.928C418.334 118.812 413.777 126.048 411.244 121.571C410.578 120.391 408.805 115.471 407.419 116.323C407.238 116.457 408.117 119.144 406.986 119.465C403.089 120.546 398.841 120.523 394.94 121.705C393.908 122.025 395.719 124.704 394.159 125.096C389.907 126.172 384.577 126.043 380.46 125.755C378.941 125.643 379.613 123.182 379.471 122.946C377.124 119.11 376.92 124.807 376.433 125.218C373.299 127.722 370.228 125.661 367.356 127.042C366.571 127.417 367.775 129.869 367.667 130.139C366.591 132.763 366.662 127.948 365.525 127.605C365.51 127.602 365.495 127.6 365.48 127.598C361.303 127.113 357.213 128.367 353.457 129.669C352.09 130.147 354.419 132.743 353.185 133.138C345.898 135.531 338.13 137.199 330.502 137.4C329.063 137.432 329.326 134.91 328.908 134.457C326.014 131.277 324.466 137.028 323.923 137.679C321.491 140.636 319.84 138.892 317.298 139.96C304.942 145.194 288.894 148.075 276.846 150.658C261.114 154.053 248.654 155.534 234.75 161.061C233.878 161.408 235.827 164.071 235.094 164.407C225.505 168.642 215.648 171.205 206.976 176.207C206.273 176.609 208.58 178.845 207.509 179.576C205.281 181.114 202.265 182.405 199.516 182.745C198.178 182.916 198.519 179.844 197.177 180.074C194.028 180.622 191.087 181.993 188.717 183.942C187.715 184.778 190.932 186.44 189.532 187.31C186.702 189.1 183.98 190.979 181.385 192.791C173.68 198.166 165.8 202.954 156.396 206.137C155.477 206.445 151.267 201.783 150.299 203.916C151.166 205.421 152.338 207.084 153.342 208.638C137.844 220.673 120.766 229.983 104.485 240.993C103.809 241.451 106.862 243.343 105.559 244.245C97.9306 249.536 91.076 255.467 81.4393 258.23C80.5013 258.497 77.5473 253.471 75.7586 255.804C75.4269 256.233 72.5356 259.214 72.3267 260.904C72.3155 261.145 74.504 262.921 73.4402 263.766C67.2867 268.601 60.215 272.827 52.9118 275.956C51.7536 276.441 51.1516 273.33 50.3151 273.653C44.2291 276.074 39.8162 281.885 33.3703 283.247C29.0785 284.132 27.3803 279.214 22.7652 276.469C22.0966 276.093 20.052 277.421 18.2538 275.194C13.776 269.559 10.1983 262.436 5.33017 256.498C5.08545 256.165 4.74552 256.165 4.399 256.257C4.04963 256.351 3.77207 256.481 3.33164 256.641C3.23576 256.67 3.14456 256.691 3.05534 256.702C2.96476 256.714 2.89486 256.702 2.684 256.785C2.34162 256.91 1.81573 257.032 0.396513 258.105C0.104629 258.32 -0.0677104 258.423 0.0252981 258.24C0.108765 258.068 0.404967 257.684 0.659819 257.362C1.19757 256.692 1.47758 256.291 1.61477 255.97C1.95079 255.29 1.73601 254.948 1.72691 254.336C1.82135 253.933 3.05169 251.422 2.78181 249.953C2.5715 248.953 0.272401 247.022 0.271111 245.552C0.351203 244.025 2.42707 245.538 2.87489 243.493C3.14496 241.554 0.793874 239.166 2.86349 237.216ZM751.071 139.02C749.42 135.854 747.081 145.761 749.947 143.855C750.088 143.751 751.158 139.177 751.071 139.02ZM1014.19 99.4416C1008.99 98.037 1011.77 104.353 1015.65 105.577C1019.54 106.778 1015.78 99.8543 1014.19 99.4416ZM1034.58 75.879C1029.63 75.8182 1039.34 86.5007 1040 81.7388C1040.04 81.4644 1034.87 75.8798 1034.58 75.879ZM30.1203 269.527C29.9975 269.448 28.5306 270.327 28.5283 270.493C29.6233 273.677 32.6801 271.83 30.1203 269.527ZM1052.8 50.978C1050.61 50.5539 1050.3 54.3607 1053.01 54.9345C1055.2 55.395 1055.54 51.4995 1052.8 50.978ZM638.22 106.766C638.208 106.611 636.945 106.284 636.844 107.136C636.527 109.879 638.421 109.374 638.22 106.766ZM1080.98 7.56903C1076.64 13.6609 1063.99 11.7213 1069.44 5.17434C1070.43 3.99384 1071.02 9.93353 1072.93 8.82094C1076.4 6.84456 1071.22 0.960555 1076.53 0.00203551C1077.48 -0.141927 1081.25 7.22616 1080.99 7.5891C1080.98 7.58241 1080.98 7.57572 1080.98 7.56903ZM752.219 126.786C752.202 126.646 750.46 126.164 750.39 126.286C748.792 129.258 752.306 130.232 752.219 126.786ZM563.232 92.8314C563.146 92.5375 558.977 91.9766 558.829 92.2316C556.281 97.3477 564.694 98.4958 563.232 92.8314ZM872.586 136.94C874.764 133.815 876.996 133.547 878.353 137.693C876.446 137.388 874.554 137.257 872.586 136.94Z" fill="#FF4D00" fill-opacity="1"/>
</svg>
