<svg width="846" height="566" viewBox="0 0 846 566" fill="none" xmlns="http://www.w3.org/2000/svg">
<g clip-path="url(#clip0_1757_32)">
<path d="M422.082 2.33924C190.758 2.33924 3.23353 122.674 3.23353 271.114C3.23353 419.555 190.758 539.89 422.082 539.89C653.406 539.89 840.931 419.555 840.931 271.114C840.931 122.674 653.406 2.33924 422.082 2.33924Z" fill="#F5F5F5"/>
<path d="M422.745 542.548C447.682 542.548 472.116 541.153 495.874 538.494L548.133 565.449C549.804 566.312 552.252 566.141 553.596 565.068C554.941 563.995 554.675 562.425 553.003 561.562L498.007 533.196L496.267 533.396C472.406 536.134 447.838 537.562 422.745 537.562C308.14 537.562 204.423 507.761 129.315 459.569C54.2136 411.371 7.77465 344.815 7.77233 271.275C7.77465 197.734 54.2136 131.178 129.315 82.9813C204.423 34.7895 308.14 4.98898 422.745 4.98824C537.348 4.98898 641.066 34.7895 716.174 82.9813C791.274 131.178 837.713 197.733 837.716 271.275C837.722 386.994 722.681 485.472 561.998 522.198C559.977 522.66 558.922 524.086 559.641 525.384C560.361 526.682 562.584 527.359 564.607 526.897H564.606C728.309 489.487 845.482 389.161 845.488 271.276C845.486 121.453 656.221 0.00148947 422.745 0C189.267 0.00148947 0.00116057 121.453 0 271.275C0.00116057 421.096 189.267 542.546 422.745 542.548Z" fill="black"/>
<path d="M108.273 220.128C108.1 220.821 107.961 221.463 107.857 222.052C107.788 222.607 107.701 223.179 107.597 223.768C107.458 224.739 107.285 225.952 107.077 227.408C106.904 228.864 106.696 230.459 106.453 232.192C106.245 233.925 106.02 235.711 105.777 237.548C105.569 239.385 105.361 241.171 105.153 242.904C104.98 244.637 104.841 246.215 104.737 247.636C104.633 249.057 104.581 250.236 104.581 251.172C104.581 253.703 105.292 255.696 106.713 257.152C108.169 258.608 110.37 259.336 113.317 259.336C115.986 259.336 118.274 258.972 120.181 258.244C122.122 257.516 123.613 256.493 124.653 255.176C125.728 253.824 126.265 252.264 126.265 250.496C126.265 248.763 125.797 246.977 124.861 245.14C123.925 243.268 122.504 241.517 120.597 239.888L125.173 238.952C126.941 240.928 128.258 242.869 129.125 244.776C130.026 246.648 130.477 248.711 130.477 250.964C130.477 253.529 129.749 255.748 128.293 257.62C126.872 259.492 124.878 260.913 122.313 261.884C119.748 262.889 116.749 263.392 113.317 263.392C110.96 263.392 108.81 263.011 106.869 262.248C104.962 261.52 103.437 260.307 102.293 258.608C101.149 256.909 100.577 254.639 100.577 251.796C100.577 250.687 100.646 249.231 100.785 247.428C100.958 245.625 101.166 243.667 101.409 241.552C101.686 239.403 101.964 237.219 102.241 235C102.553 232.747 102.813 230.632 103.021 228.656C103.264 226.68 103.437 224.964 103.541 223.508C103.645 222.607 103.697 221.896 103.697 221.376C103.697 220.821 103.662 220.301 103.593 219.816L108.273 220.128ZM91.581 227.044C93.0716 227.495 94.701 227.876 96.469 228.188C98.237 228.5 100.022 228.743 101.825 228.916C103.628 229.055 105.292 229.124 106.817 229.124C108.828 229.124 110.717 229.072 112.485 228.968C114.288 228.864 115.934 228.691 117.425 228.448L117.321 232.348C115.657 232.487 114.01 232.608 112.381 232.712C110.752 232.781 108.88 232.816 106.765 232.816C105.24 232.816 103.576 232.747 101.773 232.608C99.9703 232.435 98.1676 232.192 96.365 231.88C94.5623 231.568 92.8983 231.221 91.373 230.84L91.581 227.044ZM90.333 239.94C91.997 240.529 93.7476 240.997 95.585 241.344C97.457 241.656 99.2943 241.881 101.097 242.02C102.9 242.159 104.616 242.228 106.245 242.228C108.013 242.228 109.798 242.193 111.601 242.124C113.438 242.02 115.258 241.829 117.061 241.552L116.957 245.504C115.258 245.712 113.577 245.851 111.913 245.92C110.249 245.989 108.533 246.024 106.765 246.024C103.957 246.024 101.062 245.851 98.081 245.504C95.1343 245.157 92.4823 244.637 90.125 243.944L90.333 239.94ZM145.557 240.252C146.354 240.079 147.152 239.888 147.949 239.68C148.781 239.437 149.613 239.195 150.445 238.952C151.346 238.675 152.525 238.293 153.981 237.808C155.437 237.323 157.014 236.855 158.713 236.404C160.412 235.953 162.128 235.555 163.861 235.208C165.629 234.861 167.276 234.688 168.801 234.688C171.262 234.688 173.446 235.156 175.353 236.092C177.26 237.028 178.75 238.363 179.825 240.096C180.934 241.795 181.489 243.84 181.489 246.232C181.489 248.728 180.917 250.929 179.773 252.836C178.629 254.708 177 256.303 174.885 257.62C172.805 258.937 170.309 259.977 167.397 260.74C164.52 261.503 161.33 261.988 157.829 262.196L156.165 258.192C158.973 258.088 161.642 257.811 164.173 257.36C166.704 256.875 168.957 256.164 170.933 255.228C172.909 254.292 174.452 253.079 175.561 251.588C176.705 250.063 177.277 248.243 177.277 246.128C177.277 244.637 176.913 243.32 176.185 242.176C175.457 241.032 174.434 240.131 173.117 239.472C171.834 238.779 170.292 238.432 168.489 238.432C167.206 238.432 165.768 238.605 164.173 238.952C162.578 239.264 160.932 239.68 159.233 240.2C157.534 240.72 155.905 241.275 154.345 241.864C152.785 242.419 151.398 242.939 150.185 243.424C148.972 243.875 148.018 244.239 147.325 244.516L145.557 240.252ZM231.565 229.956C230.976 230.337 230.352 230.701 229.693 231.048C229.034 231.395 228.324 231.759 227.561 232.14C226.694 232.625 225.62 233.18 224.337 233.804C223.054 234.428 221.685 235.121 220.229 235.884C218.773 236.647 217.317 237.444 215.861 238.276C214.405 239.108 213.036 239.94 211.753 240.772C209.326 242.332 207.42 243.979 206.033 245.712C204.681 247.445 204.005 249.3 204.005 251.276C204.005 253.425 205.028 255.141 207.073 256.424C209.153 257.672 212.238 258.296 216.329 258.296C218.236 258.296 220.212 258.227 222.257 258.088C224.302 257.915 226.261 257.689 228.133 257.412C230.04 257.135 231.652 256.84 232.969 256.528V261.156C231.686 261.399 230.161 261.607 228.393 261.78C226.66 261.988 224.788 262.144 222.777 262.248C220.766 262.387 218.686 262.456 216.537 262.456C214.076 262.456 211.822 262.248 209.777 261.832C207.732 261.451 205.946 260.844 204.421 260.012C202.93 259.18 201.769 258.088 200.937 256.736C200.105 255.349 199.689 253.685 199.689 251.744C199.689 249.837 200.088 248.087 200.885 246.492C201.682 244.863 202.826 243.32 204.317 241.864C205.808 240.408 207.576 239.004 209.621 237.652C210.938 236.751 212.342 235.884 213.833 235.052C215.358 234.185 216.849 233.353 218.305 232.556C219.761 231.759 221.113 231.031 222.361 230.372C223.644 229.713 224.718 229.159 225.585 228.708C226.313 228.257 226.972 227.859 227.561 227.512C228.15 227.131 228.722 226.715 229.277 226.264L231.565 229.956ZM205.253 220.544C206.05 222.763 206.9 224.929 207.801 227.044C208.737 229.159 209.673 231.135 210.609 232.972C211.58 234.809 212.464 236.439 213.261 237.86L209.673 239.992C208.806 238.571 207.888 236.889 206.917 234.948C205.946 233.007 204.976 230.944 204.005 228.76C203.034 226.576 202.081 224.409 201.145 222.26L205.253 220.544ZM267.029 220.752C265.573 222.589 263.701 224.479 261.413 226.42C259.125 228.327 256.594 230.164 253.821 231.932C251.082 233.7 248.257 235.243 245.345 236.56C245.206 236.283 244.998 235.953 244.721 235.572C244.478 235.156 244.218 234.775 243.941 234.428C243.664 234.047 243.386 233.717 243.109 233.44C246.056 232.157 248.916 230.632 251.689 228.864C254.497 227.061 257.045 225.155 259.333 223.144C261.621 221.133 263.458 219.175 264.845 217.268H268.745C270.166 218.897 271.778 220.492 273.581 222.052C275.384 223.577 277.273 225.016 279.249 226.368C281.26 227.72 283.305 228.951 285.385 230.06C287.5 231.135 289.562 232.053 291.573 232.816C291.157 233.301 290.724 233.873 290.273 234.532C289.822 235.156 289.441 235.745 289.129 236.3C286.529 235.121 283.842 233.7 281.069 232.036C278.296 230.337 275.678 228.517 273.217 226.576C270.79 224.635 268.728 222.693 267.029 220.752ZM254.705 239.212H279.613V242.228H254.705V239.212ZM265.105 226.42H269.109V233.492H265.105V226.42ZM246.489 261.052C248.43 260.879 250.649 260.688 253.145 260.48C255.676 260.272 258.345 260.029 261.153 259.752C263.996 259.475 266.856 259.197 269.733 258.92V262.456C267.029 262.733 264.308 263.011 261.569 263.288C258.865 263.565 256.265 263.825 253.769 264.068C251.308 264.311 249.072 264.536 247.061 264.744L246.489 261.052ZM267.497 248.52C269.438 252.16 272.42 255.089 276.441 257.308C280.497 259.492 285.298 260.983 290.845 261.78C290.568 262.023 290.273 262.335 289.961 262.716C289.649 263.132 289.354 263.548 289.077 263.964C288.834 264.415 288.609 264.813 288.401 265.16C284.622 264.467 281.173 263.444 278.053 262.092C274.933 260.74 272.194 259.024 269.837 256.944C267.514 254.864 265.608 252.385 264.117 249.508L267.497 248.52ZM285.021 247.636L287.933 249.924C286.616 250.895 285.16 251.865 283.565 252.836C281.97 253.807 280.358 254.725 278.729 255.592C277.134 256.459 275.626 257.239 274.205 257.932L271.709 255.8C273.165 255.107 274.69 254.292 276.285 253.356C277.914 252.42 279.492 251.467 281.017 250.496C282.577 249.491 283.912 248.537 285.021 247.636ZM254.757 231.62H282.161V249.976H254.757V246.804H278.261V234.844H254.757V231.62ZM252.417 231.62H256.265V261.52L252.417 261.936V231.62ZM295.681 247.688C296.34 247.203 296.946 246.7 297.501 246.18C298.09 245.625 298.732 244.984 299.425 244.256C300.118 243.563 300.881 242.713 301.713 241.708C302.58 240.668 303.464 239.576 304.365 238.432C305.301 237.253 306.22 236.092 307.121 234.948C308.022 233.804 308.854 232.781 309.617 231.88C311.142 230.077 312.616 229.107 314.037 228.968C315.493 228.795 317.088 229.575 318.821 231.308C319.861 232.383 320.97 233.631 322.149 235.052C323.328 236.439 324.524 237.843 325.737 239.264C326.985 240.685 328.146 242.003 329.221 243.216C330.018 244.083 330.92 245.053 331.925 246.128C332.93 247.203 334.005 248.329 335.149 249.508C336.293 250.652 337.454 251.813 338.633 252.992C339.846 254.171 341.042 255.28 342.221 256.32L338.893 260.064C337.576 258.816 336.206 257.429 334.785 255.904C333.364 254.344 331.96 252.784 330.573 251.224C329.186 249.664 327.904 248.208 326.725 246.856C325.581 245.573 324.402 244.221 323.189 242.8C322.01 241.344 320.866 239.975 319.757 238.692C318.682 237.375 317.746 236.283 316.949 235.416C316.221 234.584 315.58 234.064 315.025 233.856C314.505 233.648 314.002 233.7 313.517 234.012C313.066 234.289 312.546 234.809 311.957 235.572C311.333 236.335 310.622 237.236 309.825 238.276C309.028 239.281 308.196 240.339 307.329 241.448C306.462 242.557 305.613 243.649 304.781 244.724C303.949 245.764 303.204 246.683 302.545 247.48C302.025 248.173 301.488 248.901 300.933 249.664C300.378 250.427 299.893 251.085 299.477 251.64L295.681 247.688ZM329.221 225.9C329.672 226.524 330.192 227.339 330.781 228.344C331.405 229.315 332.029 230.337 332.653 231.412C333.277 232.452 333.78 233.388 334.161 234.22L331.093 235.572C330.677 234.671 330.192 233.717 329.637 232.712C329.117 231.707 328.562 230.736 327.973 229.8C327.384 228.829 326.812 227.963 326.257 227.2L329.221 225.9ZM335.929 223.248C336.414 223.837 336.969 224.635 337.593 225.64C338.217 226.611 338.841 227.616 339.465 228.656C340.124 229.661 340.644 230.58 341.025 231.412L338.061 232.868C337.576 231.932 337.056 230.979 336.501 230.008C335.946 229.037 335.374 228.084 334.785 227.148C334.196 226.212 333.606 225.363 333.017 224.6L335.929 223.248ZM347.575 226.472C348.58 226.437 349.482 226.403 350.279 226.368C351.076 226.299 351.718 226.247 352.203 226.212C353.035 226.108 354.231 225.987 355.791 225.848C357.386 225.675 359.206 225.501 361.251 225.328C363.296 225.12 365.498 224.912 367.855 224.704C370.212 224.496 372.587 224.288 374.979 224.08C376.886 223.907 378.688 223.768 380.387 223.664C382.086 223.525 383.663 223.421 385.119 223.352C386.575 223.248 387.875 223.179 389.019 223.144V227.304C388.048 227.269 386.939 227.269 385.691 227.304C384.443 227.339 383.212 227.425 381.999 227.564C380.786 227.668 379.728 227.859 378.827 228.136C376.99 228.725 375.326 229.627 373.835 230.84C372.379 232.019 371.131 233.388 370.091 234.948C369.051 236.473 368.254 238.085 367.699 239.784C367.179 241.448 366.919 243.043 366.919 244.568C366.919 246.613 367.266 248.399 367.959 249.924C368.652 251.415 369.588 252.68 370.767 253.72C371.98 254.76 373.35 255.609 374.875 256.268C376.435 256.927 378.064 257.412 379.763 257.724C381.462 258.036 383.16 258.227 384.859 258.296L383.351 262.612C381.444 262.543 379.503 262.265 377.527 261.78C375.586 261.329 373.731 260.671 371.963 259.804C370.195 258.903 368.618 257.776 367.231 256.424C365.844 255.072 364.752 253.495 363.955 251.692C363.158 249.889 362.759 247.827 362.759 245.504C362.759 242.8 363.227 240.304 364.163 238.016C365.134 235.693 366.364 233.665 367.855 231.932C369.346 230.199 370.888 228.864 372.483 227.928C371.374 228.067 370.004 228.223 368.375 228.396C366.746 228.569 364.978 228.76 363.071 228.968C361.199 229.141 359.327 229.349 357.455 229.592C355.583 229.835 353.815 230.077 352.151 230.32C350.522 230.528 349.152 230.753 348.043 230.996L347.575 226.472ZM427.395 217.424H431.087V253.564H427.395V217.424ZM409.247 238.796L440.551 226.68L442.007 230.112L410.755 242.28L409.247 238.796ZM415.851 222.52H419.699V257.256C419.699 258.261 419.803 259.024 420.011 259.544C420.219 260.064 420.635 260.428 421.259 260.636C421.918 260.809 422.854 260.896 424.067 260.896C424.414 260.896 425.02 260.896 425.887 260.896C426.788 260.896 427.794 260.896 428.903 260.896C430.012 260.896 431.139 260.896 432.283 260.896C433.427 260.896 434.45 260.896 435.351 260.896C436.287 260.896 436.98 260.896 437.431 260.896C438.506 260.896 439.32 260.705 439.875 260.324C440.43 259.908 440.828 259.163 441.071 258.088C441.314 256.979 441.487 255.401 441.591 253.356C442.076 253.668 442.666 253.98 443.359 254.292C444.052 254.569 444.676 254.777 445.231 254.916C445.023 257.308 444.676 259.215 444.191 260.636C443.74 262.023 442.995 263.011 441.955 263.6C440.95 264.189 439.476 264.484 437.535 264.484C437.258 264.484 436.651 264.484 435.715 264.484C434.814 264.484 433.756 264.484 432.543 264.484C431.33 264.484 430.116 264.484 428.903 264.484C427.724 264.484 426.667 264.484 425.731 264.484C424.83 264.484 424.24 264.484 423.963 264.484C421.883 264.484 420.236 264.276 419.023 263.86C417.844 263.444 417.012 262.716 416.527 261.676C416.076 260.636 415.851 259.163 415.851 257.256V222.52ZM439.199 227.564H438.783L439.667 226.784L440.395 226.212L443.099 227.304L442.891 227.98C442.891 231.1 442.874 233.977 442.839 236.612C442.804 239.247 442.735 241.483 442.631 243.32C442.562 245.123 442.44 246.405 442.267 247.168C442.059 248.347 441.678 249.213 441.123 249.768C440.603 250.323 439.944 250.721 439.147 250.964C438.419 251.137 437.552 251.259 436.547 251.328C435.542 251.363 434.64 251.363 433.843 251.328C433.808 250.773 433.704 250.149 433.531 249.456C433.358 248.728 433.15 248.139 432.907 247.688C433.635 247.723 434.398 247.74 435.195 247.74C435.992 247.74 436.547 247.74 436.859 247.74C437.31 247.74 437.674 247.653 437.951 247.48C438.263 247.307 438.506 246.873 438.679 246.18C438.818 245.625 438.922 244.533 438.991 242.904C439.06 241.24 439.112 239.125 439.147 236.56C439.182 233.96 439.199 230.961 439.199 227.564ZM408.987 217.528L412.627 218.62C411.518 221.532 410.2 224.427 408.675 227.304C407.15 230.147 405.503 232.833 403.735 235.364C401.967 237.86 400.147 240.079 398.275 242.02C398.171 241.743 397.98 241.361 397.703 240.876C397.46 240.391 397.183 239.905 396.871 239.42C396.594 238.935 396.334 238.553 396.091 238.276C397.824 236.577 399.488 234.619 401.083 232.4C402.678 230.181 404.151 227.807 405.503 225.276C406.89 222.711 408.051 220.128 408.987 217.528ZM403.475 230.892L407.271 227.148L407.323 227.2V265.056H403.475V230.892ZM476.483 225.484C476.136 228.188 475.686 231.013 475.131 233.96C474.611 236.907 473.935 239.767 473.103 242.54C472.063 246.111 470.902 249.092 469.619 251.484C468.371 253.876 467.019 255.679 465.563 256.892C464.107 258.105 462.582 258.712 460.987 258.712C459.462 258.712 457.988 258.157 456.567 257.048C455.146 255.939 453.984 254.344 453.083 252.264C452.182 250.149 451.731 247.671 451.731 244.828C451.731 241.985 452.303 239.299 453.447 236.768C454.626 234.237 456.238 232.001 458.283 230.06C460.363 228.084 462.79 226.524 465.563 225.38C468.336 224.236 471.3 223.664 474.455 223.664C477.506 223.664 480.244 224.167 482.671 225.172C485.132 226.177 487.23 227.564 488.963 229.332C490.696 231.065 492.031 233.093 492.967 235.416C493.903 237.704 494.371 240.165 494.371 242.8C494.371 246.44 493.591 249.647 492.031 252.42C490.506 255.193 488.287 257.447 485.375 259.18C482.498 260.913 478.996 262.057 474.871 262.612L472.427 258.764C473.259 258.66 474.056 258.556 474.819 258.452C475.582 258.348 476.275 258.227 476.899 258.088C478.563 257.707 480.175 257.117 481.735 256.32C483.33 255.488 484.751 254.448 485.999 253.2C487.247 251.917 488.235 250.409 488.963 248.676C489.726 246.908 490.107 244.897 490.107 242.644C490.107 240.529 489.76 238.571 489.067 236.768C488.374 234.931 487.351 233.319 485.999 231.932C484.647 230.545 483 229.453 481.059 228.656C479.118 227.859 476.899 227.46 474.403 227.46C471.56 227.46 468.978 227.98 466.655 229.02C464.367 230.06 462.408 231.429 460.779 233.128C459.184 234.792 457.954 236.629 457.087 238.64C456.22 240.616 455.787 242.557 455.787 244.464C455.787 246.648 456.064 248.451 456.619 249.872C457.208 251.259 457.902 252.281 458.699 252.94C459.531 253.599 460.346 253.928 461.143 253.928C461.975 253.928 462.824 253.529 463.691 252.732C464.558 251.9 465.442 250.583 466.343 248.78C467.244 246.943 468.128 244.568 468.995 241.656C469.758 239.16 470.399 236.508 470.919 233.7C471.474 230.892 471.872 228.136 472.115 225.432L476.483 225.484ZM522.451 218.932H526.819C526.75 220.284 526.628 222.069 526.455 224.288C526.282 226.507 525.952 229.02 525.467 231.828C525.016 234.601 524.306 237.496 523.335 240.512C522.364 243.528 521.064 246.509 519.435 249.456C517.806 252.403 515.726 255.193 513.195 257.828C510.699 260.463 507.648 262.751 504.043 264.692C503.731 264.207 503.28 263.687 502.691 263.132C502.102 262.577 501.495 262.092 500.871 261.676C504.442 259.839 507.44 257.689 509.867 255.228C512.294 252.767 514.287 250.132 515.847 247.324C517.407 244.516 518.62 241.691 519.487 238.848C520.354 235.971 520.995 233.232 521.411 230.632C521.827 228.032 522.087 225.727 522.191 223.716C522.33 221.671 522.416 220.076 522.451 218.932ZM526.611 219.972C526.646 220.561 526.715 221.584 526.819 223.04C526.958 224.461 527.2 226.195 527.547 228.24C527.894 230.285 528.396 232.504 529.055 234.896C529.714 237.288 530.598 239.749 531.707 242.28C532.816 244.811 534.186 247.272 535.815 249.664C537.444 252.056 539.403 254.275 541.691 256.32C543.979 258.331 546.666 260.029 549.751 261.416C549.162 261.867 548.59 262.387 548.035 262.976C547.515 263.6 547.082 264.172 546.735 264.692C543.615 263.201 540.859 261.381 538.467 259.232C536.11 257.048 534.082 254.691 532.383 252.16C530.719 249.595 529.315 246.977 528.171 244.308C527.062 241.639 526.16 239.039 525.467 236.508C524.774 233.943 524.254 231.568 523.907 229.384C523.56 227.165 523.318 225.276 523.179 223.716C523.04 222.121 522.954 220.977 522.919 220.284L526.611 219.972ZM593.483 229.956C592.894 230.337 592.27 230.701 591.611 231.048C590.952 231.395 590.242 231.759 589.479 232.14C588.612 232.625 587.538 233.18 586.255 233.804C584.972 234.428 583.603 235.121 582.147 235.884C580.691 236.647 579.235 237.444 577.779 238.276C576.323 239.108 574.954 239.94 573.671 240.772C571.244 242.332 569.338 243.979 567.951 245.712C566.599 247.445 565.923 249.3 565.923 251.276C565.923 253.425 566.946 255.141 568.991 256.424C571.071 257.672 574.156 258.296 578.247 258.296C580.154 258.296 582.13 258.227 584.175 258.088C586.22 257.915 588.179 257.689 590.051 257.412C591.958 257.135 593.57 256.84 594.887 256.528V261.156C593.604 261.399 592.079 261.607 590.311 261.78C588.578 261.988 586.706 262.144 584.695 262.248C582.684 262.387 580.604 262.456 578.455 262.456C575.994 262.456 573.74 262.248 571.695 261.832C569.65 261.451 567.864 260.844 566.339 260.012C564.848 259.18 563.687 258.088 562.855 256.736C562.023 255.349 561.607 253.685 561.607 251.744C561.607 249.837 562.006 248.087 562.803 246.492C563.6 244.863 564.744 243.32 566.235 241.864C567.726 240.408 569.494 239.004 571.539 237.652C572.856 236.751 574.26 235.884 575.751 235.052C577.276 234.185 578.767 233.353 580.223 232.556C581.679 231.759 583.031 231.031 584.279 230.372C585.562 229.713 586.636 229.159 587.503 228.708C588.231 228.257 588.89 227.859 589.479 227.512C590.068 227.131 590.64 226.715 591.195 226.264L593.483 229.956ZM567.171 220.544C567.968 222.763 568.818 224.929 569.719 227.044C570.655 229.159 571.591 231.135 572.527 232.972C573.498 234.809 574.382 236.439 575.179 237.86L571.591 239.992C570.724 238.571 569.806 236.889 568.835 234.948C567.864 233.007 566.894 230.944 565.923 228.76C564.952 226.576 563.999 224.409 563.063 222.26L567.171 220.544ZM608.407 224.34H650.267V227.772H608.407V224.34ZM610.955 232.348H647.667V235.676H610.955V232.348ZM615.739 260.428H651.203V263.86H615.739V260.428ZM606.067 240.356H652.243V243.892H606.067V240.356ZM620.731 247.844H647.719V251.276H620.731V247.844ZM627.075 226.004H631.079V242.852H627.075V226.004ZM631.287 249.508H635.239V261.884H631.287V249.508ZM615.531 218.828L618.859 217.476C619.726 218.447 620.558 219.539 621.355 220.752C622.152 221.965 622.724 223.04 623.071 223.976L619.535 225.536C619.188 224.6 618.634 223.508 617.871 222.26C617.108 220.977 616.328 219.833 615.531 218.828ZM639.087 217.216L643.195 218.464C642.432 219.677 641.635 220.891 640.803 222.104C639.971 223.317 639.208 224.375 638.515 225.276L635.239 224.132C635.69 223.508 636.158 222.797 636.643 222C637.128 221.168 637.579 220.336 637.995 219.504C638.446 218.672 638.81 217.909 639.087 217.216ZM617.091 241.812L621.199 242.488C620.124 247.48 618.512 251.9 616.363 255.748C614.214 259.561 611.579 262.716 608.459 265.212C608.216 264.935 607.887 264.623 607.471 264.276C607.09 263.929 606.691 263.583 606.275 263.236C605.859 262.924 605.495 262.664 605.183 262.456C608.303 260.307 610.834 257.464 612.775 253.928C614.751 250.357 616.19 246.319 617.091 241.812ZM679.075 219.868C678.867 220.908 678.59 222.139 678.243 223.56C677.931 224.947 677.411 226.524 676.683 228.292C676.059 229.852 675.279 231.464 674.343 233.128C673.442 234.792 672.471 236.3 671.431 237.652C672.09 237.236 672.835 236.889 673.667 236.612C674.499 236.3 675.348 236.075 676.215 235.936C677.116 235.797 677.931 235.728 678.659 235.728C680.67 235.728 682.368 236.3 683.755 237.444C685.142 238.553 685.835 240.183 685.835 242.332C685.835 242.991 685.835 243.84 685.835 244.88C685.835 245.885 685.835 246.96 685.835 248.104C685.87 249.213 685.904 250.305 685.939 251.38C685.974 252.455 685.991 253.391 685.991 254.188H681.987C682.022 253.495 682.056 252.68 682.091 251.744C682.126 250.808 682.143 249.82 682.143 248.78C682.178 247.74 682.178 246.752 682.143 245.816C682.143 244.88 682.143 244.083 682.143 243.424C682.143 241.899 681.675 240.789 680.739 240.096C679.838 239.368 678.694 239.004 677.307 239.004C675.678 239.004 674.066 239.368 672.471 240.096C670.911 240.789 669.542 241.691 668.363 242.8C667.6 243.528 666.838 244.36 666.075 245.296C665.347 246.197 664.532 247.168 663.631 248.208L660.095 245.608C662.591 243.181 664.671 240.911 666.335 238.796C667.999 236.681 669.351 234.723 670.391 232.92C671.431 231.083 672.246 229.436 672.835 227.98C673.39 226.524 673.84 225.068 674.187 223.612C674.534 222.121 674.742 220.752 674.811 219.504L679.075 219.868ZM661.291 225.484C662.678 225.657 664.186 225.796 665.815 225.9C667.444 226.004 668.866 226.056 670.079 226.056C672.402 226.056 674.898 226.004 677.567 225.9C680.236 225.761 682.923 225.571 685.627 225.328C688.366 225.085 690.966 224.739 693.427 224.288L693.375 228.136C691.572 228.448 689.648 228.708 687.603 228.916C685.558 229.089 683.478 229.245 681.363 229.384C679.248 229.488 677.203 229.575 675.227 229.644C673.286 229.679 671.483 229.696 669.819 229.696C669.091 229.696 668.242 229.696 667.271 229.696C666.335 229.661 665.347 229.627 664.307 229.592C663.267 229.523 662.262 229.453 661.291 229.384V225.484ZM701.019 238.068C700.568 238.172 700.066 238.328 699.511 238.536C698.991 238.709 698.454 238.9 697.899 239.108C697.379 239.316 696.876 239.524 696.391 239.732C694.588 240.425 692.491 241.275 690.099 242.28C687.707 243.285 685.263 244.447 682.767 245.764C681.034 246.631 679.508 247.549 678.191 248.52C676.874 249.456 675.834 250.444 675.071 251.484C674.308 252.489 673.927 253.599 673.927 254.812C673.927 255.817 674.152 256.632 674.603 257.256C675.088 257.88 675.764 258.365 676.631 258.712C677.498 259.024 678.486 259.232 679.595 259.336C680.739 259.44 681.987 259.492 683.339 259.492C685.35 259.492 687.638 259.388 690.203 259.18C692.803 258.937 695.247 258.625 697.535 258.244L697.431 262.404C696.114 262.577 694.623 262.733 692.959 262.872C691.33 263.011 689.666 263.115 687.967 263.184C686.303 263.288 684.708 263.34 683.183 263.34C680.722 263.34 678.468 263.115 676.423 262.664C674.412 262.213 672.8 261.416 671.587 260.272C670.374 259.128 669.767 257.499 669.767 255.384C669.767 253.824 670.131 252.403 670.859 251.12C671.587 249.803 672.558 248.607 673.771 247.532C675.019 246.457 676.388 245.469 677.879 244.568C679.37 243.632 680.895 242.783 682.455 242.02C684.119 241.119 685.679 240.339 687.135 239.68C688.626 239.021 690.03 238.415 691.347 237.86C692.664 237.305 693.895 236.751 695.039 236.196C695.802 235.849 696.53 235.52 697.223 235.208C697.916 234.896 698.61 234.549 699.303 234.168L701.019 238.068ZM710.951 233.856C711.887 233.683 712.823 233.475 713.759 233.232C714.73 232.955 715.7 232.66 716.671 232.348C717.78 232.001 719.202 231.551 720.935 230.996C722.668 230.407 724.558 229.835 726.603 229.28C728.648 228.691 730.728 228.205 732.843 227.824C734.992 227.408 737.003 227.2 738.875 227.2C741.787 227.2 744.404 227.737 746.727 228.812C749.05 229.887 750.904 231.447 752.291 233.492C753.678 235.537 754.371 238.016 754.371 240.928C754.371 243.424 753.886 245.66 752.915 247.636C751.979 249.612 750.644 251.363 748.911 252.888C747.212 254.379 745.184 255.644 742.827 256.684C740.47 257.689 737.852 258.504 734.975 259.128C732.132 259.717 729.116 260.099 725.927 260.272L724.055 255.956C727.487 255.887 730.746 255.557 733.831 254.968C736.916 254.344 739.655 253.443 742.047 252.264C744.474 251.085 746.38 249.56 747.767 247.688C749.154 245.781 749.847 243.493 749.847 240.824C749.847 239.021 749.414 237.392 748.547 235.936C747.68 234.445 746.415 233.267 744.751 232.4C743.122 231.533 741.128 231.1 738.771 231.1C737.072 231.1 735.218 231.308 733.207 231.724C731.196 232.105 729.168 232.608 727.123 233.232C725.078 233.821 723.119 234.463 721.247 235.156C719.41 235.849 717.763 236.491 716.307 237.08C714.851 237.669 713.707 238.12 712.875 238.432L710.951 233.856ZM362.414 283.44C362.345 283.891 362.293 284.376 362.258 284.896C362.258 285.381 362.258 285.919 362.258 286.508C362.224 286.889 362.206 287.513 362.206 288.38C362.241 289.247 362.258 290.235 362.258 291.344C362.293 292.419 362.31 293.528 362.31 294.672C362.345 295.816 362.362 296.873 362.362 297.844C362.362 298.78 362.362 299.543 362.362 300.132C362.362 303.113 362.293 305.887 362.154 308.452C362.05 311.017 361.669 313.409 361.01 315.628C360.352 317.847 359.26 319.909 357.734 321.816C356.244 323.688 354.112 325.439 351.338 327.068L347.542 324.104C348.374 323.757 349.258 323.289 350.194 322.7C351.165 322.111 351.962 321.504 352.586 320.88C353.973 319.667 355.065 318.367 355.862 316.98C356.66 315.593 357.232 314.068 357.578 312.404C357.96 310.74 358.202 308.903 358.306 306.892C358.41 304.881 358.462 302.628 358.462 300.132C358.462 299.3 358.445 298.243 358.41 296.96C358.376 295.643 358.341 294.291 358.306 292.904C358.272 291.483 358.237 290.2 358.202 289.056C358.168 287.912 358.116 287.08 358.046 286.56C358.012 285.971 357.942 285.416 357.838 284.896C357.734 284.341 357.648 283.856 357.578 283.44H362.414ZM343.434 294.204C344.197 294.308 345.046 294.412 345.982 294.516C346.918 294.62 347.889 294.689 348.894 294.724C349.934 294.759 350.905 294.776 351.806 294.776C353.956 294.776 356.157 294.724 358.41 294.62C360.698 294.516 362.9 294.343 365.014 294.1C367.164 293.857 369.088 293.545 370.786 293.164V297.428C369.122 297.671 367.233 297.896 365.118 298.104C363.038 298.312 360.854 298.468 358.566 298.572C356.313 298.641 354.077 298.676 351.858 298.676C351.026 298.676 350.09 298.659 349.05 298.624C348.045 298.589 347.04 298.555 346.034 298.52C345.064 298.485 344.197 298.433 343.434 298.364V294.204ZM336.102 284.22C335.964 284.705 335.808 285.277 335.634 285.936C335.496 286.56 335.357 287.115 335.218 287.6C334.802 289.472 334.404 291.552 334.022 293.84C333.641 296.128 333.346 298.503 333.138 300.964C332.93 303.425 332.861 305.852 332.93 308.244C333 310.636 333.277 312.907 333.762 315.056C334.144 313.947 334.577 312.664 335.062 311.208C335.582 309.752 336.085 308.383 336.57 307.1L338.806 308.452C338.39 309.631 337.957 310.965 337.506 312.456C337.056 313.912 336.64 315.316 336.258 316.668C335.877 317.985 335.6 319.077 335.426 319.944C335.322 320.325 335.236 320.741 335.166 321.192C335.132 321.643 335.132 322.007 335.166 322.284C335.201 322.561 335.218 322.856 335.218 323.168C335.253 323.48 335.288 323.775 335.322 324.052L331.786 324.468C331.44 323.428 331.041 322.024 330.59 320.256C330.174 318.488 329.81 316.547 329.498 314.432C329.186 312.283 329.03 310.133 329.03 307.984C329.03 305.141 329.152 302.42 329.394 299.82C329.672 297.22 329.966 294.828 330.278 292.644C330.59 290.46 330.833 288.657 331.006 287.236C331.11 286.612 331.18 285.988 331.214 285.364C331.249 284.74 331.266 284.203 331.266 283.752L336.102 284.22ZM397.878 283.076C397.705 283.665 397.532 284.376 397.358 285.208C397.185 286.04 397.046 286.716 396.942 287.236C396.7 288.484 396.405 289.94 396.058 291.604C395.746 293.233 395.382 294.949 394.966 296.752C394.585 298.555 394.152 300.323 393.666 302.056C393.216 303.893 392.661 305.904 392.002 308.088C391.344 310.237 390.65 312.404 389.922 314.588C389.194 316.772 388.449 318.835 387.686 320.776C386.924 322.717 386.213 324.416 385.554 325.872L380.978 324.312C381.776 322.96 382.573 321.348 383.37 319.476C384.202 317.569 385 315.541 385.762 313.392C386.56 311.243 387.288 309.111 387.946 306.996C388.64 304.847 389.229 302.871 389.714 301.068C390.061 299.855 390.39 298.572 390.702 297.22C391.014 295.868 391.309 294.551 391.586 293.268C391.864 291.951 392.089 290.755 392.262 289.68C392.47 288.571 392.626 287.669 392.73 286.976C392.834 286.248 392.904 285.485 392.938 284.688C392.973 283.891 392.956 283.215 392.886 282.66L397.878 283.076ZM386.334 291.76C388.276 291.76 390.356 291.673 392.574 291.5C394.828 291.292 397.116 290.997 399.438 290.616C401.761 290.235 403.997 289.767 406.146 289.212V293.32C403.997 293.805 401.744 294.221 399.386 294.568C397.029 294.915 394.706 295.192 392.418 295.4C390.165 295.573 388.12 295.66 386.282 295.66C385.138 295.66 384.081 295.643 383.11 295.608C382.14 295.539 381.186 295.487 380.25 295.452L380.094 291.396C381.342 291.535 382.452 291.639 383.422 291.708C384.428 291.743 385.398 291.76 386.334 291.76ZM402.766 298.936C404.153 298.797 405.661 298.693 407.29 298.624C408.954 298.52 410.618 298.468 412.282 298.468C413.808 298.468 415.333 298.503 416.858 298.572C418.418 298.641 419.892 298.763 421.278 298.936L421.174 302.888C419.857 302.715 418.453 302.576 416.962 302.472C415.472 302.333 413.964 302.264 412.438 302.264C410.809 302.264 409.18 302.316 407.55 302.42C405.956 302.489 404.361 302.611 402.766 302.784V298.936ZM403.858 311.572C403.65 312.404 403.477 313.219 403.338 314.016C403.2 314.813 403.13 315.559 403.13 316.252C403.13 316.876 403.234 317.483 403.442 318.072C403.685 318.627 404.118 319.129 404.742 319.58C405.366 320.031 406.25 320.395 407.394 320.672C408.573 320.949 410.081 321.088 411.918 321.088C413.617 321.088 415.333 321.001 417.066 320.828C418.8 320.655 420.464 320.395 422.058 320.048L421.902 324.26C420.516 324.468 418.973 324.641 417.274 324.78C415.576 324.919 413.773 324.988 411.866 324.988C407.776 324.988 404.638 324.364 402.454 323.116C400.27 321.833 399.178 319.909 399.178 317.344C399.178 316.339 399.248 315.333 399.386 314.328C399.56 313.323 399.75 312.283 399.958 311.208L403.858 311.572ZM438.438 287.704C438.369 288.12 438.3 288.64 438.23 289.264C438.196 289.888 438.144 290.512 438.074 291.136C438.04 291.76 438.022 292.297 438.022 292.748C437.988 293.823 437.97 295.053 437.97 296.44C438.005 297.792 438.04 299.213 438.074 300.704C438.144 302.16 438.248 303.616 438.386 305.072C438.664 307.949 439.132 310.48 439.79 312.664C440.449 314.813 441.246 316.495 442.182 317.708C443.153 318.921 444.245 319.528 445.458 319.528C446.117 319.528 446.758 319.233 447.382 318.644C448.006 318.02 448.596 317.205 449.15 316.2C449.74 315.16 450.26 314.016 450.71 312.768C451.196 311.485 451.594 310.203 451.906 308.92L455.182 312.612C454.142 315.559 453.085 317.899 452.01 319.632C450.97 321.331 449.896 322.561 448.786 323.324C447.712 324.087 446.585 324.468 445.406 324.468C443.777 324.468 442.2 323.879 440.674 322.7C439.149 321.487 437.832 319.545 436.722 316.876C435.613 314.172 434.816 310.584 434.33 306.112C434.157 304.587 434.018 302.94 433.914 301.172C433.845 299.404 433.793 297.723 433.758 296.128C433.758 294.533 433.758 293.233 433.758 292.228C433.758 291.639 433.741 290.876 433.706 289.94C433.672 289.004 433.568 288.224 433.394 287.6L438.438 287.704ZM465.53 289.16C466.466 290.339 467.35 291.725 468.182 293.32C469.049 294.88 469.829 296.561 470.522 298.364C471.25 300.132 471.892 301.969 472.446 303.876C473.036 305.783 473.504 307.689 473.85 309.596C474.232 311.468 474.509 313.271 474.682 315.004L470.522 316.72C470.314 314.363 469.95 311.971 469.43 309.544C468.91 307.083 468.269 304.708 467.506 302.42C466.744 300.097 465.86 297.913 464.854 295.868C463.849 293.823 462.722 292.055 461.474 290.564L465.53 289.16ZM486.007 324.295C485.096 324.295 484.315 323.969 483.662 323.317C483.01 322.664 482.683 321.883 482.683 320.972C482.683 320.061 483.01 319.279 483.662 318.626C484.315 317.974 485.096 317.648 486.007 317.648C486.918 317.648 487.7 317.974 488.352 318.626C489.005 319.279 489.331 320.061 489.331 320.972C489.331 321.575 489.177 322.129 488.869 322.634C488.574 323.138 488.174 323.545 487.669 323.852C487.177 324.148 486.623 324.295 486.007 324.295ZM500.189 324.295C499.278 324.295 498.496 323.969 497.844 323.317C497.191 322.664 496.865 321.883 496.865 320.972C496.865 320.061 497.191 319.279 497.844 318.626C498.496 317.974 499.278 317.648 500.189 317.648C501.1 317.648 501.882 317.974 502.534 318.626C503.187 319.279 503.513 320.061 503.513 320.972C503.513 321.575 503.359 322.129 503.051 322.634C502.756 323.138 502.356 323.545 501.851 323.852C501.359 324.148 500.805 324.295 500.189 324.295ZM514.371 324.295C513.46 324.295 512.678 323.969 512.026 323.317C511.373 322.664 511.047 321.883 511.047 320.972C511.047 320.061 511.373 319.279 512.026 318.626C512.678 317.974 513.46 317.648 514.371 317.648C515.282 317.648 516.064 317.974 516.716 318.626C517.368 319.279 517.695 320.061 517.695 320.972C517.695 321.575 517.541 322.129 517.233 322.634C516.938 323.138 516.538 323.545 516.033 323.852C515.54 324.148 514.986 324.295 514.371 324.295Z" fill="black"/>
</g>
<defs>
<clipPath id="clip0_1757_32">
<rect width="845.488" height="565.999" fill="white"/>
</clipPath>
</defs>
</svg>
