<svg width="846" height="566" viewBox="0 0 846 566" fill="none" xmlns="http://www.w3.org/2000/svg">
<g clip-path="url(#clip0_1757_27)">
<path d="M422.082 2.33924C190.758 2.33924 3.23353 122.674 3.23353 271.114C3.23353 419.555 190.758 539.89 422.082 539.89C653.406 539.89 840.931 419.555 840.931 271.114C840.931 122.674 653.406 2.33924 422.082 2.33924Z" fill="#F5F5F5"/>
<path d="M422.745 542.548C447.682 542.548 472.116 541.153 495.874 538.494L548.133 565.449C549.804 566.312 552.252 566.141 553.596 565.068C554.941 563.995 554.675 562.425 553.003 561.562L498.007 533.196L496.267 533.396C472.406 536.134 447.838 537.562 422.745 537.562C308.14 537.562 204.423 507.761 129.315 459.569C54.2136 411.371 7.77465 344.815 7.77233 271.275C7.77465 197.734 54.2136 131.178 129.315 82.9813C204.423 34.7895 308.14 4.98898 422.745 4.98824C537.348 4.98898 641.066 34.7895 716.174 82.9813C791.274 131.178 837.713 197.733 837.716 271.275C837.722 386.994 722.681 485.472 561.998 522.198C559.977 522.66 558.922 524.086 559.641 525.384C560.361 526.682 562.584 527.359 564.607 526.897H564.606C728.309 489.487 845.482 389.161 845.488 271.276C845.486 121.453 656.221 0.00148947 422.745 0C189.267 0.00148947 0.00116057 121.453 0 271.275C0.00116057 421.096 189.267 542.546 422.745 542.548Z" fill="black"/>
<path d="M98.3798 219.452C98.3105 219.764 98.2585 220.128 98.2238 220.544C98.1891 220.925 98.1545 221.341 98.1198 221.792C98.0851 222.243 98.0505 222.659 98.0158 223.04C97.9811 223.837 97.9291 224.877 97.8598 226.16C97.8251 227.443 97.7905 228.864 97.7558 230.424C97.7211 231.949 97.6865 233.509 97.6518 235.104C97.6171 236.664 97.5998 238.12 97.5998 239.472C97.5998 240.824 97.5998 242.315 97.5998 243.944C97.6345 245.539 97.6691 247.133 97.7038 248.728C97.7731 250.288 97.8078 251.744 97.8078 253.096C97.8425 254.413 97.8598 255.471 97.8598 256.268C97.8598 257.863 97.6691 259.128 97.2878 260.064C96.9065 261 96.3691 261.659 95.6758 262.04C95.0171 262.456 94.2198 262.664 93.2838 262.664C92.2785 262.664 91.1518 262.421 89.9038 261.936C88.6558 261.485 87.4598 260.861 86.3158 260.064C85.2065 259.267 84.2878 258.348 83.5598 257.308C82.8318 256.268 82.4678 255.176 82.4678 254.032C82.4678 252.472 83.0571 250.947 84.2358 249.456C85.4491 247.965 87.0091 246.579 88.9158 245.296C90.8571 244.013 92.9025 242.973 95.0518 242.176C97.4091 241.24 99.8185 240.547 102.28 240.096C104.741 239.611 106.994 239.368 109.04 239.368C111.57 239.368 113.806 239.801 115.748 240.668C117.724 241.535 119.266 242.748 120.376 244.308C121.52 245.833 122.092 247.636 122.092 249.716C122.092 251.796 121.658 253.633 120.792 255.228C119.96 256.823 118.712 258.157 117.048 259.232C115.418 260.307 113.408 261.139 111.016 261.728C109.872 261.971 108.728 262.127 107.584 262.196C106.474 262.3 105.469 262.387 104.568 262.456L103.112 258.244C104.082 258.279 105.088 258.279 106.128 258.244C107.202 258.209 108.225 258.088 109.196 257.88C110.721 257.603 112.142 257.135 113.46 256.476C114.812 255.783 115.886 254.881 116.684 253.772C117.516 252.663 117.932 251.328 117.932 249.768C117.932 248.277 117.533 247.029 116.736 246.024C115.938 245.019 114.864 244.256 113.512 243.736C112.16 243.216 110.652 242.956 108.988 242.956C106.7 242.956 104.464 243.199 102.28 243.684C100.096 244.169 97.8771 244.863 95.6238 245.764C93.9598 246.388 92.4345 247.168 91.0478 248.104C89.6611 249.005 88.5518 249.959 87.7198 250.964C86.9225 251.969 86.5238 252.923 86.5238 253.824C86.5238 254.413 86.7145 254.985 87.0958 255.54C87.5118 256.06 88.0145 256.528 88.6038 256.944C89.1931 257.36 89.8171 257.689 90.4758 257.932C91.1345 258.14 91.7065 258.244 92.1918 258.244C92.7811 258.244 93.2318 258.036 93.5438 257.62C93.8905 257.204 94.0638 256.563 94.0638 255.696C94.0638 254.691 94.0465 253.304 94.0118 251.536C93.9771 249.733 93.9425 247.792 93.9078 245.712C93.8731 243.597 93.8558 241.587 93.8558 239.68C93.8558 238.189 93.8558 236.595 93.8558 234.896C93.8905 233.197 93.9078 231.551 93.9078 229.956C93.9425 228.361 93.9598 226.957 93.9598 225.744C93.9945 224.531 94.0118 223.664 94.0118 223.144C94.0118 222.797 93.9945 222.399 93.9598 221.948C93.9598 221.463 93.9425 220.995 93.9078 220.544C93.8731 220.093 93.8211 219.729 93.7518 219.452H98.3798ZM114.5 225.224C115.748 225.883 117.134 226.68 118.66 227.616C120.185 228.517 121.641 229.436 123.028 230.372C124.449 231.308 125.576 232.123 126.408 232.816L124.276 236.144C123.652 235.52 122.854 234.861 121.884 234.168C120.913 233.44 119.873 232.729 118.764 232.036C117.654 231.308 116.562 230.632 115.488 230.008C114.413 229.349 113.46 228.795 112.628 228.344L114.5 225.224ZM83.2998 228.812C84.7211 228.985 85.9345 229.107 86.9398 229.176C87.9798 229.211 88.9851 229.228 89.9558 229.228C91.2385 229.228 92.6771 229.159 94.2718 229.02C95.8665 228.881 97.5131 228.708 99.2118 228.5C100.91 228.257 102.557 227.98 104.152 227.668C105.781 227.321 107.237 226.957 108.52 226.576L108.624 230.632C107.272 230.944 105.764 231.256 104.1 231.568C102.436 231.845 100.737 232.088 99.0038 232.296C97.3051 232.504 95.6758 232.677 94.1158 232.816C92.5558 232.955 91.2038 233.024 90.0598 233.024C88.5691 233.024 87.3038 233.007 86.2638 232.972C85.2585 232.937 84.3051 232.868 83.4038 232.764L83.2998 228.812ZM151.784 220.44C151.68 220.891 151.576 221.393 151.472 221.948C151.368 222.468 151.264 222.988 151.16 223.508C151.056 224.132 150.9 224.981 150.692 226.056C150.518 227.131 150.328 228.275 150.12 229.488C149.912 230.667 149.669 231.793 149.392 232.868C149.045 234.359 148.612 236.04 148.092 237.912C147.572 239.749 146.982 241.708 146.324 243.788C145.665 245.868 144.92 248 144.088 250.184C143.256 252.333 142.337 254.483 141.332 256.632C140.326 258.747 139.234 260.74 138.056 262.612L133.792 260.948C135.005 259.353 136.114 257.568 137.12 255.592C138.16 253.616 139.113 251.571 139.98 249.456C140.846 247.307 141.626 245.192 142.32 243.112C143.048 241.032 143.654 239.108 144.14 237.34C144.625 235.572 145.006 234.047 145.284 232.764C145.769 230.684 146.168 228.535 146.48 226.316C146.792 224.063 146.948 221.931 146.948 219.92L151.784 220.44ZM169.672 225.952C170.504 227.027 171.37 228.361 172.272 229.956C173.208 231.551 174.109 233.249 174.976 235.052C175.877 236.855 176.692 238.588 177.42 240.252C178.148 241.916 178.737 243.355 179.188 244.568L175.132 246.492C174.75 245.175 174.23 243.667 173.572 241.968C172.913 240.235 172.15 238.484 171.284 236.716C170.452 234.913 169.568 233.232 168.632 231.672C167.73 230.077 166.812 228.743 165.876 227.668L169.672 225.952ZM133.064 231.828C133.861 231.897 134.624 231.932 135.352 231.932C136.08 231.897 136.86 231.863 137.692 231.828C138.489 231.793 139.494 231.741 140.708 231.672C141.921 231.568 143.238 231.464 144.66 231.36C146.116 231.256 147.537 231.152 148.924 231.048C150.345 230.909 151.645 230.805 152.824 230.736C154.037 230.632 154.99 230.58 155.684 230.58C157.244 230.58 158.648 230.823 159.896 231.308C161.178 231.793 162.201 232.677 162.964 233.96C163.726 235.243 164.108 237.045 164.108 239.368C164.108 241.413 164.004 243.632 163.796 246.024C163.622 248.381 163.31 250.635 162.86 252.784C162.409 254.933 161.82 256.719 161.092 258.14C160.294 259.908 159.254 261.069 157.972 261.624C156.689 262.213 155.198 262.508 153.5 262.508C152.529 262.508 151.472 262.421 150.328 262.248C149.184 262.109 148.196 261.936 147.364 261.728L146.688 257.412C147.45 257.62 148.213 257.811 148.976 257.984C149.773 258.157 150.536 258.279 151.264 258.348C151.992 258.417 152.598 258.452 153.084 258.452C154.02 258.452 154.869 258.296 155.632 257.984C156.429 257.637 157.088 256.909 157.608 255.8C158.162 254.621 158.613 253.148 158.96 251.38C159.341 249.577 159.618 247.671 159.792 245.66C160 243.649 160.104 241.725 160.104 239.888C160.104 238.259 159.878 237.063 159.428 236.3C158.977 235.503 158.336 234.965 157.504 234.688C156.672 234.376 155.701 234.22 154.592 234.22C153.69 234.22 152.494 234.289 151.004 234.428C149.513 234.532 147.918 234.671 146.22 234.844C144.556 235.017 142.996 235.191 141.54 235.364C140.084 235.503 138.957 235.624 138.16 235.728C137.57 235.797 136.808 235.901 135.872 236.04C134.97 236.144 134.173 236.248 133.48 236.352L133.064 231.828ZM212.104 220.388C212.104 220.561 212.069 220.873 212 221.324C211.965 221.775 211.93 222.225 211.896 222.676C211.896 223.127 211.878 223.456 211.844 223.664C211.809 224.323 211.792 225.224 211.792 226.368C211.792 227.512 211.792 228.76 211.792 230.112C211.792 231.464 211.792 232.833 211.792 234.22C211.826 235.607 211.844 236.924 211.844 238.172C211.878 239.385 211.896 240.408 211.896 241.24L207.944 239.212C207.944 238.727 207.944 237.999 207.944 237.028C207.944 236.023 207.926 234.879 207.892 233.596C207.892 232.313 207.874 231.031 207.84 229.748C207.84 228.431 207.822 227.235 207.788 226.16C207.788 225.085 207.77 224.253 207.736 223.664C207.701 222.971 207.649 222.312 207.58 221.688C207.51 221.029 207.441 220.596 207.372 220.388H212.104ZM184.492 227.616C185.913 227.616 187.525 227.599 189.328 227.564C191.165 227.495 193.089 227.443 195.1 227.408C197.145 227.339 199.208 227.287 201.288 227.252C203.368 227.183 205.361 227.131 207.268 227.096C209.209 227.061 210.977 227.044 212.572 227.044C214.166 227.044 215.726 227.061 217.252 227.096C218.812 227.096 220.268 227.096 221.62 227.096C223.006 227.096 224.22 227.096 225.26 227.096C226.334 227.096 227.184 227.096 227.808 227.096L227.756 230.996C226.3 230.927 224.341 230.875 221.88 230.84C219.453 230.771 216.333 230.736 212.52 230.736C210.301 230.736 207.961 230.753 205.5 230.788C203.073 230.823 200.629 230.892 198.168 230.996C195.706 231.065 193.314 231.169 190.992 231.308C188.704 231.412 186.589 231.533 184.648 231.672L184.492 227.616ZM211.792 242.748C211.792 245.071 211.445 247.012 210.752 248.572C210.093 250.097 209.157 251.241 207.944 252.004C206.765 252.767 205.396 253.148 203.836 253.148C202.726 253.148 201.652 252.975 200.612 252.628C199.606 252.247 198.688 251.692 197.856 250.964C197.058 250.201 196.417 249.283 195.932 248.208C195.481 247.099 195.256 245.851 195.256 244.464C195.256 242.731 195.672 241.188 196.504 239.836C197.336 238.484 198.445 237.409 199.832 236.612C201.253 235.815 202.796 235.416 204.46 235.416C206.47 235.416 208.152 235.884 209.504 236.82C210.856 237.721 211.861 238.969 212.52 240.564C213.213 242.124 213.56 243.909 213.56 245.92C213.56 247.653 213.317 249.421 212.832 251.224C212.346 253.027 211.514 254.76 210.336 256.424C209.157 258.088 207.562 259.613 205.552 261C203.576 262.352 201.08 263.479 198.064 264.38L194.58 260.948C196.937 260.428 199.034 259.735 200.872 258.868C202.744 257.967 204.321 256.892 205.604 255.644C206.921 254.396 207.909 252.94 208.568 251.276C209.226 249.612 209.556 247.705 209.556 245.556C209.556 243.199 209.053 241.5 208.048 240.46C207.077 239.42 205.864 238.9 204.408 238.9C203.506 238.9 202.657 239.125 201.86 239.576C201.062 240.027 200.404 240.668 199.884 241.5C199.398 242.297 199.156 243.268 199.156 244.412C199.156 246.041 199.676 247.307 200.716 248.208C201.79 249.109 203.038 249.56 204.46 249.56C205.534 249.56 206.453 249.265 207.216 248.676C208.013 248.052 208.568 247.133 208.88 245.92C209.192 244.672 209.226 243.129 208.984 241.292L211.792 242.748ZM219.28 219.348C219.904 220.215 220.58 221.237 221.308 222.416C222.036 223.595 222.66 224.669 223.18 225.64L220.216 226.94C219.696 225.9 219.089 224.808 218.396 223.664C217.737 222.485 217.078 221.445 216.42 220.544L219.28 219.348ZM225.624 217.996C226.213 218.863 226.872 219.868 227.6 221.012C228.328 222.156 228.969 223.231 229.524 224.236L226.56 225.536C226.005 224.461 225.381 223.369 224.688 222.26C224.029 221.116 223.37 220.111 222.712 219.244L225.624 217.996ZM262.336 225.484C261.989 228.188 261.538 231.013 260.984 233.96C260.464 236.907 259.788 239.767 258.956 242.54C257.916 246.111 256.754 249.092 255.472 251.484C254.224 253.876 252.872 255.679 251.416 256.892C249.96 258.105 248.434 258.712 246.84 258.712C245.314 258.712 243.841 258.157 242.42 257.048C240.998 255.939 239.837 254.344 238.936 252.264C238.034 250.149 237.584 247.671 237.584 244.828C237.584 241.985 238.156 239.299 239.3 236.768C240.478 234.237 242.09 232.001 244.136 230.06C246.216 228.084 248.642 226.524 251.416 225.38C254.189 224.236 257.153 223.664 260.308 223.664C263.358 223.664 266.097 224.167 268.524 225.172C270.985 226.177 273.082 227.564 274.816 229.332C276.549 231.065 277.884 233.093 278.82 235.416C279.756 237.704 280.224 240.165 280.224 242.8C280.224 246.44 279.444 249.647 277.884 252.42C276.358 255.193 274.14 257.447 271.228 259.18C268.35 260.913 264.849 262.057 260.724 262.612L258.28 258.764C259.112 258.66 259.909 258.556 260.672 258.452C261.434 258.348 262.128 258.227 262.752 258.088C264.416 257.707 266.028 257.117 267.588 256.32C269.182 255.488 270.604 254.448 271.852 253.2C273.1 251.917 274.088 250.409 274.816 248.676C275.578 246.908 275.96 244.897 275.96 242.644C275.96 240.529 275.613 238.571 274.92 236.768C274.226 234.931 273.204 233.319 271.852 231.932C270.5 230.545 268.853 229.453 266.912 228.656C264.97 227.859 262.752 227.46 260.256 227.46C257.413 227.46 254.83 227.98 252.508 229.02C250.22 230.06 248.261 231.429 246.632 233.128C245.037 234.792 243.806 236.629 242.94 238.64C242.073 240.616 241.64 242.557 241.64 244.464C241.64 246.648 241.917 248.451 242.472 249.872C243.061 251.259 243.754 252.281 244.552 252.94C245.384 253.599 246.198 253.928 246.996 253.928C247.828 253.928 248.677 253.529 249.544 252.732C250.41 251.9 251.294 250.583 252.196 248.78C253.097 246.943 253.981 244.568 254.848 241.656C255.61 239.16 256.252 236.508 256.772 233.7C257.326 230.892 257.725 228.136 257.968 225.432L262.336 225.484ZM324.788 220.492C325.238 221.081 325.724 221.809 326.244 222.676C326.764 223.508 327.266 224.357 327.752 225.224C328.272 226.091 328.705 226.888 329.052 227.616L326.244 228.864C325.724 227.789 325.065 226.576 324.268 225.224C323.47 223.837 322.725 222.641 322.032 221.636L324.788 220.492ZM330.508 218.412C330.993 219.036 331.496 219.781 332.016 220.648C332.57 221.515 333.108 222.381 333.628 223.248C334.148 224.08 334.564 224.825 334.876 225.484L332.068 226.732C331.513 225.588 330.837 224.357 330.04 223.04C329.277 221.688 328.514 220.527 327.752 219.556L330.508 218.412ZM296.344 245.348C296.898 243.996 297.436 242.523 297.956 240.928C298.51 239.333 299.013 237.687 299.464 235.988C299.949 234.255 300.365 232.556 300.712 230.892C301.058 229.193 301.301 227.581 301.44 226.056L306.068 227.044C305.998 227.425 305.894 227.841 305.756 228.292C305.617 228.708 305.496 229.141 305.392 229.592C305.288 230.043 305.201 230.459 305.132 230.84C304.958 231.637 304.716 232.677 304.404 233.96C304.092 235.243 303.728 236.647 303.312 238.172C302.896 239.697 302.445 241.24 301.96 242.8C301.474 244.325 300.954 245.747 300.4 247.064C299.776 248.659 299.048 250.305 298.216 252.004C297.418 253.668 296.552 255.297 295.616 256.892C294.68 258.487 293.726 259.977 292.756 261.364L288.336 259.492C289.965 257.308 291.473 254.951 292.86 252.42C294.281 249.855 295.442 247.497 296.344 245.348ZM321.928 243.372C321.408 242.02 320.836 240.599 320.212 239.108C319.588 237.617 318.929 236.127 318.236 234.636C317.542 233.111 316.866 231.689 316.208 230.372C315.584 229.02 314.977 227.876 314.388 226.94L318.6 225.536C319.12 226.437 319.692 227.547 320.316 228.864C320.974 230.181 321.65 231.585 322.344 233.076C323.037 234.567 323.713 236.075 324.372 237.6C325.03 239.125 325.637 240.581 326.192 241.968C326.712 243.251 327.266 244.689 327.856 246.284C328.445 247.844 329.017 249.439 329.572 251.068C330.161 252.663 330.698 254.223 331.184 255.748C331.669 257.239 332.085 258.573 332.432 259.752L327.804 261.26C327.388 259.492 326.85 257.585 326.192 255.54C325.568 253.46 324.892 251.38 324.164 249.3C323.436 247.185 322.69 245.209 321.928 243.372ZM377.36 221.532C377.325 222.191 377.29 222.901 377.256 223.664C377.221 224.392 377.204 225.189 377.204 226.056C377.204 226.749 377.204 227.633 377.204 228.708C377.204 229.783 377.204 230.857 377.204 231.932C377.204 232.972 377.204 233.821 377.204 234.48C377.204 237.6 377.082 240.252 376.84 242.436C376.632 244.62 376.302 246.492 375.852 248.052C375.436 249.577 374.881 250.929 374.188 252.108C373.494 253.287 372.68 254.431 371.744 255.54C370.634 256.857 369.352 258.019 367.896 259.024C366.474 259.995 365.018 260.809 363.528 261.468C362.037 262.161 360.65 262.716 359.368 263.132L355.988 259.544C358.38 258.955 360.633 258.123 362.748 257.048C364.897 255.939 366.786 254.465 368.416 252.628C369.352 251.553 370.097 250.461 370.652 249.352C371.241 248.208 371.674 246.943 371.952 245.556C372.264 244.169 372.472 242.557 372.576 240.72C372.68 238.883 372.732 236.733 372.732 234.272C372.732 233.579 372.732 232.712 372.732 231.672C372.732 230.632 372.732 229.592 372.732 228.552C372.732 227.477 372.732 226.645 372.732 226.056C372.732 225.189 372.697 224.392 372.628 223.664C372.593 222.901 372.541 222.191 372.472 221.532H377.36ZM353.232 221.948C353.197 222.433 353.145 223.023 353.076 223.716C353.041 224.409 353.024 225.068 353.024 225.692C353.024 225.935 353.024 226.489 353.024 227.356C353.024 228.188 353.024 229.193 353.024 230.372C353.024 231.551 353.024 232.799 353.024 234.116C353.024 235.433 353.024 236.716 353.024 237.964C353.024 239.177 353.024 240.235 353.024 241.136C353.024 242.037 353.024 242.679 353.024 243.06C353.024 243.719 353.041 244.429 353.076 245.192C353.145 245.92 353.197 246.527 353.232 247.012H348.448C348.517 246.596 348.569 246.024 348.604 245.296C348.673 244.533 348.708 243.771 348.708 243.008C348.708 242.661 348.708 242.037 348.708 241.136C348.708 240.2 348.708 239.125 348.708 237.912C348.708 236.699 348.708 235.433 348.708 234.116C348.708 232.799 348.708 231.551 348.708 230.372C348.708 229.193 348.708 228.188 348.708 227.356C348.708 226.489 348.708 225.935 348.708 225.692C348.708 225.241 348.69 224.635 348.656 223.872C348.621 223.075 348.569 222.433 348.5 221.948H353.232ZM396.548 226.212C397.241 226.316 398.004 226.403 398.836 226.472C399.702 226.507 400.396 226.524 400.916 226.524H429.516C430.313 226.524 431.093 226.489 431.856 226.42C432.618 226.351 433.312 226.281 433.936 226.212V230.788C433.277 230.719 432.549 230.667 431.752 230.632C430.989 230.597 430.244 230.58 429.516 230.58H400.916C400.43 230.58 399.737 230.597 398.836 230.632C397.969 230.667 397.206 230.719 396.548 230.788V226.212ZM412.616 256.736V228.812H417.036V256.736H412.616ZM393.376 254.188C394.138 254.292 394.901 254.379 395.664 254.448C396.461 254.483 397.224 254.5 397.952 254.5H432.324C433.121 254.5 433.866 254.465 434.56 254.396C435.288 254.327 435.981 254.257 436.64 254.188V258.92C435.946 258.851 435.184 258.799 434.352 258.764C433.52 258.729 432.844 258.712 432.324 258.712H397.952C397.258 258.712 396.513 258.729 395.716 258.764C394.953 258.799 394.173 258.851 393.376 258.92V254.188ZM446.312 238.484C446.832 238.519 447.473 238.571 448.236 238.64C448.998 238.675 449.83 238.709 450.732 238.744C451.668 238.744 452.604 238.744 453.54 238.744C454.094 238.744 454.944 238.744 456.088 238.744C457.266 238.744 458.636 238.744 460.196 238.744C461.756 238.744 463.402 238.744 465.136 238.744C466.904 238.744 468.654 238.744 470.388 238.744C472.156 238.744 473.82 238.744 475.38 238.744C476.974 238.744 478.344 238.744 479.488 238.744C480.632 238.744 481.481 238.744 482.036 238.744C483.353 238.744 484.48 238.709 485.416 238.64C486.352 238.571 487.097 238.519 487.652 238.484V243.58C487.132 243.545 486.352 243.493 485.312 243.424C484.306 243.355 483.232 243.32 482.088 243.32C481.533 243.32 480.666 243.32 479.488 243.32C478.309 243.32 476.94 243.32 475.38 243.32C473.854 243.32 472.208 243.32 470.44 243.32C468.672 243.32 466.904 243.32 465.136 243.32C463.402 243.32 461.756 243.32 460.196 243.32C458.67 243.32 457.318 243.32 456.14 243.32C454.961 243.32 454.094 243.32 453.54 243.32C452.118 243.32 450.766 243.355 449.484 243.424C448.201 243.459 447.144 243.511 446.312 243.58V238.484ZM507.644 221.064C508.407 221.48 509.308 222.017 510.348 222.676C511.388 223.335 512.463 224.028 513.572 224.756C514.682 225.484 515.704 226.177 516.64 226.836C517.611 227.46 518.374 227.98 518.928 228.396L516.484 231.932C515.86 231.481 515.08 230.927 514.144 230.268C513.208 229.609 512.203 228.933 511.128 228.24C510.054 227.512 508.996 226.836 507.956 226.212C506.951 225.553 506.067 224.999 505.304 224.548L507.644 221.064ZM499.844 258.244C501.751 257.897 503.71 257.447 505.72 256.892C507.731 256.303 509.724 255.627 511.7 254.864C513.676 254.067 515.531 253.165 517.264 252.16C520.142 250.496 522.811 248.659 525.272 246.648C527.734 244.637 529.952 242.488 531.928 240.2C533.904 237.912 535.586 235.555 536.972 233.128L539.468 237.392C537.215 240.893 534.355 244.256 530.888 247.48C527.456 250.704 523.66 253.547 519.5 256.008C517.732 257.013 515.808 257.949 513.728 258.816C511.683 259.648 509.655 260.376 507.644 261C505.668 261.624 503.866 262.109 502.236 262.456L499.844 258.244ZM499.792 232.764C500.555 233.145 501.474 233.665 502.548 234.324C503.623 234.948 504.715 235.607 505.824 236.3C506.934 236.959 507.974 237.6 508.944 238.224C509.915 238.848 510.678 239.368 511.232 239.784L508.84 243.424C508.182 242.939 507.367 242.384 506.396 241.76C505.46 241.101 504.455 240.443 503.38 239.784C502.306 239.091 501.248 238.432 500.208 237.808C499.168 237.184 498.267 236.681 497.504 236.3L499.792 232.764ZM555.588 232.452C555.9 232.487 556.386 232.521 557.044 232.556C557.738 232.591 558.431 232.625 559.124 232.66C559.852 232.66 560.442 232.66 560.892 232.66C561.482 232.66 562.4 232.66 563.648 232.66C564.931 232.66 566.387 232.66 568.016 232.66C569.646 232.66 571.292 232.66 572.956 232.66C574.62 232.66 576.163 232.66 577.584 232.66C579.006 232.66 580.15 232.66 581.016 232.66C581.606 232.66 582.195 232.66 582.784 232.66C583.374 232.625 583.842 232.591 584.188 232.556C584.154 232.833 584.136 233.232 584.136 233.752C584.136 234.237 584.136 234.723 584.136 235.208C584.136 235.52 584.136 236.265 584.136 237.444C584.136 238.623 584.136 240.061 584.136 241.76C584.136 243.459 584.136 245.279 584.136 247.22C584.136 249.127 584.136 251.016 584.136 252.888C584.136 254.725 584.136 256.372 584.136 257.828C584.136 259.284 584.136 260.376 584.136 261.104C584.136 261.52 584.136 261.988 584.136 262.508C584.171 263.063 584.206 263.531 584.24 263.912H580.132C580.167 263.6 580.184 263.167 580.184 262.612C580.184 262.057 580.184 261.52 580.184 261C580.184 260.099 580.184 258.903 580.184 257.412C580.184 255.921 580.184 254.292 580.184 252.524C580.184 250.756 580.184 248.988 580.184 247.22C580.184 245.417 580.184 243.753 580.184 242.228C580.184 240.668 580.184 239.368 580.184 238.328C580.184 237.288 580.184 236.629 580.184 236.352C579.872 236.352 579.248 236.352 578.312 236.352C577.411 236.352 576.319 236.352 575.036 236.352C573.754 236.352 572.384 236.352 570.928 236.352C569.507 236.352 568.12 236.352 566.768 236.352C565.416 236.352 564.22 236.352 563.18 236.352C562.14 236.352 561.378 236.352 560.892 236.352C560.442 236.352 559.852 236.369 559.124 236.404C558.431 236.404 557.738 236.421 557.044 236.456C556.386 236.491 555.9 236.508 555.588 236.508V232.452ZM556.732 244.828C557.252 244.863 557.928 244.897 558.76 244.932C559.627 244.967 560.494 244.984 561.36 244.984C561.811 244.984 562.591 244.984 563.7 244.984C564.81 244.984 566.11 244.984 567.6 244.984C569.091 244.984 570.634 244.984 572.228 244.984C573.823 244.984 575.331 244.984 576.752 244.984C578.174 244.984 579.37 244.984 580.34 244.984C581.311 244.984 581.935 244.984 582.212 244.984V248.728C581.935 248.728 581.311 248.728 580.34 248.728C579.37 248.728 578.174 248.728 576.752 248.728C575.331 248.728 573.823 248.728 572.228 248.728C570.634 248.728 569.091 248.728 567.6 248.728C566.11 248.728 564.81 248.728 563.7 248.728C562.591 248.728 561.828 248.728 561.412 248.728C560.511 248.728 559.627 248.745 558.76 248.78C557.928 248.78 557.252 248.797 556.732 248.832V244.828ZM554.964 257.776C555.38 257.811 555.97 257.863 556.732 257.932C557.495 257.967 558.327 257.984 559.228 257.984C559.714 257.984 560.563 257.984 561.776 257.984C562.99 257.984 564.394 257.984 565.988 257.984C567.583 257.984 569.247 257.984 570.98 257.984C572.714 257.984 574.36 257.984 575.92 257.984C577.48 257.984 578.815 257.984 579.924 257.984C581.068 257.984 581.831 257.984 582.212 257.984V261.832C581.796 261.832 581.016 261.832 579.872 261.832C578.728 261.832 577.359 261.832 575.764 261.832C574.204 261.832 572.575 261.832 570.876 261.832C569.178 261.832 567.531 261.832 565.936 261.832C564.342 261.832 562.955 261.832 561.776 261.832C560.598 261.832 559.766 261.832 559.28 261.832C558.448 261.832 557.616 261.849 556.784 261.884C555.987 261.919 555.38 261.936 554.964 261.936V257.776ZM607.796 222.884C608.732 223.508 609.807 224.288 611.02 225.224C612.234 226.125 613.464 227.096 614.712 228.136C615.995 229.141 617.191 230.129 618.3 231.1C619.41 232.071 620.328 232.92 621.056 233.648L617.78 236.924C617.122 236.265 616.272 235.451 615.232 234.48C614.192 233.509 613.048 232.504 611.8 231.464C610.552 230.389 609.322 229.384 608.108 228.448C606.895 227.477 605.803 226.68 604.832 226.056L607.796 222.884ZM603.324 257.724C606.375 257.273 609.148 256.649 611.644 255.852C614.175 255.055 616.48 254.153 618.56 253.148C620.64 252.143 622.495 251.137 624.124 250.132C626.794 248.468 629.255 246.561 631.508 244.412C633.762 242.228 635.738 239.975 637.436 237.652C639.135 235.329 640.487 233.111 641.492 230.996L643.988 235.416C642.81 237.565 641.354 239.749 639.62 241.968C637.887 244.187 635.928 246.319 633.744 248.364C631.56 250.409 629.151 252.264 626.516 253.928C624.783 255.003 622.876 256.06 620.796 257.1C618.751 258.14 616.498 259.093 614.036 259.96C611.61 260.792 608.958 261.468 606.08 261.988L603.324 257.724ZM670.04 220.596C669.971 221.081 669.884 221.601 669.78 222.156C669.676 222.676 669.572 223.196 669.468 223.716C669.33 224.305 669.174 225.137 669 226.212C668.827 227.287 668.619 228.431 668.376 229.644C668.168 230.823 667.943 231.967 667.7 233.076C667.319 234.532 666.868 236.196 666.348 238.068C665.863 239.905 665.274 241.881 664.58 243.996C663.922 246.076 663.176 248.208 662.344 250.392C661.512 252.541 660.594 254.673 659.588 256.788C658.583 258.903 657.491 260.913 656.312 262.82L652.1 261.104C653.279 259.544 654.388 257.776 655.428 255.8C656.468 253.824 657.422 251.779 658.288 249.664C659.155 247.515 659.935 245.4 660.628 243.32C661.322 241.24 661.911 239.316 662.396 237.548C662.916 235.745 663.315 234.203 663.592 232.92C664.078 230.875 664.476 228.725 664.788 226.472C665.1 224.219 665.256 222.104 665.256 220.128L670.04 220.596ZM687.928 226.628C688.76 227.668 689.627 228.985 690.528 230.58C691.464 232.175 692.366 233.856 693.232 235.624C694.134 237.392 694.948 239.108 695.676 240.772C696.439 242.436 697.028 243.875 697.444 245.088L693.44 247.012C693.059 245.66 692.522 244.135 691.828 242.436C691.17 240.737 690.407 239.021 689.54 237.288C688.708 235.52 687.824 233.856 686.888 232.296C685.987 230.701 685.068 229.384 684.132 228.344L687.928 226.628ZM651.32 232.036C652.152 232.071 652.932 232.088 653.66 232.088C654.388 232.088 655.168 232.071 656 232.036C656.763 232.001 657.751 231.949 658.964 231.88C660.212 231.776 661.547 231.672 662.968 231.568C664.39 231.429 665.811 231.308 667.232 231.204C668.654 231.065 669.954 230.961 671.132 230.892C672.311 230.788 673.247 230.736 673.94 230.736C675.5 230.736 676.904 230.996 678.152 231.516C679.435 232.001 680.458 232.885 681.22 234.168C682.018 235.416 682.416 237.219 682.416 239.576C682.416 241.621 682.312 243.84 682.104 246.232C681.896 248.589 681.567 250.843 681.116 252.992C680.7 255.107 680.128 256.892 679.4 258.348C678.603 260.081 677.563 261.225 676.28 261.78C674.998 262.369 673.507 262.664 671.808 262.664C670.803 262.664 669.728 262.577 668.584 262.404C667.475 262.265 666.504 262.109 665.672 261.936L664.996 257.568C665.724 257.811 666.487 258.019 667.284 258.192C668.082 258.331 668.844 258.452 669.572 258.556C670.3 258.625 670.89 258.66 671.34 258.66C672.311 258.66 673.178 258.504 673.94 258.192C674.703 257.845 675.362 257.1 675.916 255.956C676.471 254.777 676.922 253.304 677.268 251.536C677.65 249.768 677.927 247.879 678.1 245.868C678.274 243.857 678.36 241.916 678.36 240.044C678.36 238.449 678.135 237.253 677.684 236.456C677.234 235.659 676.592 235.121 675.76 234.844C674.928 234.567 673.958 234.428 672.848 234.428C671.982 234.428 670.803 234.497 669.312 234.636C667.822 234.74 666.227 234.879 664.528 235.052C662.83 235.191 661.252 235.347 659.796 235.52C658.375 235.693 657.266 235.815 656.468 235.884C655.844 235.953 655.064 236.057 654.128 236.196C653.227 236.3 652.447 236.404 651.788 236.508L651.32 232.036ZM688.552 219.088C689.003 219.677 689.471 220.405 689.956 221.272C690.476 222.104 690.996 222.971 691.516 223.872C692.036 224.739 692.47 225.519 692.816 226.212L689.956 227.46C689.644 226.767 689.246 225.987 688.76 225.12C688.275 224.253 687.772 223.387 687.252 222.52C686.732 221.653 686.23 220.891 685.744 220.232L688.552 219.088ZM694.272 216.956C694.723 217.615 695.226 218.377 695.78 219.244C696.335 220.111 696.872 220.977 697.392 221.844C697.912 222.676 698.328 223.421 698.64 224.08L695.832 225.328C695.278 224.184 694.602 222.953 693.804 221.636C693.007 220.284 692.244 219.123 691.516 218.152L694.272 216.956ZM724.536 219.816C724.398 220.128 724.276 220.509 724.172 220.96C724.103 221.376 724.016 221.775 723.912 222.156C723.635 223.577 723.358 225.38 723.08 227.564C722.803 229.748 722.578 232.088 722.404 234.584C722.231 237.045 722.144 239.472 722.144 241.864C722.144 244.083 722.283 246.249 722.56 248.364C722.872 250.479 723.254 252.507 723.704 254.448C724.19 256.355 724.692 258.123 725.212 259.752L721.468 260.896C720.948 259.336 720.463 257.533 720.012 255.488C719.562 253.408 719.198 251.241 718.92 248.988C718.643 246.7 718.504 244.464 718.504 242.28C718.504 240.477 718.556 238.64 718.66 236.768C718.799 234.896 718.955 233.076 719.128 231.308C719.302 229.505 719.458 227.824 719.596 226.264C719.77 224.704 719.926 223.352 720.064 222.208C720.099 221.757 720.134 221.307 720.168 220.856C720.203 220.405 720.203 220.024 720.168 219.712L724.536 219.816ZM716.112 226.264C719.163 226.264 722.179 226.177 725.16 226.004C728.142 225.831 731.002 225.571 733.74 225.224C736.514 224.877 739.114 224.427 741.54 223.872L741.592 227.72C739.72 228.032 737.692 228.327 735.508 228.604C733.359 228.847 731.158 229.072 728.904 229.28C726.651 229.453 724.432 229.592 722.248 229.696C720.064 229.8 718.002 229.852 716.06 229.852C715.332 229.852 714.448 229.835 713.408 229.8C712.368 229.731 711.328 229.679 710.288 229.644C709.248 229.575 708.364 229.523 707.636 229.488L707.532 225.588C708.156 225.692 709.006 225.796 710.08 225.9C711.155 226.004 712.247 226.091 713.356 226.16C714.466 226.229 715.384 226.264 716.112 226.264ZM737.796 232.348C737.692 232.556 737.571 232.851 737.432 233.232C737.328 233.579 737.207 233.943 737.068 234.324C736.964 234.671 736.86 235 736.756 235.312C735.716 238.501 734.468 241.431 733.012 244.1C731.556 246.735 729.979 249.092 728.28 251.172C726.582 253.217 724.831 254.933 723.028 256.32C721.33 257.603 719.492 258.677 717.516 259.544C715.54 260.411 713.634 260.844 711.796 260.844C710.687 260.844 709.664 260.601 708.728 260.116C707.792 259.631 707.047 258.903 706.492 257.932C705.938 256.961 705.66 255.748 705.66 254.292C705.66 252.524 706.042 250.773 706.804 249.04C707.567 247.272 708.607 245.608 709.924 244.048C711.276 242.488 712.802 241.101 714.5 239.888C716.234 238.64 718.071 237.635 720.012 236.872C721.711 236.248 723.548 235.745 725.524 235.364C727.535 234.983 729.372 234.792 731.036 234.792C734.33 234.792 737.172 235.364 739.564 236.508C741.956 237.652 743.794 239.212 745.076 241.188C746.394 243.129 747.052 245.313 747.052 247.74C747.052 249.612 746.723 251.397 746.064 253.096C745.44 254.795 744.435 256.355 743.048 257.776C741.696 259.163 739.946 260.359 737.796 261.364C735.647 262.369 733.064 263.115 730.048 263.6L727.812 260.116C730.967 259.804 733.671 259.076 735.924 257.932C738.178 256.788 739.928 255.332 741.176 253.564C742.424 251.796 743.048 249.785 743.048 247.532C743.048 245.833 742.58 244.273 741.644 242.852C740.708 241.431 739.339 240.287 737.536 239.42C735.768 238.519 733.584 238.068 730.984 238.068C728.8 238.068 726.772 238.328 724.9 238.848C723.063 239.368 721.486 239.923 720.168 240.512C718.227 241.379 716.442 242.54 714.812 243.996C713.218 245.452 711.952 247.029 711.016 248.728C710.08 250.392 709.612 252.021 709.612 253.616C709.612 254.691 709.855 255.505 710.34 256.06C710.86 256.58 711.606 256.84 712.576 256.84C713.859 256.84 715.298 256.476 716.892 255.748C718.522 255.02 720.186 253.911 721.884 252.42C724.207 250.409 726.356 247.948 728.332 245.036C730.343 242.124 731.938 238.553 733.116 234.324C733.186 234.047 733.255 233.735 733.324 233.388C733.394 233.041 733.463 232.677 733.532 232.296C733.636 231.915 733.688 231.585 733.688 231.308L737.796 232.348ZM131.794 320.048C130.408 321.435 128.917 322.509 127.322 323.272C125.728 324 124.029 324.364 122.226 324.364C120.528 324.364 119.141 323.809 118.066 322.7C116.992 321.591 116.454 319.961 116.454 317.812C116.454 316.356 116.558 314.779 116.766 313.08C116.974 311.381 117.2 309.648 117.442 307.88C117.685 306.077 117.91 304.379 118.118 302.784C118.326 301.155 118.43 299.699 118.43 298.416C118.43 296.925 118.066 295.851 117.338 295.192C116.61 294.499 115.57 294.152 114.218 294.152C113.005 294.152 111.653 294.516 110.162 295.244C108.672 295.937 107.146 296.891 105.586 298.104C104.026 299.283 102.501 300.617 101.01 302.108C99.5198 303.564 98.1505 305.02 96.9025 306.476L97.0065 301.328C97.6652 300.635 98.4972 299.82 99.5025 298.884C100.542 297.948 101.686 296.977 102.934 295.972C104.217 294.967 105.569 294.031 106.99 293.164C108.412 292.297 109.816 291.604 111.202 291.084C112.624 290.564 113.976 290.304 115.258 290.304C116.888 290.304 118.24 290.599 119.314 291.188C120.389 291.743 121.186 292.557 121.706 293.632C122.226 294.672 122.486 295.885 122.486 297.272C122.486 298.555 122.382 300.045 122.174 301.744C122.001 303.408 121.776 305.141 121.498 306.944C121.256 308.747 121.03 310.497 120.822 312.196C120.649 313.895 120.562 315.403 120.562 316.72C120.562 317.587 120.77 318.332 121.186 318.956C121.637 319.58 122.33 319.892 123.266 319.892C124.514 319.892 125.797 319.528 127.114 318.8C128.466 318.037 129.801 316.963 131.118 315.576L131.794 320.048ZM96.8505 295.192C96.4345 295.227 95.7932 295.313 94.9265 295.452C94.0945 295.556 93.1412 295.677 92.0665 295.816C90.9918 295.955 89.8998 296.111 88.7905 296.284C87.6812 296.423 86.6412 296.561 85.6705 296.7L85.2545 292.436C85.8092 292.471 86.3465 292.488 86.8665 292.488C87.4212 292.453 88.0105 292.419 88.6345 292.384C89.3625 292.349 90.2465 292.28 91.2865 292.176C92.3612 292.037 93.4705 291.899 94.6145 291.76C95.7932 291.587 96.8852 291.413 97.8905 291.24C98.9305 291.032 99.7452 290.824 100.334 290.616L101.842 292.436C101.53 292.852 101.184 293.372 100.802 293.996C100.421 294.585 100.04 295.192 99.6585 295.816C99.2772 296.44 98.9478 296.995 98.6705 297.48L97.0585 304.552C96.4692 305.488 95.7412 306.597 94.8745 307.88C94.0078 309.163 93.0892 310.515 92.1185 311.936C91.1825 313.323 90.2292 314.709 89.2585 316.096C88.2878 317.448 87.4038 318.696 86.6065 319.84L83.9545 316.252C84.6132 315.455 85.3758 314.484 86.2425 313.34C87.1438 312.161 88.0798 310.896 89.0505 309.544C90.0558 308.192 91.0265 306.875 91.9625 305.592C92.9332 304.275 93.7825 303.061 94.5105 301.952C95.2732 300.843 95.8452 299.941 96.2265 299.248L96.4345 296.596L96.8505 295.192ZM96.3825 286.56C96.3825 285.971 96.3652 285.347 96.3305 284.688C96.3305 284.029 96.2785 283.371 96.1745 282.712L101.062 282.868C100.924 283.561 100.75 284.653 100.542 286.144C100.334 287.6 100.126 289.333 99.9185 291.344C99.7452 293.355 99.5545 295.469 99.3465 297.688C99.1732 299.907 99.0345 302.108 98.9305 304.292C98.8265 306.441 98.7745 308.435 98.7745 310.272C98.7745 311.832 98.7745 313.288 98.7745 314.64C98.7745 315.957 98.7918 317.275 98.8265 318.592C98.8612 319.875 98.9132 321.279 98.9825 322.804C99.0172 323.255 99.0518 323.775 99.0865 324.364C99.1212 324.953 99.1732 325.491 99.2425 325.976H94.7185C94.7878 325.491 94.8225 324.953 94.8225 324.364C94.8572 323.809 94.8745 323.324 94.8745 322.908C94.9092 321.244 94.9265 319.771 94.9265 318.488C94.9265 317.205 94.9265 315.888 94.9265 314.536C94.9612 313.149 94.9958 311.503 95.0305 309.596C95.0305 308.833 95.0652 307.793 95.1345 306.476C95.2038 305.124 95.2905 303.651 95.3945 302.056C95.4985 300.427 95.6025 298.78 95.7065 297.116C95.8105 295.452 95.9145 293.892 96.0185 292.436C96.1225 290.945 96.2092 289.68 96.2785 288.64C96.3478 287.6 96.3825 286.907 96.3825 286.56ZM152.646 293.84C154.137 293.979 155.593 294.083 157.014 294.152C158.47 294.221 159.944 294.256 161.434 294.256C164.589 294.256 167.709 294.135 170.794 293.892C173.88 293.649 176.74 293.268 179.374 292.748V296.752C176.601 297.168 173.672 297.497 170.586 297.74C167.501 297.948 164.433 298.052 161.382 298.052C159.892 298.052 158.436 298.035 157.014 298C155.628 297.931 154.172 297.844 152.646 297.74V293.84ZM170.846 284.48C170.742 285.035 170.656 285.572 170.586 286.092C170.552 286.577 170.517 287.097 170.482 287.652C170.448 288.276 170.413 289.073 170.378 290.044C170.378 290.98 170.378 292.003 170.378 293.112C170.378 294.221 170.378 295.296 170.378 296.336C170.378 298.312 170.413 300.288 170.482 302.264C170.552 304.24 170.638 306.164 170.742 308.036C170.846 309.908 170.933 311.659 171.002 313.288C171.106 314.917 171.158 316.408 171.158 317.76C171.158 318.835 171.002 319.875 170.69 320.88C170.413 321.885 169.928 322.804 169.234 323.636C168.576 324.433 167.657 325.057 166.478 325.508C165.334 325.993 163.896 326.236 162.162 326.236C158.661 326.236 155.992 325.56 154.154 324.208C152.317 322.891 151.398 321.053 151.398 318.696C151.398 317.275 151.814 315.975 152.646 314.796C153.478 313.583 154.692 312.629 156.286 311.936C157.881 311.243 159.805 310.896 162.058 310.896C164.242 310.896 166.27 311.139 168.142 311.624C170.014 312.109 171.73 312.768 173.29 313.6C174.885 314.397 176.341 315.299 177.658 316.304C178.976 317.309 180.172 318.297 181.246 319.268L179.01 322.752C177.208 321.019 175.388 319.511 173.55 318.228C171.748 316.945 169.876 315.94 167.934 315.212C165.993 314.484 163.913 314.12 161.694 314.12C159.753 314.12 158.158 314.501 156.91 315.264C155.697 316.027 155.09 317.049 155.09 318.332C155.09 319.649 155.68 320.655 156.858 321.348C158.037 322.041 159.562 322.388 161.434 322.388C162.925 322.388 164.069 322.163 164.866 321.712C165.664 321.227 166.236 320.568 166.582 319.736C166.929 318.869 167.102 317.864 167.102 316.72C167.102 315.784 167.068 314.536 166.998 312.976C166.929 311.381 166.842 309.631 166.738 307.724C166.634 305.817 166.548 303.893 166.478 301.952C166.409 299.976 166.374 298.121 166.374 296.388C166.374 294.585 166.374 292.921 166.374 291.396C166.374 289.836 166.374 288.605 166.374 287.704C166.374 287.253 166.357 286.733 166.322 286.144C166.288 285.52 166.236 284.965 166.166 284.48H170.846ZM145.158 284.844C145.054 285.121 144.933 285.485 144.794 285.936C144.69 286.352 144.586 286.785 144.482 287.236C144.413 287.652 144.344 288.016 144.274 288.328C144.066 289.333 143.841 290.512 143.598 291.864C143.356 293.181 143.113 294.62 142.87 296.18C142.662 297.705 142.454 299.265 142.246 300.86C142.073 302.42 141.934 303.928 141.83 305.384C141.726 306.84 141.674 308.14 141.674 309.284C141.674 310.567 141.709 311.78 141.778 312.924C141.882 314.068 142.021 315.281 142.194 316.564C142.472 315.767 142.784 314.917 143.13 314.016C143.477 313.115 143.824 312.213 144.17 311.312C144.552 310.411 144.881 309.613 145.158 308.92L147.29 310.584C146.874 311.763 146.406 313.097 145.886 314.588C145.401 316.044 144.933 317.448 144.482 318.8C144.066 320.117 143.754 321.209 143.546 322.076C143.477 322.423 143.425 322.821 143.39 323.272C143.356 323.688 143.338 324.069 143.338 324.416C143.373 324.659 143.39 324.953 143.39 325.3C143.425 325.647 143.46 325.959 143.494 326.236L139.854 326.496C139.334 324.624 138.866 322.301 138.45 319.528C138.069 316.72 137.878 313.548 137.878 310.012C137.878 308.105 137.965 306.112 138.138 304.032C138.346 301.917 138.572 299.855 138.814 297.844C139.092 295.833 139.352 293.996 139.594 292.332C139.872 290.633 140.097 289.247 140.27 288.172C140.34 287.548 140.409 286.924 140.478 286.3C140.548 285.641 140.582 285.017 140.582 284.428L145.158 284.844ZM175.318 282.816C175.63 283.405 175.977 284.151 176.358 285.052C176.74 285.919 177.121 286.803 177.502 287.704C177.884 288.571 178.178 289.351 178.386 290.044L175.734 290.98C175.492 290.217 175.197 289.403 174.85 288.536C174.504 287.669 174.157 286.803 173.81 285.936C173.464 285.069 173.117 284.289 172.77 283.596L175.318 282.816ZM180.518 281.204C180.865 281.828 181.229 282.573 181.61 283.44C181.992 284.307 182.356 285.173 182.702 286.04C183.084 286.907 183.413 287.687 183.69 288.38L181.038 289.316C180.622 288.172 180.137 286.924 179.582 285.572C179.062 284.185 178.525 283.007 177.97 282.036L180.518 281.204ZM208.182 283.128C208.009 283.821 207.87 284.463 207.766 285.052C207.697 285.607 207.61 286.179 207.506 286.768C207.368 287.739 207.194 288.952 206.986 290.408C206.813 291.864 206.605 293.459 206.362 295.192C206.154 296.925 205.929 298.711 205.686 300.548C205.478 302.385 205.27 304.171 205.062 305.904C204.889 307.637 204.75 309.215 204.646 310.636C204.542 312.057 204.49 313.236 204.49 314.172C204.49 316.703 205.201 318.696 206.622 320.152C208.078 321.608 210.28 322.336 213.226 322.336C215.896 322.336 218.184 321.972 220.09 321.244C222.032 320.516 223.522 319.493 224.562 318.176C225.637 316.824 226.174 315.264 226.174 313.496C226.174 311.763 225.706 309.977 224.77 308.14C223.834 306.268 222.413 304.517 220.506 302.888L225.082 301.952C226.85 303.928 228.168 305.869 229.034 307.776C229.936 309.648 230.386 311.711 230.386 313.964C230.386 316.529 229.658 318.748 228.202 320.62C226.781 322.492 224.788 323.913 222.222 324.884C219.657 325.889 216.658 326.392 213.226 326.392C210.869 326.392 208.72 326.011 206.778 325.248C204.872 324.52 203.346 323.307 202.202 321.608C201.058 319.909 200.486 317.639 200.486 314.796C200.486 313.687 200.556 312.231 200.694 310.428C200.868 308.625 201.076 306.667 201.318 304.552C201.596 302.403 201.873 300.219 202.15 298C202.462 295.747 202.722 293.632 202.93 291.656C203.173 289.68 203.346 287.964 203.45 286.508C203.554 285.607 203.606 284.896 203.606 284.376C203.606 283.821 203.572 283.301 203.502 282.816L208.182 283.128ZM191.49 290.044C192.981 290.495 194.61 290.876 196.378 291.188C198.146 291.5 199.932 291.743 201.734 291.916C203.537 292.055 205.201 292.124 206.726 292.124C208.737 292.124 210.626 292.072 212.394 291.968C214.197 291.864 215.844 291.691 217.334 291.448L217.23 295.348C215.566 295.487 213.92 295.608 212.29 295.712C210.661 295.781 208.789 295.816 206.674 295.816C205.149 295.816 203.485 295.747 201.682 295.608C199.88 295.435 198.077 295.192 196.274 294.88C194.472 294.568 192.808 294.221 191.282 293.84L191.49 290.044ZM190.242 302.94C191.906 303.529 193.657 303.997 195.494 304.344C197.366 304.656 199.204 304.881 201.006 305.02C202.809 305.159 204.525 305.228 206.154 305.228C207.922 305.228 209.708 305.193 211.51 305.124C213.348 305.02 215.168 304.829 216.97 304.552L216.866 308.504C215.168 308.712 213.486 308.851 211.822 308.92C210.158 308.989 208.442 309.024 206.674 309.024C203.866 309.024 200.972 308.851 197.99 308.504C195.044 308.157 192.392 307.637 190.034 306.944L190.242 302.94ZM245.466 303.252C246.264 303.079 247.061 302.888 247.858 302.68C248.69 302.437 249.522 302.195 250.354 301.952C251.256 301.675 252.434 301.293 253.89 300.808C255.346 300.323 256.924 299.855 258.622 299.404C260.321 298.953 262.037 298.555 263.77 298.208C265.538 297.861 267.185 297.688 268.71 297.688C271.172 297.688 273.356 298.156 275.262 299.092C277.169 300.028 278.66 301.363 279.734 303.096C280.844 304.795 281.398 306.84 281.398 309.232C281.398 311.728 280.826 313.929 279.682 315.836C278.538 317.708 276.909 319.303 274.794 320.62C272.714 321.937 270.218 322.977 267.306 323.74C264.429 324.503 261.24 324.988 257.738 325.196L256.074 321.192C258.882 321.088 261.552 320.811 264.082 320.36C266.613 319.875 268.866 319.164 270.842 318.228C272.818 317.292 274.361 316.079 275.47 314.588C276.614 313.063 277.186 311.243 277.186 309.128C277.186 307.637 276.822 306.32 276.094 305.176C275.366 304.032 274.344 303.131 273.026 302.472C271.744 301.779 270.201 301.432 268.398 301.432C267.116 301.432 265.677 301.605 264.082 301.952C262.488 302.264 260.841 302.68 259.142 303.2C257.444 303.72 255.814 304.275 254.254 304.864C252.694 305.419 251.308 305.939 250.094 306.424C248.881 306.875 247.928 307.239 247.234 307.516L245.466 303.252ZM331.474 292.956C330.885 293.337 330.261 293.701 329.602 294.048C328.944 294.395 328.233 294.759 327.47 295.14C326.604 295.625 325.529 296.18 324.246 296.804C322.964 297.428 321.594 298.121 320.138 298.884C318.682 299.647 317.226 300.444 315.77 301.276C314.314 302.108 312.945 302.94 311.662 303.772C309.236 305.332 307.329 306.979 305.942 308.712C304.59 310.445 303.914 312.3 303.914 314.276C303.914 316.425 304.937 318.141 306.982 319.424C309.062 320.672 312.148 321.296 316.238 321.296C318.145 321.296 320.121 321.227 322.166 321.088C324.212 320.915 326.17 320.689 328.042 320.412C329.949 320.135 331.561 319.84 332.878 319.528V324.156C331.596 324.399 330.07 324.607 328.302 324.78C326.569 324.988 324.697 325.144 322.686 325.248C320.676 325.387 318.596 325.456 316.446 325.456C313.985 325.456 311.732 325.248 309.686 324.832C307.641 324.451 305.856 323.844 304.33 323.012C302.84 322.18 301.678 321.088 300.846 319.736C300.014 318.349 299.598 316.685 299.598 314.744C299.598 312.837 299.997 311.087 300.794 309.492C301.592 307.863 302.736 306.32 304.226 304.864C305.717 303.408 307.485 302.004 309.53 300.652C310.848 299.751 312.252 298.884 313.742 298.052C315.268 297.185 316.758 296.353 318.214 295.556C319.67 294.759 321.022 294.031 322.27 293.372C323.553 292.713 324.628 292.159 325.494 291.708C326.222 291.257 326.881 290.859 327.47 290.512C328.06 290.131 328.632 289.715 329.186 289.264L331.474 292.956ZM305.162 283.544C305.96 285.763 306.809 287.929 307.71 290.044C308.646 292.159 309.582 294.135 310.518 295.972C311.489 297.809 312.373 299.439 313.17 300.86L309.582 302.992C308.716 301.571 307.797 299.889 306.826 297.948C305.856 296.007 304.885 293.944 303.914 291.76C302.944 289.576 301.99 287.409 301.054 285.26L305.162 283.544ZM366.938 283.752C365.482 285.589 363.61 287.479 361.322 289.42C359.034 291.327 356.504 293.164 353.73 294.932C350.992 296.7 348.166 298.243 345.254 299.56C345.116 299.283 344.908 298.953 344.63 298.572C344.388 298.156 344.128 297.775 343.85 297.428C343.573 297.047 343.296 296.717 343.018 296.44C345.965 295.157 348.825 293.632 351.598 291.864C354.406 290.061 356.954 288.155 359.242 286.144C361.53 284.133 363.368 282.175 364.754 280.268H368.654C370.076 281.897 371.688 283.492 373.49 285.052C375.293 286.577 377.182 288.016 379.158 289.368C381.169 290.72 383.214 291.951 385.294 293.06C387.409 294.135 389.472 295.053 391.482 295.816C391.066 296.301 390.633 296.873 390.182 297.532C389.732 298.156 389.35 298.745 389.038 299.3C386.438 298.121 383.752 296.7 380.978 295.036C378.205 293.337 375.588 291.517 373.126 289.576C370.7 287.635 368.637 285.693 366.938 283.752ZM354.614 302.212H379.522V305.228H354.614V302.212ZM365.014 289.42H369.018V296.492H365.014V289.42ZM346.398 324.052C348.34 323.879 350.558 323.688 353.054 323.48C355.585 323.272 358.254 323.029 361.062 322.752C363.905 322.475 366.765 322.197 369.642 321.92V325.456C366.938 325.733 364.217 326.011 361.478 326.288C358.774 326.565 356.174 326.825 353.678 327.068C351.217 327.311 348.981 327.536 346.97 327.744L346.398 324.052ZM367.406 311.52C369.348 315.16 372.329 318.089 376.35 320.308C380.406 322.492 385.208 323.983 390.754 324.78C390.477 325.023 390.182 325.335 389.87 325.716C389.558 326.132 389.264 326.548 388.986 326.964C388.744 327.415 388.518 327.813 388.31 328.16C384.532 327.467 381.082 326.444 377.962 325.092C374.842 323.74 372.104 322.024 369.746 319.944C367.424 317.864 365.517 315.385 364.026 312.508L367.406 311.52ZM384.93 310.636L387.842 312.924C386.525 313.895 385.069 314.865 383.474 315.836C381.88 316.807 380.268 317.725 378.638 318.592C377.044 319.459 375.536 320.239 374.114 320.932L371.618 318.8C373.074 318.107 374.6 317.292 376.194 316.356C377.824 315.42 379.401 314.467 380.926 313.496C382.486 312.491 383.821 311.537 384.93 310.636ZM354.666 294.62H382.07V312.976H354.666V309.804H378.17V297.844H354.666V294.62ZM352.326 294.62H356.174V324.52L352.326 324.936V294.62ZM395.59 310.688C396.249 310.203 396.856 309.7 397.41 309.18C398 308.625 398.641 307.984 399.334 307.256C400.028 306.563 400.79 305.713 401.622 304.708C402.489 303.668 403.373 302.576 404.274 301.432C405.21 300.253 406.129 299.092 407.03 297.948C407.932 296.804 408.764 295.781 409.526 294.88C411.052 293.077 412.525 292.107 413.946 291.968C415.402 291.795 416.997 292.575 418.73 294.308C419.77 295.383 420.88 296.631 422.058 298.052C423.237 299.439 424.433 300.843 425.646 302.264C426.894 303.685 428.056 305.003 429.13 306.216C429.928 307.083 430.829 308.053 431.834 309.128C432.84 310.203 433.914 311.329 435.058 312.508C436.202 313.652 437.364 314.813 438.542 315.992C439.756 317.171 440.952 318.28 442.13 319.32L438.802 323.064C437.485 321.816 436.116 320.429 434.694 318.904C433.273 317.344 431.869 315.784 430.482 314.224C429.096 312.664 427.813 311.208 426.634 309.856C425.49 308.573 424.312 307.221 423.098 305.8C421.92 304.344 420.776 302.975 419.666 301.692C418.592 300.375 417.656 299.283 416.858 298.416C416.13 297.584 415.489 297.064 414.934 296.856C414.414 296.648 413.912 296.7 413.426 297.012C412.976 297.289 412.456 297.809 411.866 298.572C411.242 299.335 410.532 300.236 409.734 301.276C408.937 302.281 408.105 303.339 407.238 304.448C406.372 305.557 405.522 306.649 404.69 307.724C403.858 308.764 403.113 309.683 402.454 310.48C401.934 311.173 401.397 311.901 400.842 312.664C400.288 313.427 399.802 314.085 399.386 314.64L395.59 310.688ZM429.13 288.9C429.581 289.524 430.101 290.339 430.69 291.344C431.314 292.315 431.938 293.337 432.562 294.412C433.186 295.452 433.689 296.388 434.07 297.22L431.002 298.572C430.586 297.671 430.101 296.717 429.546 295.712C429.026 294.707 428.472 293.736 427.882 292.8C427.293 291.829 426.721 290.963 426.166 290.2L429.13 288.9ZM435.838 286.248C436.324 286.837 436.878 287.635 437.502 288.64C438.126 289.611 438.75 290.616 439.374 291.656C440.033 292.661 440.553 293.58 440.934 294.412L437.97 295.868C437.485 294.932 436.965 293.979 436.41 293.008C435.856 292.037 435.284 291.084 434.694 290.148C434.105 289.212 433.516 288.363 432.926 287.6L435.838 286.248ZM462.566 283.232C463.676 283.579 465.114 283.96 466.882 284.376C468.685 284.792 470.574 285.208 472.55 285.624C474.561 286.005 476.468 286.352 478.27 286.664C480.073 286.941 481.546 287.132 482.69 287.236L481.702 291.24C480.732 291.101 479.536 290.911 478.114 290.668C476.728 290.425 475.237 290.148 473.642 289.836C472.048 289.524 470.47 289.212 468.91 288.9C467.35 288.553 465.929 288.241 464.646 287.964C463.364 287.652 462.324 287.392 461.526 287.184L462.566 283.232ZM461.422 292.696C461.249 293.597 461.058 294.707 460.85 296.024C460.677 297.307 460.486 298.659 460.278 300.08C460.07 301.501 459.88 302.853 459.706 304.136C459.533 305.419 459.377 306.476 459.238 307.308C461.769 305.124 464.438 303.529 467.246 302.524C470.089 301.484 473.07 300.964 476.19 300.964C478.86 300.964 481.182 301.449 483.158 302.42C485.134 303.356 486.677 304.656 487.786 306.32C488.896 307.949 489.45 309.787 489.45 311.832C489.45 314.155 488.913 316.269 487.838 318.176C486.798 320.048 485.152 321.625 482.898 322.908C480.68 324.191 477.837 325.092 474.37 325.612C470.904 326.167 466.744 326.236 461.89 325.82L460.642 321.556C466.154 322.215 470.713 322.197 474.318 321.504C477.924 320.776 480.61 319.563 482.378 317.864C484.181 316.131 485.082 314.085 485.082 311.728C485.082 310.341 484.684 309.111 483.886 308.036C483.089 306.961 481.997 306.129 480.61 305.54C479.258 304.916 477.698 304.604 475.93 304.604C472.533 304.604 469.448 305.228 466.674 306.476C463.936 307.689 461.648 309.388 459.81 311.572C459.429 312.023 459.117 312.473 458.874 312.924C458.632 313.34 458.424 313.756 458.25 314.172L454.402 313.236C454.61 312.265 454.818 311.104 455.026 309.752C455.234 308.365 455.442 306.892 455.65 305.332C455.858 303.737 456.049 302.143 456.222 300.548C456.43 298.953 456.604 297.428 456.742 295.972C456.881 294.481 456.985 293.199 457.054 292.124L461.422 292.696ZM547.794 320.048C546.408 321.435 544.917 322.509 543.322 323.272C541.728 324 540.029 324.364 538.226 324.364C536.528 324.364 535.141 323.809 534.066 322.7C532.992 321.591 532.454 319.961 532.454 317.812C532.454 316.356 532.558 314.779 532.766 313.08C532.974 311.381 533.2 309.648 533.442 307.88C533.685 306.077 533.91 304.379 534.118 302.784C534.326 301.155 534.43 299.699 534.43 298.416C534.43 296.925 534.066 295.851 533.338 295.192C532.61 294.499 531.57 294.152 530.218 294.152C529.005 294.152 527.653 294.516 526.162 295.244C524.672 295.937 523.146 296.891 521.586 298.104C520.026 299.283 518.501 300.617 517.01 302.108C515.52 303.564 514.15 305.02 512.902 306.476L513.006 301.328C513.665 300.635 514.497 299.82 515.502 298.884C516.542 297.948 517.686 296.977 518.934 295.972C520.217 294.967 521.569 294.031 522.99 293.164C524.412 292.297 525.816 291.604 527.202 291.084C528.624 290.564 529.976 290.304 531.258 290.304C532.888 290.304 534.24 290.599 535.314 291.188C536.389 291.743 537.186 292.557 537.706 293.632C538.226 294.672 538.486 295.885 538.486 297.272C538.486 298.555 538.382 300.045 538.174 301.744C538.001 303.408 537.776 305.141 537.498 306.944C537.256 308.747 537.03 310.497 536.822 312.196C536.649 313.895 536.562 315.403 536.562 316.72C536.562 317.587 536.77 318.332 537.186 318.956C537.637 319.58 538.33 319.892 539.266 319.892C540.514 319.892 541.797 319.528 543.114 318.8C544.466 318.037 545.801 316.963 547.118 315.576L547.794 320.048ZM512.85 295.192C512.434 295.227 511.793 295.313 510.926 295.452C510.094 295.556 509.141 295.677 508.066 295.816C506.992 295.955 505.9 296.111 504.79 296.284C503.681 296.423 502.641 296.561 501.67 296.7L501.254 292.436C501.809 292.471 502.346 292.488 502.866 292.488C503.421 292.453 504.01 292.419 504.634 292.384C505.362 292.349 506.246 292.28 507.286 292.176C508.361 292.037 509.47 291.899 510.614 291.76C511.793 291.587 512.885 291.413 513.89 291.24C514.93 291.032 515.745 290.824 516.334 290.616L517.842 292.436C517.53 292.852 517.184 293.372 516.802 293.996C516.421 294.585 516.04 295.192 515.658 295.816C515.277 296.44 514.948 296.995 514.67 297.48L513.058 304.552C512.469 305.488 511.741 306.597 510.874 307.88C510.008 309.163 509.089 310.515 508.118 311.936C507.182 313.323 506.229 314.709 505.258 316.096C504.288 317.448 503.404 318.696 502.606 319.84L499.954 316.252C500.613 315.455 501.376 314.484 502.242 313.34C503.144 312.161 504.08 310.896 505.05 309.544C506.056 308.192 507.026 306.875 507.962 305.592C508.933 304.275 509.782 303.061 510.51 301.952C511.273 300.843 511.845 299.941 512.226 299.248L512.434 296.596L512.85 295.192ZM512.382 286.56C512.382 285.971 512.365 285.347 512.33 284.688C512.33 284.029 512.278 283.371 512.174 282.712L517.062 282.868C516.924 283.561 516.75 284.653 516.542 286.144C516.334 287.6 516.126 289.333 515.918 291.344C515.745 293.355 515.554 295.469 515.346 297.688C515.173 299.907 515.034 302.108 514.93 304.292C514.826 306.441 514.774 308.435 514.774 310.272C514.774 311.832 514.774 313.288 514.774 314.64C514.774 315.957 514.792 317.275 514.826 318.592C514.861 319.875 514.913 321.279 514.982 322.804C515.017 323.255 515.052 323.775 515.086 324.364C515.121 324.953 515.173 325.491 515.242 325.976H510.718C510.788 325.491 510.822 324.953 510.822 324.364C510.857 323.809 510.874 323.324 510.874 322.908C510.909 321.244 510.926 319.771 510.926 318.488C510.926 317.205 510.926 315.888 510.926 314.536C510.961 313.149 510.996 311.503 511.03 309.596C511.03 308.833 511.065 307.793 511.134 306.476C511.204 305.124 511.29 303.651 511.394 302.056C511.498 300.427 511.602 298.78 511.706 297.116C511.81 295.452 511.914 293.892 512.018 292.436C512.122 290.945 512.209 289.68 512.278 288.64C512.348 287.6 512.382 286.907 512.382 286.56ZM561.522 285.676C562.112 285.745 562.736 285.797 563.394 285.832C564.088 285.867 564.694 285.884 565.214 285.884C565.734 285.884 566.584 285.867 567.762 285.832C568.976 285.797 570.328 285.763 571.818 285.728C573.344 285.659 574.852 285.607 576.342 285.572C577.868 285.503 579.22 285.433 580.398 285.364C581.612 285.295 582.496 285.243 583.05 285.208C583.813 285.139 584.402 285.069 584.818 285C585.234 284.931 585.581 284.861 585.858 284.792L588.25 287.808C587.8 288.12 587.314 288.449 586.794 288.796C586.309 289.143 585.824 289.524 585.338 289.94C584.68 290.425 583.796 291.136 582.686 292.072C581.577 292.973 580.346 293.996 578.994 295.14C577.677 296.249 576.377 297.341 575.094 298.416C573.812 299.491 572.65 300.461 571.61 301.328C572.824 300.912 574.037 300.635 575.25 300.496C576.498 300.323 577.694 300.236 578.838 300.236C581.716 300.236 584.264 300.773 586.482 301.848C588.736 302.888 590.486 304.327 591.734 306.164C593.017 308.001 593.658 310.099 593.658 312.456C593.658 315.229 592.93 317.656 591.474 319.736C590.018 321.816 587.956 323.411 585.286 324.52C582.617 325.664 579.445 326.236 575.77 326.236C573.413 326.236 571.385 325.924 569.686 325.3C567.988 324.676 566.67 323.809 565.734 322.7C564.833 321.591 564.382 320.308 564.382 318.852C564.382 317.673 564.712 316.564 565.37 315.524C566.029 314.484 566.965 313.652 568.178 313.028C569.392 312.404 570.796 312.092 572.39 312.092C574.713 312.092 576.637 312.577 578.162 313.548C579.688 314.484 580.866 315.732 581.698 317.292C582.53 318.817 582.998 320.464 583.102 322.232L579.358 322.856C579.22 320.637 578.526 318.817 577.278 317.396C576.065 315.94 574.418 315.212 572.338 315.212C571.16 315.212 570.172 315.541 569.374 316.2C568.577 316.859 568.178 317.639 568.178 318.54C568.178 319.788 568.82 320.776 570.102 321.504C571.385 322.232 573.049 322.596 575.094 322.596C578.041 322.596 580.589 322.197 582.738 321.4C584.922 320.603 586.586 319.441 587.73 317.916C588.909 316.391 589.498 314.553 589.498 312.404C589.498 310.705 588.996 309.18 587.99 307.828C586.985 306.476 585.598 305.419 583.83 304.656C582.097 303.859 580.104 303.46 577.85 303.46C575.666 303.46 573.708 303.703 571.974 304.188C570.241 304.639 568.612 305.297 567.086 306.164C565.596 307.031 564.105 308.123 562.614 309.44C561.158 310.723 559.598 312.196 557.934 313.86L554.97 310.792C556.045 309.925 557.224 308.955 558.506 307.88C559.824 306.771 561.141 305.679 562.458 304.604C563.776 303.495 564.989 302.472 566.098 301.536C567.242 300.565 568.196 299.768 568.958 299.144C569.686 298.555 570.588 297.809 571.662 296.908C572.772 295.972 573.916 295.001 575.094 293.996C576.273 292.991 577.382 292.037 578.422 291.136C579.497 290.235 580.364 289.507 581.022 288.952C580.468 288.952 579.653 288.987 578.578 289.056C577.504 289.091 576.308 289.143 574.99 289.212C573.673 289.247 572.356 289.299 571.038 289.368C569.756 289.437 568.577 289.507 567.502 289.576C566.462 289.611 565.665 289.645 565.11 289.68C564.556 289.715 563.984 289.749 563.394 289.784C562.805 289.819 562.233 289.888 561.678 289.992L561.522 285.676ZM630.474 288.484C630.128 291.188 629.677 294.013 629.122 296.96C628.602 299.907 627.926 302.767 627.094 305.54C626.054 309.111 624.893 312.092 623.61 314.484C622.362 316.876 621.01 318.679 619.554 319.892C618.098 321.105 616.573 321.712 614.978 321.712C613.453 321.712 611.98 321.157 610.558 320.048C609.137 318.939 607.976 317.344 607.074 315.264C606.173 313.149 605.722 310.671 605.722 307.828C605.722 304.985 606.294 302.299 607.438 299.768C608.617 297.237 610.229 295.001 612.274 293.06C614.354 291.084 616.781 289.524 619.554 288.38C622.328 287.236 625.292 286.664 628.446 286.664C631.497 286.664 634.236 287.167 636.662 288.172C639.124 289.177 641.221 290.564 642.954 292.332C644.688 294.065 646.022 296.093 646.958 298.416C647.894 300.704 648.362 303.165 648.362 305.8C648.362 309.44 647.582 312.647 646.022 315.42C644.497 318.193 642.278 320.447 639.366 322.18C636.489 323.913 632.988 325.057 628.862 325.612L626.418 321.764C627.25 321.66 628.048 321.556 628.81 321.452C629.573 321.348 630.266 321.227 630.89 321.088C632.554 320.707 634.166 320.117 635.726 319.32C637.321 318.488 638.742 317.448 639.99 316.2C641.238 314.917 642.226 313.409 642.954 311.676C643.717 309.908 644.098 307.897 644.098 305.644C644.098 303.529 643.752 301.571 643.058 299.768C642.365 297.931 641.342 296.319 639.99 294.932C638.638 293.545 636.992 292.453 635.05 291.656C633.109 290.859 630.89 290.46 628.394 290.46C625.552 290.46 622.969 290.98 620.646 292.02C618.358 293.06 616.4 294.429 614.77 296.128C613.176 297.792 611.945 299.629 611.078 301.64C610.212 303.616 609.778 305.557 609.778 307.464C609.778 309.648 610.056 311.451 610.61 312.872C611.2 314.259 611.893 315.281 612.69 315.94C613.522 316.599 614.337 316.928 615.134 316.928C615.966 316.928 616.816 316.529 617.682 315.732C618.549 314.9 619.433 313.583 620.334 311.78C621.236 309.943 622.12 307.568 622.986 304.656C623.749 302.16 624.39 299.508 624.91 296.7C625.465 293.892 625.864 291.136 626.106 288.432L630.474 288.484ZM676.858 288.9C678.28 289.108 679.926 289.281 681.798 289.42C683.705 289.524 685.664 289.576 687.674 289.576C689.72 289.541 691.661 289.472 693.498 289.368C695.37 289.229 696.948 289.056 698.23 288.848V293.06C696.844 293.199 695.214 293.32 693.342 293.424C691.505 293.493 689.581 293.528 687.57 293.528C685.594 293.528 683.67 293.493 681.798 293.424C679.926 293.32 678.28 293.199 676.858 293.06V288.9ZM678.886 310.064C678.644 311 678.453 311.849 678.314 312.612C678.176 313.375 678.106 314.12 678.106 314.848C678.106 315.437 678.228 316.027 678.47 316.616C678.748 317.171 679.198 317.673 679.822 318.124C680.481 318.54 681.382 318.887 682.526 319.164C683.67 319.407 685.126 319.528 686.894 319.528C689.252 319.528 691.47 319.424 693.55 319.216C695.63 318.973 697.71 318.627 699.79 318.176L699.894 322.544C698.265 322.891 696.358 323.168 694.174 323.376C692.025 323.549 689.598 323.636 686.894 323.636C682.526 323.636 679.32 322.943 677.274 321.556C675.264 320.169 674.258 318.263 674.258 315.836C674.258 314.969 674.328 314.051 674.466 313.08C674.64 312.075 674.865 310.948 675.142 309.7L678.886 310.064ZM666.926 284.896C666.857 285.173 666.753 285.537 666.614 285.988C666.51 286.404 666.389 286.837 666.25 287.288C666.146 287.704 666.06 288.068 665.99 288.38C665.817 289.351 665.609 290.477 665.366 291.76C665.124 293.008 664.881 294.36 664.638 295.816C664.43 297.237 664.222 298.693 664.014 300.184C663.841 301.64 663.685 303.061 663.546 304.448C663.442 305.835 663.39 307.117 663.39 308.296C663.39 309.579 663.425 310.792 663.494 311.936C663.598 313.08 663.72 314.293 663.858 315.576C664.17 314.779 664.5 313.929 664.846 313.028C665.193 312.127 665.54 311.243 665.886 310.376C666.268 309.475 666.597 308.677 666.874 307.984L669.058 309.648C668.608 310.896 668.122 312.265 667.602 313.756C667.082 315.247 666.614 316.685 666.198 318.072C665.817 319.424 665.54 320.499 665.366 321.296C665.297 321.677 665.228 322.093 665.158 322.544C665.089 322.995 665.072 323.359 665.106 323.636C665.141 323.913 665.158 324.208 665.158 324.52C665.193 324.867 665.228 325.179 665.262 325.456L661.518 325.716C660.998 323.879 660.548 321.521 660.166 318.644C659.785 315.732 659.594 312.525 659.594 309.024C659.594 307.117 659.681 305.176 659.854 303.2C660.028 301.189 660.253 299.248 660.53 297.376C660.808 295.469 661.068 293.736 661.31 292.176C661.588 290.581 661.796 289.247 661.934 288.172C662.038 287.548 662.125 286.924 662.194 286.3C662.264 285.641 662.298 285.035 662.298 284.48L666.926 284.896ZM712.311 324.295C711.4 324.295 710.619 323.969 709.966 323.317C709.314 322.664 708.987 321.883 708.987 320.972C708.987 320.061 709.314 319.279 709.966 318.626C710.619 317.974 711.4 317.648 712.311 317.648C713.222 317.648 714.004 317.974 714.656 318.626C715.309 319.279 715.635 320.061 715.635 320.972C715.635 321.575 715.481 322.129 715.173 322.634C714.878 323.138 714.478 323.545 713.973 323.852C713.481 324.148 712.927 324.295 712.311 324.295ZM726.493 324.295C725.582 324.295 724.8 323.969 724.148 323.317C723.495 322.664 723.169 321.883 723.169 320.972C723.169 320.061 723.495 319.279 724.148 318.626C724.8 317.974 725.582 317.648 726.493 317.648C727.404 317.648 728.186 317.974 728.838 318.626C729.491 319.279 729.817 320.061 729.817 320.972C729.817 321.575 729.663 322.129 729.355 322.634C729.06 323.138 728.66 323.545 728.155 323.852C727.663 324.148 727.109 324.295 726.493 324.295ZM740.675 324.295C739.764 324.295 738.982 323.969 738.33 323.317C737.677 322.664 737.351 321.883 737.351 320.972C737.351 320.061 737.677 319.279 738.33 318.626C738.982 317.974 739.764 317.648 740.675 317.648C741.586 317.648 742.368 317.974 743.02 318.626C743.673 319.279 743.999 320.061 743.999 320.972C743.999 321.575 743.845 322.129 743.537 322.634C743.242 323.138 742.842 323.545 742.337 323.852C741.844 324.148 741.29 324.295 740.675 324.295Z" fill="black"/>
</g>
<defs>
<clipPath id="clip0_1757_27">
<rect width="845.488" height="565.999" fill="white"/>
</clipPath>
</defs>
</svg>
