<svg width="846" height="566" viewBox="0 0 846 566" fill="none" xmlns="http://www.w3.org/2000/svg">
<g clip-path="url(#clip0_1757_2)">
<path d="M422.082 2.33924C190.758 2.33924 3.23353 122.674 3.23353 271.114C3.23353 419.555 190.758 539.89 422.082 539.89C653.406 539.89 840.931 419.555 840.931 271.114C840.931 122.674 653.406 2.33924 422.082 2.33924Z" fill="#F5F5F5"/>
<path d="M422.745 542.548C447.682 542.548 472.116 541.153 495.874 538.494L548.133 565.449C549.804 566.312 552.252 566.141 553.596 565.068C554.941 563.995 554.675 562.425 553.003 561.562L498.007 533.196L496.267 533.396C472.406 536.134 447.838 537.562 422.745 537.562C308.14 537.562 204.423 507.761 129.315 459.569C54.2136 411.371 7.77465 344.815 7.77233 271.275C7.77465 197.734 54.2136 131.178 129.315 82.9813C204.423 34.7895 308.14 4.98898 422.745 4.98824C537.348 4.98898 641.066 34.7895 716.174 82.9813C791.274 131.178 837.713 197.733 837.716 271.275C837.722 386.994 722.681 485.472 561.998 522.198C559.977 522.66 558.922 524.086 559.641 525.384C560.361 526.682 562.584 527.359 564.607 526.897H564.606C728.309 489.487 845.482 389.161 845.488 271.276C845.486 121.453 656.221 0.00148947 422.745 0C189.267 0.00148947 0.00116057 121.453 0 271.275C0.00116057 421.096 189.267 542.546 422.745 542.548Z" fill="black"/>
<path d="M106.665 217.06H110.825V226.836H106.665V217.06ZM106.717 228.032H110.773V265.316H106.717V228.032ZM85.553 224.548H132.353V228.344H85.553V224.548ZM90.857 235.416H125.021V239.212H94.757V258.712H90.857V235.416ZM123.513 235.416H127.517V253.772C127.517 254.881 127.361 255.748 127.049 256.372C126.772 256.996 126.182 257.481 125.281 257.828C124.414 258.14 123.218 258.331 121.693 258.4C120.202 258.469 118.348 258.504 116.129 258.504C116.06 257.915 115.869 257.273 115.557 256.58C115.28 255.852 115.02 255.211 114.777 254.656C115.956 254.691 117.065 254.725 118.105 254.76C119.145 254.76 120.029 254.76 120.757 254.76C121.52 254.76 122.057 254.76 122.369 254.76C122.82 254.725 123.114 254.639 123.253 254.5C123.426 254.327 123.513 254.067 123.513 253.72V235.416ZM160.641 219.92H183.573V223.508H160.641V219.92ZM159.393 219.92H163.033V238.848C163.033 240.859 162.964 243.025 162.825 245.348C162.721 247.671 162.478 250.011 162.097 252.368C161.716 254.725 161.144 257.013 160.381 259.232C159.618 261.416 158.613 263.444 157.365 265.316C157.157 265.073 156.862 264.813 156.481 264.536C156.1 264.259 155.701 263.999 155.285 263.756C154.904 263.513 154.574 263.323 154.297 263.184C155.857 260.861 157.001 258.296 157.729 255.488C158.457 252.68 158.908 249.837 159.081 246.96C159.289 244.083 159.393 241.379 159.393 238.848V219.92ZM179.049 233.18H179.725L180.401 233.076L182.741 233.648C181.944 239.264 180.609 244.135 178.737 248.26C176.9 252.351 174.629 255.783 171.925 258.556C169.256 261.295 166.222 263.479 162.825 265.108C162.686 264.796 162.478 264.432 162.201 264.016C161.958 263.635 161.698 263.253 161.421 262.872C161.144 262.491 160.849 262.179 160.537 261.936C163.657 260.619 166.465 258.695 168.961 256.164C171.492 253.633 173.624 250.513 175.357 246.804C177.09 243.06 178.321 238.744 179.049 233.856V233.18ZM166.569 235.52C167.47 239.715 168.718 243.563 170.313 247.064C171.942 250.565 173.988 253.599 176.449 256.164C178.91 258.729 181.84 260.723 185.237 262.144C184.994 262.387 184.7 262.681 184.353 263.028C184.006 263.409 183.694 263.791 183.417 264.172C183.14 264.553 182.897 264.917 182.689 265.264C179.188 263.565 176.172 261.329 173.641 258.556C171.11 255.783 168.996 252.524 167.297 248.78C165.633 245.036 164.298 240.841 163.293 236.196L166.569 235.52ZM161.525 233.18H180.089V236.664H161.525V233.18ZM142.077 253.148L145.769 253.98C145.11 256.095 144.244 258.157 143.169 260.168C142.094 262.179 140.933 263.877 139.685 265.264C139.477 265.056 139.182 264.796 138.801 264.484C138.42 264.207 138.021 263.929 137.605 263.652C137.224 263.409 136.877 263.201 136.565 263.028C137.813 261.78 138.905 260.289 139.841 258.556C140.812 256.823 141.557 255.02 142.077 253.148ZM148.785 254.448L151.905 253.096C152.633 254.136 153.361 255.263 154.089 256.476C154.852 257.689 155.424 258.747 155.805 259.648L152.581 261.312C152.234 260.376 151.697 259.267 150.969 257.984C150.241 256.701 149.513 255.523 148.785 254.448ZM142.857 232.296V238.952H151.385V232.296H142.857ZM142.857 242.02V248.78H151.385V242.02H142.857ZM142.857 222.572V229.228H151.385V222.572H142.857ZM139.321 219.348H155.077V252.004H139.321V219.348ZM216.229 225.484C215.882 228.188 215.432 231.013 214.877 233.96C214.357 236.907 213.681 239.767 212.849 242.54C211.809 246.111 210.648 249.092 209.365 251.484C208.117 253.876 206.765 255.679 205.309 256.892C203.853 258.105 202.328 258.712 200.733 258.712C199.208 258.712 197.734 258.157 196.313 257.048C194.892 255.939 193.73 254.344 192.829 252.264C191.928 250.149 191.477 247.671 191.477 244.828C191.477 241.985 192.049 239.299 193.193 236.768C194.372 234.237 195.984 232.001 198.029 230.06C200.109 228.084 202.536 226.524 205.309 225.38C208.082 224.236 211.046 223.664 214.201 223.664C217.252 223.664 219.99 224.167 222.417 225.172C224.878 226.177 226.976 227.564 228.709 229.332C230.442 231.065 231.777 233.093 232.713 235.416C233.649 237.704 234.117 240.165 234.117 242.8C234.117 246.44 233.337 249.647 231.777 252.42C230.252 255.193 228.033 257.447 225.121 259.18C222.244 260.913 218.742 262.057 214.617 262.612L212.173 258.764C213.005 258.66 213.802 258.556 214.565 258.452C215.328 258.348 216.021 258.227 216.645 258.088C218.309 257.707 219.921 257.117 221.481 256.32C223.076 255.488 224.497 254.448 225.745 253.2C226.993 251.917 227.981 250.409 228.709 248.676C229.472 246.908 229.853 244.897 229.853 242.644C229.853 240.529 229.506 238.571 228.813 236.768C228.12 234.931 227.097 233.319 225.745 231.932C224.393 230.545 222.746 229.453 220.805 228.656C218.864 227.859 216.645 227.46 214.149 227.46C211.306 227.46 208.724 227.98 206.401 229.02C204.113 230.06 202.154 231.429 200.525 233.128C198.93 234.792 197.7 236.629 196.833 238.64C195.966 240.616 195.533 242.557 195.533 244.464C195.533 246.648 195.81 248.451 196.365 249.872C196.954 251.259 197.648 252.281 198.445 252.94C199.277 253.599 200.092 253.928 200.889 253.928C201.721 253.928 202.57 253.529 203.437 252.732C204.304 251.9 205.188 250.583 206.089 248.78C206.99 246.943 207.874 244.568 208.741 241.656C209.504 239.16 210.145 236.508 210.665 233.7C211.22 230.892 211.618 228.136 211.861 225.432L216.229 225.484ZM253.877 217.32H257.673V227.772H253.877V217.32ZM271.817 217.32H275.613V227.772H271.817V217.32ZM242.125 221.116H287.833V224.548H242.125V221.116ZM241.761 249.56H288.301V252.992H241.761V249.56ZM262.769 230.424H266.617V265.16H262.769V230.424ZM260.741 250.86L263.809 252.316C262.63 253.633 261.244 254.899 259.649 256.112C258.054 257.325 256.338 258.469 254.501 259.544C252.664 260.584 250.774 261.52 248.833 262.352C246.926 263.219 245.054 263.912 243.217 264.432C243.009 264.12 242.749 263.756 242.437 263.34C242.16 262.924 241.848 262.525 241.501 262.144C241.189 261.763 240.877 261.433 240.565 261.156C242.402 260.705 244.274 260.133 246.181 259.44C248.122 258.712 249.994 257.897 251.797 256.996C253.6 256.095 255.264 255.124 256.789 254.084C258.314 253.044 259.632 251.969 260.741 250.86ZM268.853 251.068C270.309 252.593 272.129 254.032 274.313 255.384C276.532 256.701 278.941 257.88 281.541 258.92C284.141 259.925 286.706 260.723 289.237 261.312C288.96 261.555 288.648 261.867 288.301 262.248C287.989 262.664 287.694 263.063 287.417 263.444C287.14 263.86 286.88 264.241 286.637 264.588C284.141 263.86 281.576 262.889 278.941 261.676C276.341 260.463 273.914 259.076 271.661 257.516C269.408 255.921 267.501 254.223 265.941 252.42L268.853 251.068ZM250.861 238.952V243.216H278.941V238.952H250.861ZM250.861 231.88V236.092H278.941V231.88H250.861ZM247.221 228.916H282.789V246.232H247.221V228.916ZM293.345 240.564H340.561V244.464H293.345V240.564ZM314.977 232.192H319.033V260.116C319.033 261.433 318.825 262.421 318.409 263.08C318.028 263.739 317.352 264.224 316.381 264.536C315.41 264.848 314.058 265.056 312.325 265.16C310.626 265.264 308.529 265.299 306.033 265.264C305.964 264.883 305.825 264.449 305.617 263.964C305.444 263.513 305.236 263.028 304.993 262.508C304.785 262.023 304.577 261.607 304.369 261.26C305.756 261.295 307.073 261.312 308.321 261.312C309.604 261.347 310.696 261.364 311.597 261.364C312.533 261.364 313.192 261.364 313.573 261.364C314.128 261.295 314.492 261.173 314.665 261C314.873 260.861 314.977 260.549 314.977 260.064V232.192ZM298.753 220.908H332.657V224.808H298.753V220.908ZM331.357 220.908H332.345L333.229 220.7L336.193 222.936C334.633 224.496 332.813 226.091 330.733 227.72C328.688 229.315 326.556 230.823 324.337 232.244C322.153 233.665 320.056 234.896 318.045 235.936C317.837 235.659 317.577 235.347 317.265 235C316.988 234.653 316.676 234.324 316.329 234.012C316.017 233.665 315.74 233.388 315.497 233.18C317.404 232.244 319.362 231.135 321.373 229.852C323.384 228.535 325.273 227.183 327.041 225.796C328.809 224.375 330.248 223.057 331.357 221.844V220.908ZM383.617 224.756C383.617 225.692 383.946 226.507 384.605 227.2C385.264 227.859 386.078 228.188 387.049 228.188C387.985 228.188 388.782 227.859 389.441 227.2C390.134 226.507 390.481 225.692 390.481 224.756C390.481 223.785 390.134 222.971 389.441 222.312C388.782 221.619 387.985 221.272 387.049 221.272C386.078 221.272 385.264 221.619 384.605 222.312C383.946 222.971 383.617 223.785 383.617 224.756ZM381.225 224.756C381.225 223.681 381.485 222.711 382.005 221.844C382.525 220.943 383.218 220.232 384.085 219.712C384.986 219.157 385.974 218.88 387.049 218.88C388.089 218.88 389.06 219.157 389.961 219.712C390.862 220.232 391.573 220.943 392.093 221.844C392.613 222.711 392.873 223.681 392.873 224.756C392.873 225.831 392.613 226.801 392.093 227.668C391.573 228.535 390.862 229.245 389.961 229.8C389.06 230.32 388.089 230.58 387.049 230.58C385.974 230.58 384.986 230.32 384.085 229.8C383.218 229.245 382.525 228.535 382.005 227.668C381.485 226.801 381.225 225.831 381.225 224.756ZM354.237 245.348C354.792 243.996 355.329 242.523 355.849 240.928C356.404 239.333 356.906 237.687 357.357 235.988C357.842 234.255 358.258 232.556 358.605 230.892C358.952 229.193 359.194 227.581 359.333 226.056L363.961 227.044C363.892 227.425 363.788 227.841 363.649 228.292C363.51 228.708 363.389 229.141 363.285 229.592C363.181 230.043 363.094 230.459 363.025 230.84C362.852 231.637 362.609 232.677 362.297 233.96C361.985 235.243 361.621 236.647 361.205 238.172C360.789 239.697 360.338 241.24 359.853 242.8C359.368 244.325 358.848 245.747 358.293 247.064C357.669 248.659 356.941 250.305 356.109 252.004C355.312 253.668 354.445 255.297 353.509 256.892C352.573 258.487 351.62 259.977 350.649 261.364L346.229 259.492C347.858 257.308 349.366 254.951 350.753 252.42C352.174 249.855 353.336 247.497 354.237 245.348ZM379.821 243.372C379.301 242.02 378.729 240.599 378.105 239.108C377.481 237.617 376.822 236.127 376.129 234.636C375.436 233.111 374.76 231.689 374.101 230.372C373.477 229.02 372.87 227.876 372.281 226.94L376.493 225.536C377.013 226.437 377.585 227.547 378.209 228.864C378.868 230.181 379.544 231.585 380.237 233.076C380.93 234.567 381.606 236.075 382.265 237.6C382.924 239.125 383.53 240.581 384.085 241.968C384.605 243.251 385.16 244.689 385.749 246.284C386.338 247.844 386.91 249.439 387.465 251.068C388.054 252.663 388.592 254.223 389.077 255.748C389.562 257.239 389.978 258.573 390.325 259.752L385.697 261.26C385.281 259.492 384.744 257.585 384.085 255.54C383.461 253.46 382.785 251.38 382.057 249.3C381.329 247.185 380.584 245.209 379.821 243.372ZM409.295 222.884C410.231 223.508 411.306 224.288 412.519 225.224C413.732 226.125 414.963 227.096 416.211 228.136C417.494 229.141 418.69 230.129 419.799 231.1C420.908 232.071 421.827 232.92 422.555 233.648L419.279 236.924C418.62 236.265 417.771 235.451 416.731 234.48C415.691 233.509 414.547 232.504 413.299 231.464C412.051 230.389 410.82 229.384 409.607 228.448C408.394 227.477 407.302 226.68 406.331 226.056L409.295 222.884ZM404.823 257.724C407.874 257.273 410.647 256.649 413.143 255.852C415.674 255.055 417.979 254.153 420.059 253.148C422.139 252.143 423.994 251.137 425.623 250.132C428.292 248.468 430.754 246.561 433.007 244.412C435.26 242.228 437.236 239.975 438.935 237.652C440.634 235.329 441.986 233.111 442.991 230.996L445.487 235.416C444.308 237.565 442.852 239.749 441.119 241.968C439.386 244.187 437.427 246.319 435.243 248.364C433.059 250.409 430.65 252.264 428.015 253.928C426.282 255.003 424.375 256.06 422.295 257.1C420.25 258.14 417.996 259.093 415.535 259.96C413.108 260.792 410.456 261.468 407.579 261.988L404.823 257.724ZM478.351 227.98C477.658 227.321 476.86 226.576 475.959 225.744C475.058 224.877 474.139 224.045 473.203 223.248C472.267 222.416 471.435 221.723 470.707 221.168L473.671 219.036C474.26 219.452 475.023 220.059 475.959 220.856C476.93 221.653 477.9 222.485 478.871 223.352C479.842 224.184 480.656 224.947 481.315 225.64L478.351 227.98ZM461.815 223.508C461.954 223.785 462.127 224.132 462.335 224.548C462.543 224.964 462.768 225.397 463.011 225.848C463.254 226.299 463.462 226.68 463.635 226.992C464.64 228.829 465.732 230.979 466.911 233.44C468.09 235.867 469.199 238.276 470.239 240.668C470.967 242.263 471.695 244.031 472.423 245.972C473.186 247.913 473.914 249.889 474.607 251.9C475.3 253.876 475.959 255.783 476.583 257.62C477.207 259.423 477.727 261.052 478.143 262.508L473.671 263.704C473.151 261.659 472.527 259.423 471.799 256.996C471.071 254.535 470.274 252.056 469.407 249.56C468.54 247.064 467.604 244.672 466.599 242.384C465.802 240.581 465.004 238.848 464.207 237.184C463.444 235.485 462.716 233.943 462.023 232.556C461.33 231.135 460.688 229.921 460.099 228.916C459.787 228.396 459.388 227.789 458.903 227.096C458.418 226.368 457.967 225.744 457.551 225.224L461.815 223.508ZM452.611 238.692C453.339 238.484 454.102 238.241 454.899 237.964C455.731 237.687 456.39 237.461 456.875 237.288C458.296 236.699 459.908 236.005 461.711 235.208C463.548 234.376 465.472 233.509 467.483 232.608C469.528 231.707 471.591 230.875 473.671 230.112C475.751 229.315 477.779 228.673 479.755 228.188C481.766 227.668 483.638 227.408 485.371 227.408C487.798 227.408 489.86 227.824 491.559 228.656C493.292 229.488 494.627 230.649 495.563 232.14C496.499 233.596 496.967 235.277 496.967 237.184C496.967 239.16 496.534 240.945 495.667 242.54C494.8 244.135 493.483 245.4 491.715 246.336C489.982 247.237 487.746 247.688 485.007 247.688C483.551 247.688 482.13 247.532 480.743 247.22C479.391 246.908 478.212 246.579 477.207 246.232L477.363 242.176C478.368 242.627 479.495 243.025 480.743 243.372C482.026 243.684 483.36 243.84 484.747 243.84C486.654 243.84 488.196 243.528 489.375 242.904C490.554 242.28 491.42 241.448 491.975 240.408C492.53 239.368 492.807 238.224 492.807 236.976C492.807 235.971 492.53 235.017 491.975 234.116C491.42 233.215 490.588 232.487 489.479 231.932C488.37 231.377 486.966 231.1 485.267 231.1C483.499 231.1 481.523 231.412 479.339 232.036C477.19 232.66 474.936 233.457 472.579 234.428C470.256 235.399 467.968 236.439 465.715 237.548C463.462 238.623 461.364 239.645 459.423 240.616C457.516 241.587 455.904 242.367 454.587 242.956L452.611 238.692ZM522.863 219.452C522.794 219.764 522.742 220.128 522.707 220.544C522.672 220.925 522.638 221.341 522.603 221.792C522.568 222.243 522.534 222.659 522.499 223.04C522.464 223.837 522.412 224.877 522.343 226.16C522.308 227.443 522.274 228.864 522.239 230.424C522.204 231.949 522.17 233.509 522.135 235.104C522.1 236.664 522.083 238.12 522.083 239.472C522.083 240.824 522.083 242.315 522.083 243.944C522.118 245.539 522.152 247.133 522.187 248.728C522.256 250.288 522.291 251.744 522.291 253.096C522.326 254.413 522.343 255.471 522.343 256.268C522.343 257.863 522.152 259.128 521.771 260.064C521.39 261 520.852 261.659 520.159 262.04C519.5 262.456 518.703 262.664 517.767 262.664C516.762 262.664 515.635 262.421 514.387 261.936C513.139 261.485 511.943 260.861 510.799 260.064C509.69 259.267 508.771 258.348 508.043 257.308C507.315 256.268 506.951 255.176 506.951 254.032C506.951 252.472 507.54 250.947 508.719 249.456C509.932 247.965 511.492 246.579 513.399 245.296C515.34 244.013 517.386 242.973 519.535 242.176C521.892 241.24 524.302 240.547 526.763 240.096C529.224 239.611 531.478 239.368 533.523 239.368C536.054 239.368 538.29 239.801 540.231 240.668C542.207 241.535 543.75 242.748 544.859 244.308C546.003 245.833 546.575 247.636 546.575 249.716C546.575 251.796 546.142 253.633 545.275 255.228C544.443 256.823 543.195 258.157 541.531 259.232C539.902 260.307 537.891 261.139 535.499 261.728C534.355 261.971 533.211 262.127 532.067 262.196C530.958 262.3 529.952 262.387 529.051 262.456L527.595 258.244C528.566 258.279 529.571 258.279 530.611 258.244C531.686 258.209 532.708 258.088 533.679 257.88C535.204 257.603 536.626 257.135 537.943 256.476C539.295 255.783 540.37 254.881 541.167 253.772C541.999 252.663 542.415 251.328 542.415 249.768C542.415 248.277 542.016 247.029 541.219 246.024C540.422 245.019 539.347 244.256 537.995 243.736C536.643 243.216 535.135 242.956 533.471 242.956C531.183 242.956 528.947 243.199 526.763 243.684C524.579 244.169 522.36 244.863 520.107 245.764C518.443 246.388 516.918 247.168 515.531 248.104C514.144 249.005 513.035 249.959 512.203 250.964C511.406 251.969 511.007 252.923 511.007 253.824C511.007 254.413 511.198 254.985 511.579 255.54C511.995 256.06 512.498 256.528 513.087 256.944C513.676 257.36 514.3 257.689 514.959 257.932C515.618 258.14 516.19 258.244 516.675 258.244C517.264 258.244 517.715 258.036 518.027 257.62C518.374 257.204 518.547 256.563 518.547 255.696C518.547 254.691 518.53 253.304 518.495 251.536C518.46 249.733 518.426 247.792 518.391 245.712C518.356 243.597 518.339 241.587 518.339 239.68C518.339 238.189 518.339 236.595 518.339 234.896C518.374 233.197 518.391 231.551 518.391 229.956C518.426 228.361 518.443 226.957 518.443 225.744C518.478 224.531 518.495 223.664 518.495 223.144C518.495 222.797 518.478 222.399 518.443 221.948C518.443 221.463 518.426 220.995 518.391 220.544C518.356 220.093 518.304 219.729 518.235 219.452H522.863ZM538.983 225.224C540.231 225.883 541.618 226.68 543.143 227.616C544.668 228.517 546.124 229.436 547.511 230.372C548.932 231.308 550.059 232.123 550.891 232.816L548.759 236.144C548.135 235.52 547.338 234.861 546.367 234.168C545.396 233.44 544.356 232.729 543.247 232.036C542.138 231.308 541.046 230.632 539.971 230.008C538.896 229.349 537.943 228.795 537.111 228.344L538.983 225.224ZM507.783 228.812C509.204 228.985 510.418 229.107 511.423 229.176C512.463 229.211 513.468 229.228 514.439 229.228C515.722 229.228 517.16 229.159 518.755 229.02C520.35 228.881 521.996 228.708 523.695 228.5C525.394 228.257 527.04 227.98 528.635 227.668C530.264 227.321 531.72 226.957 533.003 226.576L533.107 230.632C531.755 230.944 530.247 231.256 528.583 231.568C526.919 231.845 525.22 232.088 523.487 232.296C521.788 232.504 520.159 232.677 518.599 232.816C517.039 232.955 515.687 233.024 514.543 233.024C513.052 233.024 511.787 233.007 510.747 232.972C509.742 232.937 508.788 232.868 507.887 232.764L507.783 228.812ZM577.203 225.9C578.624 226.108 580.271 226.281 582.143 226.42C584.05 226.524 586.008 226.576 588.019 226.576C590.064 226.541 592.006 226.472 593.843 226.368C595.715 226.229 597.292 226.056 598.575 225.848V230.06C597.188 230.199 595.559 230.32 593.687 230.424C591.85 230.493 589.926 230.528 587.915 230.528C585.939 230.528 584.015 230.493 582.143 230.424C580.271 230.32 578.624 230.199 577.203 230.06V225.9ZM579.231 247.064C578.988 248 578.798 248.849 578.659 249.612C578.52 250.375 578.451 251.12 578.451 251.848C578.451 252.437 578.572 253.027 578.815 253.616C579.092 254.171 579.543 254.673 580.167 255.124C580.826 255.54 581.727 255.887 582.871 256.164C584.015 256.407 585.471 256.528 587.239 256.528C589.596 256.528 591.815 256.424 593.895 256.216C595.975 255.973 598.055 255.627 600.135 255.176L600.239 259.544C598.61 259.891 596.703 260.168 594.519 260.376C592.37 260.549 589.943 260.636 587.239 260.636C582.871 260.636 579.664 259.943 577.619 258.556C575.608 257.169 574.603 255.263 574.603 252.836C574.603 251.969 574.672 251.051 574.811 250.08C574.984 249.075 575.21 247.948 575.487 246.7L579.231 247.064ZM567.271 221.896C567.202 222.173 567.098 222.537 566.959 222.988C566.855 223.404 566.734 223.837 566.595 224.288C566.491 224.704 566.404 225.068 566.335 225.38C566.162 226.351 565.954 227.477 565.711 228.76C565.468 230.008 565.226 231.36 564.983 232.816C564.775 234.237 564.567 235.693 564.359 237.184C564.186 238.64 564.03 240.061 563.891 241.448C563.787 242.835 563.735 244.117 563.735 245.296C563.735 246.579 563.77 247.792 563.839 248.936C563.943 250.08 564.064 251.293 564.203 252.576C564.515 251.779 564.844 250.929 565.191 250.028C565.538 249.127 565.884 248.243 566.231 247.376C566.612 246.475 566.942 245.677 567.219 244.984L569.403 246.648C568.952 247.896 568.467 249.265 567.947 250.756C567.427 252.247 566.959 253.685 566.543 255.072C566.162 256.424 565.884 257.499 565.711 258.296C565.642 258.677 565.572 259.093 565.503 259.544C565.434 259.995 565.416 260.359 565.451 260.636C565.486 260.913 565.503 261.208 565.503 261.52C565.538 261.867 565.572 262.179 565.607 262.456L561.863 262.716C561.343 260.879 560.892 258.521 560.511 255.644C560.13 252.732 559.939 249.525 559.939 246.024C559.939 244.117 560.026 242.176 560.199 240.2C560.372 238.189 560.598 236.248 560.875 234.376C561.152 232.469 561.412 230.736 561.655 229.176C561.932 227.581 562.14 226.247 562.279 225.172C562.383 224.548 562.47 223.924 562.539 223.3C562.608 222.641 562.643 222.035 562.643 221.48L567.271 221.896ZM644.907 219.348C645.531 220.215 646.259 221.341 647.091 222.728C647.958 224.115 648.668 225.397 649.223 226.576L646.519 227.824C645.93 226.576 645.271 225.311 644.543 224.028C643.85 222.745 643.104 221.567 642.307 220.492L644.907 219.348ZM650.419 217.268C650.835 217.823 651.32 218.516 651.875 219.348C652.43 220.18 652.967 221.047 653.487 221.948C654.007 222.815 654.475 223.629 654.891 224.392L652.187 225.692C651.563 224.409 650.887 223.161 650.159 221.948C649.431 220.7 648.651 219.539 647.819 218.464L650.419 217.268ZM612.771 225.536C616.376 225.952 619.826 226.195 623.119 226.264C626.447 226.333 629.446 226.247 632.115 226.004C634.264 225.796 636.292 225.501 638.199 225.12C640.106 224.704 641.804 224.253 643.295 223.768L643.867 227.564C642.411 227.945 640.747 228.327 638.875 228.708C637.038 229.055 635.079 229.332 632.999 229.54C630.364 229.783 627.296 229.904 623.795 229.904C620.328 229.869 616.723 229.679 612.979 229.332L612.771 225.536ZM611.731 236.196C614.712 236.508 617.624 236.716 620.467 236.82C623.344 236.889 626.066 236.872 628.631 236.768C631.231 236.664 633.536 236.491 635.547 236.248C638.008 235.971 640.262 235.607 642.307 235.156C644.352 234.705 646.068 234.255 647.455 233.804L648.079 237.704C646.692 238.085 645.028 238.467 643.087 238.848C641.18 239.229 639.135 239.541 636.951 239.784C634.836 240.027 632.392 240.217 629.619 240.356C626.88 240.495 624.003 240.547 620.987 240.512C617.971 240.443 614.955 240.304 611.939 240.096L611.731 236.196ZM629.515 224.86C629.307 224.063 629.082 223.283 628.839 222.52C628.596 221.723 628.336 220.96 628.059 220.232L632.479 219.66C632.652 221.116 632.93 222.641 633.311 224.236C633.692 225.796 634.108 227.339 634.559 228.864C635.044 230.355 635.495 231.724 635.911 232.972C636.396 234.289 636.951 235.711 637.575 237.236C638.234 238.761 638.962 240.269 639.759 241.76C640.556 243.251 641.406 244.672 642.307 246.024C642.584 246.44 642.879 246.839 643.191 247.22C643.538 247.567 643.902 247.913 644.283 248.26L642.099 251.432C641.128 251.155 639.984 250.929 638.667 250.756C637.35 250.548 635.998 250.375 634.611 250.236C633.259 250.063 631.976 249.907 630.763 249.768L631.075 246.648C632.462 246.752 633.9 246.891 635.391 247.064C636.916 247.237 638.078 247.376 638.875 247.48C637.454 245.261 636.188 242.956 635.079 240.564C633.97 238.137 633.034 235.867 632.271 233.752C631.855 232.573 631.474 231.481 631.127 230.476C630.815 229.436 630.52 228.448 630.243 227.512C630 226.576 629.758 225.692 629.515 224.86ZM619.271 247.376C618.647 248.277 618.127 249.196 617.711 250.132C617.33 251.068 617.139 252.125 617.139 253.304C617.139 255.419 618.11 257.031 620.051 258.14C621.992 259.215 625.008 259.752 629.099 259.752C631.526 259.752 633.727 259.665 635.703 259.492C637.679 259.284 639.62 258.989 641.527 258.608L641.319 262.768C639.516 263.045 637.592 263.271 635.547 263.444C633.536 263.617 631.404 263.704 629.151 263.704C625.754 263.704 622.876 263.357 620.519 262.664C618.162 261.971 616.359 260.913 615.111 259.492C613.863 258.036 613.222 256.199 613.187 253.98C613.187 252.489 613.378 251.172 613.759 250.028C614.175 248.849 614.66 247.688 615.215 246.544L619.271 247.376ZM675.119 219.972C674.842 220.943 674.564 222.069 674.287 223.352C674.044 224.6 673.802 225.917 673.559 227.304C673.351 228.656 673.16 229.956 672.987 231.204C672.848 232.452 672.744 233.527 672.675 234.428C673.23 233.111 673.958 231.759 674.859 230.372C675.76 228.985 676.835 227.72 678.083 226.576C679.331 225.397 680.683 224.444 682.139 223.716C683.63 222.988 685.19 222.624 686.819 222.624C689.142 222.624 691.187 223.352 692.955 224.808C694.758 226.264 696.162 228.327 697.167 230.996C698.172 233.665 698.675 236.82 698.675 240.46C698.675 244.065 698.138 247.203 697.063 249.872C695.988 252.507 694.48 254.743 692.539 256.58C690.598 258.417 688.275 259.908 685.571 261.052C682.902 262.196 679.955 263.045 676.731 263.6L674.287 259.856C677.095 259.44 679.712 258.816 682.139 257.984C684.6 257.117 686.75 255.956 688.587 254.5C690.424 253.009 691.846 251.12 692.851 248.832C693.891 246.544 694.411 243.771 694.411 240.512C694.411 237.773 694.099 235.347 693.475 233.232C692.851 231.083 691.932 229.401 690.719 228.188C689.506 226.975 687.98 226.368 686.143 226.368C684.514 226.368 682.954 226.888 681.463 227.928C679.972 228.968 678.603 230.32 677.355 231.984C676.142 233.613 675.154 235.381 674.391 237.288C673.628 239.16 673.16 240.945 672.987 242.644C672.848 243.649 672.779 244.637 672.779 245.608C672.814 246.579 672.918 247.723 673.091 249.04L669.087 249.352C668.948 248.381 668.81 247.185 668.671 245.764C668.567 244.343 668.515 242.783 668.515 241.084C668.515 239.871 668.567 238.519 668.671 237.028C668.81 235.503 668.948 233.977 669.087 232.452C669.26 230.892 669.434 229.401 669.607 227.98C669.815 226.559 669.988 225.328 670.127 224.288C670.231 223.491 670.318 222.728 670.387 222C670.456 221.237 670.508 220.509 670.543 219.816L675.119 219.972ZM713.599 226.784C714.57 226.749 715.454 226.715 716.251 226.68C717.083 226.611 717.742 226.559 718.227 226.524C719.059 226.42 720.255 226.299 721.815 226.16C723.41 225.987 725.23 225.813 727.275 225.64C729.32 225.432 731.522 225.224 733.879 225.016C736.236 224.808 738.611 224.6 741.003 224.392C742.91 224.219 744.712 224.08 746.411 223.976C748.11 223.837 749.687 223.733 751.143 223.664C752.599 223.56 753.899 223.491 755.043 223.456V227.616C754.072 227.616 752.963 227.633 751.715 227.668C750.467 227.703 749.236 227.772 748.023 227.876C746.81 227.98 745.752 228.171 744.851 228.448C743.014 229.037 741.35 229.939 739.859 231.152C738.403 232.331 737.155 233.7 736.115 235.26C735.075 236.82 734.278 238.432 733.723 240.096C733.203 241.76 732.943 243.372 732.943 244.932C732.943 246.943 733.29 248.711 733.983 250.236C734.676 251.727 735.612 252.992 736.791 254.032C738.004 255.072 739.374 255.921 740.899 256.58C742.424 257.239 744.036 257.741 745.735 258.088C747.468 258.4 749.184 258.573 750.883 258.608L749.375 262.924C747.434 262.855 745.492 262.577 743.551 262.092C741.61 261.641 739.755 260.983 737.987 260.116C736.219 259.215 734.642 258.088 733.255 256.736C731.868 255.384 730.776 253.807 729.979 252.004C729.182 250.201 728.783 248.139 728.783 245.816C728.783 243.112 729.251 240.616 730.187 238.328C731.158 236.005 732.388 233.977 733.879 232.244C735.37 230.511 736.912 229.176 738.507 228.24C737.398 228.379 736.011 228.535 734.347 228.708C732.718 228.881 730.967 229.072 729.095 229.28C727.223 229.453 725.334 229.661 723.427 229.904C721.555 230.147 719.804 230.389 718.175 230.632C716.546 230.84 715.176 231.065 714.067 231.308L713.599 226.784ZM747.555 234.012C747.936 234.567 748.387 235.277 748.907 236.144C749.462 236.976 749.999 237.843 750.519 238.744C751.039 239.611 751.472 240.443 751.819 241.24L749.167 242.488C748.578 241.205 747.919 239.94 747.191 238.692C746.463 237.409 745.7 236.231 744.903 235.156L747.555 234.012ZM753.223 231.828C753.639 232.383 754.124 233.076 754.679 233.908C755.234 234.74 755.771 235.607 756.291 236.508C756.846 237.375 757.331 238.207 757.747 239.004L755.043 240.304C754.419 239.021 753.726 237.756 752.963 236.508C752.235 235.26 751.472 234.099 750.675 233.024L753.223 231.828ZM187.59 293.268C189.081 293.407 190.537 293.511 191.958 293.58C193.38 293.649 194.87 293.684 196.43 293.684C199.55 293.684 202.653 293.563 205.738 293.32C208.824 293.077 211.684 292.696 214.318 292.176V296.18C211.545 296.631 208.616 296.96 205.53 297.168C202.48 297.376 199.412 297.497 196.326 297.532C194.836 297.532 193.38 297.497 191.958 297.428C190.572 297.359 189.116 297.272 187.59 297.168V293.268ZM205.79 283.96C205.721 284.48 205.652 285 205.582 285.52C205.548 286.04 205.513 286.56 205.478 287.08C205.444 287.704 205.409 288.501 205.374 289.472C205.34 290.443 205.322 291.483 205.322 292.592C205.322 293.667 205.322 294.724 205.322 295.764C205.322 297.74 205.357 299.716 205.426 301.692C205.496 303.668 205.582 305.592 205.686 307.464C205.79 309.336 205.877 311.104 205.946 312.768C206.05 314.397 206.102 315.888 206.102 317.24C206.102 318.28 205.946 319.303 205.634 320.308C205.357 321.313 204.872 322.215 204.178 323.012C203.52 323.809 202.601 324.433 201.422 324.884C200.278 325.369 198.84 325.612 197.106 325.612C193.605 325.612 190.918 324.953 189.046 323.636C187.209 322.319 186.29 320.499 186.29 318.176C186.29 316.72 186.706 315.403 187.538 314.224C188.405 313.011 189.618 312.057 191.178 311.364C192.773 310.671 194.714 310.324 197.002 310.324C199.221 310.324 201.249 310.584 203.086 311.104C204.958 311.589 206.674 312.248 208.234 313.08C209.829 313.877 211.285 314.779 212.602 315.784C213.92 316.755 215.133 317.725 216.242 318.696L213.954 322.18C212.152 320.447 210.332 318.939 208.494 317.656C206.692 316.373 204.82 315.368 202.878 314.64C200.937 313.912 198.874 313.548 196.69 313.548C194.714 313.548 193.102 313.947 191.854 314.744C190.641 315.507 190.034 316.512 190.034 317.76C190.034 319.077 190.624 320.1 191.802 320.828C192.981 321.521 194.506 321.868 196.378 321.868C197.869 321.868 199.013 321.625 199.81 321.14C200.642 320.655 201.214 319.996 201.526 319.164C201.873 318.332 202.046 317.344 202.046 316.2C202.046 315.264 202.012 313.999 201.942 312.404C201.873 310.809 201.786 309.076 201.682 307.204C201.578 305.297 201.492 303.356 201.422 301.38C201.353 299.404 201.318 297.549 201.318 295.816C201.318 294.048 201.318 292.384 201.318 290.824C201.318 289.264 201.318 288.033 201.318 287.132C201.318 286.681 201.301 286.161 201.266 285.572C201.232 284.948 201.18 284.411 201.11 283.96H205.79ZM180.102 284.272C179.998 284.549 179.877 284.913 179.738 285.364C179.634 285.78 179.53 286.213 179.426 286.664C179.357 287.115 179.288 287.496 179.218 287.808C179.01 288.779 178.785 289.94 178.542 291.292C178.334 292.609 178.109 294.048 177.866 295.608C177.624 297.133 177.398 298.693 177.19 300.288C177.017 301.848 176.878 303.356 176.774 304.812C176.67 306.268 176.618 307.585 176.618 308.764C176.618 310.012 176.653 311.208 176.722 312.352C176.826 313.496 176.965 314.709 177.138 315.992C177.416 315.195 177.728 314.345 178.074 313.444C178.421 312.543 178.768 311.641 179.114 310.74C179.496 309.839 179.825 309.041 180.102 308.348L182.234 310.012C181.818 311.191 181.35 312.525 180.83 314.016C180.345 315.472 179.877 316.876 179.426 318.228C179.01 319.545 178.716 320.637 178.542 321.504C178.473 321.851 178.404 322.249 178.334 322.7C178.3 323.151 178.3 323.532 178.334 323.844C178.334 324.087 178.334 324.381 178.334 324.728C178.369 325.075 178.404 325.387 178.438 325.664L174.798 325.924C174.278 324.052 173.81 321.729 173.394 318.956C173.013 316.148 172.822 312.993 172.822 309.492C172.822 307.551 172.909 305.54 173.082 303.46C173.29 301.345 173.516 299.283 173.758 297.272C174.036 295.261 174.296 293.424 174.538 291.76C174.816 290.061 175.041 288.675 175.214 287.6C175.284 287.011 175.353 286.387 175.422 285.728C175.492 285.069 175.526 284.463 175.526 283.908L180.102 284.272ZM223.314 304.5H266.89V308.088H223.314V304.5ZM242.762 297.012H246.766V328.316H242.762V297.012ZM241.618 306.372L244.842 307.724C243.248 310.324 241.289 312.82 238.966 315.212C236.678 317.569 234.182 319.684 231.478 321.556C228.774 323.393 226.036 324.901 223.262 326.08C223.054 325.733 222.777 325.352 222.43 324.936C222.118 324.555 221.789 324.173 221.442 323.792C221.13 323.376 220.818 323.029 220.506 322.752C223.245 321.747 225.949 320.412 228.618 318.748C231.322 317.049 233.801 315.143 236.054 313.028C238.308 310.913 240.162 308.695 241.618 306.372ZM247.962 306.32C249.418 308.643 251.29 310.861 253.578 312.976C255.866 315.091 258.362 316.997 261.066 318.696C263.77 320.36 266.474 321.695 269.178 322.7C268.866 322.977 268.537 323.324 268.19 323.74C267.844 324.121 267.497 324.52 267.15 324.936C266.838 325.352 266.578 325.751 266.37 326.132C263.632 324.953 260.893 323.411 258.154 321.504C255.45 319.597 252.937 317.465 250.614 315.108C248.326 312.716 246.368 310.22 244.738 307.62L247.962 306.32ZM223.262 291.136H266.838V301.64H262.938V294.776H227.058V301.64H223.262V291.136ZM260.234 280.788L264.446 282.244C263.268 283.977 261.985 285.763 260.598 287.6C259.212 289.403 257.929 290.928 256.75 292.176L253.526 290.876C254.289 289.975 255.086 288.935 255.918 287.756C256.75 286.577 257.548 285.381 258.31 284.168C259.073 282.92 259.714 281.793 260.234 280.788ZM226.122 282.816L229.45 281.204C230.56 282.487 231.634 283.908 232.674 285.468C233.749 286.993 234.494 288.345 234.91 289.524L231.426 291.292C231.114 290.529 230.664 289.663 230.074 288.692C229.52 287.687 228.896 286.664 228.202 285.624C227.544 284.584 226.85 283.648 226.122 282.816ZM239.954 281.568L243.386 280.476C244.253 281.863 245.05 283.388 245.778 285.052C246.541 286.716 247.061 288.155 247.338 289.368L243.646 290.616C243.473 289.819 243.196 288.9 242.814 287.86C242.433 286.82 242 285.763 241.514 284.688C241.029 283.579 240.509 282.539 239.954 281.568ZM276.666 285.624H316.862V288.692H276.666V285.624ZM279.578 291.656H314.054V294.62H279.578V291.656ZM273.754 297.584H319.878V300.652H273.754V297.584ZM285.61 310.272H307.502V312.664H285.61V310.272ZM294.762 287.132H298.766V299.144H294.762V287.132ZM294.866 301.952H298.61V306.58H294.866V301.952ZM283.79 281.412L287.17 280.216C287.933 280.979 288.661 281.863 289.354 282.868C290.048 283.873 290.568 284.757 290.914 285.52L287.326 286.976C287.014 286.179 286.512 285.26 285.818 284.22C285.16 283.18 284.484 282.244 283.79 281.412ZM305.994 280.216L310.154 281.256C309.461 282.296 308.75 283.301 308.022 284.272C307.329 285.208 306.67 286.023 306.046 286.716L302.77 285.676C303.325 284.913 303.914 284.012 304.538 282.972C305.162 281.897 305.648 280.979 305.994 280.216ZM305.734 298.416C306.774 299.907 308.092 301.328 309.686 302.68C311.316 303.997 313.101 305.176 315.042 306.216C316.984 307.221 318.977 308.019 321.022 308.608C320.606 308.955 320.156 309.44 319.67 310.064C319.185 310.653 318.804 311.191 318.526 311.676C316.412 310.948 314.349 309.977 312.338 308.764C310.362 307.516 308.525 306.112 306.826 304.552C305.162 302.992 303.776 301.328 302.666 299.56L305.734 298.416ZM297.362 316.46C298.714 318.055 300.517 319.441 302.77 320.62C305.058 321.764 307.676 322.7 310.622 323.428C313.604 324.156 316.758 324.659 320.086 324.936C319.705 325.317 319.306 325.82 318.89 326.444C318.474 327.103 318.145 327.692 317.902 328.212C314.47 327.796 311.229 327.12 308.178 326.184C305.162 325.248 302.458 324.052 300.066 322.596C297.709 321.105 295.785 319.337 294.294 317.292L297.362 316.46ZM286.026 304.812H310.206V318.124H286.026V315.472H306.306V307.516H286.026V304.812ZM283.478 304.812H287.326V325.248H283.478V304.812ZM277.498 324.208C279.405 324.069 281.606 323.913 284.102 323.74C286.633 323.567 289.32 323.359 292.162 323.116C295.04 322.873 297.917 322.631 300.794 322.388V325.56C298.056 325.837 295.317 326.097 292.578 326.34C289.84 326.617 287.222 326.86 284.726 327.068C282.23 327.276 279.96 327.484 277.914 327.692L277.498 324.208ZM313.534 317.136L316.446 318.904C314.921 319.875 313.222 320.793 311.35 321.66C309.478 322.527 307.762 323.255 306.202 323.844L303.914 322.284C304.92 321.833 306.012 321.313 307.19 320.724C308.369 320.1 309.513 319.476 310.622 318.852C311.766 318.228 312.737 317.656 313.534 317.136ZM287.742 298.416L291.382 299.508C290.169 301.345 288.678 303.079 286.91 304.708C285.177 306.303 283.305 307.741 281.294 309.024C279.284 310.307 277.273 311.416 275.262 312.352C275.089 312.109 274.829 311.815 274.482 311.468C274.17 311.087 273.824 310.723 273.442 310.376C273.096 309.995 272.784 309.7 272.506 309.492C274.552 308.695 276.528 307.741 278.434 306.632C280.376 305.488 282.144 304.223 283.738 302.836C285.368 301.449 286.702 299.976 287.742 298.416ZM344.89 283.596C344.821 284.081 344.734 284.601 344.63 285.156C344.526 285.676 344.422 286.196 344.318 286.716C344.18 287.305 344.024 288.137 343.85 289.212C343.677 290.287 343.469 291.431 343.226 292.644C343.018 293.823 342.793 294.967 342.55 296.076C342.169 297.532 341.718 299.196 341.198 301.068C340.713 302.905 340.124 304.881 339.43 306.996C338.772 309.076 338.026 311.208 337.194 313.392C336.362 315.541 335.444 317.673 334.438 319.788C333.433 321.903 332.341 323.913 331.162 325.82L326.95 324.104C328.129 322.544 329.238 320.776 330.278 318.8C331.318 316.824 332.272 314.779 333.138 312.664C334.005 310.515 334.785 308.4 335.478 306.32C336.172 304.24 336.761 302.316 337.246 300.548C337.766 298.745 338.165 297.203 338.442 295.92C338.928 293.875 339.326 291.725 339.638 289.472C339.95 287.219 340.106 285.104 340.106 283.128L344.89 283.596ZM362.778 289.628C363.61 290.668 364.477 291.985 365.378 293.58C366.314 295.175 367.216 296.856 368.082 298.624C368.984 300.392 369.798 302.108 370.526 303.772C371.289 305.436 371.878 306.875 372.294 308.088L368.29 310.012C367.909 308.66 367.372 307.135 366.678 305.436C366.02 303.737 365.257 302.021 364.39 300.288C363.558 298.52 362.674 296.856 361.738 295.296C360.837 293.701 359.918 292.384 358.982 291.344L362.778 289.628ZM326.17 295.036C327.002 295.071 327.782 295.088 328.51 295.088C329.238 295.088 330.018 295.071 330.85 295.036C331.613 295.001 332.601 294.949 333.814 294.88C335.062 294.776 336.397 294.672 337.818 294.568C339.24 294.429 340.661 294.308 342.082 294.204C343.504 294.065 344.804 293.961 345.982 293.892C347.161 293.788 348.097 293.736 348.79 293.736C350.35 293.736 351.754 293.996 353.002 294.516C354.285 295.001 355.308 295.885 356.07 297.168C356.868 298.416 357.266 300.219 357.266 302.576C357.266 304.621 357.162 306.84 356.954 309.232C356.746 311.589 356.417 313.843 355.966 315.992C355.55 318.107 354.978 319.892 354.25 321.348C353.453 323.081 352.413 324.225 351.13 324.78C349.848 325.369 348.357 325.664 346.658 325.664C345.653 325.664 344.578 325.577 343.434 325.404C342.325 325.265 341.354 325.109 340.522 324.936L339.846 320.568C340.574 320.811 341.337 321.019 342.134 321.192C342.932 321.331 343.694 321.452 344.422 321.556C345.15 321.625 345.74 321.66 346.19 321.66C347.161 321.66 348.028 321.504 348.79 321.192C349.553 320.845 350.212 320.1 350.766 318.956C351.321 317.777 351.772 316.304 352.118 314.536C352.5 312.768 352.777 310.879 352.95 308.868C353.124 306.857 353.21 304.916 353.21 303.044C353.21 301.449 352.985 300.253 352.534 299.456C352.084 298.659 351.442 298.121 350.61 297.844C349.778 297.567 348.808 297.428 347.698 297.428C346.832 297.428 345.653 297.497 344.162 297.636C342.672 297.74 341.077 297.879 339.378 298.052C337.68 298.191 336.102 298.347 334.646 298.52C333.225 298.693 332.116 298.815 331.318 298.884C330.694 298.953 329.914 299.057 328.978 299.196C328.077 299.3 327.297 299.404 326.638 299.508L326.17 295.036ZM363.402 282.088C363.853 282.677 364.321 283.405 364.806 284.272C365.326 285.104 365.846 285.971 366.366 286.872C366.886 287.739 367.32 288.519 367.666 289.212L364.806 290.46C364.494 289.767 364.096 288.987 363.61 288.12C363.125 287.253 362.622 286.387 362.102 285.52C361.582 284.653 361.08 283.891 360.594 283.232L363.402 282.088ZM369.122 279.956C369.573 280.615 370.076 281.377 370.63 282.244C371.185 283.111 371.722 283.977 372.242 284.844C372.762 285.676 373.178 286.421 373.49 287.08L370.682 288.328C370.128 287.184 369.452 285.953 368.654 284.636C367.857 283.284 367.094 282.123 366.366 281.152L369.122 279.956ZM391.378 283.232H424.658V286.508H391.378V283.232ZM395.486 290.096H422.578V301.848H395.486V298.728H418.782V293.164H395.486V290.096ZM393.666 290.096H397.306V299.352C397.306 301.293 397.22 303.425 397.046 305.748C396.873 308.036 396.544 310.393 396.058 312.82C395.608 315.247 394.932 317.621 394.03 319.944C393.164 322.267 392.02 324.399 390.598 326.34C390.425 326.097 390.148 325.82 389.766 325.508C389.42 325.196 389.056 324.884 388.674 324.572C388.293 324.295 387.964 324.087 387.686 323.948C389.038 322.111 390.113 320.135 390.91 318.02C391.708 315.905 392.297 313.756 392.678 311.572C393.094 309.388 393.354 307.256 393.458 305.176C393.597 303.061 393.666 301.103 393.666 299.3V290.096ZM396.474 305.696H421.33V308.764H399.75V328.264H396.474V305.696ZM420.082 305.696H423.566V324.312C423.566 325.144 423.48 325.82 423.306 326.34C423.133 326.86 422.786 327.276 422.266 327.588C421.712 327.865 421.036 328.039 420.238 328.108C419.441 328.177 418.436 328.212 417.222 328.212C417.188 327.727 417.049 327.155 416.806 326.496C416.598 325.872 416.356 325.317 416.078 324.832C416.91 324.867 417.621 324.884 418.21 324.884C418.834 324.884 419.25 324.884 419.458 324.884C419.874 324.884 420.082 324.676 420.082 324.26V305.696ZM397.982 314.744H421.434V317.864H397.982V314.744ZM404.482 306.684H407.394V327.9H404.482V306.684ZM412.23 306.684H415.194V327.9H412.23V306.684ZM386.958 280.58L390.546 281.568C389.576 284.584 388.414 287.565 387.062 290.512C385.745 293.459 384.306 296.249 382.746 298.884C381.186 301.484 379.54 303.789 377.806 305.8C377.702 305.488 377.529 305.089 377.286 304.604C377.044 304.084 376.784 303.581 376.506 303.096C376.229 302.576 375.986 302.16 375.778 301.848C377.304 300.08 378.76 298.069 380.146 295.816C381.533 293.528 382.798 291.084 383.942 288.484C385.121 285.884 386.126 283.249 386.958 280.58ZM382.746 293.32L386.386 289.732L386.49 289.836V328.16H382.746V293.32ZM435.162 303.252C435.96 303.079 436.757 302.888 437.554 302.68C438.386 302.437 439.218 302.195 440.05 301.952C440.952 301.675 442.13 301.293 443.586 300.808C445.042 300.323 446.62 299.855 448.318 299.404C450.017 298.953 451.733 298.555 453.466 298.208C455.234 297.861 456.881 297.688 458.406 297.688C460.868 297.688 463.052 298.156 464.958 299.092C466.865 300.028 468.356 301.363 469.43 303.096C470.54 304.795 471.094 306.84 471.094 309.232C471.094 311.728 470.522 313.929 469.378 315.836C468.234 317.708 466.605 319.303 464.49 320.62C462.41 321.937 459.914 322.977 457.002 323.74C454.125 324.503 450.936 324.988 447.434 325.196L445.77 321.192C448.578 321.088 451.248 320.811 453.778 320.36C456.309 319.875 458.562 319.164 460.538 318.228C462.514 317.292 464.057 316.079 465.166 314.588C466.31 313.063 466.882 311.243 466.882 309.128C466.882 307.637 466.518 306.32 465.79 305.176C465.062 304.032 464.04 303.131 462.722 302.472C461.44 301.779 459.897 301.432 458.094 301.432C456.812 301.432 455.373 301.605 453.778 301.952C452.184 302.264 450.537 302.68 448.838 303.2C447.14 303.72 445.51 304.275 443.95 304.864C442.39 305.419 441.004 305.939 439.79 306.424C438.577 306.875 437.624 307.239 436.93 307.516L435.162 303.252ZM500.838 283.284C500.63 283.977 500.457 284.705 500.318 285.468C500.18 286.231 500.041 286.959 499.902 287.652C499.729 288.484 499.521 289.524 499.278 290.772C499.07 291.985 498.793 293.32 498.446 294.776C498.134 296.197 497.805 297.636 497.458 299.092C497.112 300.548 496.748 301.935 496.366 303.252C496.02 304.535 495.656 305.661 495.274 306.632C497.562 305.037 499.885 303.911 502.242 303.252C504.634 302.559 507.2 302.212 509.938 302.212C512.712 302.212 515.069 302.645 517.01 303.512C518.952 304.379 520.442 305.592 521.482 307.152C522.522 308.677 523.042 310.463 523.042 312.508C523.042 315.212 522.384 317.5 521.066 319.372C519.749 321.244 517.894 322.717 515.502 323.792C513.11 324.867 510.268 325.543 506.974 325.82C503.716 326.132 500.093 326.08 496.106 325.664L495.066 321.556C498.082 321.972 500.994 322.145 503.802 322.076C506.645 321.972 509.176 321.591 511.394 320.932C513.648 320.239 515.433 319.216 516.75 317.864C518.102 316.512 518.778 314.761 518.778 312.612C518.778 310.671 517.981 309.041 516.386 307.724C514.826 306.372 512.521 305.696 509.47 305.696C506.385 305.696 503.49 306.233 500.786 307.308C498.082 308.348 495.864 309.908 494.13 311.988C493.818 312.369 493.524 312.751 493.246 313.132C493.004 313.479 492.761 313.895 492.518 314.38L488.618 312.976C489.624 311.035 490.542 308.868 491.374 306.476C492.206 304.049 492.934 301.605 493.558 299.144C494.182 296.683 494.702 294.429 495.118 292.384C495.534 290.304 495.829 288.623 496.002 287.34C496.106 286.508 496.176 285.763 496.21 285.104C496.245 284.445 496.245 283.752 496.21 283.024L500.838 283.284ZM484.666 289.888C486.053 290.131 487.648 290.339 489.45 290.512C491.288 290.685 492.986 290.772 494.546 290.772C496.21 290.772 498.065 290.72 500.11 290.616C502.156 290.512 504.288 290.356 506.506 290.148C508.725 289.94 510.944 289.68 513.162 289.368C515.416 289.021 517.565 288.623 519.61 288.172L519.662 292.176C517.825 292.488 515.814 292.783 513.63 293.06C511.481 293.337 509.28 293.58 507.026 293.788C504.773 293.996 502.572 294.169 500.422 294.308C498.308 294.412 496.366 294.464 494.598 294.464C492.83 294.464 491.114 294.412 489.45 294.308C487.821 294.204 486.244 294.083 484.718 293.944L484.666 289.888ZM557.882 298.104C557.12 297.307 556.236 296.457 555.23 295.556C554.225 294.62 553.22 293.823 552.214 293.164L555.126 290.98C555.577 291.292 556.149 291.743 556.842 292.332C557.57 292.921 558.281 293.528 558.974 294.152C559.668 294.776 560.257 295.348 560.742 295.868L557.882 298.104ZM545.35 294.88C545.558 295.296 545.766 295.729 545.974 296.18C546.217 296.596 546.425 296.977 546.598 297.324C547.084 298.225 547.673 299.387 548.366 300.808C549.094 302.195 549.822 303.651 550.55 305.176C551.278 306.701 551.902 308.105 552.422 309.388C553.012 310.705 553.601 312.144 554.19 313.704C554.78 315.264 555.352 316.841 555.906 318.436C556.461 320.031 556.981 321.573 557.466 323.064C557.986 324.52 558.42 325.803 558.766 326.912L554.658 328.056C554.208 326.392 553.67 324.589 553.046 322.648C552.457 320.672 551.816 318.679 551.122 316.668C550.429 314.657 549.701 312.768 548.938 311C548.28 309.509 547.604 308.019 546.91 306.528C546.217 305.037 545.558 303.668 544.934 302.42C544.345 301.172 543.808 300.184 543.322 299.456C543.08 299.04 542.75 298.555 542.334 298C541.953 297.411 541.572 296.908 541.19 296.492L545.35 294.88ZM536.718 307.204C537.516 307.031 538.244 306.84 538.902 306.632C539.561 306.424 540.064 306.251 540.41 306.112C541.589 305.627 542.958 305.037 544.518 304.344C546.078 303.651 547.742 302.923 549.51 302.16C551.278 301.397 553.064 300.687 554.866 300.028C556.669 299.335 558.402 298.78 560.066 298.364C561.73 297.913 563.221 297.688 564.538 297.688C566.826 297.688 568.698 298.087 570.154 298.884C571.645 299.681 572.737 300.721 573.43 302.004C574.158 303.252 574.522 304.621 574.522 306.112C574.522 308.781 573.69 310.948 572.026 312.612C570.362 314.276 567.728 315.108 564.122 315.108C562.978 315.108 561.8 314.969 560.586 314.692C559.408 314.415 558.437 314.12 557.674 313.808L557.83 310.012C558.662 310.393 559.616 310.74 560.69 311.052C561.8 311.329 562.874 311.468 563.914 311.468C565.613 311.468 566.948 311.225 567.918 310.74C568.889 310.22 569.582 309.544 569.998 308.712C570.414 307.88 570.622 307.013 570.622 306.112C570.622 305.349 570.414 304.604 569.998 303.876C569.617 303.148 568.976 302.541 568.074 302.056C567.208 301.571 565.977 301.328 564.382 301.328C563.03 301.328 561.418 301.605 559.546 302.16C557.709 302.68 555.768 303.356 553.722 304.188C551.712 305.02 549.736 305.921 547.794 306.892C545.853 307.828 544.085 308.695 542.49 309.492C540.93 310.255 539.682 310.844 538.746 311.26L536.718 307.204ZM620.282 306.684C620.282 305.228 619.901 303.945 619.138 302.836C618.41 301.692 617.37 300.808 616.018 300.184C614.701 299.525 613.158 299.196 611.39 299.196C609.38 299.196 607.49 299.352 605.722 299.664C603.954 299.976 602.342 300.34 600.886 300.756C599.465 301.172 598.234 301.519 597.194 301.796C596.397 302.039 595.617 302.299 594.854 302.576C594.126 302.853 593.45 303.131 592.826 303.408L591.474 298.572C592.202 298.503 592.982 298.399 593.814 298.26C594.681 298.121 595.496 297.965 596.258 297.792C597.506 297.515 598.945 297.185 600.574 296.804C602.238 296.423 604.024 296.076 605.93 295.764C607.872 295.452 609.83 295.296 611.806 295.296C614.268 295.296 616.469 295.747 618.41 296.648C620.352 297.549 621.877 298.867 622.986 300.6C624.13 302.299 624.702 304.379 624.702 306.84C624.702 309.683 624.113 312.213 622.934 314.432C621.756 316.616 620.092 318.523 617.942 320.152C615.828 321.747 613.332 323.081 610.454 324.156C607.577 325.231 604.457 326.011 601.094 326.496L598.754 322.544C601.874 322.163 604.752 321.556 607.386 320.724C610.021 319.857 612.292 318.783 614.198 317.5C616.14 316.217 617.63 314.675 618.67 312.872C619.745 311.069 620.282 309.007 620.282 306.684ZM598.442 283.284C599.864 283.596 601.562 283.891 603.538 284.168C605.549 284.445 607.612 284.705 609.726 284.948C611.876 285.156 613.886 285.329 615.758 285.468C617.665 285.607 619.26 285.676 620.542 285.676L619.918 289.68C618.462 289.576 616.764 289.455 614.822 289.316C612.916 289.143 610.922 288.952 608.842 288.744C606.797 288.501 604.804 288.259 602.862 288.016C600.956 287.739 599.257 287.479 597.766 287.236L598.442 283.284ZM642.007 324.295C641.096 324.295 640.314 323.969 639.662 323.317C639.01 322.664 638.683 321.883 638.683 320.972C638.683 320.061 639.01 319.279 639.662 318.626C640.314 317.974 641.096 317.648 642.007 317.648C642.918 317.648 643.7 317.974 644.352 318.626C645.005 319.279 645.331 320.061 645.331 320.972C645.331 321.575 645.177 322.129 644.869 322.634C644.574 323.138 644.174 323.545 643.669 323.852C643.177 324.148 642.623 324.295 642.007 324.295ZM656.189 324.295C655.278 324.295 654.496 323.969 653.844 323.317C653.191 322.664 652.865 321.883 652.865 320.972C652.865 320.061 653.191 319.279 653.844 318.626C654.496 317.974 655.278 317.648 656.189 317.648C657.1 317.648 657.882 317.974 658.534 318.626C659.187 319.279 659.513 320.061 659.513 320.972C659.513 321.575 659.359 322.129 659.051 322.634C658.756 323.138 658.356 323.545 657.851 323.852C657.359 324.148 656.805 324.295 656.189 324.295ZM670.371 324.295C669.46 324.295 668.678 323.969 668.026 323.317C667.373 322.664 667.047 321.883 667.047 320.972C667.047 320.061 667.373 319.279 668.026 318.626C668.678 317.974 669.46 317.648 670.371 317.648C671.282 317.648 672.064 317.974 672.716 318.626C673.368 319.279 673.695 320.061 673.695 320.972C673.695 321.575 673.541 322.129 673.233 322.634C672.938 323.138 672.537 323.545 672.033 323.852C671.54 324.148 670.986 324.295 670.371 324.295Z" fill="black"/>
</g>
<defs>
<clipPath id="clip0_1757_2">
<rect width="845.488" height="565.999" fill="white"/>
</clipPath>
</defs>
</svg>
