<svg width="846" height="566" viewBox="0 0 846 566" fill="none" xmlns="http://www.w3.org/2000/svg">
<g clip-path="url(#clip0_1757_37)">
<path d="M422.082 2.33924C190.758 2.33924 3.23353 122.674 3.23353 271.114C3.23353 419.555 190.758 539.89 422.082 539.89C653.406 539.89 840.931 419.555 840.931 271.114C840.931 122.674 653.406 2.33924 422.082 2.33924Z" fill="#F5F5F5"/>
<path d="M422.745 542.548C447.682 542.548 472.116 541.153 495.874 538.494L548.133 565.449C549.804 566.312 552.252 566.141 553.596 565.068C554.941 563.995 554.675 562.425 553.003 561.562L498.007 533.196L496.267 533.396C472.406 536.134 447.838 537.562 422.745 537.562C308.14 537.562 204.423 507.761 129.315 459.569C54.2136 411.371 7.77465 344.815 7.77233 271.275C7.77465 197.734 54.2136 131.178 129.315 82.9813C204.423 34.7895 308.14 4.98898 422.745 4.98824C537.348 4.98898 641.066 34.7895 716.174 82.9813C791.274 131.178 837.713 197.733 837.716 271.275C837.722 386.994 722.681 485.472 561.998 522.198C559.977 522.66 558.922 524.086 559.641 525.384C560.361 526.682 562.584 527.359 564.607 526.897H564.606C728.309 489.487 845.482 389.161 845.488 271.276C845.486 121.453 656.221 0.00148947 422.745 0C189.267 0.00148947 0.00116057 121.453 0 271.275C0.00116057 421.096 189.267 542.546 422.745 542.548Z" fill="black"/>
<path d="M97.3591 217.268H101.155V232.244H97.3591V217.268ZM97.3591 246.18H101.155V265.056H97.3591V246.18ZM92.7311 241.032V245.4H106.147V241.032H92.7311ZM92.7311 233.856V238.12H106.147V233.856H92.7311ZM89.1951 230.788H109.787V248.416H89.1951V230.788ZM87.6871 223.092H111.243V226.628H87.6871V223.092ZM115.923 232.244H130.951V235.78H115.923V232.244ZM115.923 219.816H130.951V223.352H115.923V219.816ZM115.819 244.62H130.951V248.208H115.819V244.62ZM87.1151 252.628H111.347V256.112H87.1151V252.628ZM128.923 219.816H132.719V260.324C132.719 261.468 132.563 262.352 132.251 262.976C131.974 263.6 131.471 264.085 130.743 264.432C130.015 264.744 129.044 264.935 127.831 265.004C126.652 265.108 125.11 265.143 123.203 265.108C123.134 264.796 123.03 264.397 122.891 263.912C122.752 263.461 122.596 262.993 122.423 262.508C122.284 262.023 122.111 261.624 121.903 261.312C123.255 261.347 124.486 261.364 125.595 261.364C126.739 261.364 127.502 261.347 127.883 261.312C128.264 261.312 128.524 261.225 128.663 261.052C128.836 260.913 128.923 260.653 128.923 260.272V219.816ZM114.103 219.816H117.847V239.056C117.847 241.101 117.743 243.285 117.535 245.608C117.362 247.931 116.998 250.271 116.443 252.628C115.923 254.951 115.126 257.204 114.051 259.388C113.011 261.537 111.607 263.496 109.839 265.264C109.631 265.021 109.336 264.744 108.955 264.432C108.574 264.155 108.192 263.877 107.811 263.6C107.43 263.323 107.083 263.132 106.771 263.028C108.47 261.329 109.804 259.492 110.775 257.516C111.746 255.54 112.474 253.512 112.959 251.432C113.444 249.317 113.756 247.22 113.895 245.14C114.034 243.025 114.103 240.997 114.103 239.056V219.816ZM160.799 240.772H164.803V265.16H160.799V240.772ZM148.735 232.14V237.808H176.867V232.14H148.735ZM148.735 223.248V228.812H176.867V223.248H148.735ZM144.887 219.764H180.871V241.344H144.887V219.764ZM139.427 249.04H186.747V252.836H139.427V249.04ZM225.591 222.624C225.036 223.04 224.412 223.56 223.719 224.184C223.026 224.773 222.454 225.241 222.003 225.588C221.102 226.385 220.01 227.321 218.727 228.396C217.444 229.436 216.092 230.545 214.671 231.724C213.25 232.868 211.88 233.977 210.563 235.052C209.246 236.092 208.102 237.028 207.131 237.86C206.091 238.761 205.398 239.507 205.051 240.096C204.704 240.651 204.704 241.223 205.051 241.812C205.432 242.401 206.178 243.181 207.287 244.152C208.258 244.915 209.367 245.816 210.615 246.856C211.863 247.861 213.18 248.953 214.567 250.132C215.988 251.311 217.427 252.524 218.883 253.772C220.339 255.02 221.743 256.251 223.095 257.464C224.447 258.677 225.66 259.839 226.735 260.948L223.043 264.38C221.968 263.132 220.772 261.867 219.455 260.584C218.554 259.648 217.427 258.556 216.075 257.308C214.723 256.06 213.267 254.76 211.707 253.408C210.182 252.056 208.656 250.756 207.131 249.508C205.64 248.225 204.288 247.081 203.075 246.076C201.411 244.689 200.354 243.476 199.903 242.436C199.452 241.361 199.539 240.304 200.163 239.264C200.787 238.224 201.879 237.063 203.439 235.78C204.41 234.948 205.571 233.977 206.923 232.868C208.31 231.759 209.748 230.597 211.239 229.384C212.73 228.136 214.134 226.94 215.451 225.796C216.803 224.617 217.912 223.577 218.779 222.676C219.299 222.156 219.836 221.567 220.391 220.908C220.98 220.249 221.431 219.677 221.743 219.192L225.591 222.624ZM263.759 220.44C263.655 220.891 263.551 221.393 263.447 221.948C263.343 222.468 263.239 222.988 263.135 223.508C263.031 224.132 262.875 224.981 262.667 226.056C262.494 227.131 262.303 228.275 262.095 229.488C261.887 230.667 261.644 231.793 261.367 232.868C261.02 234.359 260.587 236.04 260.067 237.912C259.547 239.749 258.958 241.708 258.299 243.788C257.64 245.868 256.895 248 256.063 250.184C255.231 252.333 254.312 254.483 253.307 256.632C252.302 258.747 251.21 260.74 250.031 262.612L245.767 260.948C246.98 259.353 248.09 257.568 249.095 255.592C250.135 253.616 251.088 251.571 251.955 249.456C252.822 247.307 253.602 245.192 254.295 243.112C255.023 241.032 255.63 239.108 256.115 237.34C256.6 235.572 256.982 234.047 257.259 232.764C257.744 230.684 258.143 228.535 258.455 226.316C258.767 224.063 258.923 221.931 258.923 219.92L263.759 220.44ZM281.647 225.952C282.479 227.027 283.346 228.361 284.247 229.956C285.183 231.551 286.084 233.249 286.951 235.052C287.852 236.855 288.667 238.588 289.395 240.252C290.123 241.916 290.712 243.355 291.163 244.568L287.107 246.492C286.726 245.175 286.206 243.667 285.547 241.968C284.888 240.235 284.126 238.484 283.259 236.716C282.427 234.913 281.543 233.232 280.607 231.672C279.706 230.077 278.787 228.743 277.851 227.668L281.647 225.952ZM245.039 231.828C245.836 231.897 246.599 231.932 247.327 231.932C248.055 231.897 248.835 231.863 249.667 231.828C250.464 231.793 251.47 231.741 252.683 231.672C253.896 231.568 255.214 231.464 256.635 231.36C258.091 231.256 259.512 231.152 260.899 231.048C262.32 230.909 263.62 230.805 264.799 230.736C266.012 230.632 266.966 230.58 267.659 230.58C269.219 230.58 270.623 230.823 271.871 231.308C273.154 231.793 274.176 232.677 274.939 233.96C275.702 235.243 276.083 237.045 276.083 239.368C276.083 241.413 275.979 243.632 275.771 246.024C275.598 248.381 275.286 250.635 274.835 252.784C274.384 254.933 273.795 256.719 273.067 258.14C272.27 259.908 271.23 261.069 269.947 261.624C268.664 262.213 267.174 262.508 265.475 262.508C264.504 262.508 263.447 262.421 262.303 262.248C261.159 262.109 260.171 261.936 259.339 261.728L258.663 257.412C259.426 257.62 260.188 257.811 260.951 257.984C261.748 258.157 262.511 258.279 263.239 258.348C263.967 258.417 264.574 258.452 265.059 258.452C265.995 258.452 266.844 258.296 267.607 257.984C268.404 257.637 269.063 256.909 269.583 255.8C270.138 254.621 270.588 253.148 270.935 251.38C271.316 249.577 271.594 247.671 271.767 245.66C271.975 243.649 272.079 241.725 272.079 239.888C272.079 238.259 271.854 237.063 271.403 236.3C270.952 235.503 270.311 234.965 269.479 234.688C268.647 234.376 267.676 234.22 266.567 234.22C265.666 234.22 264.47 234.289 262.979 234.428C261.488 234.532 259.894 234.671 258.195 234.844C256.531 235.017 254.971 235.191 253.515 235.364C252.059 235.503 250.932 235.624 250.135 235.728C249.546 235.797 248.783 235.901 247.847 236.04C246.946 236.144 246.148 236.248 245.455 236.352L245.039 231.828ZM310.403 220.232C311.512 220.579 312.951 220.96 314.719 221.376C316.522 221.792 318.411 222.208 320.387 222.624C322.398 223.005 324.304 223.352 326.107 223.664C327.91 223.941 329.383 224.132 330.527 224.236L329.539 228.24C328.568 228.101 327.372 227.911 325.951 227.668C324.564 227.425 323.074 227.148 321.479 226.836C319.884 226.524 318.307 226.212 316.747 225.9C315.187 225.553 313.766 225.241 312.483 224.964C311.2 224.652 310.16 224.392 309.363 224.184L310.403 220.232ZM309.259 229.696C309.086 230.597 308.895 231.707 308.687 233.024C308.514 234.307 308.323 235.659 308.115 237.08C307.907 238.501 307.716 239.853 307.543 241.136C307.37 242.419 307.214 243.476 307.075 244.308C309.606 242.124 312.275 240.529 315.083 239.524C317.926 238.484 320.907 237.964 324.027 237.964C326.696 237.964 329.019 238.449 330.995 239.42C332.971 240.356 334.514 241.656 335.623 243.32C336.732 244.949 337.287 246.787 337.287 248.832C337.287 251.155 336.75 253.269 335.675 255.176C334.635 257.048 332.988 258.625 330.735 259.908C328.516 261.191 325.674 262.092 322.207 262.612C318.74 263.167 314.58 263.236 309.727 262.82L308.479 258.556C313.991 259.215 318.55 259.197 322.155 258.504C325.76 257.776 328.447 256.563 330.215 254.864C332.018 253.131 332.919 251.085 332.919 248.728C332.919 247.341 332.52 246.111 331.723 245.036C330.926 243.961 329.834 243.129 328.447 242.54C327.095 241.916 325.535 241.604 323.767 241.604C320.37 241.604 317.284 242.228 314.511 243.476C311.772 244.689 309.484 246.388 307.647 248.572C307.266 249.023 306.954 249.473 306.711 249.924C306.468 250.34 306.26 250.756 306.087 251.172L302.239 250.236C302.447 249.265 302.655 248.104 302.863 246.752C303.071 245.365 303.279 243.892 303.487 242.332C303.695 240.737 303.886 239.143 304.059 237.548C304.267 235.953 304.44 234.428 304.579 232.972C304.718 231.481 304.822 230.199 304.891 229.124L309.259 229.696ZM384.087 219.92C384.746 220.821 385.474 221.948 386.271 223.3C387.068 224.617 387.727 225.813 388.247 226.888L385.439 228.136C384.919 227.061 384.278 225.865 383.515 224.548C382.752 223.231 382.024 222.069 381.331 221.064L384.087 219.92ZM390.223 218.412C390.674 219.071 391.159 219.816 391.679 220.648C392.234 221.48 392.754 222.312 393.239 223.144C393.759 223.941 394.175 224.669 394.487 225.328L391.679 226.576C391.124 225.432 390.466 224.236 389.703 222.988C388.94 221.705 388.195 220.579 387.467 219.608L390.223 218.412ZM373.167 220.908C373.132 221.151 373.08 221.497 373.011 221.948C372.976 222.399 372.942 222.867 372.907 223.352C372.872 223.837 372.855 224.271 372.855 224.652C372.855 225.553 372.855 226.593 372.855 227.772C372.855 228.951 372.855 230.112 372.855 231.256C372.855 232.4 372.855 233.405 372.855 234.272C372.855 234.965 372.855 235.971 372.855 237.288C372.855 238.605 372.855 240.096 372.855 241.76C372.855 243.424 372.855 245.14 372.855 246.908C372.855 248.641 372.855 250.323 372.855 251.952C372.855 253.581 372.855 255.02 372.855 256.268C372.855 257.516 372.855 258.452 372.855 259.076C372.855 260.463 372.508 261.503 371.815 262.196C371.122 262.889 369.978 263.236 368.383 263.236C367.655 263.236 366.84 263.219 365.939 263.184C365.072 263.149 364.206 263.097 363.339 263.028C362.472 262.959 361.692 262.907 360.999 262.872L360.635 258.712C361.779 258.92 362.888 259.076 363.963 259.18C365.038 259.284 365.922 259.336 366.615 259.336C367.308 259.336 367.811 259.18 368.123 258.868C368.435 258.521 368.608 258.019 368.643 257.36C368.643 256.875 368.643 256.043 368.643 254.864C368.643 253.651 368.643 252.264 368.643 250.704C368.643 249.109 368.643 247.445 368.643 245.712C368.643 243.944 368.643 242.28 368.643 240.72C368.643 239.125 368.643 237.756 368.643 236.612C368.643 235.468 368.643 234.688 368.643 234.272C368.643 233.683 368.643 232.799 368.643 231.62C368.643 230.441 368.643 229.211 368.643 227.928C368.643 226.611 368.643 225.501 368.643 224.6C368.643 224.045 368.591 223.387 368.487 222.624C368.418 221.861 368.348 221.289 368.279 220.908H373.167ZM349.767 229.696C350.495 229.765 351.206 229.835 351.899 229.904C352.592 229.939 353.355 229.956 354.187 229.956C354.603 229.956 355.452 229.956 356.735 229.956C358.018 229.956 359.56 229.956 361.363 229.956C363.2 229.956 365.159 229.956 367.239 229.956C369.319 229.956 371.399 229.956 373.479 229.956C375.594 229.956 377.552 229.956 379.355 229.956C381.192 229.956 382.735 229.956 383.983 229.956C385.266 229.956 386.132 229.956 386.583 229.956C387.207 229.956 387.9 229.939 388.663 229.904C389.46 229.835 390.188 229.765 390.847 229.696V234.012C390.154 233.977 389.426 233.96 388.663 233.96C387.935 233.925 387.259 233.908 386.635 233.908C386.184 233.908 385.318 233.908 384.035 233.908C382.787 233.908 381.244 233.908 379.407 233.908C377.604 233.908 375.663 233.908 373.583 233.908C371.503 233.908 369.423 233.908 367.343 233.908C365.263 233.908 363.304 233.908 361.467 233.908C359.63 233.908 358.07 233.908 356.787 233.908C355.539 233.908 354.672 233.908 354.187 233.908C353.424 233.908 352.662 233.925 351.899 233.96C351.171 233.96 350.46 233.995 349.767 234.064V229.696ZM361.727 241.916C361.172 243.025 360.479 244.239 359.647 245.556C358.85 246.873 357.966 248.208 356.995 249.56C356.059 250.877 355.123 252.108 354.187 253.252C353.286 254.396 352.471 255.367 351.743 256.164L348.155 253.772C349.022 252.975 349.923 252.021 350.859 250.912C351.795 249.768 352.714 248.572 353.615 247.324C354.551 246.076 355.4 244.845 356.163 243.632C356.926 242.384 357.567 241.223 358.087 240.148L361.727 241.916ZM383.463 240.2C384.156 241.032 384.902 242.02 385.699 243.164C386.531 244.308 387.363 245.539 388.195 246.856C389.062 248.139 389.859 249.387 390.587 250.6C391.315 251.779 391.939 252.836 392.459 253.772L388.611 255.904C388.126 254.864 387.519 253.72 386.791 252.472C386.098 251.224 385.352 249.959 384.555 248.676C383.758 247.393 382.943 246.18 382.111 245.036C381.314 243.892 380.586 242.904 379.927 242.072L383.463 240.2ZM437.335 221.532C437.3 222.191 437.266 222.901 437.231 223.664C437.196 224.392 437.179 225.189 437.179 226.056C437.179 226.749 437.179 227.633 437.179 228.708C437.179 229.783 437.179 230.857 437.179 231.932C437.179 232.972 437.179 233.821 437.179 234.48C437.179 237.6 437.058 240.252 436.815 242.436C436.607 244.62 436.278 246.492 435.827 248.052C435.411 249.577 434.856 250.929 434.163 252.108C433.47 253.287 432.655 254.431 431.719 255.54C430.61 256.857 429.327 258.019 427.871 259.024C426.45 259.995 424.994 260.809 423.503 261.468C422.012 262.161 420.626 262.716 419.343 263.132L415.963 259.544C418.355 258.955 420.608 258.123 422.723 257.048C424.872 255.939 426.762 254.465 428.391 252.628C429.327 251.553 430.072 250.461 430.627 249.352C431.216 248.208 431.65 246.943 431.927 245.556C432.239 244.169 432.447 242.557 432.551 240.72C432.655 238.883 432.707 236.733 432.707 234.272C432.707 233.579 432.707 232.712 432.707 231.672C432.707 230.632 432.707 229.592 432.707 228.552C432.707 227.477 432.707 226.645 432.707 226.056C432.707 225.189 432.672 224.392 432.603 223.664C432.568 222.901 432.516 222.191 432.447 221.532H437.335ZM413.207 221.948C413.172 222.433 413.12 223.023 413.051 223.716C413.016 224.409 412.999 225.068 412.999 225.692C412.999 225.935 412.999 226.489 412.999 227.356C412.999 228.188 412.999 229.193 412.999 230.372C412.999 231.551 412.999 232.799 412.999 234.116C412.999 235.433 412.999 236.716 412.999 237.964C412.999 239.177 412.999 240.235 412.999 241.136C412.999 242.037 412.999 242.679 412.999 243.06C412.999 243.719 413.016 244.429 413.051 245.192C413.12 245.92 413.172 246.527 413.207 247.012H408.423C408.492 246.596 408.544 246.024 408.579 245.296C408.648 244.533 408.683 243.771 408.683 243.008C408.683 242.661 408.683 242.037 408.683 241.136C408.683 240.2 408.683 239.125 408.683 237.912C408.683 236.699 408.683 235.433 408.683 234.116C408.683 232.799 408.683 231.551 408.683 230.372C408.683 229.193 408.683 228.188 408.683 227.356C408.683 226.489 408.683 225.935 408.683 225.692C408.683 225.241 408.666 224.635 408.631 223.872C408.596 223.075 408.544 222.433 408.475 221.948H413.207ZM487.307 236.248C487.238 236.491 487.168 236.768 487.099 237.08C487.03 237.392 486.978 237.652 486.943 237.86C486.874 238.657 486.735 239.732 486.527 241.084C486.354 242.436 486.146 243.927 485.903 245.556C485.66 247.185 485.418 248.815 485.175 250.444C484.932 252.039 484.707 253.512 484.499 254.864C484.326 256.181 484.17 257.204 484.031 257.932H479.611C479.75 257.343 479.906 256.441 480.079 255.228C480.287 253.98 480.512 252.576 480.755 251.016C481.032 249.456 481.275 247.896 481.483 246.336C481.691 244.741 481.864 243.303 482.003 242.02C482.176 240.703 482.28 239.697 482.315 239.004C481.656 239.004 480.72 239.004 479.507 239.004C478.294 239.004 476.959 239.004 475.503 239.004C474.082 239.004 472.678 239.004 471.291 239.004C469.904 239.004 468.708 239.004 467.703 239.004C466.732 239.004 466.091 239.004 465.779 239.004C465.016 239.004 464.288 239.021 463.595 239.056C462.936 239.091 462.278 239.125 461.619 239.16V234.792C462.035 234.861 462.468 234.913 462.919 234.948C463.404 234.983 463.89 235.017 464.375 235.052C464.86 235.087 465.311 235.104 465.727 235.104C466.143 235.104 466.854 235.104 467.859 235.104C468.864 235.104 470.008 235.104 471.291 235.104C472.608 235.104 473.943 235.104 475.295 235.104C476.647 235.104 477.878 235.104 478.987 235.104C480.131 235.104 480.98 235.104 481.535 235.104C481.847 235.104 482.159 235.087 482.471 235.052C482.818 235.017 483.147 234.983 483.459 234.948C483.771 234.879 483.996 234.809 484.135 234.74L487.307 236.248ZM456.731 256.268C457.355 256.303 458.031 256.355 458.759 256.424C459.487 256.459 460.25 256.476 461.047 256.476C461.498 256.476 462.434 256.476 463.855 256.476C465.311 256.476 467.027 256.476 469.003 256.476C470.979 256.476 473.042 256.476 475.191 256.476C477.375 256.476 479.455 256.476 481.431 256.476C483.442 256.476 485.158 256.476 486.579 256.476C488 256.476 488.936 256.476 489.387 256.476C489.942 256.476 490.618 256.459 491.415 256.424C492.247 256.389 492.94 256.355 493.495 256.32V260.532C493.183 260.497 492.784 260.48 492.299 260.48C491.814 260.48 491.328 260.48 490.843 260.48C490.358 260.445 489.924 260.428 489.543 260.428C489.058 260.428 488.087 260.428 486.631 260.428C485.175 260.428 483.442 260.428 481.431 260.428C479.42 260.428 477.323 260.428 475.139 260.428C472.955 260.428 470.875 260.428 468.899 260.428C466.923 260.428 465.224 260.428 463.803 260.428C462.382 260.428 461.463 260.428 461.047 260.428C460.25 260.428 459.522 260.445 458.863 260.48C458.204 260.48 457.494 260.515 456.731 260.584V256.268ZM506.287 238.484C506.807 238.519 507.448 238.571 508.211 238.64C508.974 238.675 509.806 238.709 510.707 238.744C511.643 238.744 512.579 238.744 513.515 238.744C514.07 238.744 514.919 238.744 516.063 238.744C517.242 238.744 518.611 238.744 520.171 238.744C521.731 238.744 523.378 238.744 525.111 238.744C526.879 238.744 528.63 238.744 530.363 238.744C532.131 238.744 533.795 238.744 535.355 238.744C536.95 238.744 538.319 238.744 539.463 238.744C540.607 238.744 541.456 238.744 542.011 238.744C543.328 238.744 544.455 238.709 545.391 238.64C546.327 238.571 547.072 238.519 547.627 238.484V243.58C547.107 243.545 546.327 243.493 545.287 243.424C544.282 243.355 543.207 243.32 542.063 243.32C541.508 243.32 540.642 243.32 539.463 243.32C538.284 243.32 536.915 243.32 535.355 243.32C533.83 243.32 532.183 243.32 530.415 243.32C528.647 243.32 526.879 243.32 525.111 243.32C523.378 243.32 521.731 243.32 520.171 243.32C518.646 243.32 517.294 243.32 516.115 243.32C514.936 243.32 514.07 243.32 513.515 243.32C512.094 243.32 510.742 243.355 509.459 243.424C508.176 243.459 507.119 243.511 506.287 243.58V238.484ZM578.553 222.208C578.31 222.867 578.033 223.56 577.721 224.288C577.444 225.016 577.132 225.935 576.785 227.044C576.473 227.911 576.074 229.124 575.589 230.684C575.104 232.244 574.549 233.977 573.925 235.884C573.336 237.756 572.694 239.697 572.001 241.708C571.342 243.719 570.684 245.677 570.025 247.584C569.366 249.491 568.76 251.207 568.205 252.732C567.685 254.223 567.234 255.419 566.853 256.32L562.121 256.476C562.572 255.436 563.092 254.119 563.681 252.524C564.27 250.929 564.912 249.144 565.605 247.168C566.298 245.192 566.974 243.181 567.633 241.136C568.326 239.056 568.985 237.045 569.609 235.104C570.233 233.163 570.77 231.412 571.221 229.852C571.706 228.292 572.088 227.061 572.365 226.16C572.677 224.947 572.902 223.993 573.041 223.3C573.18 222.572 573.284 221.861 573.353 221.168L578.553 222.208ZM588.433 239.628C589.369 240.98 590.374 242.575 591.449 244.412C592.558 246.249 593.65 248.191 594.725 250.236C595.834 252.247 596.84 254.171 597.741 256.008C598.677 257.845 599.422 259.44 599.977 260.792L595.609 262.768C595.089 261.347 594.396 259.683 593.529 257.776C592.662 255.835 591.709 253.841 590.669 251.796C589.664 249.751 588.624 247.809 587.549 245.972C586.474 244.135 585.469 242.609 584.533 241.396L588.433 239.628ZM560.093 255.228C561.341 255.159 562.849 255.055 564.617 254.916C566.42 254.743 568.361 254.569 570.441 254.396C572.521 254.188 574.636 253.963 576.785 253.72C578.969 253.477 581.084 253.252 583.129 253.044C585.174 252.801 587.046 252.576 588.745 252.368C590.444 252.125 591.848 251.935 592.957 251.796L594.101 255.8C592.922 255.973 591.432 256.164 589.629 256.372C587.826 256.58 585.868 256.805 583.753 257.048C581.673 257.256 579.506 257.499 577.253 257.776C575.034 258.019 572.868 258.261 570.753 258.504C568.638 258.747 566.68 258.955 564.877 259.128C563.074 259.301 561.566 259.44 560.353 259.544C559.694 259.613 559.001 259.7 558.273 259.804C557.545 259.908 556.8 260.012 556.037 260.116L555.257 255.28C556.054 255.315 556.869 255.332 557.701 255.332C558.568 255.297 559.365 255.263 560.093 255.228ZM632.737 225.484C632.39 228.188 631.939 231.013 631.385 233.96C630.865 236.907 630.189 239.767 629.357 242.54C628.317 246.111 627.155 249.092 625.873 251.484C624.625 253.876 623.273 255.679 621.817 256.892C620.361 258.105 618.835 258.712 617.241 258.712C615.715 258.712 614.242 258.157 612.821 257.048C611.399 255.939 610.238 254.344 609.337 252.264C608.435 250.149 607.985 247.671 607.985 244.828C607.985 241.985 608.557 239.299 609.701 236.768C610.879 234.237 612.491 232.001 614.537 230.06C616.617 228.084 619.043 226.524 621.817 225.38C624.59 224.236 627.554 223.664 630.709 223.664C633.759 223.664 636.498 224.167 638.925 225.172C641.386 226.177 643.483 227.564 645.217 229.332C646.95 231.065 648.285 233.093 649.221 235.416C650.157 237.704 650.625 240.165 650.625 242.8C650.625 246.44 649.845 249.647 648.285 252.42C646.759 255.193 644.541 257.447 641.629 259.18C638.751 260.913 635.25 262.057 631.125 262.612L628.681 258.764C629.513 258.66 630.31 258.556 631.073 258.452C631.835 258.348 632.529 258.227 633.153 258.088C634.817 257.707 636.429 257.117 637.989 256.32C639.583 255.488 641.005 254.448 642.253 253.2C643.501 251.917 644.489 250.409 645.217 248.676C645.979 246.908 646.361 244.897 646.361 242.644C646.361 240.529 646.014 238.571 645.321 236.768C644.627 234.931 643.605 233.319 642.253 231.932C640.901 230.545 639.254 229.453 637.313 228.656C635.371 227.859 633.153 227.46 630.657 227.46C627.814 227.46 625.231 227.98 622.909 229.02C620.621 230.06 618.662 231.429 617.033 233.128C615.438 234.792 614.207 236.629 613.341 238.64C612.474 240.616 612.041 242.557 612.041 244.464C612.041 246.648 612.318 248.451 612.873 249.872C613.462 251.259 614.155 252.281 614.953 252.94C615.785 253.599 616.599 253.928 617.397 253.928C618.229 253.928 619.078 253.529 619.945 252.732C620.811 251.9 621.695 250.583 622.597 248.78C623.498 246.943 624.382 244.568 625.249 241.656C626.011 239.16 626.653 236.508 627.173 233.7C627.727 230.892 628.126 228.136 628.369 225.432L632.737 225.484ZM679.953 219.816C679.814 220.128 679.693 220.509 679.589 220.96C679.519 221.376 679.433 221.775 679.329 222.156C679.051 223.577 678.774 225.38 678.497 227.564C678.219 229.748 677.994 232.088 677.821 234.584C677.647 237.045 677.561 239.472 677.561 241.864C677.561 244.083 677.699 246.249 677.977 248.364C678.289 250.479 678.67 252.507 679.121 254.448C679.606 256.355 680.109 258.123 680.629 259.752L676.885 260.896C676.365 259.336 675.879 257.533 675.429 255.488C674.978 253.408 674.614 251.241 674.337 248.988C674.059 246.7 673.921 244.464 673.921 242.28C673.921 240.477 673.973 238.64 674.077 236.768C674.215 234.896 674.371 233.076 674.545 231.308C674.718 229.505 674.874 227.824 675.013 226.264C675.186 224.704 675.342 223.352 675.481 222.208C675.515 221.757 675.55 221.307 675.585 220.856C675.619 220.405 675.619 220.024 675.585 219.712L679.953 219.816ZM671.529 226.264C674.579 226.264 677.595 226.177 680.577 226.004C683.558 225.831 686.418 225.571 689.157 225.224C691.93 224.877 694.53 224.427 696.957 223.872L697.009 227.72C695.137 228.032 693.109 228.327 690.925 228.604C688.775 228.847 686.574 229.072 684.321 229.28C682.067 229.453 679.849 229.592 677.665 229.696C675.481 229.8 673.418 229.852 671.477 229.852C670.749 229.852 669.865 229.835 668.825 229.8C667.785 229.731 666.745 229.679 665.705 229.644C664.665 229.575 663.781 229.523 663.053 229.488L662.949 225.588C663.573 225.692 664.422 225.796 665.497 225.9C666.571 226.004 667.663 226.091 668.773 226.16C669.882 226.229 670.801 226.264 671.529 226.264ZM693.213 232.348C693.109 232.556 692.987 232.851 692.849 233.232C692.745 233.579 692.623 233.943 692.485 234.324C692.381 234.671 692.277 235 692.173 235.312C691.133 238.501 689.885 241.431 688.429 244.1C686.973 246.735 685.395 249.092 683.697 251.172C681.998 253.217 680.247 254.933 678.445 256.32C676.746 257.603 674.909 258.677 672.933 259.544C670.957 260.411 669.05 260.844 667.213 260.844C666.103 260.844 665.081 260.601 664.145 260.116C663.209 259.631 662.463 258.903 661.909 257.932C661.354 256.961 661.077 255.748 661.077 254.292C661.077 252.524 661.458 250.773 662.221 249.04C662.983 247.272 664.023 245.608 665.341 244.048C666.693 242.488 668.218 241.101 669.917 239.888C671.65 238.64 673.487 237.635 675.429 236.872C677.127 236.248 678.965 235.745 680.941 235.364C682.951 234.983 684.789 234.792 686.453 234.792C689.746 234.792 692.589 235.364 694.981 236.508C697.373 237.652 699.21 239.212 700.493 241.188C701.81 243.129 702.469 245.313 702.469 247.74C702.469 249.612 702.139 251.397 701.481 253.096C700.857 254.795 699.851 256.355 698.465 257.776C697.113 259.163 695.362 260.359 693.213 261.364C691.063 262.369 688.481 263.115 685.465 263.6L683.229 260.116C686.383 259.804 689.087 259.076 691.341 257.932C693.594 256.788 695.345 255.332 696.593 253.564C697.841 251.796 698.465 249.785 698.465 247.532C698.465 245.833 697.997 244.273 697.061 242.852C696.125 241.431 694.755 240.287 692.953 239.42C691.185 238.519 689.001 238.068 686.401 238.068C684.217 238.068 682.189 238.328 680.317 238.848C678.479 239.368 676.902 239.923 675.585 240.512C673.643 241.379 671.858 242.54 670.229 243.996C668.634 245.452 667.369 247.029 666.433 248.728C665.497 250.392 665.029 252.021 665.029 253.616C665.029 254.691 665.271 255.505 665.757 256.06C666.277 256.58 667.022 256.84 667.993 256.84C669.275 256.84 670.714 256.476 672.309 255.748C673.938 255.02 675.602 253.911 677.301 252.42C679.623 250.409 681.773 247.948 683.749 245.036C685.759 242.124 687.354 238.553 688.533 234.324C688.602 234.047 688.671 233.735 688.741 233.388C688.81 233.041 688.879 232.677 688.949 232.296C689.053 231.915 689.105 231.585 689.105 231.308L693.213 232.348ZM719.785 222.676C720.374 222.745 720.998 222.797 721.657 222.832C722.35 222.867 722.957 222.884 723.477 222.884C723.997 222.884 724.846 222.867 726.025 222.832C727.238 222.797 728.59 222.763 730.081 222.728C731.606 222.659 733.114 222.607 734.605 222.572C736.13 222.503 737.482 222.433 738.661 222.364C739.874 222.295 740.758 222.243 741.313 222.208C742.075 222.139 742.665 222.069 743.081 222C743.497 221.931 743.843 221.861 744.121 221.792L746.513 224.808C746.062 225.12 745.577 225.449 745.057 225.796C744.571 226.143 744.086 226.524 743.601 226.94C742.942 227.425 742.058 228.136 740.949 229.072C739.839 229.973 738.609 230.996 737.257 232.14C735.939 233.249 734.639 234.341 733.357 235.416C732.074 236.491 730.913 237.461 729.873 238.328C731.086 237.912 732.299 237.635 733.513 237.496C734.761 237.323 735.957 237.236 737.101 237.236C739.978 237.236 742.526 237.773 744.745 238.848C746.998 239.888 748.749 241.327 749.997 243.164C751.279 245.001 751.921 247.099 751.921 249.456C751.921 252.229 751.193 254.656 749.737 256.736C748.281 258.816 746.218 260.411 743.549 261.52C740.879 262.664 737.707 263.236 734.033 263.236C731.675 263.236 729.647 262.924 727.949 262.3C726.25 261.676 724.933 260.809 723.997 259.7C723.095 258.591 722.645 257.308 722.645 255.852C722.645 254.673 722.974 253.564 723.633 252.524C724.291 251.484 725.227 250.652 726.441 250.028C727.654 249.404 729.058 249.092 730.653 249.092C732.975 249.092 734.899 249.577 736.425 250.548C737.95 251.484 739.129 252.732 739.961 254.292C740.793 255.817 741.261 257.464 741.365 259.232L737.621 259.856C737.482 257.637 736.789 255.817 735.541 254.396C734.327 252.94 732.681 252.212 730.601 252.212C729.422 252.212 728.434 252.541 727.637 253.2C726.839 253.859 726.441 254.639 726.441 255.54C726.441 256.788 727.082 257.776 728.365 258.504C729.647 259.232 731.311 259.596 733.357 259.596C736.303 259.596 738.851 259.197 741.001 258.4C743.185 257.603 744.849 256.441 745.993 254.916C747.171 253.391 747.761 251.553 747.761 249.404C747.761 247.705 747.258 246.18 746.253 244.828C745.247 243.476 743.861 242.419 742.093 241.656C740.359 240.859 738.366 240.46 736.113 240.46C733.929 240.46 731.97 240.703 730.237 241.188C728.503 241.639 726.874 242.297 725.349 243.164C723.858 244.031 722.367 245.123 720.877 246.44C719.421 247.723 717.861 249.196 716.197 250.86L713.233 247.792C714.307 246.925 715.486 245.955 716.769 244.88C718.086 243.771 719.403 242.679 720.721 241.604C722.038 240.495 723.251 239.472 724.361 238.536C725.505 237.565 726.458 236.768 727.221 236.144C727.949 235.555 728.85 234.809 729.925 233.908C731.034 232.972 732.178 232.001 733.357 230.996C734.535 229.991 735.645 229.037 736.685 228.136C737.759 227.235 738.626 226.507 739.285 225.952C738.73 225.952 737.915 225.987 736.841 226.056C735.766 226.091 734.57 226.143 733.253 226.212C731.935 226.247 730.618 226.299 729.301 226.368C728.018 226.437 726.839 226.507 725.765 226.576C724.725 226.611 723.927 226.645 723.373 226.68C722.818 226.715 722.246 226.749 721.657 226.784C721.067 226.819 720.495 226.888 719.941 226.992L719.785 222.676ZM136.722 282.452C136.653 282.764 136.601 283.128 136.566 283.544C136.532 283.925 136.497 284.341 136.462 284.792C136.428 285.243 136.393 285.659 136.358 286.04C136.324 286.837 136.272 287.877 136.202 289.16C136.168 290.443 136.133 291.864 136.098 293.424C136.064 294.949 136.029 296.509 135.994 298.104C135.96 299.664 135.942 301.12 135.942 302.472C135.942 303.824 135.942 305.315 135.942 306.944C135.977 308.539 136.012 310.133 136.046 311.728C136.116 313.288 136.15 314.744 136.15 316.096C136.185 317.413 136.202 318.471 136.202 319.268C136.202 320.863 136.012 322.128 135.63 323.064C135.249 324 134.712 324.659 134.018 325.04C133.36 325.456 132.562 325.664 131.626 325.664C130.621 325.664 129.494 325.421 128.246 324.936C126.998 324.485 125.802 323.861 124.658 323.064C123.549 322.267 122.63 321.348 121.902 320.308C121.174 319.268 120.81 318.176 120.81 317.032C120.81 315.472 121.4 313.947 122.578 312.456C123.792 310.965 125.352 309.579 127.258 308.296C129.2 307.013 131.245 305.973 133.394 305.176C135.752 304.24 138.161 303.547 140.622 303.096C143.084 302.611 145.337 302.368 147.382 302.368C149.913 302.368 152.149 302.801 154.09 303.668C156.066 304.535 157.609 305.748 158.718 307.308C159.862 308.833 160.434 310.636 160.434 312.716C160.434 314.796 160.001 316.633 159.134 318.228C158.302 319.823 157.054 321.157 155.39 322.232C153.761 323.307 151.75 324.139 149.358 324.728C148.214 324.971 147.07 325.127 145.926 325.196C144.817 325.3 143.812 325.387 142.91 325.456L141.454 321.244C142.425 321.279 143.43 321.279 144.47 321.244C145.545 321.209 146.568 321.088 147.538 320.88C149.064 320.603 150.485 320.135 151.802 319.476C153.154 318.783 154.229 317.881 155.026 316.772C155.858 315.663 156.274 314.328 156.274 312.768C156.274 311.277 155.876 310.029 155.078 309.024C154.281 308.019 153.206 307.256 151.854 306.736C150.502 306.216 148.994 305.956 147.33 305.956C145.042 305.956 142.806 306.199 140.622 306.684C138.438 307.169 136.22 307.863 133.966 308.764C132.302 309.388 130.777 310.168 129.39 311.104C128.004 312.005 126.894 312.959 126.062 313.964C125.265 314.969 124.866 315.923 124.866 316.824C124.866 317.413 125.057 317.985 125.438 318.54C125.854 319.06 126.357 319.528 126.946 319.944C127.536 320.36 128.16 320.689 128.818 320.932C129.477 321.14 130.049 321.244 130.534 321.244C131.124 321.244 131.574 321.036 131.886 320.62C132.233 320.204 132.406 319.563 132.406 318.696C132.406 317.691 132.389 316.304 132.354 314.536C132.32 312.733 132.285 310.792 132.25 308.712C132.216 306.597 132.198 304.587 132.198 302.68C132.198 301.189 132.198 299.595 132.198 297.896C132.233 296.197 132.25 294.551 132.25 292.956C132.285 291.361 132.302 289.957 132.302 288.744C132.337 287.531 132.354 286.664 132.354 286.144C132.354 285.797 132.337 285.399 132.302 284.948C132.302 284.463 132.285 283.995 132.25 283.544C132.216 283.093 132.164 282.729 132.094 282.452H136.722ZM152.842 288.224C154.09 288.883 155.477 289.68 157.002 290.616C158.528 291.517 159.984 292.436 161.37 293.372C162.792 294.308 163.918 295.123 164.75 295.816L162.618 299.144C161.994 298.52 161.197 297.861 160.226 297.168C159.256 296.44 158.216 295.729 157.106 295.036C155.997 294.308 154.905 293.632 153.83 293.008C152.756 292.349 151.802 291.795 150.97 291.344L152.842 288.224ZM121.642 291.812C123.064 291.985 124.277 292.107 125.282 292.176C126.322 292.211 127.328 292.228 128.298 292.228C129.581 292.228 131.02 292.159 132.614 292.02C134.209 291.881 135.856 291.708 137.554 291.5C139.253 291.257 140.9 290.98 142.494 290.668C144.124 290.321 145.58 289.957 146.862 289.576L146.966 293.632C145.614 293.944 144.106 294.256 142.442 294.568C140.778 294.845 139.08 295.088 137.346 295.296C135.648 295.504 134.018 295.677 132.458 295.816C130.898 295.955 129.546 296.024 128.402 296.024C126.912 296.024 125.646 296.007 124.606 295.972C123.601 295.937 122.648 295.868 121.746 295.764L121.642 291.812ZM182.43 297.584H186.33V304.656C186.33 306.632 186.192 308.66 185.914 310.74C185.637 312.82 185.048 314.9 184.146 316.98C183.28 319.06 181.928 321.071 180.09 323.012C178.288 324.919 175.861 326.687 172.81 328.316C172.637 328.004 172.377 327.675 172.03 327.328C171.684 326.981 171.32 326.635 170.938 326.288C170.592 325.941 170.262 325.664 169.95 325.456C172.793 323.965 175.046 322.371 176.71 320.672C178.409 318.939 179.657 317.153 180.454 315.316C181.286 313.479 181.824 311.659 182.066 309.856C182.309 308.019 182.43 306.251 182.43 304.552V297.584ZM200.682 297.064H204.686V328.212H200.682V297.064ZM170.054 304.968H216.698V308.66H170.054V304.968ZM171.51 292.436C173.833 292.436 176.502 292.419 179.518 292.384C182.534 292.315 185.758 292.245 189.19 292.176C192.622 292.072 196.176 291.985 199.85 291.916C203.525 291.812 207.182 291.708 210.822 291.604L210.666 294.984C206.021 295.192 201.341 295.4 196.626 295.608C191.912 295.781 187.44 295.937 183.21 296.076C178.981 296.215 175.237 296.336 171.978 296.44L171.51 292.436ZM186.434 280.06L190.75 281.1C189.918 282.695 188.982 284.341 187.942 286.04C186.937 287.739 185.932 289.385 184.926 290.98C183.921 292.54 182.95 293.909 182.014 295.088L178.686 293.996C179.588 292.783 180.524 291.361 181.494 289.732C182.465 288.103 183.384 286.439 184.25 284.74C185.117 283.041 185.845 281.481 186.434 280.06ZM198.03 285.676L201.098 283.544C202.97 284.861 204.912 286.317 206.922 287.912C208.933 289.472 210.805 291.049 212.538 292.644C214.306 294.239 215.728 295.695 216.802 297.012L213.474 299.404C212.469 298.087 211.117 296.631 209.418 295.036C207.72 293.407 205.865 291.777 203.854 290.148C201.878 288.484 199.937 286.993 198.03 285.676ZM243.166 280.32H247.43V300.808H243.166V280.32ZM225.642 284.012L229.178 282.608C230.149 283.821 231.085 285.139 231.986 286.56C232.888 287.947 233.702 289.333 234.43 290.72C235.158 292.072 235.713 293.303 236.094 294.412L232.35 296.128C231.969 294.984 231.432 293.719 230.738 292.332C230.045 290.911 229.248 289.472 228.346 288.016C227.48 286.56 226.578 285.225 225.642 284.012ZM261.002 282.14L265.214 283.544C264.452 285.035 263.637 286.56 262.77 288.12C261.938 289.645 261.089 291.136 260.222 292.592C259.356 294.048 258.524 295.331 257.726 296.44L254.346 295.14C255.109 293.961 255.906 292.627 256.738 291.136C257.57 289.611 258.368 288.068 259.13 286.508C259.893 284.913 260.517 283.457 261.002 282.14ZM226.37 298.728H264.538V328.212H260.43V302.628H226.37V298.728ZM228.086 310.168H261.99V313.912H228.086V310.168ZM225.33 322.024H262.51V325.924H225.33V322.024ZM295.27 282.868C295.062 283.908 294.785 285.139 294.438 286.56C294.126 287.947 293.606 289.524 292.878 291.292C292.254 292.852 291.474 294.464 290.538 296.128C289.637 297.792 288.666 299.3 287.626 300.652C288.285 300.236 289.03 299.889 289.862 299.612C290.694 299.3 291.544 299.075 292.41 298.936C293.312 298.797 294.126 298.728 294.854 298.728C296.865 298.728 298.564 299.3 299.95 300.444C301.337 301.553 302.03 303.183 302.03 305.332C302.03 305.991 302.03 306.84 302.03 307.88C302.03 308.885 302.03 309.96 302.03 311.104C302.065 312.213 302.1 313.305 302.134 314.38C302.169 315.455 302.186 316.391 302.186 317.188H298.182C298.217 316.495 298.252 315.68 298.286 314.744C298.321 313.808 298.338 312.82 298.338 311.78C298.373 310.74 298.373 309.752 298.338 308.816C298.338 307.88 298.338 307.083 298.338 306.424C298.338 304.899 297.87 303.789 296.934 303.096C296.033 302.368 294.889 302.004 293.502 302.004C291.873 302.004 290.261 302.368 288.666 303.096C287.106 303.789 285.737 304.691 284.558 305.8C283.796 306.528 283.033 307.36 282.27 308.296C281.542 309.197 280.728 310.168 279.826 311.208L276.29 308.608C278.786 306.181 280.866 303.911 282.53 301.796C284.194 299.681 285.546 297.723 286.586 295.92C287.626 294.083 288.441 292.436 289.03 290.98C289.585 289.524 290.036 288.068 290.382 286.612C290.729 285.121 290.937 283.752 291.006 282.504L295.27 282.868ZM277.486 288.484C278.873 288.657 280.381 288.796 282.01 288.9C283.64 289.004 285.061 289.056 286.274 289.056C288.597 289.056 291.093 289.004 293.762 288.9C296.432 288.761 299.118 288.571 301.822 288.328C304.561 288.085 307.161 287.739 309.622 287.288L309.57 291.136C307.768 291.448 305.844 291.708 303.798 291.916C301.753 292.089 299.673 292.245 297.558 292.384C295.444 292.488 293.398 292.575 291.422 292.644C289.481 292.679 287.678 292.696 286.014 292.696C285.286 292.696 284.437 292.696 283.466 292.696C282.53 292.661 281.542 292.627 280.502 292.592C279.462 292.523 278.457 292.453 277.486 292.384V288.484ZM317.214 301.068C316.764 301.172 316.261 301.328 315.706 301.536C315.186 301.709 314.649 301.9 314.094 302.108C313.574 302.316 313.072 302.524 312.586 302.732C310.784 303.425 308.686 304.275 306.294 305.28C303.902 306.285 301.458 307.447 298.962 308.764C297.229 309.631 295.704 310.549 294.386 311.52C293.069 312.456 292.029 313.444 291.266 314.484C290.504 315.489 290.122 316.599 290.122 317.812C290.122 318.817 290.348 319.632 290.798 320.256C291.284 320.88 291.96 321.365 292.826 321.712C293.693 322.024 294.681 322.232 295.79 322.336C296.934 322.44 298.182 322.492 299.534 322.492C301.545 322.492 303.833 322.388 306.398 322.18C308.998 321.937 311.442 321.625 313.73 321.244L313.626 325.404C312.309 325.577 310.818 325.733 309.154 325.872C307.525 326.011 305.861 326.115 304.162 326.184C302.498 326.288 300.904 326.34 299.378 326.34C296.917 326.34 294.664 326.115 292.618 325.664C290.608 325.213 288.996 324.416 287.782 323.272C286.569 322.128 285.962 320.499 285.962 318.384C285.962 316.824 286.326 315.403 287.054 314.12C287.782 312.803 288.753 311.607 289.966 310.532C291.214 309.457 292.584 308.469 294.074 307.568C295.565 306.632 297.09 305.783 298.65 305.02C300.314 304.119 301.874 303.339 303.33 302.68C304.821 302.021 306.225 301.415 307.542 300.86C308.86 300.305 310.09 299.751 311.234 299.196C311.997 298.849 312.725 298.52 313.418 298.208C314.112 297.896 314.805 297.549 315.498 297.168L317.214 301.068ZM327.146 296.856C328.082 296.683 329.018 296.475 329.954 296.232C330.925 295.955 331.896 295.66 332.866 295.348C333.976 295.001 335.397 294.551 337.13 293.996C338.864 293.407 340.753 292.835 342.798 292.28C344.844 291.691 346.924 291.205 349.038 290.824C351.188 290.408 353.198 290.2 355.07 290.2C357.982 290.2 360.6 290.737 362.922 291.812C365.245 292.887 367.1 294.447 368.486 296.492C369.873 298.537 370.566 301.016 370.566 303.928C370.566 306.424 370.081 308.66 369.11 310.636C368.174 312.612 366.84 314.363 365.106 315.888C363.408 317.379 361.38 318.644 359.022 319.684C356.665 320.689 354.048 321.504 351.17 322.128C348.328 322.717 345.312 323.099 342.122 323.272L340.25 318.956C343.682 318.887 346.941 318.557 350.026 317.968C353.112 317.344 355.85 316.443 358.242 315.264C360.669 314.085 362.576 312.56 363.962 310.688C365.349 308.781 366.042 306.493 366.042 303.824C366.042 302.021 365.609 300.392 364.742 298.936C363.876 297.445 362.61 296.267 360.946 295.4C359.317 294.533 357.324 294.1 354.966 294.1C353.268 294.1 351.413 294.308 349.402 294.724C347.392 295.105 345.364 295.608 343.318 296.232C341.273 296.821 339.314 297.463 337.442 298.156C335.605 298.849 333.958 299.491 332.502 300.08C331.046 300.669 329.902 301.12 329.07 301.432L327.146 296.856ZM411.958 285.624C411.404 286.04 410.78 286.56 410.086 287.184C409.393 287.773 408.821 288.241 408.37 288.588C407.469 289.385 406.377 290.321 405.094 291.396C403.812 292.436 402.46 293.545 401.038 294.724C399.617 295.868 398.248 296.977 396.93 298.052C395.613 299.092 394.469 300.028 393.498 300.86C392.458 301.761 391.765 302.507 391.418 303.096C391.072 303.651 391.072 304.223 391.418 304.812C391.8 305.401 392.545 306.181 393.654 307.152C394.625 307.915 395.734 308.816 396.982 309.856C398.23 310.861 399.548 311.953 400.934 313.132C402.356 314.311 403.794 315.524 405.25 316.772C406.706 318.02 408.11 319.251 409.462 320.464C410.814 321.677 412.028 322.839 413.102 323.948L409.41 327.38C408.336 326.132 407.14 324.867 405.822 323.584C404.921 322.648 403.794 321.556 402.442 320.308C401.09 319.06 399.634 317.76 398.074 316.408C396.549 315.056 395.024 313.756 393.498 312.508C392.008 311.225 390.656 310.081 389.442 309.076C387.778 307.689 386.721 306.476 386.27 305.436C385.82 304.361 385.906 303.304 386.53 302.264C387.154 301.224 388.246 300.063 389.806 298.78C390.777 297.948 391.938 296.977 393.29 295.868C394.677 294.759 396.116 293.597 397.606 292.384C399.097 291.136 400.501 289.94 401.818 288.796C403.17 287.617 404.28 286.577 405.146 285.676C405.666 285.156 406.204 284.567 406.758 283.908C407.348 283.249 407.798 282.677 408.11 282.192L411.958 285.624ZM438.711 285.676C439.3 285.745 439.924 285.797 440.583 285.832C441.276 285.867 441.883 285.884 442.403 285.884C442.923 285.884 443.772 285.867 444.951 285.832C446.164 285.797 447.516 285.763 449.007 285.728C450.532 285.659 452.04 285.607 453.531 285.572C455.056 285.503 456.408 285.433 457.587 285.364C458.8 285.295 459.684 285.243 460.239 285.208C461.001 285.139 461.591 285.069 462.007 285C462.423 284.931 462.769 284.861 463.047 284.792L465.439 287.808C464.988 288.12 464.503 288.449 463.983 288.796C463.497 289.143 463.012 289.524 462.527 289.94C461.868 290.425 460.984 291.136 459.875 292.072C458.765 292.973 457.535 293.996 456.183 295.14C454.865 296.249 453.565 297.341 452.283 298.416C451 299.491 449.839 300.461 448.799 301.328C450.012 300.912 451.225 300.635 452.439 300.496C453.687 300.323 454.883 300.236 456.027 300.236C458.904 300.236 461.452 300.773 463.671 301.848C465.924 302.888 467.675 304.327 468.923 306.164C470.205 308.001 470.847 310.099 470.847 312.456C470.847 315.229 470.119 317.656 468.663 319.736C467.207 321.816 465.144 323.411 462.475 324.52C459.805 325.664 456.633 326.236 452.959 326.236C450.601 326.236 448.573 325.924 446.875 325.3C445.176 324.676 443.859 323.809 442.923 322.7C442.021 321.591 441.571 320.308 441.571 318.852C441.571 317.673 441.9 316.564 442.559 315.524C443.217 314.484 444.153 313.652 445.367 313.028C446.58 312.404 447.984 312.092 449.579 312.092C451.901 312.092 453.825 312.577 455.351 313.548C456.876 314.484 458.055 315.732 458.887 317.292C459.719 318.817 460.187 320.464 460.291 322.232L456.547 322.856C456.408 320.637 455.715 318.817 454.467 317.396C453.253 315.94 451.607 315.212 449.527 315.212C448.348 315.212 447.36 315.541 446.563 316.2C445.765 316.859 445.367 317.639 445.367 318.54C445.367 319.788 446.008 320.776 447.291 321.504C448.573 322.232 450.237 322.596 452.283 322.596C455.229 322.596 457.777 322.197 459.927 321.4C462.111 320.603 463.775 319.441 464.919 317.916C466.097 316.391 466.687 314.553 466.687 312.404C466.687 310.705 466.184 309.18 465.179 307.828C464.173 306.476 462.787 305.419 461.019 304.656C459.285 303.859 457.292 303.46 455.039 303.46C452.855 303.46 450.896 303.703 449.163 304.188C447.429 304.639 445.8 305.297 444.275 306.164C442.784 307.031 441.293 308.123 439.803 309.44C438.347 310.723 436.787 312.196 435.123 313.86L432.159 310.792C433.233 309.925 434.412 308.955 435.695 307.88C437.012 306.771 438.329 305.679 439.647 304.604C440.964 303.495 442.177 302.472 443.287 301.536C444.431 300.565 445.384 299.768 446.147 299.144C446.875 298.555 447.776 297.809 448.851 296.908C449.96 295.972 451.104 295.001 452.283 293.996C453.461 292.991 454.571 292.037 455.611 291.136C456.685 290.235 457.552 289.507 458.211 288.952C457.656 288.952 456.841 288.987 455.767 289.056C454.692 289.091 453.496 289.143 452.179 289.212C450.861 289.247 449.544 289.299 448.227 289.368C446.944 289.437 445.765 289.507 444.691 289.576C443.651 289.611 442.853 289.645 442.299 289.68C441.744 289.715 441.172 289.749 440.583 289.784C439.993 289.819 439.421 289.888 438.867 289.992L438.711 285.676ZM507.663 288.484C507.316 291.188 506.865 294.013 506.311 296.96C505.791 299.907 505.115 302.767 504.283 305.54C503.243 309.111 502.081 312.092 500.799 314.484C499.551 316.876 498.199 318.679 496.743 319.892C495.287 321.105 493.761 321.712 492.167 321.712C490.641 321.712 489.168 321.157 487.747 320.048C486.325 318.939 485.164 317.344 484.263 315.264C483.361 313.149 482.911 310.671 482.911 307.828C482.911 304.985 483.483 302.299 484.627 299.768C485.805 297.237 487.417 295.001 489.463 293.06C491.543 291.084 493.969 289.524 496.743 288.38C499.516 287.236 502.48 286.664 505.635 286.664C508.685 286.664 511.424 287.167 513.851 288.172C516.312 289.177 518.409 290.564 520.143 292.332C521.876 294.065 523.211 296.093 524.147 298.416C525.083 300.704 525.551 303.165 525.551 305.8C525.551 309.44 524.771 312.647 523.211 315.42C521.685 318.193 519.467 320.447 516.555 322.18C513.677 323.913 510.176 325.057 506.051 325.612L503.607 321.764C504.439 321.66 505.236 321.556 505.999 321.452C506.761 321.348 507.455 321.227 508.079 321.088C509.743 320.707 511.355 320.117 512.915 319.32C514.509 318.488 515.931 317.448 517.179 316.2C518.427 314.917 519.415 313.409 520.143 311.676C520.905 309.908 521.287 307.897 521.287 305.644C521.287 303.529 520.94 301.571 520.247 299.768C519.553 297.931 518.531 296.319 517.179 294.932C515.827 293.545 514.18 292.453 512.239 291.656C510.297 290.859 508.079 290.46 505.583 290.46C502.74 290.46 500.157 290.98 497.835 292.02C495.547 293.06 493.588 294.429 491.959 296.128C490.364 297.792 489.133 299.629 488.267 301.64C487.4 303.616 486.967 305.557 486.967 307.464C486.967 309.648 487.244 311.451 487.799 312.872C488.388 314.259 489.081 315.281 489.879 315.94C490.711 316.599 491.525 316.928 492.323 316.928C493.155 316.928 494.004 316.529 494.871 315.732C495.737 314.9 496.621 313.583 497.523 311.78C498.424 309.943 499.308 307.568 500.175 304.656C500.937 302.16 501.579 299.508 502.099 296.7C502.653 293.892 503.052 291.136 503.295 288.432L507.663 288.484ZM551.083 293.268C552.573 293.407 554.029 293.511 555.451 293.58C556.872 293.649 558.363 293.684 559.923 293.684C563.043 293.684 566.145 293.563 569.231 293.32C572.316 293.077 575.176 292.696 577.811 292.176V296.18C575.037 296.631 572.108 296.96 569.023 297.168C565.972 297.376 562.904 297.497 559.819 297.532C558.328 297.532 556.872 297.497 555.451 297.428C554.064 297.359 552.608 297.272 551.083 297.168V293.268ZM569.283 283.96C569.213 284.48 569.144 285 569.075 285.52C569.04 286.04 569.005 286.56 568.971 287.08C568.936 287.704 568.901 288.501 568.867 289.472C568.832 290.443 568.815 291.483 568.815 292.592C568.815 293.667 568.815 294.724 568.815 295.764C568.815 297.74 568.849 299.716 568.919 301.692C568.988 303.668 569.075 305.592 569.179 307.464C569.283 309.336 569.369 311.104 569.439 312.768C569.543 314.397 569.595 315.888 569.595 317.24C569.595 318.28 569.439 319.303 569.127 320.308C568.849 321.313 568.364 322.215 567.671 323.012C567.012 323.809 566.093 324.433 564.915 324.884C563.771 325.369 562.332 325.612 560.599 325.612C557.097 325.612 554.411 324.953 552.539 323.636C550.701 322.319 549.783 320.499 549.783 318.176C549.783 316.72 550.199 315.403 551.031 314.224C551.897 313.011 553.111 312.057 554.671 311.364C556.265 310.671 558.207 310.324 560.495 310.324C562.713 310.324 564.741 310.584 566.579 311.104C568.451 311.589 570.167 312.248 571.727 313.08C573.321 313.877 574.777 314.779 576.095 315.784C577.412 316.755 578.625 317.725 579.735 318.696L577.447 322.18C575.644 320.447 573.824 318.939 571.987 317.656C570.184 316.373 568.312 315.368 566.371 314.64C564.429 313.912 562.367 313.548 560.183 313.548C558.207 313.548 556.595 313.947 555.347 314.744C554.133 315.507 553.527 316.512 553.527 317.76C553.527 319.077 554.116 320.1 555.295 320.828C556.473 321.521 557.999 321.868 559.871 321.868C561.361 321.868 562.505 321.625 563.303 321.14C564.135 320.655 564.707 319.996 565.019 319.164C565.365 318.332 565.539 317.344 565.539 316.2C565.539 315.264 565.504 313.999 565.435 312.404C565.365 310.809 565.279 309.076 565.175 307.204C565.071 305.297 564.984 303.356 564.915 301.38C564.845 299.404 564.811 297.549 564.811 295.816C564.811 294.048 564.811 292.384 564.811 290.824C564.811 289.264 564.811 288.033 564.811 287.132C564.811 286.681 564.793 286.161 564.759 285.572C564.724 284.948 564.672 284.411 564.603 283.96H569.283ZM543.595 284.272C543.491 284.549 543.369 284.913 543.231 285.364C543.127 285.78 543.023 286.213 542.919 286.664C542.849 287.115 542.78 287.496 542.711 287.808C542.503 288.779 542.277 289.94 542.035 291.292C541.827 292.609 541.601 294.048 541.359 295.608C541.116 297.133 540.891 298.693 540.683 300.288C540.509 301.848 540.371 303.356 540.267 304.812C540.163 306.268 540.111 307.585 540.111 308.764C540.111 310.012 540.145 311.208 540.215 312.352C540.319 313.496 540.457 314.709 540.631 315.992C540.908 315.195 541.22 314.345 541.567 313.444C541.913 312.543 542.26 311.641 542.607 310.74C542.988 309.839 543.317 309.041 543.595 308.348L545.727 310.012C545.311 311.191 544.843 312.525 544.323 314.016C543.837 315.472 543.369 316.876 542.919 318.228C542.503 319.545 542.208 320.637 542.035 321.504C541.965 321.851 541.896 322.249 541.827 322.7C541.792 323.151 541.792 323.532 541.827 323.844C541.827 324.087 541.827 324.381 541.827 324.728C541.861 325.075 541.896 325.387 541.931 325.664L538.291 325.924C537.771 324.052 537.303 321.729 536.887 318.956C536.505 316.148 536.315 312.993 536.315 309.492C536.315 307.551 536.401 305.54 536.575 303.46C536.783 301.345 537.008 299.283 537.251 297.272C537.528 295.261 537.788 293.424 538.031 291.76C538.308 290.061 538.533 288.675 538.707 287.6C538.776 287.011 538.845 286.387 538.915 285.728C538.984 285.069 539.019 284.463 539.019 283.908L543.595 284.272ZM585.559 295.244H631.319V299.248H585.559V295.244ZM610.883 296.856C612.061 301.051 613.604 304.968 615.511 308.608C617.452 312.213 619.809 315.368 622.583 318.072C625.391 320.776 628.58 322.891 632.151 324.416C631.839 324.693 631.492 325.04 631.111 325.456C630.764 325.907 630.417 326.357 630.071 326.808C629.724 327.259 629.447 327.675 629.239 328.056C625.495 326.253 622.184 323.879 619.307 320.932C616.464 317.985 614.037 314.553 612.027 310.636C610.016 306.719 608.352 302.437 607.035 297.792L610.883 296.856ZM606.307 280.372H610.519C610.519 282.625 610.449 285.139 610.311 287.912C610.207 290.651 609.947 293.511 609.531 296.492C609.115 299.439 608.421 302.42 607.451 305.436C606.515 308.417 605.197 311.312 603.499 314.12C601.835 316.893 599.703 319.476 597.103 321.868C594.503 324.26 591.313 326.323 587.535 328.056C587.223 327.536 586.772 326.964 586.183 326.34C585.628 325.751 585.091 325.248 584.571 324.832C588.245 323.237 591.331 321.331 593.827 319.112C596.357 316.893 598.42 314.467 600.015 311.832C601.609 309.197 602.84 306.476 603.707 303.668C604.573 300.86 605.18 298.069 605.527 295.296C605.873 292.488 606.081 289.819 606.151 287.288C606.255 284.757 606.307 282.452 606.307 280.372ZM637.611 285.52H683.215V289.16H637.611V285.52ZM658.307 280.32H662.311V286.976H658.307V280.32ZM665.327 286.976H669.123V300.652C669.123 301.623 669.001 302.385 668.759 302.94C668.516 303.46 668.031 303.876 667.303 304.188C666.609 304.465 665.656 304.639 664.443 304.708C663.229 304.743 661.756 304.76 660.023 304.76C659.919 304.24 659.763 303.668 659.555 303.044C659.347 302.385 659.139 301.796 658.931 301.276C660.213 301.311 661.375 301.328 662.415 301.328C663.455 301.328 664.131 301.328 664.443 301.328C664.789 301.293 665.015 301.224 665.119 301.12C665.257 301.016 665.327 300.825 665.327 300.548V286.976ZM654.407 286.56H658.099V289.472C658.099 290.789 657.995 292.193 657.787 293.684C657.613 295.175 657.232 296.683 656.643 298.208C656.053 299.733 655.152 301.224 653.939 302.68C652.725 304.101 651.096 305.453 649.051 306.736C648.843 306.424 648.565 306.112 648.219 305.8C647.907 305.453 647.56 305.124 647.179 304.812C646.832 304.5 646.52 304.24 646.243 304.032C648.115 302.957 649.605 301.796 650.715 300.548C651.824 299.3 652.639 298.017 653.159 296.7C653.679 295.383 654.008 294.1 654.147 292.852C654.32 291.604 654.407 290.443 654.407 289.368V286.56ZM671.775 293.372L674.843 291.604C675.987 292.575 677.148 293.667 678.327 294.88C679.505 296.093 680.615 297.307 681.655 298.52C682.695 299.699 683.527 300.756 684.151 301.692L680.875 303.772C680.32 302.801 679.54 301.709 678.535 300.496C677.529 299.283 676.437 298.052 675.259 296.804C674.08 295.556 672.919 294.412 671.775 293.372ZM645.463 291.864L649.207 292.852C648.097 294.828 646.659 296.769 644.891 298.676C643.157 300.548 641.337 302.091 639.431 303.304C639.084 302.957 638.633 302.559 638.079 302.108C637.559 301.657 637.091 301.293 636.675 301.016C637.888 300.288 639.067 299.421 640.211 298.416C641.355 297.411 642.377 296.336 643.279 295.192C644.215 294.048 644.943 292.939 645.463 291.864ZM651.651 310.272C653.488 313.08 655.984 315.472 659.139 317.448C662.328 319.424 666.055 321.019 670.319 322.232C674.583 323.411 679.245 324.208 684.307 324.624C684.064 324.936 683.787 325.3 683.475 325.716C683.163 326.167 682.885 326.6 682.643 327.016C682.4 327.467 682.192 327.883 682.019 328.264C676.819 327.709 672.052 326.739 667.719 325.352C663.42 323.965 659.624 322.128 656.331 319.84C653.072 317.552 650.385 314.761 648.271 311.468L651.651 310.272ZM654.667 303.824L658.827 304.604C656.885 307.239 654.407 309.752 651.391 312.144C648.375 314.501 644.752 316.599 640.523 318.436C640.349 318.124 640.107 317.795 639.795 317.448C639.517 317.067 639.223 316.703 638.911 316.356C638.599 316.009 638.304 315.749 638.027 315.576C642.048 314.016 645.463 312.179 648.271 310.064C651.079 307.949 653.211 305.869 654.667 303.824ZM653.159 307.776H672.555V311H650.299L653.159 307.776ZM671.515 307.776H672.399L673.127 307.62L675.675 309.336C674.011 312.248 671.879 314.779 669.279 316.928C666.713 319.043 663.784 320.845 660.491 322.336C657.232 323.827 653.748 325.057 650.039 326.028C646.364 326.999 642.585 327.761 638.703 328.316C638.599 328.004 638.425 327.623 638.183 327.172C637.975 326.721 637.749 326.288 637.507 325.872C637.264 325.456 637.004 325.109 636.727 324.832C640.54 324.381 644.215 323.74 647.751 322.908C651.321 322.076 654.649 321.019 657.735 319.736C660.82 318.419 663.541 316.824 665.899 314.952C668.291 313.08 670.163 310.913 671.515 308.452V307.776ZM693.499 324.295C692.588 324.295 691.807 323.969 691.154 323.317C690.502 322.664 690.176 321.883 690.176 320.972C690.176 320.061 690.502 319.279 691.154 318.626C691.807 317.974 692.588 317.648 693.499 317.648C694.41 317.648 695.192 317.974 695.845 318.626C696.497 319.279 696.823 320.061 696.823 320.972C696.823 321.575 696.669 322.129 696.362 322.634C696.066 323.138 695.666 323.545 695.161 323.852C694.669 324.148 694.115 324.295 693.499 324.295ZM707.681 324.295C706.77 324.295 705.988 323.969 705.336 323.317C704.684 322.664 704.357 321.883 704.357 320.972C704.357 320.061 704.684 319.279 705.336 318.626C705.988 317.974 706.77 317.648 707.681 317.648C708.592 317.648 709.374 317.974 710.026 318.626C710.679 319.279 711.005 320.061 711.005 320.972C711.005 321.575 710.851 322.129 710.543 322.634C710.248 323.138 709.848 323.545 709.343 323.852C708.851 324.148 708.297 324.295 707.681 324.295ZM721.863 324.295C720.952 324.295 720.17 323.969 719.518 323.317C718.865 322.664 718.539 321.883 718.539 320.972C718.539 320.061 718.865 319.279 719.518 318.626C720.17 317.974 720.952 317.648 721.863 317.648C722.774 317.648 723.556 317.974 724.208 318.626C724.861 319.279 725.187 320.061 725.187 320.972C725.187 321.575 725.033 322.129 724.725 322.634C724.43 323.138 724.03 323.545 723.525 323.852C723.033 324.148 722.479 324.295 721.863 324.295Z" fill="black"/>
</g>
<defs>
<clipPath id="clip0_1757_37">
<rect width="845.488" height="565.999" fill="white"/>
</clipPath>
</defs>
</svg>
