<!--?xml version="1.0" encoding="utf-8"?-->
<!-- Generator: Adobe Illustrator 25.2.3, SVG Export Plug-In . SVG Version: 6.00 Build 0)  -->
<svg version="1.1" id="_x34_" xmlns="http://www.w3.org/2000/svg" xmlns:xlink="http://www.w3.org/1999/xlink" x="0px" y="0px" viewBox="0 0 800 429.1" style="enable-background:new 0 0 800 429.1;" xml:space="preserve">
<style type="text/css">
	.stblack{fill:#000000;}
	.st0{fill:#FFFFFF;}
	.text{fill:#000000;font-family:Arial, sans-serif;font-weight:bold;font-size:48px;}
</style>
<g>
	<path class="stblack" d="M131.2,69.5c96.4,35.7,149.2,7.5,169.9-46.7c111.5,78.7,179.8-12.1,179.8-12.1c47.5,116.2,159.5,38,159.5,38
		c-7.9,49.1,63.8,94.7,111.4,78.8C696.8,232.3,780,263.9,780,263.9c-56.5,0-115.7,42.6-133.9,103c-50.7-28-108.9-14.4-147.2,51.4
		c-24.9-38.4-98.1-99.6-197.9,0c-23.3-81.7-124.7-73-199.6-33.1c34.9-64.9,34.9-149.7-81.5-199.6c26.6,3.3,121.4-21.6,98.1-121.4
		C122.6,66.2,126.9,67.9,131.2,69.5z"></path>
	<path class="st0" d="M141.6,80.7c92.6,38.6,144.3,11.2,164.2-44c107,78.4,171.7-9.6,171.7-11.2c46.1,114.1,156.2,36.9,156,35.8
		c-8,49.2,58.4,93.1,104.5,76.1c-57.1,98.4,21.4,122.4,22.2,122.8c-54.3,0-102.5,36.4-120,94.4c-51.6-31.4-108.4-15.9-142.7,51.4
		c-24.9-39.5-98.7-102-193.4-3.4c-23.3-83.4-114.1-75.8-185.4-34.6c33.5-62.3,36.1-129.7-75.7-177.6c25.6,3.2,108.4-18.7,86-114.5
		C133.4,77.5,137.6,79,141.6,80.7z"></path>
	<text x="400" y="220" class="text" text-anchor="middle" dominant-baseline="middle" transform="rotate(-3 400 220)">これがふとるめしだ！</text>
</g>
</svg>
