<svg width="400" height="500" viewBox="0 0 400 500" xmlns="http://www.w3.org/2000/svg">
  <!-- Person running -->
  <g transform="translate(200, 250)">
    <!-- Head -->
    <circle cx="-10" cy="-150" r="25" fill="white" stroke="black" stroke-width="3"/>
    <path d="M -25 -160 Q -10 -165 5 -160" fill="#606060"/>
    <circle cx="-18" cy="-155" r="2" fill="black"/>
    <circle cx="-2" cy="-155" r="2" fill="black"/>
    <path d="M -20 -140 Q -10 -135 0 -140" fill="none" stroke="black" stroke-width="2"/>
    
    <!-- Body (tilted forward) -->
    <g transform="rotate(-15)">
      <!-- Hoodie -->
      <rect x="-35" y="-125" width="70" height="90" rx="5" fill="#6495ED" stroke="black" stroke-width="3"/>
      <rect x="-30" y="-120" width="60" height="20" fill="#5485DD"/>
      <!-- Hood -->
      <path d="M -35 -125 Q 0 -135 35 -125" fill="#6495ED" stroke="black" stroke-width="2"/>
    </g>
    
    <!-- Arms in running position -->
    <!-- Back arm -->
    <path d="M -10 -90 L -30 -60 L -25 -30" stroke="white" stroke-width="12" fill="none"/>
    <path d="M -10 -90 L -30 -60 L -25 -30" stroke="black" stroke-width="3" fill="none"/>
    <circle cx="-25" cy="-30" r="8" fill="white" stroke="black" stroke-width="2"/>
    
    <!-- Front arm -->
    <path d="M 20 -100 L 45 -110 L 50 -90" stroke="white" stroke-width="12" fill="none"/>
    <path d="M 20 -100 L 45 -110 L 50 -90" stroke="black" stroke-width="3" fill="none"/>
    <circle cx="50" cy="-90" r="8" fill="white" stroke="black" stroke-width="2"/>
    
    <!-- Shorts -->
    <rect x="-25" y="-35" width="50" height="40" fill="#808080" stroke="black" stroke-width="2"/>
    
    <!-- Running legs -->
    <!-- Back leg -->
    <path d="M -10 5 L -15 40 L -40 80 L -45 120" stroke="#606060" stroke-width="15" fill="none"/>
    <path d="M -10 5 L -15 40 L -40 80 L -45 120" stroke="black" stroke-width="3" fill="none"/>
    
    <!-- Front leg -->
    <path d="M 15 5 L 25 40 L 20 80 L 10 120" stroke="#606060" stroke-width="15" fill="none"/>
    <path d="M 15 5 L 25 40 L 20 80 L 10 120" stroke="black" stroke-width="3" fill="none"/>
    
    <!-- Shoes -->
    <g transform="rotate(-20)">
      <ellipse cx="-45" cy="130" rx="25" ry="12" fill="white" stroke="black" stroke-width="2"/>
    </g>
    <g transform="rotate(10)">
      <ellipse cx="10" cy="125" rx="25" ry="12" fill="white" stroke="black" stroke-width="2"/>
    </g>
  </g>
</svg>