<svg width="400" height="500" viewBox="0 0 400 500" xmlns="http://www.w3.org/2000/svg">
  <!-- Person with dumbbells -->
  <g transform="translate(200, 250)">
    <!-- Head -->
    <circle cx="0" cy="-150" r="25" fill="white" stroke="black" stroke-width="3"/>
    <path d="M -15 -160 Q 0 -165 15 -160" fill="#808080"/>
    <circle cx="-8" cy="-155" r="2" fill="black"/>
    <circle cx="8" cy="-155" r="2" fill="black"/>
    <path d="M -10 -140 Q 0 -135 10 -140" fill="none" stroke="black" stroke-width="2"/>
    
    <!-- Body -->
    <rect x="-35" y="-125" width="70" height="80" fill="#87CEEB" stroke="black" stroke-width="3"/>
    
    <!-- Arms with weights -->
    <!-- Left arm -->
    <path d="M -35 -100 L -70 -80 L -90 -40" stroke="white" stroke-width="12" fill="none"/>
    <path d="M -35 -100 L -70 -80 L -90 -40" stroke="black" stroke-width="3" fill="none"/>
    
    <!-- Right arm -->
    <path d="M 35 -100 L 70 -120 L 90 -100" stroke="white" stroke-width="12" fill="none"/>
    <path d="M 35 -100 L 70 -120 L 90 -100" stroke="black" stroke-width="3" fill="none"/>
    
    <!-- Dumbbells -->
    <!-- Left dumbbell -->
    <circle cx="-90" cy="-40" r="15" fill="#606060" stroke="black" stroke-width="2"/>
    <rect x="-105" y="-45" width="10" height="10" fill="#606060" stroke="black" stroke-width="2"/>
    <rect x="-85" y="-45" width="10" height="10" fill="#606060" stroke="black" stroke-width="2"/>
    
    <!-- Right dumbbell -->
    <circle cx="90" cy="-100" r="15" fill="#606060" stroke="black" stroke-width="2"/>
    <rect x="75" y="-105" width="10" height="10" fill="#606060" stroke="black" stroke-width="2"/>
    <rect x="95" y="-105" width="10" height="10" fill="#606060" stroke="black" stroke-width="2"/>
    
    <!-- Shorts -->
    <rect x="-35" y="-45" width="70" height="50" fill="#606060" stroke="black" stroke-width="2"/>
    
    <!-- Legs -->
    <rect x="-30" y="5" width="25" height="80" fill="white" stroke="black" stroke-width="3"/>
    <rect x="5" y="5" width="25" height="80" fill="white" stroke="black" stroke-width="3"/>
    
    <!-- Shoes -->
    <ellipse cx="-17" cy="95" rx="20" ry="10" fill="white" stroke="black" stroke-width="2"/>
    <ellipse cx="17" cy="95" rx="20" ry="10" fill="white" stroke="black" stroke-width="2"/>
  </g>
</svg>