<svg width="92" height="40" viewBox="0 0 92 40" fill="none" xmlns="http://www.w3.org/2000/svg">
<mask id="mask0_91_38" style="mask-type:alpha" maskUnits="userSpaceOnUse" x="0" y="0" width="40" height="40">
<rect y="40" width="40" height="40" transform="rotate(-90 0 40)" fill="#D9D9D9"/>
</mask>
<g mask="url(#mask0_91_38)">
<path d="M34.1666 29.8929C34.1666 30.6043 33.91 31.2167 33.3966 31.73C32.8833 32.2433 32.2709 32.5 31.5596 32.5H16.72C16.3025 32.5 15.9108 32.4094 15.545 32.2283C15.1789 32.0469 14.8761 31.7885 14.6366 31.4529L7.19539 21.56C6.8465 21.1106 6.67206 20.5929 6.67206 20.0071C6.67206 19.4213 6.8465 18.8989 7.19539 18.44L14.6366 8.54708C14.8761 8.21153 15.1789 7.95306 15.545 7.77167C15.9108 7.59056 16.3025 7.5 16.72 7.5H31.5596C32.2709 7.5 32.8833 7.75667 33.3966 8.27C33.91 8.78333 34.1666 9.39569 34.1666 10.1071V29.8929ZM32.0725 29.8929V10.1071C32.0725 9.95736 32.0244 9.83444 31.9283 9.73833C31.8322 9.64222 31.7093 9.59417 31.5596 9.59417H16.6412C16.5557 9.59417 16.4764 9.61278 16.4033 9.65C16.3303 9.6875 16.2705 9.73833 16.2241 9.8025L8.92289 19.6954C8.84817 19.781 8.81081 19.8825 8.81081 20C8.81081 20.1175 8.84817 20.219 8.92289 20.3046L16.2241 30.1975C16.2705 30.2617 16.3303 30.3125 16.4033 30.35C16.4764 30.3872 16.5557 30.4058 16.6412 30.4058H31.5596C31.7093 30.4058 31.8322 30.3578 31.9283 30.2617C32.0244 30.1656 32.0725 30.0426 32.0725 29.8929ZM29.455 22.3075C29.455 22.0961 29.3797 21.9151 29.2291 21.7646C29.0786 21.6138 28.8975 21.5383 28.6858 21.5383H23.3012C23.3012 20.8975 23.0769 20.3526 22.6283 19.9037C22.1794 19.4551 21.6346 19.2308 20.9937 19.2308H17.1475C16.9358 19.2308 16.7547 19.3061 16.6041 19.4567C16.4536 19.6072 16.3783 19.7883 16.3783 20C16.3783 20.2117 16.4536 20.3928 16.6041 20.5433C16.7547 20.6939 16.9358 20.7692 17.1475 20.7692H20.9937V21.5383H17.1475C16.9358 21.5383 16.7547 21.6138 16.6041 21.7646C16.4536 21.9151 16.3783 22.0961 16.3783 22.3075C16.3783 22.5192 16.4536 22.7003 16.6041 22.8508C16.7547 23.0017 16.9358 23.0771 17.1475 23.0771H20.9937V23.8462H17.1475C16.9358 23.8462 16.7547 23.9215 16.6041 24.0721C16.4536 24.2226 16.3783 24.4037 16.3783 24.6154C16.3783 24.8268 16.4536 25.0079 16.6041 25.1587C16.7547 25.3093 16.9358 25.3846 17.1475 25.3846H20.9937C21.6346 25.3846 22.1794 25.1603 22.6283 24.7117C23.0769 24.2628 23.3012 23.7179 23.3012 23.0771H28.6858C28.8975 23.0771 29.0786 23.0017 29.2291 22.8508C29.3797 22.7003 29.455 22.5192 29.455 22.3075ZM29.455 16.1537C29.455 15.9424 29.3797 15.7612 29.2291 15.6104C29.0786 15.4599 28.8975 15.3846 28.6858 15.3846H17.3783C17.0961 15.3846 16.8589 15.4813 16.6666 15.6746C16.4744 15.8676 16.3783 16.1058 16.3783 16.3892C16.3783 17.085 16.6987 17.6043 17.3396 17.9471C17.9807 18.2901 18.6858 18.4617 19.455 18.4617H22.7646C23.1373 18.4617 23.4379 18.3336 23.6662 18.0775C23.8946 17.8214 24.0293 17.515 24.0704 17.1583V16.9229H28.6858C28.8975 16.9229 29.0786 16.8476 29.2291 16.6971C29.3797 16.5465 29.455 16.3654 29.455 16.1537Z" fill="#1C1B1F"/>
</g>
<path d="M57.895 20.895H71.727V22.852H57.895V20.895ZM65.856 22.111C66.312 23.3017 67.072 24.2263 68.136 24.885C69.2127 25.531 70.663 25.949 72.487 26.139C72.335 26.291 72.164 26.4873 71.974 26.728C71.7967 26.9813 71.632 27.2347 71.48 27.488C71.3407 27.7413 71.2267 27.9757 71.138 28.191C69.77 27.963 68.611 27.6083 67.661 27.127C66.7237 26.6583 65.9447 26.0377 65.324 25.265C64.7033 24.4797 64.1903 23.5297 63.785 22.415L65.856 22.111ZM63.462 18.653H65.818C65.7673 19.6663 65.685 20.6037 65.571 21.465C65.457 22.3137 65.2607 23.0927 64.982 23.802C64.716 24.4987 64.3297 25.1257 63.823 25.683C63.329 26.2403 62.6703 26.728 61.847 27.146C61.0363 27.5767 60.0293 27.9377 58.826 28.229C58.7627 28.039 58.6613 27.8237 58.522 27.583C58.3827 27.355 58.2307 27.127 58.066 26.899C57.9013 26.6837 57.743 26.5 57.591 26.348C58.921 26.0567 59.9723 25.6957 60.745 25.265C61.5177 24.8217 62.0877 24.2897 62.455 23.669C62.8223 23.0483 63.0693 22.3263 63.196 21.503C63.3227 20.667 63.4113 19.717 63.462 18.653ZM56.679 14.302H58.959V17.931C58.959 18.6783 58.9273 19.489 58.864 20.363C58.8007 21.2243 58.674 22.111 58.484 23.023C58.3067 23.935 58.047 24.8153 57.705 25.664C57.3757 26.5127 56.9387 27.2853 56.394 27.982C56.2547 27.8553 56.0647 27.7097 55.824 27.545C55.5833 27.393 55.33 27.241 55.064 27.089C54.8107 26.937 54.5827 26.8293 54.38 26.766C54.8993 26.12 55.311 25.4233 55.615 24.676C55.9317 23.916 56.166 23.1433 56.318 22.358C56.47 21.56 56.565 20.781 56.603 20.021C56.6537 19.2483 56.679 18.539 56.679 17.893V14.302ZM57.8 14.302H70.796V19.204H57.8V17.475H68.554V16.031H57.8V14.302ZM55.501 11.338H71.689V13.39H55.501V11.338ZM77.18 12.022C77.446 12.06 77.731 12.0853 78.035 12.098C78.339 12.1107 78.6303 12.117 78.909 12.117C79.1117 12.117 79.4157 12.117 79.821 12.117C80.2263 12.1043 80.6823 12.0917 81.189 12.079C81.7083 12.0663 82.2213 12.0537 82.728 12.041C83.2347 12.0283 83.6907 12.0157 84.096 12.003C84.514 11.9777 84.837 11.9587 85.065 11.946C85.4577 11.908 85.768 11.8763 85.996 11.851C86.224 11.813 86.395 11.775 86.509 11.737L87.744 13.428C87.5287 13.5673 87.307 13.7067 87.079 13.846C86.851 13.9853 86.6293 14.1373 86.414 14.302C86.1607 14.4793 85.8567 14.7137 85.502 15.005C85.1473 15.2837 84.7673 15.5813 84.362 15.898C83.9693 16.2147 83.583 16.525 83.203 16.829C82.8357 17.133 82.5 17.4053 82.196 17.646C82.5127 17.57 82.8167 17.5193 83.108 17.494C83.3993 17.456 83.697 17.437 84.001 17.437C85.0777 17.437 86.0403 17.646 86.889 18.064C87.7503 18.482 88.428 19.052 88.922 19.774C89.4287 20.4833 89.682 21.3003 89.682 22.225C89.682 23.2257 89.4287 24.1313 88.922 24.942C88.4153 25.7527 87.649 26.3987 86.623 26.88C85.6097 27.3613 84.3367 27.602 82.804 27.602C81.93 27.602 81.1383 27.4753 80.429 27.222C79.7323 26.9687 79.1813 26.6077 78.776 26.139C78.3707 25.6703 78.168 25.1193 78.168 24.486C78.168 23.9667 78.3073 23.4853 78.586 23.042C78.8773 22.586 79.2763 22.2187 79.783 21.94C80.3023 21.6613 80.8977 21.522 81.569 21.522C82.443 21.522 83.1777 21.6993 83.773 22.054C84.381 22.396 84.8433 22.8583 85.16 23.441C85.4893 24.0237 85.6603 24.6633 85.673 25.36L83.45 25.664C83.4373 24.9673 83.26 24.41 82.918 23.992C82.5887 23.5613 82.1453 23.346 81.588 23.346C81.2333 23.346 80.9483 23.441 80.733 23.631C80.5177 23.8083 80.41 24.0173 80.41 24.258C80.41 24.6127 80.5873 24.8977 80.942 25.113C81.2967 25.3283 81.759 25.436 82.329 25.436C83.4057 25.436 84.305 25.3093 85.027 25.056C85.749 24.79 86.2873 24.4163 86.642 23.935C87.0093 23.441 87.193 22.8583 87.193 22.187C87.193 21.617 87.0157 21.1167 86.661 20.686C86.319 20.2553 85.8503 19.9197 85.255 19.679C84.6597 19.4383 83.9883 19.318 83.241 19.318C82.5063 19.318 81.835 19.413 81.227 19.603C80.619 19.7803 80.0427 20.04 79.498 20.382C78.966 20.7113 78.4403 21.1167 77.921 21.598C77.4143 22.0667 76.9077 22.5923 76.401 23.175L74.672 21.389C75.014 21.1103 75.4003 20.8 75.831 20.458C76.2617 20.1033 76.6987 19.736 77.142 19.356C77.598 18.976 78.0223 18.6213 78.415 18.292C78.8203 17.95 79.1623 17.665 79.441 17.437C79.707 17.2217 80.0173 16.9683 80.372 16.677C80.7267 16.3857 81.094 16.088 81.474 15.784C81.854 15.4673 82.215 15.1697 82.557 14.891C82.899 14.5997 83.184 14.3527 83.412 14.15C83.222 14.15 82.975 14.1563 82.671 14.169C82.367 14.1817 82.0313 14.1943 81.664 14.207C81.3093 14.2197 80.9483 14.2323 80.581 14.245C80.2263 14.2577 79.8907 14.2767 79.574 14.302C79.27 14.3147 79.0167 14.3273 78.814 14.34C78.5607 14.3527 78.2947 14.3717 78.016 14.397C77.7373 14.4223 77.484 14.454 77.256 14.492L77.18 12.022Z" fill="black"/>
</svg>
