<svg width="513" height="263" viewBox="0 0 513 263" fill="none" xmlns="http://www.w3.org/2000/svg">
<rect width="407" height="77" fill="#F36A27"/>
<path d="M15.571 38.708H47.377V41.843H19.846V63.56H15.571V38.708ZM45.154 38.708H49.486V59.057C49.486 60.197 49.315 61.052 48.973 61.622C48.631 62.23 48.004 62.667 47.092 62.933C46.18 63.237 44.945 63.408 43.387 63.446C41.867 63.484 39.967 63.503 37.687 63.503C37.573 63.009 37.364 62.42 37.06 61.736C36.794 61.09 36.528 60.52 36.262 60.026C37.402 60.064 38.504 60.083 39.568 60.083C40.632 60.121 41.544 60.14 42.304 60.14C43.064 60.14 43.596 60.14 43.9 60.14C44.394 60.102 44.717 60.007 44.869 59.855C45.059 59.703 45.154 59.418 45.154 59V38.708ZM17.794 45.434H47.377V48.341H17.794V45.434ZM13.12 14.369H48.973V17.276H13.12V14.369ZM17.794 51.989H47.377V55.067H17.794V51.989ZM47.662 14.369H51.766C51.766 14.369 51.747 14.578 51.709 14.996C51.671 15.376 51.595 15.718 51.481 16.022C51.177 17.922 50.835 19.366 50.455 20.354C50.075 21.342 49.6 22.064 49.03 22.52C48.536 22.9 48.004 23.147 47.434 23.261C46.902 23.375 46.256 23.451 45.496 23.489C44.812 23.489 43.843 23.489 42.589 23.489C41.373 23.451 40.062 23.394 38.656 23.318C38.618 22.862 38.504 22.368 38.314 21.836C38.162 21.304 37.972 20.829 37.744 20.411C39.074 20.525 40.328 20.601 41.506 20.639C42.722 20.677 43.558 20.696 44.014 20.696C44.508 20.696 44.888 20.677 45.154 20.639C45.42 20.601 45.667 20.506 45.895 20.354C46.199 20.05 46.503 19.48 46.807 18.644C47.111 17.808 47.396 16.535 47.662 14.825V14.369ZM31.189 11.063H35.179C34.761 13.115 34.058 14.92 33.07 16.478C32.12 17.998 30.79 19.29 29.08 20.354C27.408 21.418 25.242 22.292 22.582 22.976C19.922 23.622 16.654 24.154 12.778 24.572C12.664 24.154 12.436 23.679 12.094 23.147C11.79 22.577 11.486 22.14 11.182 21.836C14.754 21.494 17.737 21.057 20.131 20.525C22.525 19.955 24.463 19.252 25.945 18.416C27.427 17.542 28.567 16.516 29.365 15.338C30.201 14.122 30.809 12.697 31.189 11.063ZM6.964 26.567H27.997V29.36H6.964V26.567ZM26.572 26.567H30.334C30.334 26.567 30.315 26.757 30.277 27.137C30.239 27.517 30.201 27.859 30.163 28.163C29.859 30.443 29.536 32.172 29.194 33.35C28.852 34.49 28.434 35.307 27.94 35.801C27.522 36.143 27.085 36.39 26.629 36.542C26.173 36.694 25.622 36.789 24.976 36.827C24.482 36.865 23.76 36.884 22.81 36.884C21.86 36.846 20.853 36.789 19.789 36.713C19.751 36.295 19.656 35.801 19.504 35.231C19.352 34.661 19.162 34.167 18.934 33.749C19.922 33.825 20.834 33.882 21.67 33.92C22.506 33.92 23.095 33.92 23.437 33.92C24.159 33.92 24.653 33.806 24.919 33.578C25.223 33.274 25.508 32.628 25.774 31.64C26.04 30.614 26.306 29.075 26.572 27.023V26.567ZM16.426 23.831H20.131C19.827 26.301 19.257 28.505 18.421 30.443C17.623 32.381 16.407 34.053 14.773 35.459C13.177 36.865 10.992 38.043 8.218 38.993C7.99 38.575 7.667 38.1 7.249 37.568C6.831 36.998 6.432 36.58 6.052 36.314C8.56 35.554 10.517 34.585 11.923 33.407C13.329 32.229 14.355 30.842 15.001 29.246C15.685 27.65 16.16 25.845 16.426 23.831ZM32.443 26.567H54.274V29.36H32.443V26.567ZM53.191 26.567H57.181C57.181 26.567 57.162 26.757 57.124 27.137C57.086 27.479 57.048 27.802 57.01 28.106C56.782 30.424 56.516 32.172 56.212 33.35C55.908 34.528 55.49 35.364 54.958 35.858C54.616 36.2 54.198 36.447 53.704 36.599C53.21 36.751 52.621 36.846 51.937 36.884C51.367 36.922 50.569 36.941 49.543 36.941C48.517 36.903 47.434 36.865 46.294 36.827C46.256 36.371 46.142 35.858 45.952 35.288C45.8 34.718 45.61 34.224 45.382 33.806C46.446 33.882 47.434 33.939 48.346 33.977C49.258 34.015 49.885 34.034 50.227 34.034C51.025 34.034 51.557 33.901 51.823 33.635C52.127 33.331 52.374 32.685 52.564 31.697C52.792 30.709 53.001 29.17 53.191 27.08V26.567ZM42.532 23.831H46.351C46.123 25.655 45.724 27.308 45.154 28.79C44.622 30.272 43.843 31.602 42.817 32.78C41.829 33.958 40.537 35.003 38.941 35.915C37.383 36.789 35.445 37.53 33.127 38.138C32.937 37.758 32.633 37.302 32.215 36.77C31.835 36.238 31.474 35.82 31.132 35.516C33.868 34.832 36.015 33.958 37.573 32.894C39.131 31.83 40.271 30.557 40.993 29.075C41.753 27.555 42.266 25.807 42.532 23.831ZM96.34 11.177H100.672C100.634 16.573 100.748 21.703 101.014 26.567C101.318 31.393 101.736 35.82 102.268 39.848C102.8 43.838 103.465 47.296 104.263 50.222C105.099 53.148 106.03 55.428 107.056 57.062C108.12 58.658 109.26 59.456 110.476 59.456C111.16 59.456 111.673 58.658 112.015 57.062C112.357 55.428 112.604 52.806 112.756 49.196C113.212 49.652 113.763 50.108 114.409 50.564C115.093 50.982 115.701 51.305 116.233 51.533C116.005 54.649 115.663 57.1 115.207 58.886C114.789 60.634 114.162 61.869 113.326 62.591C112.49 63.313 111.388 63.674 110.02 63.674C108.31 63.674 106.771 63.028 105.403 61.736C104.073 60.444 102.914 58.62 101.926 56.264C100.938 53.908 100.083 51.115 99.361 47.885C98.677 44.655 98.107 41.083 97.651 37.169C97.233 33.255 96.91 29.113 96.682 24.743C96.492 20.335 96.378 15.813 96.34 11.177ZM76.333 49.88L78.271 46.973C79.943 47.733 81.672 48.645 83.458 49.709C85.244 50.735 86.916 51.799 88.474 52.901C90.07 53.965 91.381 54.972 92.407 55.922L90.355 59.228C89.405 58.278 88.132 57.252 86.536 56.15C84.94 55.01 83.249 53.889 81.463 52.787C79.715 51.685 78.005 50.716 76.333 49.88ZM74.281 27.764H94.744V31.241H74.281V27.764ZM73.369 36.77H95.884V40.304H73.369V36.77ZM81.349 30.215L85.111 30.785C84.389 33.103 83.572 35.592 82.66 38.252C81.748 40.874 80.836 43.42 79.924 45.89C79.05 48.36 78.214 50.564 77.416 52.502L74.281 50.792C74.813 49.462 75.383 47.961 75.991 46.289C76.637 44.579 77.283 42.793 77.929 40.931C78.575 39.069 79.183 37.226 79.753 35.402C80.361 33.54 80.893 31.811 81.349 30.215ZM109.051 28.676L113.098 29.303C111.388 37.283 108.861 44.123 105.517 49.823C102.173 55.485 97.746 60.083 92.236 63.617C92.046 63.313 91.761 62.971 91.381 62.591C91.001 62.211 90.602 61.812 90.184 61.394C89.804 61.014 89.462 60.71 89.158 60.482C94.592 57.366 98.905 53.129 102.097 47.771C105.289 42.413 107.607 36.048 109.051 28.676ZM103.066 13.4L105.517 10.949C106.923 11.671 108.405 12.545 109.963 13.571C111.521 14.597 112.756 15.528 113.668 16.364L111.103 19.1C110.267 18.264 109.07 17.314 107.512 16.25C105.992 15.148 104.51 14.198 103.066 13.4ZM69.892 19.442H115.093V23.318H69.892V19.442ZM67.612 19.442H71.602V35.744C71.602 37.796 71.526 40.038 71.374 42.47C71.26 44.864 71.013 47.315 70.633 49.823C70.253 52.293 69.683 54.706 68.923 57.062C68.201 59.418 67.232 61.584 66.016 63.56C65.826 63.294 65.522 62.99 65.104 62.648C64.686 62.306 64.268 61.983 63.85 61.679C63.432 61.375 63.071 61.147 62.767 60.995C64.249 58.525 65.332 55.827 66.016 52.901C66.7 49.937 67.137 46.973 67.327 44.009C67.517 41.045 67.612 38.29 67.612 35.744V19.442ZM88.987 38.537H92.692C92.35 41.235 91.837 43.838 91.153 46.346C90.469 48.816 89.462 51.134 88.132 53.3C86.802 55.466 85.054 57.404 82.888 59.114C80.722 60.862 77.967 62.306 74.623 63.446C74.395 63.028 74.072 62.515 73.654 61.907C73.236 61.337 72.818 60.862 72.4 60.482C75.554 59.494 78.138 58.24 80.152 56.72C82.166 55.162 83.762 53.414 84.94 51.476C86.156 49.538 87.068 47.486 87.676 45.32C88.284 43.116 88.721 40.855 88.987 38.537ZM150.148 20.069C149.768 23.033 149.274 26.13 148.666 29.36C148.096 32.59 147.355 35.725 146.443 38.765C145.303 42.679 144.03 45.947 142.624 48.569C141.256 51.191 139.774 53.167 138.178 54.497C136.582 55.827 134.91 56.492 133.162 56.492C131.49 56.492 129.875 55.884 128.317 54.668C126.759 53.452 125.486 51.704 124.498 49.424C123.51 47.106 123.016 44.389 123.016 41.273C123.016 38.157 123.643 35.212 124.897 32.438C126.189 29.664 127.956 27.213 130.198 25.085C132.478 22.919 135.138 21.209 138.178 19.955C141.218 18.701 144.467 18.074 147.925 18.074C151.269 18.074 154.271 18.625 156.931 19.727C159.629 20.829 161.928 22.349 163.828 24.287C165.728 26.187 167.191 28.41 168.217 30.956C169.243 33.464 169.756 36.162 169.756 39.05C169.756 43.04 168.901 46.555 167.191 49.595C165.519 52.635 163.087 55.105 159.895 57.005C156.741 58.905 152.903 60.159 148.381 60.767L145.702 56.549C146.614 56.435 147.488 56.321 148.324 56.207C149.16 56.093 149.92 55.96 150.604 55.808C152.428 55.39 154.195 54.744 155.905 53.87C157.653 52.958 159.211 51.818 160.579 50.45C161.947 49.044 163.03 47.391 163.828 45.491C164.664 43.553 165.082 41.349 165.082 38.879C165.082 36.561 164.702 34.414 163.942 32.438C163.182 30.424 162.061 28.657 160.579 27.137C159.097 25.617 157.292 24.42 155.164 23.546C153.036 22.672 150.604 22.235 147.868 22.235C144.752 22.235 141.921 22.805 139.375 23.945C136.867 25.085 134.72 26.586 132.934 28.448C131.186 30.272 129.837 32.286 128.887 34.49C127.937 36.656 127.462 38.784 127.462 40.874C127.462 43.268 127.766 45.244 128.374 46.802C129.02 48.322 129.78 49.443 130.654 50.165C131.566 50.887 132.459 51.248 133.333 51.248C134.245 51.248 135.176 50.811 136.126 49.937C137.076 49.025 138.045 47.581 139.033 45.605C140.021 43.591 140.99 40.988 141.94 37.796C142.776 35.06 143.479 32.153 144.049 29.075C144.657 25.997 145.094 22.976 145.36 20.012L150.148 20.069ZM199.339 28.22H219.46V32.21H199.339V28.22ZM193.81 38.423H223.108V42.47H193.81V38.423ZM204.469 40.646H208.744V63.503H204.469V40.646ZM209.257 15.623C208.003 17.751 206.388 19.974 204.412 22.292C202.474 24.61 200.308 26.833 197.914 28.961C195.558 31.089 193.05 32.989 190.39 34.661C190.124 34.129 189.744 33.521 189.25 32.837C188.794 32.115 188.357 31.526 187.939 31.07C189.915 29.892 191.853 28.543 193.753 27.023C195.653 25.465 197.439 23.812 199.111 22.064C200.783 20.278 202.284 18.492 203.614 16.706C204.944 14.882 206.046 13.115 206.92 11.405H211.138C212.734 13.799 214.596 16.155 216.724 18.473C218.852 20.753 221.113 22.862 223.507 24.8C225.901 26.7 228.257 28.277 230.575 29.531C230.119 30.025 229.644 30.633 229.15 31.355C228.656 32.039 228.219 32.704 227.839 33.35C225.559 31.944 223.241 30.253 220.885 28.277C218.567 26.301 216.382 24.23 214.33 22.064C212.316 19.86 210.625 17.713 209.257 15.623ZM221.17 38.423H225.388V53.129C225.388 54.231 225.255 55.124 224.989 55.808C224.723 56.454 224.153 56.967 223.279 57.347C222.443 57.689 221.322 57.898 219.916 57.974C218.51 58.012 216.781 58.031 214.729 58.031C214.691 57.385 214.539 56.682 214.273 55.922C214.045 55.162 213.76 54.478 213.418 53.87C215.052 53.908 216.477 53.946 217.693 53.984C218.909 53.984 219.726 53.965 220.144 53.927C220.562 53.889 220.828 53.813 220.942 53.699C221.094 53.585 221.17 53.357 221.17 53.015V38.423ZM177.907 17.39L180.814 14.369C182.03 15.205 183.265 16.136 184.519 17.162C185.811 18.15 187.008 19.157 188.11 20.183C189.25 21.209 190.162 22.14 190.846 22.976L187.711 26.396C187.103 25.522 186.248 24.553 185.146 23.489C184.044 22.425 182.866 21.361 181.612 20.297C180.358 19.195 179.123 18.226 177.907 17.39ZM176.995 55.979C178.097 54.573 179.313 52.901 180.643 50.963C181.973 49.025 183.322 46.973 184.69 44.807C186.058 42.603 187.331 40.475 188.509 38.423L191.701 41.273C190.637 43.211 189.478 45.225 188.224 47.315C186.97 49.367 185.697 51.4 184.405 53.414C183.151 55.39 181.935 57.252 180.757 59L176.995 55.979ZM248.131 16.706H285.865V20.525H248.131V16.706ZM264.889 11.12H269.05V63.503H264.889V11.12ZM270.532 43.382C271.71 45.396 273.192 47.372 274.978 49.31C276.802 51.248 278.759 53.015 280.849 54.611C282.977 56.169 285.067 57.461 287.119 58.487C286.815 58.715 286.454 59.038 286.036 59.456C285.656 59.874 285.295 60.292 284.953 60.71C284.611 61.166 284.326 61.565 284.098 61.907C282.008 60.729 279.918 59.228 277.828 57.404C275.738 55.58 273.781 53.566 271.957 51.362C270.133 49.12 268.594 46.859 267.34 44.579L270.532 43.382ZM262.894 43.382L266.428 44.693C265.06 47.125 263.35 49.462 261.298 51.704C259.246 53.908 257.023 55.903 254.629 57.689C252.273 59.475 249.879 60.938 247.447 62.078C247.257 61.736 246.991 61.356 246.649 60.938C246.307 60.52 245.946 60.102 245.566 59.684C245.224 59.266 244.901 58.924 244.597 58.658C246.953 57.708 249.29 56.454 251.608 54.896C253.926 53.3 256.073 51.514 258.049 49.538C260.025 47.524 261.64 45.472 262.894 43.382ZM254.971 36.941V42.014H279.253V36.941H254.971ZM254.971 28.676V33.749H279.253V28.676H254.971ZM251.095 25.37H283.357V45.377H251.095V25.37ZM234.793 17.675L237.7 14.939C238.802 15.775 239.942 16.725 241.12 17.789C242.298 18.815 243.381 19.86 244.369 20.924C245.395 21.95 246.193 22.9 246.763 23.774L243.685 26.852C243.115 25.978 242.336 25.009 241.348 23.945C240.398 22.843 239.334 21.741 238.156 20.639C237.016 19.537 235.895 18.549 234.793 17.675ZM234.166 54.326C235.116 52.92 236.18 51.248 237.358 49.31C238.536 47.334 239.714 45.263 240.892 43.097C242.108 40.893 243.21 38.746 244.198 36.656L247.447 39.392C246.497 41.33 245.471 43.344 244.369 45.434C243.305 47.524 242.203 49.576 241.063 51.59C239.961 53.604 238.897 55.466 237.871 57.176L234.166 54.326ZM305.53 30.044H309.805V37.796C309.805 39.962 309.653 42.185 309.349 44.465C309.045 46.745 308.399 49.025 307.411 51.305C306.461 53.585 304.979 55.789 302.965 57.917C300.989 60.007 298.329 61.945 294.985 63.731C294.795 63.389 294.51 63.028 294.13 62.648C293.75 62.268 293.351 61.888 292.933 61.508C292.553 61.128 292.192 60.824 291.85 60.596C294.966 58.962 297.436 57.214 299.26 55.352C301.122 53.452 302.49 51.495 303.364 49.481C304.276 47.467 304.865 45.472 305.131 43.496C305.397 41.482 305.53 39.544 305.53 37.682V30.044ZM325.537 29.474H329.926V63.617H325.537V29.474ZM291.964 38.138H343.093V42.185H291.964V38.138ZM293.56 24.401C296.106 24.401 299.032 24.382 302.338 24.344C305.644 24.268 309.178 24.192 312.94 24.116C316.702 24.002 320.597 23.907 324.625 23.831C328.653 23.717 332.662 23.603 336.652 23.489L336.481 27.194C331.389 27.422 326.259 27.65 321.091 27.878C315.923 28.068 311.021 28.239 306.385 28.391C301.749 28.543 297.645 28.676 294.073 28.79L293.56 24.401ZM309.919 10.835L314.65 11.975C313.738 13.723 312.712 15.528 311.572 17.39C310.47 19.252 309.368 21.057 308.266 22.805C307.164 24.515 306.1 26.016 305.074 27.308L301.426 26.111C302.414 24.781 303.44 23.223 304.504 21.437C305.568 19.651 306.575 17.827 307.525 15.965C308.475 14.103 309.273 12.393 309.919 10.835ZM322.63 16.991L325.993 14.654C328.045 16.098 330.173 17.694 332.377 19.442C334.581 21.152 336.633 22.881 338.533 24.629C340.471 26.377 342.029 27.973 343.207 29.417L339.559 32.039C338.457 30.595 336.975 28.999 335.113 27.251C333.251 25.465 331.218 23.679 329.014 21.893C326.848 20.069 324.72 18.435 322.63 16.991ZM372.106 11.12H376.78V33.578H372.106V11.12ZM352.897 15.167L356.773 13.628C357.837 14.958 358.863 16.402 359.851 17.96C360.839 19.48 361.732 21 362.53 22.52C363.328 24.002 363.936 25.351 364.354 26.567L360.25 28.448C359.832 27.194 359.243 25.807 358.483 24.287C357.723 22.729 356.849 21.152 355.861 19.556C354.911 17.96 353.923 16.497 352.897 15.167ZM391.657 13.115L396.274 14.654C395.438 16.288 394.545 17.96 393.595 19.67C392.683 21.342 391.752 22.976 390.802 24.572C389.852 26.168 388.94 27.574 388.066 28.79L384.361 27.365C385.197 26.073 386.071 24.61 386.983 22.976C387.895 21.304 388.769 19.613 389.605 17.903C390.441 16.155 391.125 14.559 391.657 13.115ZM353.695 31.298H395.533V63.617H391.03V35.573H353.695V31.298ZM355.576 43.838H392.74V47.942H355.576V43.838ZM352.555 56.834H393.31V61.109H352.555V56.834Z" fill="white"/>
<rect width="513" height="77" transform="translate(0 93)" fill="#F36A27"/>
<path d="M9.985 107.939H54.901V112.214H9.985V107.939ZM6.964 132.164H58.093V136.439H6.964V132.164ZM13.918 116.09L17.794 114.95C18.554 116.318 19.295 117.781 20.017 119.339C20.739 120.897 21.385 122.436 21.955 123.956C22.563 125.438 22.981 126.73 23.209 127.832L19.162 129.257C18.896 128.117 18.478 126.806 17.908 125.324C17.376 123.804 16.768 122.246 16.084 120.65C15.4 119.016 14.678 117.496 13.918 116.09ZM47.035 114.665L51.538 115.919C50.854 117.477 50.094 119.073 49.258 120.707C48.46 122.341 47.662 123.918 46.864 125.438C46.066 126.958 45.287 128.288 44.527 129.428L40.822 128.231C41.544 127.015 42.285 125.628 43.045 124.07C43.843 122.474 44.584 120.859 45.268 119.225C45.952 117.553 46.541 116.033 47.035 114.665ZM30.163 109.592H34.609V156.503H30.163V109.592ZM85.966 125.096H103.693V129.029H85.966V125.096ZM83.344 143.507C85.092 142.899 87.106 142.196 89.386 141.398C91.666 140.6 94.098 139.726 96.682 138.776C99.266 137.826 101.831 136.876 104.377 135.926L105.118 139.631C101.66 140.999 98.145 142.386 94.573 143.792C91.039 145.198 87.885 146.433 85.111 147.497L83.344 143.507ZM88.36 113.582H111.844V117.686H88.36V113.582ZM110.476 113.582H114.751C114.751 113.582 114.751 113.734 114.751 114.038C114.751 114.304 114.751 114.627 114.751 115.007C114.751 115.387 114.732 115.672 114.694 115.862C114.504 122.436 114.295 128.022 114.067 132.62C113.839 137.18 113.573 140.923 113.269 143.849C112.965 146.737 112.604 148.998 112.186 150.632C111.806 152.266 111.331 153.425 110.761 154.109C110.115 154.945 109.431 155.515 108.709 155.819C107.987 156.161 107.113 156.389 106.087 156.503C105.099 156.617 103.788 156.655 102.154 156.617C100.52 156.617 98.848 156.56 97.138 156.446C97.1 155.8 96.948 155.059 96.682 154.223C96.454 153.425 96.131 152.722 95.713 152.114C97.613 152.304 99.361 152.399 100.957 152.399C102.591 152.437 103.75 152.456 104.434 152.456C105.004 152.494 105.46 152.437 105.802 152.285C106.182 152.171 106.543 151.924 106.885 151.544C107.341 151.05 107.74 150.043 108.082 148.523C108.462 146.965 108.785 144.742 109.051 141.854C109.355 138.966 109.621 135.299 109.849 130.853C110.077 126.369 110.286 120.935 110.476 114.551V113.582ZM89.899 104.12L94.231 105.089C93.395 107.977 92.388 110.808 91.21 113.582C90.07 116.318 88.797 118.883 87.391 121.277C86.023 123.633 84.579 125.723 83.059 127.547C82.793 127.281 82.432 126.977 81.976 126.635C81.52 126.293 81.045 125.951 80.551 125.609C80.095 125.267 79.677 125.001 79.297 124.811C81.653 122.303 83.724 119.225 85.51 115.577C87.334 111.929 88.797 108.11 89.899 104.12ZM63.964 117.401H82.033V121.448H63.964V117.401ZM71.146 104.462H75.307V141.74H71.146V104.462ZM62.938 142.823C64.572 142.215 66.434 141.512 68.524 140.714C70.652 139.878 72.913 138.985 75.307 138.035C77.701 137.085 80.076 136.116 82.432 135.128L83.344 139.175C80.076 140.581 76.77 141.987 73.426 143.393C70.12 144.799 67.137 146.034 64.477 147.098L62.938 142.823ZM141.655 125.894C143.479 126.958 145.398 128.136 147.412 129.428C149.426 130.72 151.421 132.069 153.397 133.475C155.411 134.843 157.33 136.192 159.154 137.522C160.978 138.852 162.593 140.106 163.999 141.284L160.636 145.217C159.344 144.039 157.786 142.747 155.962 141.341C154.176 139.897 152.276 138.453 150.262 137.009C148.248 135.527 146.234 134.102 144.22 132.734C142.206 131.366 140.325 130.131 138.577 129.029L141.655 125.894ZM167.761 115.463C167.495 115.881 167.248 116.394 167.02 117.002C166.792 117.572 166.583 118.085 166.393 118.541C165.861 120.479 165.101 122.569 164.113 124.811C163.125 127.053 161.966 129.314 160.636 131.594C159.306 133.836 157.786 136.002 156.076 138.092C153.53 141.246 150.338 144.286 146.5 147.212C142.7 150.1 138.102 152.532 132.706 154.508L128.602 150.974C132.136 149.872 135.347 148.523 138.235 146.927C141.161 145.293 143.783 143.507 146.101 141.569C148.419 139.631 150.433 137.636 152.143 135.584C153.625 133.836 154.974 131.917 156.19 129.827C157.444 127.737 158.527 125.666 159.439 123.614C160.351 121.524 161.016 119.586 161.434 117.8H140.287L142.111 113.753H160.237C160.997 113.753 161.7 113.715 162.346 113.639C162.992 113.525 163.543 113.373 163.999 113.183L167.761 115.463ZM148.552 107.255C148.058 108.015 147.583 108.813 147.127 109.649C146.671 110.485 146.291 111.169 145.987 111.701C144.847 113.791 143.365 116.09 141.541 118.598C139.755 121.068 137.646 123.538 135.214 126.008C132.82 128.478 130.103 130.777 127.063 132.905L123.244 129.941C126.512 127.927 129.343 125.704 131.737 123.272C134.131 120.84 136.145 118.465 137.779 116.147C139.413 113.829 140.667 111.815 141.541 110.105C141.845 109.611 142.187 108.927 142.567 108.053C142.947 107.141 143.213 106.324 143.365 105.602L148.552 107.255ZM187.939 110.219C188.965 110.903 190.143 111.758 191.473 112.784C192.803 113.772 194.152 114.836 195.52 115.976C196.926 117.078 198.237 118.161 199.453 119.225C200.669 120.289 201.676 121.22 202.474 122.018L198.883 125.609C198.161 124.887 197.23 123.994 196.09 122.93C194.95 121.866 193.696 120.764 192.328 119.624C190.96 118.446 189.611 117.344 188.281 116.318C186.951 115.254 185.754 114.38 184.69 113.696L187.939 110.219ZM183.037 148.409C186.381 147.915 189.421 147.231 192.157 146.357C194.931 145.483 197.458 144.495 199.738 143.393C202.018 142.291 204.051 141.189 205.837 140.087C208.763 138.263 211.461 136.173 213.931 133.817C216.401 131.423 218.567 128.953 220.429 126.407C222.291 123.861 223.773 121.429 224.875 119.111L227.611 123.956C226.319 126.312 224.723 128.706 222.823 131.138C220.923 133.57 218.776 135.907 216.382 138.149C213.988 140.391 211.347 142.424 208.459 144.248C206.559 145.426 204.469 146.585 202.189 147.725C199.947 148.865 197.477 149.91 194.779 150.86C192.119 151.772 189.212 152.513 186.058 153.083L183.037 148.409ZM276.631 112.271C276.631 113.297 276.992 114.19 277.714 114.95C278.436 115.672 279.329 116.033 280.393 116.033C281.419 116.033 282.293 115.672 283.015 114.95C283.775 114.19 284.155 113.297 284.155 112.271C284.155 111.207 283.775 110.314 283.015 109.592C282.293 108.832 281.419 108.452 280.393 108.452C279.329 108.452 278.436 108.832 277.714 109.592C276.992 110.314 276.631 111.207 276.631 112.271ZM274.009 112.271C274.009 111.093 274.294 110.029 274.864 109.079C275.434 108.091 276.194 107.312 277.144 106.742C278.132 106.134 279.215 105.83 280.393 105.83C281.533 105.83 282.597 106.134 283.585 106.742C284.573 107.312 285.352 108.091 285.922 109.079C286.492 110.029 286.777 111.093 286.777 112.271C286.777 113.449 286.492 114.513 285.922 115.463C285.352 116.413 284.573 117.192 283.585 117.8C282.597 118.37 281.533 118.655 280.393 118.655C279.215 118.655 278.132 118.37 277.144 117.8C276.194 117.192 275.434 116.413 274.864 115.463C274.294 114.513 274.009 113.449 274.009 112.271ZM244.426 134.843C245.034 133.361 245.623 131.746 246.193 129.998C246.801 128.25 247.352 126.445 247.846 124.583C248.378 122.683 248.834 120.821 249.214 118.997C249.594 117.135 249.86 115.368 250.012 113.696L255.085 114.779C255.009 115.197 254.895 115.653 254.743 116.147C254.591 116.603 254.458 117.078 254.344 117.572C254.23 118.066 254.135 118.522 254.059 118.94C253.869 119.814 253.603 120.954 253.261 122.36C252.919 123.766 252.52 125.305 252.064 126.977C251.608 128.649 251.114 130.34 250.582 132.05C250.05 133.722 249.48 135.28 248.872 136.724C248.188 138.472 247.39 140.277 246.478 142.139C245.604 143.963 244.654 145.749 243.628 147.497C242.602 149.245 241.557 150.879 240.493 152.399L235.648 150.347C237.434 147.953 239.087 145.369 240.607 142.595C242.165 139.783 243.438 137.199 244.426 134.843ZM272.47 132.677C271.9 131.195 271.273 129.637 270.589 128.003C269.905 126.369 269.183 124.735 268.423 123.101C267.663 121.429 266.922 119.871 266.2 118.427C265.516 116.945 264.851 115.691 264.205 114.665L268.822 113.126C269.392 114.114 270.019 115.33 270.703 116.774C271.425 118.218 272.166 119.757 272.926 121.391C273.686 123.025 274.427 124.678 275.149 126.35C275.871 128.022 276.536 129.618 277.144 131.138C277.714 132.544 278.322 134.121 278.968 135.869C279.614 137.579 280.241 139.327 280.849 141.113C281.495 142.861 282.084 144.571 282.616 146.243C283.148 147.877 283.604 149.34 283.984 150.632L278.911 152.285C278.455 150.347 277.866 148.257 277.144 146.015C276.46 143.735 275.719 141.455 274.921 139.175C274.123 136.857 273.306 134.691 272.47 132.677ZM338.704 116.375C338.438 116.755 338.191 117.249 337.963 117.857C337.735 118.427 337.545 118.94 337.393 119.396C336.899 121.296 336.177 123.386 335.227 125.666C334.277 127.908 333.137 130.188 331.807 132.506C330.477 134.786 328.957 136.952 327.247 139.004C324.663 142.158 321.566 145.046 317.956 147.668C314.384 150.252 309.919 152.532 304.561 154.508L300.457 150.803C303.953 149.777 307.088 148.542 309.862 147.098C312.636 145.616 315.125 143.982 317.329 142.196C319.533 140.41 321.49 138.51 323.2 136.496C324.682 134.748 326.031 132.829 327.247 130.739C328.501 128.649 329.565 126.559 330.439 124.469C331.313 122.341 331.94 120.422 332.32 118.712H311.173L312.997 114.608C313.453 114.608 314.308 114.608 315.562 114.608C316.816 114.608 318.241 114.608 319.837 114.608C321.471 114.608 323.086 114.608 324.682 114.608C326.278 114.608 327.665 114.608 328.843 114.608C330.059 114.608 330.838 114.608 331.18 114.608C331.94 114.608 332.643 114.57 333.289 114.494C333.935 114.38 334.467 114.228 334.885 114.038L338.704 116.375ZM319.609 107.711C319.115 108.471 318.64 109.288 318.184 110.162C317.728 110.998 317.367 111.682 317.101 112.214C315.961 114.304 314.536 116.565 312.826 118.997C311.116 121.391 309.083 123.766 306.727 126.122C304.371 128.478 301.654 130.682 298.576 132.734L294.643 129.77C297.113 128.326 299.317 126.749 301.255 125.039C303.193 123.329 304.884 121.6 306.328 119.852C307.81 118.104 309.064 116.432 310.09 114.836C311.116 113.24 311.933 111.796 312.541 110.504C312.845 110.01 313.168 109.326 313.51 108.452C313.89 107.54 314.156 106.723 314.308 106.001L319.609 107.711ZM369.883 104.234L372.733 106.913C371.213 107.369 369.465 107.768 367.489 108.11C365.513 108.452 363.48 108.756 361.39 109.022C359.338 109.25 357.343 109.44 355.405 109.592C355.367 109.212 355.234 108.756 355.006 108.224C354.816 107.654 354.607 107.179 354.379 106.799C356.203 106.609 358.084 106.4 360.022 106.172C361.96 105.906 363.784 105.602 365.494 105.26C367.242 104.918 368.705 104.576 369.883 104.234ZM394.336 104.348L397.186 107.027C395.552 107.445 393.69 107.825 391.6 108.167C389.51 108.509 387.344 108.794 385.102 109.022C382.898 109.25 380.77 109.44 378.718 109.592C378.642 109.174 378.509 108.718 378.319 108.224C378.129 107.692 377.92 107.217 377.692 106.799C379.668 106.647 381.682 106.438 383.734 106.172C385.824 105.906 387.8 105.621 389.662 105.317C391.524 105.013 393.082 104.69 394.336 104.348ZM353.239 105.659L358.198 107.027C358.122 107.407 357.742 107.654 357.058 107.768V111.473C357.058 112.879 356.906 114.437 356.602 116.147C356.336 117.857 355.785 119.567 354.949 121.277C354.151 122.949 352.954 124.526 351.358 126.008C351.206 125.704 350.959 125.381 350.617 125.039C350.275 124.697 349.914 124.374 349.534 124.07C349.154 123.728 348.812 123.462 348.508 123.272C349.876 122.018 350.883 120.707 351.529 119.339C352.213 117.971 352.669 116.603 352.897 115.235C353.125 113.829 353.239 112.518 353.239 111.302V105.659ZM376.552 105.773L381.454 107.027C381.416 107.407 381.055 107.635 380.371 107.711V111.017C380.371 112.271 380.2 113.658 379.858 115.178C379.516 116.66 378.87 118.142 377.92 119.624C376.97 121.068 375.583 122.417 373.759 123.671C373.569 123.329 373.322 122.987 373.018 122.645C372.714 122.265 372.391 121.904 372.049 121.562C371.707 121.22 371.384 120.954 371.08 120.764C372.638 119.776 373.797 118.731 374.557 117.629C375.355 116.489 375.887 115.349 376.153 114.209C376.419 113.069 376.552 111.967 376.552 110.903V105.773ZM354.949 112.385H374.272V115.691H354.949V112.385ZM378.262 112.385H400.036V115.691H378.262V112.385ZM363.727 113.582H367.546V122.873H363.727V113.582ZM387.667 113.582H391.543V122.987H387.667V113.582ZM360.307 133.646V137.636H389.206V133.646H360.307ZM360.307 140.429V144.476H389.206V140.429H360.307ZM360.307 126.92V130.853H389.206V126.92H360.307ZM356.146 124.013H393.481V147.383H356.146V124.013ZM379.288 150.347L382.765 148.181C384.855 148.827 386.964 149.511 389.092 150.233C391.22 150.955 393.234 151.677 395.134 152.399C397.034 153.159 398.668 153.862 400.036 154.508L395.248 156.674C394.07 156.066 392.626 155.401 390.916 154.679C389.206 153.957 387.363 153.216 385.387 152.456C383.411 151.734 381.378 151.031 379.288 150.347ZM365.836 148.01L369.769 149.777C368.211 150.689 366.425 151.582 364.411 152.456C362.435 153.33 360.383 154.128 358.255 154.85C356.127 155.572 354.113 156.199 352.213 156.731C351.985 156.427 351.681 156.066 351.301 155.648C350.921 155.268 350.522 154.869 350.104 154.451C349.724 154.071 349.363 153.767 349.021 153.539C350.997 153.121 353.011 152.627 355.063 152.057C357.153 151.487 359.129 150.86 360.991 150.176C362.853 149.492 364.468 148.77 365.836 148.01ZM421.055 152.567C419.355 152.54 417.655 152.216 415.955 151.595C414.254 150.974 412.702 149.929 411.299 148.458C409.896 146.973 408.769 144.969 407.919 142.446C407.069 139.909 406.643 136.724 406.643 132.892C406.643 129.222 406.988 125.969 407.676 123.136C408.364 120.288 409.363 117.893 410.672 115.95C411.98 113.993 413.559 112.509 415.408 111.497C417.27 110.485 419.369 109.979 421.703 109.979C424.024 109.979 426.089 110.444 427.897 111.375C429.719 112.293 431.203 113.575 432.35 115.221C433.497 116.868 434.239 118.763 434.577 120.909H429.638C429.179 119.047 428.288 117.502 426.966 116.274C425.643 115.046 423.889 114.432 421.703 114.432C418.491 114.432 415.961 115.828 414.113 118.622C412.277 121.415 411.353 125.335 411.339 130.382H411.663C412.419 129.235 413.316 128.257 414.355 127.447C415.408 126.624 416.569 125.99 417.837 125.544C419.105 125.099 420.448 124.876 421.865 124.876C424.24 124.876 426.413 125.47 428.383 126.658C430.353 127.832 431.932 129.458 433.119 131.536C434.307 133.6 434.901 135.969 434.901 138.641C434.901 141.205 434.327 143.553 433.18 145.685C432.033 147.803 430.42 149.49 428.342 150.745C426.278 151.987 423.849 152.594 421.055 152.567ZM421.055 148.114C422.756 148.114 424.281 147.689 425.63 146.838C426.993 145.988 428.066 144.848 428.848 143.418C429.645 141.987 430.043 140.395 430.043 138.641C430.043 136.927 429.658 135.368 428.889 133.965C428.133 132.548 427.087 131.421 425.751 130.585C424.429 129.748 422.918 129.33 421.217 129.33C419.935 129.33 418.741 129.586 417.635 130.099C416.528 130.598 415.556 131.286 414.72 132.163C413.897 133.04 413.249 134.046 412.777 135.179C412.304 136.299 412.068 137.48 412.068 138.722C412.068 140.368 412.453 141.906 413.222 143.337C414.005 144.767 415.071 145.921 416.42 146.798C417.783 147.675 419.328 148.114 421.055 148.114ZM456.382 152.567C453.332 152.567 450.734 151.737 448.589 150.077C446.443 148.404 444.804 145.982 443.67 142.81C442.537 139.626 441.97 135.78 441.97 131.273C441.97 126.793 442.537 122.967 443.67 119.796C444.817 116.611 446.464 114.182 448.609 112.509C450.768 110.822 453.359 109.979 456.382 109.979C459.405 109.979 461.989 110.822 464.134 112.509C466.293 114.182 467.94 116.611 469.073 119.796C470.22 122.967 470.794 126.793 470.794 131.273C470.794 135.78 470.227 139.626 469.093 142.81C467.96 145.982 466.32 148.404 464.175 150.077C462.029 151.737 459.432 152.567 456.382 152.567ZM456.382 148.114C459.405 148.114 461.753 146.656 463.426 143.741C465.099 140.827 465.936 136.67 465.936 131.273C465.936 127.683 465.551 124.627 464.782 122.103C464.026 119.58 462.933 117.657 461.503 116.335C460.086 115.012 458.379 114.351 456.382 114.351C453.386 114.351 451.045 115.828 449.358 118.784C447.671 121.725 446.828 125.888 446.828 131.273C446.828 134.862 447.206 137.912 447.961 140.422C448.717 142.932 449.803 144.841 451.22 146.15C452.651 147.459 454.371 148.114 456.382 148.114ZM491.116 164.307C488.809 164.307 486.825 164.01 485.165 163.416C483.505 162.836 482.122 162.067 481.016 161.109C479.923 160.164 479.052 159.152 478.405 158.072L482.21 155.401C482.642 155.967 483.188 156.615 483.85 157.344C484.511 158.086 485.415 158.727 486.562 159.267C487.722 159.82 489.241 160.097 491.116 160.097C493.626 160.097 495.698 159.489 497.33 158.275C498.963 157.06 499.78 155.158 499.78 152.567V146.251H499.375C499.024 146.818 498.525 147.52 497.877 148.357C497.243 149.18 496.325 149.915 495.124 150.563C493.937 151.197 492.331 151.514 490.307 151.514C487.797 151.514 485.543 150.92 483.546 149.733C481.562 148.545 479.99 146.818 478.83 144.551C477.683 142.284 477.109 139.531 477.109 136.293C477.109 133.108 477.669 130.335 478.789 127.973C479.909 125.598 481.468 123.763 483.465 122.468C485.462 121.159 487.77 120.504 490.388 120.504C492.412 120.504 494.017 120.842 495.205 121.516C496.406 122.178 497.324 122.933 497.958 123.783C498.606 124.62 499.105 125.308 499.456 125.848H499.941V120.909H504.557V152.891C504.557 155.562 503.949 157.735 502.735 159.408C501.534 161.095 499.915 162.33 497.877 163.113C495.853 163.909 493.599 164.307 491.116 164.307ZM490.954 147.223C492.87 147.223 494.49 146.784 495.812 145.907C497.135 145.03 498.14 143.768 498.828 142.122C499.516 140.476 499.861 138.506 499.861 136.212C499.861 133.972 499.523 131.995 498.848 130.281C498.174 128.567 497.175 127.224 495.853 126.253C494.53 125.281 492.897 124.795 490.954 124.795C488.93 124.795 487.243 125.308 485.894 126.334C484.558 127.359 483.553 128.736 482.878 130.463C482.217 132.19 481.886 134.107 481.886 136.212C481.886 138.371 482.223 140.28 482.898 141.94C483.586 143.586 484.598 144.882 485.934 145.826C487.284 146.757 488.957 147.223 490.954 147.223Z" fill="white"/>
<rect width="407" height="77" transform="translate(0 186)" fill="#F36A27"/>
<path d="M19.447 244.316H49.6V247.679H19.447V244.316ZM30.277 208.634H34.438V214.961H30.277V208.634ZM8.674 213.137H56.782V223.853H52.621V216.5H12.721V223.853H8.674V213.137ZM19.219 220.034H48.46V231.491H19.219V228.242H44.185V223.34H19.219V220.034ZM19.39 235.424H52.108V249.503H47.833V238.787H19.39V235.424ZM16.939 220.034H20.986V249.617H16.939V220.034ZM13.348 201.509H31.759V204.986H13.348V201.509ZM35.521 201.509H58.549V204.986H35.521V201.509ZM14.431 196.835L18.421 197.918C17.395 200.388 16.084 202.801 14.488 205.157C12.93 207.513 11.334 209.489 9.7 211.085C9.434 210.895 9.073 210.648 8.617 210.344C8.199 210.04 7.762 209.736 7.306 209.432C6.888 209.128 6.508 208.9 6.166 208.748C7.838 207.266 9.415 205.48 10.897 203.39C12.379 201.262 13.557 199.077 14.431 196.835ZM36.832 196.835L40.936 197.861C39.91 200.293 38.561 202.611 36.889 204.815C35.217 207.019 33.469 208.862 31.645 210.344C31.379 210.154 31.018 209.926 30.562 209.66C30.144 209.356 29.688 209.071 29.194 208.805C28.738 208.539 28.32 208.33 27.94 208.178C29.84 206.81 31.569 205.138 33.127 203.162C34.723 201.148 35.958 199.039 36.832 196.835ZM16.483 204.188L20.188 203.219C20.872 204.207 21.537 205.328 22.183 206.582C22.829 207.798 23.304 208.843 23.608 209.717L19.675 210.857C19.447 209.983 19.029 208.919 18.421 207.665C17.813 206.373 17.167 205.214 16.483 204.188ZM40.708 204.245L44.413 203.105C45.325 204.093 46.218 205.214 47.092 206.468C48.004 207.684 48.688 208.767 49.144 209.717L45.268 211.028C44.85 210.078 44.204 208.976 43.33 207.722C42.456 206.43 41.582 205.271 40.708 204.245ZM88.132 214.22V221.573H109.279V214.22H88.132ZM88.132 203.504V210.743H109.279V203.504H88.132ZM84.199 199.742H113.383V225.278H84.199V199.742ZM83.515 232.004H114.181V235.88H83.515V232.004ZM79.126 243.746H116.119V247.679H79.126V243.746ZM63.622 200.939H81.406V204.986H63.622V200.939ZM64.192 217.469H80.551V221.459H64.192V217.469ZM62.995 239.3C64.553 238.844 66.301 238.331 68.239 237.761C70.215 237.153 72.286 236.488 74.452 235.766C76.656 235.006 78.86 234.265 81.064 233.543L81.805 237.704C78.727 238.73 75.63 239.775 72.514 240.839C69.398 241.865 66.586 242.796 64.078 243.632L62.995 239.3ZM70.69 202.535H74.794V237.875L70.69 238.673V202.535ZM96.853 201.509H100.558V223.454H100.9V245.513H96.511V223.454H96.853V201.509ZM122.902 223.625H170.668V227.558H122.902V223.625ZM144.22 215.417H148.609V249.731H144.22V215.417ZM142.966 225.677L146.5 227.159C144.752 230.009 142.605 232.745 140.059 235.367C137.551 237.951 134.815 240.269 131.851 242.321C128.887 244.335 125.885 245.988 122.845 247.28C122.617 246.9 122.313 246.482 121.933 246.026C121.591 245.608 121.23 245.19 120.85 244.772C120.508 244.316 120.166 243.936 119.824 243.632C122.826 242.53 125.79 241.067 128.716 239.243C131.68 237.381 134.397 235.291 136.867 232.973C139.337 230.655 141.37 228.223 142.966 225.677ZM149.92 225.62C151.516 228.166 153.568 230.598 156.076 232.916C158.584 235.234 161.32 237.324 164.284 239.186C167.248 241.01 170.212 242.473 173.176 243.575C172.834 243.879 172.473 244.259 172.093 244.715C171.713 245.133 171.333 245.57 170.953 246.026C170.611 246.482 170.326 246.919 170.098 247.337C167.096 246.045 164.094 244.354 161.092 242.264C158.128 240.174 155.373 237.837 152.827 235.253C150.319 232.631 148.172 229.895 146.386 227.045L149.92 225.62ZM122.845 208.976H170.611V220.49H166.336V212.966H127.006V220.49H122.845V208.976ZM163.372 197.633L167.989 199.229C166.697 201.129 165.291 203.086 163.771 205.1C162.251 207.076 160.845 208.748 159.553 210.116L156.019 208.691C156.855 207.703 157.729 206.563 158.641 205.271C159.553 203.979 160.427 202.668 161.263 201.338C162.099 199.97 162.802 198.735 163.372 197.633ZM125.98 199.856L129.628 198.089C130.844 199.495 132.022 201.053 133.162 202.763C134.34 204.435 135.157 205.917 135.613 207.209L131.794 209.147C131.452 208.311 130.958 207.361 130.312 206.297C129.704 205.195 129.02 204.074 128.26 202.934C127.538 201.794 126.778 200.768 125.98 199.856ZM141.142 198.488L144.904 197.291C145.854 198.811 146.728 200.483 147.526 202.307C148.362 204.131 148.932 205.708 149.236 207.038L145.189 208.406C144.999 207.532 144.695 206.525 144.277 205.385C143.859 204.245 143.384 203.086 142.852 201.908C142.32 200.692 141.75 199.552 141.142 198.488ZM181.384 202.934H225.445V206.297H181.384V202.934ZM184.576 209.546H222.367V212.795H184.576V209.546ZM178.192 216.044H228.751V219.407H178.192V216.044ZM191.188 229.952H215.185V232.574H191.188V229.952ZM201.22 204.587H205.609V217.754H201.22V204.587ZM201.334 220.832H205.438V225.905H201.334V220.832ZM189.193 198.317L192.898 197.006C193.734 197.842 194.532 198.811 195.292 199.913C196.052 201.015 196.622 201.984 197.002 202.82L193.069 204.416C192.727 203.542 192.176 202.535 191.416 201.395C190.694 200.255 189.953 199.229 189.193 198.317ZM213.532 197.006L218.092 198.146C217.332 199.286 216.553 200.388 215.755 201.452C214.995 202.478 214.273 203.371 213.589 204.131L209.998 202.991C210.606 202.155 211.252 201.167 211.936 200.027C212.62 198.849 213.152 197.842 213.532 197.006ZM213.247 216.956C214.387 218.59 215.831 220.148 217.579 221.63C219.365 223.074 221.322 224.366 223.45 225.506C225.578 226.608 227.763 227.482 230.005 228.128C229.549 228.508 229.055 229.04 228.523 229.724C227.991 230.37 227.573 230.959 227.269 231.491C224.951 230.693 222.69 229.629 220.486 228.299C218.32 226.931 216.306 225.392 214.444 223.682C212.62 221.972 211.1 220.148 209.884 218.21L213.247 216.956ZM204.07 236.735C205.552 238.483 207.528 240.003 209.998 241.295C212.506 242.549 215.375 243.575 218.605 244.373C221.873 245.171 225.331 245.722 228.979 246.026C228.561 246.444 228.124 246.995 227.668 247.679C227.212 248.401 226.851 249.047 226.585 249.617C222.823 249.161 219.27 248.42 215.926 247.394C212.62 246.368 209.656 245.057 207.034 243.461C204.45 241.827 202.341 239.889 200.707 237.647L204.07 236.735ZM191.644 223.967H218.149V238.559H191.644V235.652H213.874V226.931H191.644V223.967ZM188.851 223.967H193.069V246.368H188.851V223.967ZM182.296 245.228C184.386 245.076 186.799 244.905 189.535 244.715C192.309 244.525 195.254 244.297 198.37 244.031C201.524 243.765 204.678 243.499 207.832 243.233V246.71C204.83 247.014 201.828 247.299 198.826 247.565C195.824 247.869 192.955 248.135 190.219 248.363C187.483 248.591 184.994 248.819 182.752 249.047L182.296 245.228ZM221.797 237.476L224.989 239.414C223.317 240.478 221.455 241.485 219.403 242.435C217.351 243.385 215.47 244.183 213.76 244.829L211.252 243.119C212.354 242.625 213.551 242.055 214.843 241.409C216.135 240.725 217.389 240.041 218.605 239.357C219.859 238.673 220.923 238.046 221.797 237.476ZM193.525 216.956L197.515 218.153C196.185 220.167 194.551 222.067 192.613 223.853C190.713 225.601 188.661 227.178 186.457 228.584C184.253 229.99 182.049 231.206 179.845 232.232C179.655 231.966 179.37 231.643 178.99 231.263C178.648 230.845 178.268 230.446 177.85 230.066C177.47 229.648 177.128 229.325 176.824 229.097C179.066 228.223 181.232 227.178 183.322 225.962C185.45 224.708 187.388 223.321 189.136 221.801C190.922 220.281 192.385 218.666 193.525 216.956ZM238.213 242.15H283.072V246.425H238.213V242.15ZM235.021 215.246H286.15V219.464H235.021V215.246ZM258.106 197.291H262.666V245.342H258.106V197.291ZM293.56 222.599H317.956V226.019H293.56V222.599ZM322.003 219.863H341.269V223.511H322.003V219.863ZM324.682 197.348L328.501 198.089C327.627 201.737 326.449 205.214 324.967 208.52C323.523 211.826 321.908 214.619 320.122 216.899C319.894 216.671 319.571 216.424 319.153 216.158C318.773 215.854 318.374 215.55 317.956 215.246C317.576 214.942 317.215 214.695 316.873 214.505C318.735 212.453 320.312 209.907 321.604 206.867C322.934 203.827 323.96 200.654 324.682 197.348ZM293.56 199.286H317.443V202.649H297.493V223.967H293.56V199.286ZM295.612 206.924H316.417V218.039H295.612V215.018H312.769V209.945H295.612V206.924ZM304.333 200.426H307.867V208.577H304.333V200.426ZM304.333 215.93H307.867V224.024H304.333V215.93ZM324.055 205.727H342.694V209.432H322.63L324.055 205.727ZM291.565 244.145H343.492V247.964H291.565V244.145ZM297.949 230.066H337.279V246.197H333.118V233.543H325.252V246.197H321.319V233.543H313.624V246.197H309.634V233.543H301.939V246.197H297.949V230.066ZM385.786 222.998L389.035 224.366C387.895 225.544 386.508 226.665 384.874 227.729C383.278 228.793 381.568 229.743 379.744 230.579C377.92 231.415 376.096 232.137 374.272 232.745C374.006 232.327 373.626 231.89 373.132 231.434C372.676 230.94 372.258 230.522 371.878 230.18C373.588 229.648 375.317 229.021 377.065 228.299C378.813 227.577 380.447 226.76 381.967 225.848C383.487 224.936 384.76 223.986 385.786 222.998ZM391.258 228.527L394.45 229.838C393.006 231.434 391.239 232.897 389.149 234.227C387.097 235.519 384.836 236.678 382.366 237.704C379.934 238.692 377.426 239.547 374.842 240.269C374.614 239.851 374.291 239.376 373.873 238.844C373.455 238.274 373.037 237.799 372.619 237.419C375.051 236.849 377.445 236.146 379.801 235.31C382.157 234.436 384.323 233.429 386.299 232.289C388.313 231.111 389.966 229.857 391.258 228.527ZM396.559 234.74L400.264 236.336C398.402 238.578 396.008 240.554 393.082 242.264C390.156 243.936 386.869 245.342 383.221 246.482C379.611 247.66 375.792 248.61 371.764 249.332C371.536 248.838 371.213 248.249 370.795 247.565C370.377 246.881 369.959 246.311 369.541 245.855C373.379 245.285 377.027 244.506 380.485 243.518C383.943 242.53 387.059 241.314 389.833 239.87C392.645 238.388 394.887 236.678 396.559 234.74ZM378.205 197.063L382.138 198.089C380.77 201.471 379.041 204.701 376.951 207.779C374.861 210.819 372.676 213.384 370.396 215.474C370.168 215.246 369.845 214.98 369.427 214.676C369.047 214.334 368.648 214.011 368.23 213.707C367.812 213.365 367.432 213.118 367.09 212.966C369.408 211.028 371.536 208.672 373.474 205.898C375.45 203.086 377.027 200.141 378.205 197.063ZM376.951 203.333H400.15V206.924H374.785L376.951 203.333ZM392.341 204.131L396.388 205.043C394.83 208.653 392.74 211.788 390.118 214.448C387.534 217.07 384.532 219.293 381.112 221.117C377.73 222.941 374.063 224.48 370.111 225.734C369.959 225.392 369.731 225.012 369.427 224.594C369.123 224.176 368.8 223.758 368.458 223.34C368.116 222.922 367.831 222.58 367.603 222.314C371.441 221.326 374.975 220.034 378.205 218.438C381.473 216.804 384.304 214.809 386.698 212.453C389.13 210.097 391.011 207.323 392.341 204.131ZM376.552 205.556C377.73 207.836 379.44 210.059 381.682 212.225C383.962 214.391 386.793 216.31 390.175 217.982C393.595 219.654 397.528 220.908 401.974 221.744C401.708 222.01 401.423 222.352 401.119 222.77C400.815 223.188 400.53 223.606 400.264 224.024C399.998 224.442 399.77 224.841 399.58 225.221C395.134 224.195 391.22 222.751 387.838 220.889C384.456 219.027 381.606 216.956 379.288 214.676C376.97 212.358 375.165 210.021 373.873 207.665L376.552 205.556ZM363.67 203.903H367.489V240.098H363.67V203.903ZM359.281 197.462L363.214 198.545C362.15 201.851 360.877 205.119 359.395 208.349C357.951 211.579 356.355 214.619 354.607 217.469C352.897 220.319 351.111 222.865 349.249 225.107C349.135 224.765 348.945 224.328 348.679 223.796C348.413 223.226 348.128 222.675 347.824 222.143C347.52 221.573 347.254 221.098 347.026 220.718C348.66 218.818 350.237 216.633 351.757 214.163C353.315 211.655 354.721 208.976 355.975 206.126C357.267 203.276 358.369 200.388 359.281 197.462ZM354.721 211.37L358.654 207.437L358.768 207.551V249.56H354.721V211.37Z" fill="white"/>
</svg>
