<svg width="1248" height="641" viewBox="0 0 1248 641" fill="none" xmlns="http://www.w3.org/2000/svg">
<g clip-path="url(#clip0_1681_263)">
<mask id="mask0_1681_263" style="mask-type:luminance" maskUnits="userSpaceOnUse" x="0" y="0" width="1248" height="641">
<path d="M1247.55 0H0V641H1247.55V0Z" fill="white"/>
</mask>
<g mask="url(#mask0_1681_263)">
<mask id="mask1_1681_263" style="mask-type:luminance" maskUnits="userSpaceOnUse" x="0" y="0" width="1249" height="641">
<path d="M1248.05 0H0V641H1248.05V0Z" fill="white"/>
</mask>
<g mask="url(#mask1_1681_263)">
<mask id="mask2_1681_263" style="mask-type:luminance" maskUnits="userSpaceOnUse" x="1" y="33" width="1247" height="608">
<path d="M1.99683 33.9468H1247.94V640.945H1.99683V33.9468Z" fill="white"/>
</mask>
<g mask="url(#mask2_1681_263)">
<path d="M2.26172 589.526V84.6492C2.26172 56.7553 24.8749 34.1421 52.7611 34.1421H1196.62C1224.51 34.1421 1247.12 56.7553 1247.12 84.6492V589.526C1247.12 617.412 1224.51 640.025 1196.62 640.025H52.7611C24.8749 640.025 2.26172 617.412 2.26172 589.526Z" fill="#F36A27"/>
</g>
<path d="M197.994 162.48C195.763 164.789 194.016 167.161 192.752 169.594C192.081 170.842 191.512 172.09 191.036 173.338C179.429 163.877 169.172 153.268 160.272 141.513C151.364 129.766 143.774 116.295 137.495 101.107C137.495 105.062 137.495 109.555 137.495 114.586C137.495 119.625 137.51 124.852 137.557 130.281C137.596 135.694 137.635 141.107 137.682 146.536C137.744 151.95 137.775 157.012 137.775 161.732C143.282 161.732 148.743 161.661 154.156 161.513C159.585 161.373 164.999 161.107 170.412 160.733V172.059C164.811 171.856 159.32 171.677 153.938 171.529C148.571 171.388 143.181 171.31 137.775 171.31C137.877 176.24 137.947 180.889 137.994 185.257C138.033 189.602 138.158 193.471 138.368 196.864H126.169C126.27 193.658 126.34 189.883 126.387 185.538C126.426 181.193 126.496 176.451 126.605 171.31C121.379 171.31 116.2 171.388 111.067 171.529C105.95 171.677 100.63 171.856 95.1232 172.059V160.733C100.529 161.107 105.841 161.373 111.067 161.513C116.309 161.661 121.535 161.732 126.761 161.732C126.761 157.2 126.777 152.27 126.824 146.942C126.863 141.622 126.902 136.256 126.949 130.842C127.011 125.437 127.042 120.171 127.042 115.054C127.042 109.922 127.042 105.273 127.042 101.107C122.112 115.522 115.412 128.705 106.949 140.639C98.4774 152.582 87.6739 163.728 74.5304 174.087C74.1325 172.925 73.6021 171.708 72.9391 170.437C72.3541 169.376 71.6442 168.221 70.8174 166.973C70.0062 165.71 69.0155 164.501 67.8533 163.354C73.9453 159.282 79.5538 154.758 84.6708 149.781C89.8034 144.789 94.4524 139.54 98.6178 134.025C102.775 128.518 106.426 122.855 109.569 117.051C112.705 111.248 115.287 105.593 117.307 100.078C109.569 100.078 101.777 100.156 93.9376 100.296C86.1138 100.444 78.5709 100.608 71.3166 100.795V89.3444C80.2168 89.7422 89.2886 90.0153 98.5242 90.1557C107.76 90.3039 117.214 90.3741 126.886 90.3741C126.886 85.5301 126.808 81.8483 126.668 79.3288C126.52 76.8171 126.356 75.2258 126.169 74.555C125.981 73.6814 125.779 72.9169 125.576 72.2461C125.389 71.5597 125.295 71.0761 125.295 70.7796C125.295 70.3038 125.677 70.062 126.449 70.062H126.761C128.696 70.1478 130.701 70.3116 132.783 70.5612C134.858 70.8108 136.871 71.1229 138.805 71.4973C139.57 71.6065 139.96 71.9887 139.96 72.6517C139.96 73.6346 139.616 74.6018 138.93 75.5534C138.345 76.6143 138.002 77.6907 137.9 78.7672C137.814 79.828 137.775 80.9435 137.775 82.1057C137.775 82.9638 137.744 84.0714 137.682 85.4443C137.635 86.8015 137.619 88.4396 137.619 90.3741C147.393 90.3741 157.042 90.3039 166.574 90.1557C176.098 90.0153 185.404 89.7422 194.499 89.3444V100.795C190.833 100.608 187.089 100.499 183.267 100.452C179.437 100.39 175.498 100.319 171.442 100.234C167.385 100.132 163.368 100.062 159.398 100.015C155.42 99.9763 151.41 99.9529 147.354 99.9529C149.975 106.131 153.142 112.324 156.871 118.518C160.591 124.696 164.648 130.546 169.039 136.053C173.446 141.568 178.119 146.622 183.049 151.217C187.978 155.819 192.955 159.571 197.994 162.48Z" fill="#FAFAFA"/>
<path d="M335.088 89.3448C329.675 89.1576 323.856 89.0484 317.615 89.0016C311.375 88.9392 305.057 88.8924 298.676 88.8456C292.288 88.7832 286.047 88.752 279.955 88.752C273.855 88.752 268.2 88.752 262.982 88.752H243.699C240.891 94.2902 237.405 99.9766 233.247 105.819C229.082 111.669 224.394 117.051 219.175 121.981C218.676 121.03 218.091 120.016 217.428 118.955C216.843 118.081 216.133 117.098 215.306 115.991C214.495 114.867 213.559 113.775 212.498 112.714C215.384 110.203 218.239 107.317 221.047 104.072C223.855 100.827 226.414 97.4883 228.723 94.0562C231.047 90.624 233.06 87.1919 234.745 83.7597C236.445 80.3276 237.646 77.2621 238.333 74.5553C238.707 72.9953 238.894 71.833 238.894 71.0608C238.894 70.2964 239.238 69.9062 239.924 69.9062H240.205C242.03 70.2027 243.793 70.5616 245.478 70.9984C247.178 71.4352 248.855 71.8954 250.501 72.3713C251.375 72.6677 251.812 73.1045 251.812 73.6817C251.812 74.1653 251.281 74.9298 250.22 75.9906C249.924 76.287 249.635 76.6302 249.347 77.0203C249.05 77.3947 248.816 77.7847 248.629 78.1747C248.333 78.5725 248.083 79.0639 247.88 79.6412C251.078 79.6412 254.932 79.6646 259.425 79.7036C263.918 79.7504 268.77 79.766 273.996 79.766C278.84 79.766 283.894 79.766 289.16 79.766C294.441 79.766 299.714 79.727 304.979 79.6412C310.26 79.5398 315.462 79.4462 320.579 79.3604C325.712 79.2589 330.548 79.1575 335.088 79.0483V89.3448ZM322.046 107.629C314.784 107.441 307.818 107.301 301.141 107.192C294.464 107.09 287.88 107.036 281.391 107.036C274.916 107.036 268.489 107.09 262.108 107.192C255.72 107.301 249.191 107.441 242.514 107.629V97.8939C249.191 98.1904 255.759 98.3854 262.233 98.4868C268.723 98.596 275.182 98.6428 281.609 98.6428C288.052 98.6428 294.604 98.596 301.266 98.4868C307.943 98.3854 314.87 98.1904 322.046 97.8939V107.629ZM343.2 162.605C342.927 164.75 342.615 166.935 342.264 169.158C341.929 171.389 341.547 173.557 341.11 175.679C340.673 177.8 340.252 179.735 339.862 181.482C339.487 183.229 339.097 184.634 338.707 185.694C337.459 189.454 335.79 192.231 333.715 194.025C331.632 195.811 329.425 196.708 327.101 196.708C324.682 196.708 322.366 195.905 320.143 194.306C317.912 192.722 315.93 190.476 314.183 187.566C312.826 185.258 311.5 182.629 310.189 179.673C308.895 176.724 307.724 173.073 306.664 168.721C305.603 164.353 304.729 159.173 304.043 153.183C303.356 147.192 303.013 139.984 303.013 131.56V127.223C294.129 127.223 285.236 127.27 276.336 127.348C272.545 127.348 268.551 127.379 264.355 127.441C260.15 127.488 255.899 127.535 251.593 127.598C247.288 127.644 243.052 127.715 238.894 127.816C234.729 127.902 230.766 127.995 227.007 128.097V117.363C230.766 117.449 234.877 117.543 239.331 117.644C243.777 117.73 248.38 117.8 253.122 117.863C257.865 117.909 262.646 117.956 267.475 118.019C272.319 118.065 276.968 118.081 281.422 118.081C291.859 118.167 302.498 118.206 313.341 118.206V130.25C313.341 138.198 313.622 145.07 314.183 150.874C314.76 156.677 315.533 161.591 316.492 165.601C317.467 169.618 318.505 172.886 319.612 175.398C320.735 177.894 321.781 179.922 322.764 181.482C323.528 182.543 324.246 183.385 324.916 184.009C325.603 184.634 326.289 184.946 326.976 184.946C328.115 184.946 329.175 183.651 330.158 181.045C330.447 180.07 330.782 178.666 331.157 176.833C331.547 175.008 331.89 172.902 332.186 170.531C332.475 168.159 332.764 165.679 333.06 163.073C333.349 160.452 333.544 157.832 333.653 155.211C334.714 156.272 335.774 157.27 336.835 158.206C337.896 159.126 338.91 159.914 339.893 160.577C340.954 161.35 342.054 162.028 343.2 162.605ZM288.504 194.68C284.55 190.515 280.345 186.272 275.899 181.919C271.445 177.574 266.851 173.12 262.108 168.565C256.991 173.393 251.258 178.034 244.916 182.481C238.59 186.935 231.601 191.194 223.949 195.273C223.575 194.002 223.091 192.839 222.514 191.779C222.014 190.796 221.375 189.758 220.61 188.658C219.838 187.559 218.926 186.568 217.865 185.694C224.83 182.785 231.437 179.228 237.678 175.024C243.918 170.827 249.596 166.443 254.713 161.888C249.784 157.543 245.018 153.417 240.423 149.501C235.821 145.569 231.351 141.911 227.007 138.518L234.245 132.278C238.504 135.484 242.982 139.017 247.662 142.886C252.358 146.755 257.124 150.827 261.952 155.086C266.398 150.429 270.049 146.092 272.904 142.075C275.774 138.066 277.592 134.704 278.364 131.997C278.551 131.334 278.66 130.764 278.707 130.281C278.77 129.782 279.035 129.532 279.518 129.532C279.62 129.532 279.69 129.563 279.737 129.626C279.776 129.672 279.901 129.688 280.111 129.688C281.749 130.172 283.512 130.749 285.384 131.435C287.272 132.106 289.004 132.824 290.564 133.588C291.515 134.087 291.999 134.618 291.999 135.179C291.999 135.764 291.469 136.396 290.408 137.083C289.534 137.566 288.918 137.98 288.567 138.331C288.231 138.666 287.732 139.267 287.069 140.14C281.929 147.379 276.071 154.54 269.503 161.607C274.245 165.85 278.84 170.055 283.294 174.212C287.74 178.378 291.999 182.535 296.055 186.693L288.504 194.68Z" fill="#FAFAFA"/>
<path d="M473.649 136.209C473.649 143.759 472.167 150.273 469.219 155.741C466.262 161.193 462.557 165.811 458.111 169.594C453.657 173.362 448.797 176.427 443.54 178.798C438.275 181.17 433.29 183.011 428.595 184.321C423.891 185.616 419.874 186.474 416.551 186.911C413.22 187.348 411.215 187.566 410.529 187.566C408.883 187.566 408.064 187.277 408.064 186.692C408.064 186.217 408.789 185.569 410.248 184.758C411.699 183.931 413.493 183.167 415.615 182.48C420.061 181.045 424.866 179.032 430.03 176.427C435.209 173.806 440.022 170.468 444.476 166.412C448.922 162.34 452.627 157.543 455.584 152.028C458.532 146.521 460.014 140.132 460.014 132.87C460.014 126.404 458.844 120.819 456.52 116.115C454.211 111.419 451.215 107.566 447.534 104.57C443.852 101.575 439.765 99.3599 435.272 97.9246C430.779 96.4738 426.301 95.7405 421.855 95.7405C421.27 95.7405 420.685 95.7639 420.108 95.8029C419.523 95.8497 418.938 95.9199 418.36 96.0213C419.811 98.3536 420.872 100.538 421.543 102.574C422.229 104.594 422.573 106.864 422.573 109.376C422.573 112.48 422.136 115.943 421.262 119.766C420.389 123.572 419.219 127.488 417.768 131.497C416.332 135.514 414.663 139.532 412.775 143.541C410.88 147.558 408.945 151.333 406.972 154.867C404.991 158.385 403.041 161.529 401.106 164.29C399.172 167.036 397.424 169.188 395.864 170.749C393.93 172.683 391.995 174.087 390.061 174.961C388.126 175.819 386.332 176.24 384.694 176.24C381.902 176.24 379.437 175.273 377.3 173.338C375.178 171.404 373.68 168.939 372.807 165.944C372.323 164.305 371.309 162.277 369.749 159.859C368.204 157.449 366.855 154.602 365.693 151.31C364.234 147.238 363.509 143.12 363.509 138.954C363.509 133.073 365.076 127.059 368.22 120.92C371.379 114.766 375.646 109.204 381.012 104.227C386.379 99.2351 392.658 95.1477 399.858 91.9652C407.073 88.767 414.788 87.1602 423.009 87.1602C428.704 87.1602 434.554 88.1274 440.545 90.0619C446.551 91.9964 452.003 94.9761 456.894 98.9855C461.777 103.003 465.794 108.088 468.938 114.243C472.074 120.382 473.649 127.706 473.649 136.209ZM411.995 97.051C406.566 98.299 401.426 100.405 396.582 103.354C391.754 106.31 387.518 109.703 383.883 113.525C380.264 117.332 377.409 121.388 375.334 125.694C373.251 130 372.214 134.181 372.214 138.237C372.214 140.28 372.596 142.605 373.368 145.226C374.156 147.831 375.178 150.241 376.426 152.465C377.69 154.695 379.094 156.583 380.638 158.143C382.198 159.688 383.696 160.452 385.131 160.452C386.582 160.452 388.282 159.438 390.217 157.394C392.151 155.358 394.156 152.675 396.239 149.344C398.314 145.998 400.342 142.223 402.323 138.018C404.32 133.822 406.083 129.563 407.627 125.257C409.164 120.951 410.412 116.77 411.371 112.714C412.346 108.642 412.838 105.156 412.838 102.262C412.838 100.327 412.557 98.5954 411.995 97.051Z" fill="#FAFAFA"/>
<path d="M591.726 75.2725C591.929 75.2725 592.639 75.3973 593.848 75.6469C595.049 75.8809 596.477 76.2397 598.123 76.7389C599.761 77.2225 601.555 77.8778 603.489 78.7046C605.424 79.5158 607.187 80.4519 608.794 81.5127C610.393 82.5736 611.726 83.8372 612.787 85.2881C613.848 86.7467 614.379 88.3926 614.379 90.2179C614.379 91.8638 613.957 93.2912 613.131 94.4925C612.319 95.7015 611.329 96.3022 610.166 96.3022C608.521 96.3022 607.023 95.1477 605.673 92.8388C603.63 89.4535 601.336 86.6453 598.778 84.4144C596.219 82.1914 593.63 80.3505 591.009 78.8918C589.652 78.0182 588.981 77.2537 588.981 76.5829C588.981 76.0057 589.386 75.6391 590.198 75.4909C591.024 75.3505 591.539 75.2725 591.726 75.2725ZM577.374 83.26C578.435 83.26 580.221 83.6266 582.74 84.352C585.252 85.0853 587.795 86.1227 590.354 87.4722C592.912 88.8294 595.174 90.4519 597.155 92.3396C599.152 94.2117 600.151 96.3178 600.151 98.6423C600.151 100.288 599.691 101.747 598.778 103.01C597.857 104.258 596.765 104.883 595.502 104.883C593.957 104.883 592.514 103.72 591.165 101.388C589.23 97.9168 586.968 94.9215 584.394 92.402C581.836 89.8903 579.441 88.0494 577.218 86.8794C575.861 86.1149 575.19 85.3427 575.19 84.5705C575.19 84.2818 575.354 83.9932 575.689 83.6968C576.04 83.4082 576.602 83.26 577.374 83.26ZM604.8 155.928C605.276 156.911 605.588 157.909 605.736 158.923C605.876 159.945 605.954 160.983 605.954 162.043C605.954 164.352 605.439 166.552 604.425 168.627C603.404 170.71 601.789 171.747 599.589 171.747C598.419 171.747 597.421 171.458 596.594 170.873C595.783 170.296 595.081 169.649 594.503 168.939C593.918 168.213 593.482 167.519 593.193 166.848C592.896 166.162 592.701 165.678 592.6 165.382C591.453 162.285 590.268 159.383 589.043 156.677C587.834 153.954 586.5 151.341 585.049 148.845C583.614 146.333 581.968 143.908 580.12 141.575C578.286 139.251 576.165 136.926 573.754 134.617C572.397 133.354 571.726 132.332 571.726 131.56C571.726 130.897 572.202 130.561 573.162 130.561C573.926 130.561 575.112 130.951 576.719 131.716C578.318 132.488 580.159 133.525 582.241 134.836C584.316 136.146 586.516 137.644 588.825 139.329C591.149 141.014 593.357 142.808 595.439 144.695C597.514 146.591 599.402 148.502 601.087 150.436C602.787 152.371 604.028 154.204 604.8 155.928ZM585.361 105.6C586.126 105.6 587.405 105.819 589.199 106.255C590.985 106.692 592.818 107.332 594.691 108.159C596.578 108.97 598.255 109.961 599.714 111.123C601.165 112.269 601.898 113.572 601.898 115.023C601.898 116.084 601.648 116.942 601.149 117.581C600.666 118.205 600.12 118.666 599.496 118.954C598.872 119.251 598.216 119.446 597.53 119.547C596.859 119.633 596.329 119.672 595.939 119.672C594.878 119.672 593.856 119.602 592.881 119.454C591.921 119.313 591.056 119.188 590.291 119.079C589.308 118.892 587.857 118.689 585.923 118.455C583.989 118.205 582.101 118.081 580.276 118.081C576.797 118.081 573.388 118.174 570.042 118.361C566.711 118.549 563.208 118.845 559.527 119.235C559.417 121.279 559.371 123.26 559.371 125.195C559.371 127.129 559.371 129.064 559.371 130.998C559.371 136.513 559.441 141.84 559.589 146.973C559.729 152.09 559.854 157.355 559.963 162.761C560.065 163.822 560.26 164.844 560.556 165.819C560.845 166.778 561.087 167.745 561.274 168.72C561.375 169.095 561.43 169.719 561.43 170.593C561.43 170.702 561.352 171.646 561.212 173.432C561.063 175.226 560.666 177.176 560.026 179.298C559.402 181.419 558.481 183.354 557.28 185.101C556.071 186.848 554.355 187.722 552.132 187.722C550.962 187.722 549.823 187.215 548.7 186.193C547.592 185.179 546.368 182.878 545.018 179.298C544.433 177.847 543.505 176.365 542.241 174.867C540.993 173.369 539.636 171.903 538.185 170.468C536.75 169.017 535.299 167.683 533.848 166.474C532.389 165.249 531.087 164.212 529.948 163.354C529.152 162.777 528.591 162.192 528.263 161.607C527.928 161.029 527.764 160.499 527.764 160.015C527.764 158.939 528.388 158.393 529.636 158.393C530.322 158.393 531.243 158.689 532.413 159.266C536.469 161.599 539.651 163.323 541.96 164.446C544.285 165.553 545.892 166.193 546.765 166.38C546.953 166.49 547.241 166.536 547.639 166.536C548.013 166.536 548.325 166.427 548.575 166.193C548.825 165.944 548.949 165.429 548.949 164.633C549.238 158.541 549.48 152.644 549.667 146.942C549.854 141.248 549.948 135.491 549.948 129.688C549.948 128.05 549.924 126.474 549.885 124.976C549.839 123.479 549.823 121.911 549.823 120.265C546.617 120.748 543.302 121.326 539.87 122.012C536.438 122.683 533.458 123.346 530.946 124.009C528.903 124.508 527.116 125 525.58 125.475C524.035 125.959 522.444 126.193 520.806 126.193C518.474 126.193 516.235 125.694 514.098 124.695C511.976 123.681 510.088 122.418 508.45 120.92C506.804 119.407 505.47 117.823 504.456 116.177C503.458 114.539 502.959 113.135 502.959 111.965C502.959 111.201 503.068 110.592 503.302 110.156C503.551 109.719 503.817 109.266 504.113 108.783C504.589 108.205 505.065 107.909 505.548 107.909C505.938 107.909 506.328 108.034 506.703 108.283C507.093 108.533 507.584 108.845 508.169 109.22C510.868 111.263 513.598 112.737 516.344 113.65C519.105 114.571 521.898 115.023 524.706 115.023C525.182 115.023 525.587 115.023 525.923 115.023C526.274 115.023 526.687 114.976 527.171 114.867C530.455 114.602 533.981 114.173 537.748 113.588C541.531 113.01 545.502 112.464 549.667 111.965C549.667 108.892 549.558 106.068 549.355 103.51C549.168 100.936 549.027 98.7281 548.949 96.895C548.949 93.5096 548.403 91.2085 547.327 89.9995C546.266 88.7982 544.581 87.9558 542.272 87.4722C539.94 87.0822 538.778 86.4035 538.778 85.4441C538.778 84.9449 539.433 84.2428 540.743 83.3224C542.054 82.4098 543.91 81.9495 546.329 81.9495C547.202 81.9495 548.552 82.1524 550.385 82.5424C552.233 82.9168 554.051 83.5018 555.845 84.2896C557.631 85.0619 559.222 85.9979 560.619 87.0978C562.007 88.2054 562.709 89.5315 562.709 91.0915C562.709 91.8638 562.584 92.5892 562.335 93.2756C562.101 93.9465 561.898 94.4769 561.711 94.8669C561.313 95.6391 560.97 96.895 560.681 98.6423C560.385 100.374 560.166 102.106 560.026 103.853C559.878 105.6 559.784 107.152 559.745 108.502C559.698 109.859 559.683 110.624 559.683 110.811C563.154 110.335 566.243 109.953 568.949 109.656C571.672 109.368 574.574 108.985 577.655 108.502C578.045 108.502 578.63 108.307 579.402 107.909C581.726 106.747 583.208 106.068 583.833 105.881C584.457 105.694 584.964 105.6 585.361 105.6ZM529.355 135.179C529.246 141.856 528.208 147.675 526.235 152.621C524.254 157.55 521.937 161.685 519.277 165.007C516.609 168.338 513.879 170.834 511.071 172.496C508.263 174.142 505.938 174.961 504.113 174.961C501.991 174.961 500.369 174.266 499.246 172.87C498.138 171.458 497.592 169.828 497.592 167.972C497.592 166.724 497.826 165.647 498.31 164.727C498.785 163.814 499.355 163.011 500.026 162.324C500.712 161.638 501.383 161.092 502.054 160.67C502.74 160.234 503.278 159.914 503.676 159.703C505.502 158.83 507.436 157.722 509.48 156.365C511.516 155.015 513.505 153.354 515.439 151.372C517.374 149.399 519.16 147.036 520.806 144.29C522.444 141.528 523.801 138.252 524.862 134.461C525.525 132.34 526.438 131.279 527.608 131.279C528.77 131.279 529.355 132.581 529.355 135.179Z" fill="#FAFAFA"/>
<path d="M695.763 90.9354C695.467 91.6218 695.201 92.4018 694.952 93.2755C694.718 94.1335 694.484 95.288 694.234 96.7388C694 98.1975 693.836 100.132 693.735 102.542C693.626 104.96 693.579 108.096 693.579 111.965C693.579 113.049 693.595 114.173 693.641 115.335C693.704 116.481 693.782 117.73 693.891 119.079C693.969 119.664 694.016 120.319 694.016 121.045C694.016 121.778 694.016 122.527 694.016 123.291C694.016 125.413 693.961 127.589 693.86 129.812C693.774 132.043 693.641 133.884 693.454 135.335C692.471 142.886 690.599 149.656 687.838 155.647C685.092 161.638 681.925 166.895 678.353 171.404C674.772 175.897 671.02 179.719 667.089 182.854C663.173 185.998 659.476 188.549 655.981 190.53C652.502 192.527 649.507 193.978 646.995 194.898C644.499 195.811 642.853 196.271 642.066 196.271C641.005 196.271 640.474 195.975 640.474 195.397C640.474 194.337 641.832 193.128 644.562 191.778C648.696 189.547 652.705 186.466 656.574 182.511C660.443 178.541 664 174.087 667.245 169.157C670.49 164.212 673.244 158.954 675.513 153.4C677.799 147.847 679.421 142.355 680.381 136.926C680.568 136.349 680.802 134.703 681.098 131.996C681.387 129.297 681.535 125.662 681.535 121.107C681.535 118.985 681.535 116.77 681.535 114.461C681.535 112.137 681.488 110.241 681.41 108.783V104.29C681.41 102.355 681.426 100.639 681.473 99.1413C681.512 97.6437 681.535 96.224 681.535 94.8667C681.535 92.9323 681.457 91.2396 681.317 89.7809C681.169 88.3301 680.802 87.0976 680.225 86.0992C679.663 85.0851 678.836 84.2583 677.76 83.6343C676.699 82.9946 675.248 82.4798 673.423 82.1054C670.802 81.5282 669.492 80.7949 669.492 79.9213C669.492 79.4455 670.069 78.7513 671.239 77.8308C672.401 76.8948 674.39 76.4268 677.198 76.4268C680.084 76.4268 683.033 77.0664 686.028 78.33C689.039 79.5781 691.52 80.7325 693.454 81.7934C694.593 82.5656 695.389 83.3847 695.826 84.2583C696.262 85.1319 696.481 86.0992 696.481 87.16C696.481 88.4315 696.239 89.6873 695.763 90.9354ZM655.576 94.5547C655.389 95.1398 655.186 96.2084 654.983 97.7685C654.796 99.3129 654.624 101.045 654.484 102.979C654.336 104.914 654.234 106.926 654.172 109.001C654.125 111.084 654.109 113.042 654.109 114.867C654.109 117.971 654.156 120.904 654.265 123.666C654.367 126.411 654.515 128.806 654.702 130.842C654.702 131.614 654.718 132.488 654.765 133.463C654.827 134.422 654.858 135.428 654.858 136.489C654.858 141.716 654.312 145.397 653.236 147.535C652.175 149.656 650.529 150.717 648.306 150.717C647.534 150.717 646.566 150.483 645.404 149.999C644.843 149.609 644.343 149.048 643.906 148.315C643.47 147.589 643.103 146.989 642.814 146.505C642.315 145.444 641.769 143.853 641.192 141.731C640.63 139.594 640.35 137.511 640.35 135.491C640.35 133.744 640.638 132.394 641.223 131.435C641.785 130.46 642.206 129.344 642.502 128.096C642.502 127.597 642.604 126.872 642.814 125.912C643.392 121.942 643.688 117.441 643.688 112.402C643.688 106.996 643.509 102.667 643.158 99.4221C642.822 96.1772 642.292 93.6655 641.566 91.8714C640.833 90.0851 639.944 88.8761 638.883 88.2521C637.822 87.628 636.559 87.1756 635.108 86.8792C633.672 86.5906 632.955 86.0602 632.955 85.2879C632.955 84.3129 633.501 83.4393 634.609 82.667C635.708 81.9026 637.37 81.5126 639.601 81.5126C640.474 81.5126 641.824 81.692 643.657 82.043C645.506 82.3784 647.37 82.9088 649.242 83.6343C651.13 84.3441 652.807 85.2801 654.265 86.4424C655.716 87.6124 656.449 89.0165 656.449 90.6546C656.449 91.3254 656.34 91.9806 656.137 92.6202C655.95 93.2443 655.763 93.8917 655.576 94.5547Z" fill="#FAFAFA"/>
<path d="M801.112 161.731C801.775 161.731 802.984 161.879 804.731 162.168C806.478 162.464 808.264 162.948 810.098 163.634C811.946 164.305 813.569 165.195 814.965 166.318C816.353 167.425 817.055 168.798 817.055 170.436C817.055 171.232 816.759 172.137 816.182 173.151C815.62 174.149 814.263 174.649 812.126 174.649C811.252 174.649 810.23 174.578 809.068 174.43C807.921 174.29 806.821 174.118 805.761 173.931C804.2 173.744 802.711 173.556 801.299 173.369C799.902 173.166 798.725 173.057 797.773 173.057C796.314 172.956 794.879 172.901 793.467 172.901C792.071 172.901 790.698 172.901 789.349 172.901C781.814 172.901 775.004 173.268 768.912 173.993C762.812 174.727 757.008 175.725 751.501 176.989C750.129 177.176 748.982 177.418 748.069 177.706C747.149 178.003 746.26 178.237 745.386 178.424C744.902 178.533 744.138 178.58 743.077 178.58C741.244 178.58 739.31 178.252 737.274 177.581C735.23 176.895 733.358 176.045 731.657 175.023C729.973 174.009 728.545 172.854 727.383 171.56C726.236 170.249 725.612 169.017 725.511 167.847C725.511 166.209 725.838 165.023 726.509 164.29C727.196 163.564 727.788 163.198 728.288 163.198C728.475 163.198 728.896 163.439 729.567 163.915L730.597 164.633C732.531 165.904 734.7 166.755 737.118 167.191C739.528 167.628 741.845 167.847 744.076 167.847C744.949 167.847 745.768 167.831 746.54 167.784C747.328 167.722 748.054 167.644 748.725 167.535C752.11 167.246 756.252 166.786 761.143 166.162C766.026 165.538 771.322 164.992 777.024 164.508C777.601 161.7 778.186 158.783 778.771 155.741C779.349 152.683 779.879 149.75 780.363 146.942C780.838 144.134 781.268 141.669 781.642 139.547C782.032 137.425 782.336 135.928 782.547 135.054L782.672 134.773C782.672 134.672 782.625 134.617 782.547 134.617C778.467 135.101 774.824 135.756 771.626 136.583C768.444 137.394 764.965 138.291 761.205 139.266C760.035 139.563 759.021 139.851 758.147 140.14C757.289 140.436 756.431 140.67 755.558 140.858C755.074 140.943 754.403 140.982 753.53 140.982C752.071 140.982 750.472 140.701 748.725 140.14C746.993 139.563 745.402 138.759 743.951 137.737C742.492 136.723 741.275 135.584 740.3 134.336C739.341 133.073 738.865 131.809 738.865 130.561C738.865 129.212 739.302 128.19 740.175 127.503C740.464 127.215 740.753 127.067 741.049 127.067C741.626 127.067 742.305 127.41 743.077 128.096C745.386 129.828 748.194 130.686 751.501 130.686C752.063 130.686 752.632 130.67 753.218 130.623C753.795 130.584 754.38 130.514 754.965 130.405C758.647 130.015 762.438 129.43 766.353 128.658C770.285 127.893 774.567 127.16 779.208 126.474C779.973 126.396 780.721 126.208 781.455 125.912C782.18 125.623 782.874 125.241 783.545 124.758C784.31 124.469 784.949 124.321 785.448 124.321H786.166C786.455 124.321 787.274 124.539 788.631 124.976C789.98 125.413 791.408 125.998 792.906 126.723C794.403 127.433 795.753 128.299 796.962 129.313C798.163 130.335 798.771 131.427 798.771 132.589C798.771 133.463 798.553 134.212 798.116 134.836C797.695 135.46 797.344 135.974 797.055 136.365C796.369 136.95 795.784 137.659 795.308 138.486C794.824 139.297 794.247 140.655 793.561 142.542C792.89 144.414 792.048 147.028 791.034 150.374C790.012 153.705 788.678 158.174 787.04 163.79C788.202 163.689 789.333 163.619 790.441 163.572C791.564 163.51 792.695 163.478 793.842 163.478C794.817 163.4 795.761 163.213 796.681 162.917C797.594 162.628 798.537 162.34 799.52 162.043C800.098 161.84 800.628 161.731 801.112 161.731Z" fill="#FAFAFA"/>
<path d="M932.247 126.068C933.409 126.068 935.102 126.091 937.333 126.13C939.556 126.177 941.803 126.395 944.073 126.785C946.358 127.16 948.324 127.745 949.97 128.533C951.608 129.305 952.434 130.366 952.434 131.715C952.434 133.174 951.319 134.555 949.096 135.865C946.865 137.16 943.768 137.893 939.798 138.08C939.314 138.08 938.058 138.189 936.023 138.392C934.002 138.579 932.029 138.673 930.094 138.673C916.342 138.673 905.04 138.751 896.178 138.892C887.333 139.04 880.328 139.188 875.149 139.328C869.985 139.477 866.366 139.625 864.291 139.765C862.208 139.913 861.077 140.038 860.89 140.14C859.618 140.327 858.472 140.569 857.458 140.857C856.459 141.154 855.414 141.294 854.337 141.294C852.504 141.294 850.625 140.623 848.69 139.266C846.756 137.916 844.985 136.255 843.386 134.274C841.802 132.277 840.468 130.202 839.392 128.033C838.331 125.849 837.801 123.977 837.801 122.417C837.801 121.544 837.965 120.725 838.3 119.952C838.651 119.188 839.158 118.798 839.829 118.798C840.515 118.798 841.241 119.328 842.013 120.389C842.777 121.45 843.698 122.324 844.759 123.01C845.835 123.681 846.857 124.406 847.816 125.194C848.877 126.255 850.757 126.934 853.464 127.222C856.186 127.519 860.593 127.659 866.693 127.659C871.912 127.659 877.809 127.589 884.384 127.441C890.952 127.3 897.364 127.129 903.604 126.941C909.845 126.739 915.57 126.536 920.796 126.349C926.015 126.161 929.829 126.068 932.247 126.068Z" fill="#FAFAFA"/>
<path d="M1033.37 129.094C1034.24 129.094 1035.75 129.703 1037.92 130.904C1040.11 132.113 1042.55 133.735 1045.25 135.771C1047.98 137.815 1050.81 140.186 1053.74 142.885C1056.69 145.592 1059.37 148.47 1061.79 151.528C1064.23 154.57 1066.21 157.706 1067.75 160.951C1069.29 164.196 1070.06 167.363 1070.06 170.436C1070.06 173.743 1069.33 176.349 1067.88 178.236C1066.44 180.108 1064.7 181.045 1062.66 181.045C1061.6 181.045 1060.68 180.81 1059.92 180.327C1059.15 179.828 1058.52 179.227 1058.02 178.517C1057.53 177.792 1057.13 176.988 1056.8 176.115C1056.46 175.241 1056.19 174.461 1055.99 173.775C1055.43 171.551 1054.85 169.469 1054.27 167.534C1053.69 165.6 1053.01 163.665 1052.24 161.731C1047.29 163.291 1042.32 164.82 1037.33 166.317C1032.35 167.815 1027.52 169.219 1022.82 170.53C1018.14 171.84 1013.72 173.049 1009.56 174.149C1005.39 175.257 1001.78 176.2 998.702 176.988C997.829 177.176 997.064 177.417 996.425 177.706C995.801 178.002 995.192 178.236 994.615 178.424C992.595 179.484 991.245 180.124 990.559 180.327C989.888 180.514 989.264 180.608 988.687 180.608C987.704 180.608 986.175 180.171 984.1 179.297C982.017 178.424 979.935 177.269 977.86 175.834C975.777 174.383 973.936 172.706 972.337 170.81C970.754 168.923 969.966 166.965 969.966 164.945C969.966 164.071 970.059 163.377 970.247 162.854C970.449 162.316 970.652 161.902 970.839 161.606C971.604 160.732 972.228 160.296 972.712 160.296C973.289 160.296 974.162 160.881 975.332 162.043C976.971 163.876 978.733 165.038 980.605 165.537C982.493 166.021 984.264 166.255 985.91 166.255H987.376C987.665 166.255 987.953 166.239 988.25 166.193C988.538 166.13 988.827 166.099 989.123 166.099C991.058 162.23 992.992 158.034 994.927 153.494C996.861 148.938 998.718 144.344 1000.51 139.703C1002.3 135.046 1003.96 130.522 1005.5 126.13C1007.06 121.723 1008.39 117.706 1009.5 114.086C1010.62 110.467 1011.49 107.347 1012.12 104.726C1012.74 102.105 1013.05 100.373 1013.05 99.5154C1013.05 98.2518 1012.81 97.2065 1012.34 96.3953C1011.85 95.5685 1011.25 94.8898 1010.53 94.3672C1009.79 93.829 1009.01 93.4156 1008.19 93.1192C1007.38 92.8306 1006.67 92.6356 1006.1 92.5263C1003.58 91.8633 1002.32 91.0911 1002.32 90.2174C1002.32 89.9288 1003.02 89.3048 1004.41 88.3454C1005.82 87.3703 1008.08 86.8789 1011.18 86.8789C1013.01 86.8789 1015.06 87.2455 1017.33 87.971C1019.59 88.7042 1021.74 89.648 1023.79 90.8103C1025.82 91.9569 1027.52 93.2362 1028.87 94.648C1030.22 96.0443 1030.9 97.4172 1030.9 98.7666C1030.9 99.8275 1030.61 100.849 1030.03 101.824C1029.54 102.597 1028.97 103.416 1028.28 104.289C1027.61 105.163 1027.13 106.037 1026.85 106.91C1025.29 110.779 1023.41 115.163 1021.23 120.046C1019.06 124.913 1016.78 129.937 1014.37 135.116C1011.95 140.296 1009.44 145.459 1006.81 150.592C1004.21 155.709 1001.7 160.444 999.264 164.789C1002.95 164.211 1006.91 163.478 1011.15 162.605C1015.41 161.731 1019.74 160.818 1024.13 159.859C1028.54 158.884 1032.84 157.862 1037.05 156.801C1041.27 155.74 1045.11 154.734 1048.59 153.775C1046.95 150.389 1044.89 147.051 1042.42 143.759C1039.96 140.475 1036.99 137.043 1033.52 133.462C1032.35 132.3 1031.78 131.278 1031.78 130.405C1031.78 129.531 1032.31 129.094 1033.37 129.094Z" fill="#FAFAFA"/>
<path d="M1129.26 178.299C1129.26 180.905 1128.75 183.369 1127.73 185.694C1126.73 188.003 1125.36 190.031 1123.61 191.778C1121.87 193.525 1119.82 194.898 1117.5 195.897C1115.19 196.911 1112.72 197.426 1110.1 197.426C1107.5 197.426 1105.03 196.911 1102.71 195.897C1100.4 194.898 1098.37 193.525 1096.62 191.778C1094.88 190.031 1093.49 188.003 1092.47 185.694C1091.48 183.369 1090.98 180.905 1090.98 178.299C1090.98 175.678 1091.48 173.213 1092.47 170.905C1093.49 168.58 1094.88 166.536 1096.62 164.789C1098.37 163.042 1100.4 161.669 1102.71 160.67C1105.03 159.656 1107.5 159.142 1110.1 159.142C1112.72 159.142 1115.19 159.656 1117.5 160.67C1119.82 161.669 1121.87 163.042 1123.61 164.789C1125.36 166.536 1126.73 168.58 1127.73 170.905C1128.75 173.213 1129.26 175.678 1129.26 178.299ZM1123.61 178.299C1123.61 176.451 1123.25 174.703 1122.52 173.057C1121.79 171.419 1120.82 169.992 1119.62 168.783C1118.41 167.582 1116.98 166.614 1115.34 165.881C1113.7 165.156 1111.95 164.789 1110.1 164.789C1108.27 164.789 1106.53 165.156 1104.89 165.881C1103.25 166.614 1101.82 167.582 1100.62 168.783C1099.41 169.992 1098.44 171.419 1097.72 173.057C1096.98 174.703 1096.62 176.451 1096.62 178.299C1096.62 180.132 1096.98 181.872 1097.72 183.51C1098.44 185.156 1099.41 186.583 1100.62 187.784C1101.82 188.986 1103.25 189.953 1104.89 190.686C1106.53 191.412 1108.27 191.778 1110.1 191.778C1111.95 191.778 1113.7 191.412 1115.34 190.686C1116.98 189.953 1118.41 188.986 1119.62 187.784C1120.82 186.583 1121.79 185.156 1122.52 183.51C1123.25 181.872 1123.61 180.132 1123.61 178.299Z" fill="#FAFAFA"/>
<path d="M197.994 382.698C197.222 384.242 196.59 385.74 196.091 387.191C195.607 388.626 195.186 389.89 194.811 390.966C194.414 392.214 194.07 393.416 193.782 394.586C192.425 394.586 190.825 394.601 188.977 394.648C187.144 394.687 185.116 394.71 182.893 394.71C178.439 394.71 173.407 394.632 167.791 394.492C162.19 394.367 156.566 394.055 150.911 393.556C145.248 393.072 139.85 392.402 134.718 391.528C129.601 390.654 125.342 389.5 121.956 388.065C115.568 385.444 110.459 382.324 106.637 378.704C102.83 375.069 99.7176 371.606 97.3073 368.314C94.8736 373.829 91.7925 379.125 88.0717 384.196C84.3432 389.274 79.585 394.133 73.7815 398.798C73.4071 397.526 72.9235 396.31 72.3463 395.147C71.8626 394.086 71.262 392.948 70.5366 391.746C69.8034 390.537 68.9141 389.359 67.8533 388.189C72.1981 385.194 75.794 381.887 78.6489 378.267C81.4961 374.632 83.9922 370.779 86.1372 366.723C87.4867 364.125 88.6412 361.419 89.6006 358.611C90.5756 355.802 91.3791 353.174 92.0031 350.717C92.6271 348.244 93.0795 346.06 93.376 344.164C93.6646 342.277 93.8128 341.036 93.8128 340.451V340.327C93.7036 339.749 93.6334 339.234 93.5944 338.798C93.5476 338.361 93.532 337.947 93.532 337.55C93.532 336.988 93.766 336.707 94.2496 336.707C94.4368 336.707 94.546 336.731 94.5928 336.77C94.6552 336.816 94.78 336.832 94.9672 336.832C96.6053 337.128 98.493 337.542 100.615 338.08C102.752 338.603 104.647 339.203 106.293 339.89C107.931 340.763 107.931 341.918 106.293 343.353C105.607 343.938 105.022 344.554 104.546 345.194C104.062 345.818 103.735 346.66 103.548 347.721C103.15 349.367 102.752 351.06 102.362 352.807C101.988 354.539 101.504 356.224 100.927 357.862C103.626 362.316 107.175 366.551 111.566 370.561C115.974 374.578 121.66 377.659 128.633 379.796V325.225H92.5023V277.643H174.187V325.225H139.523V345.818C141.746 345.818 144.453 345.818 147.635 345.818C150.833 345.818 154.343 345.802 158.15 345.756C161.972 345.717 165.935 345.654 170.038 345.568C174.156 345.467 178.197 345.366 182.175 345.256V356.582C178.306 356.38 174.289 356.255 170.131 356.208C165.966 356.169 161.995 356.13 158.212 356.083C154.445 356.021 150.942 355.99 147.697 355.99C144.468 355.99 141.746 355.99 139.523 355.99V382.105C143.867 382.589 148.485 382.948 153.376 383.197C158.259 383.431 163.267 383.54 168.384 383.54C173.602 383.54 178.727 383.447 183.766 383.26C188.797 383.072 193.54 382.885 197.994 382.698ZM163.298 287.783H103.236V315.209H163.298V287.783Z" fill="#FAFAFA"/>
<path d="M259.362 283.447C263.434 283.447 267.046 284.593 270.189 286.879C273.325 289.149 275.962 292.308 278.083 296.364C280.205 300.42 281.812 305.311 282.919 311.029C284.043 316.731 284.604 323.064 284.604 330.03C284.604 340.077 283.216 348.806 280.455 356.208C277.709 363.618 274.012 369.999 269.378 375.366C264.737 380.732 259.394 385.28 253.341 389.001C247.303 392.721 240.993 395.935 234.401 398.642C231.983 399.703 230.158 400.233 228.91 400.233C228.138 400.233 227.756 399.991 227.756 399.515C227.756 398.455 229.487 396.957 232.966 395.022C245.634 387.955 255.127 378.642 261.453 367.097C267.795 355.537 270.969 342.16 270.969 326.972C270.969 318.946 270.509 312.557 269.597 307.815C268.676 303.072 267.545 299.453 266.196 296.957C264.838 294.445 263.387 292.823 261.827 292.089C260.283 291.364 258.84 290.997 257.49 290.997C254.284 290.997 251.297 292.308 248.536 294.929C245.79 297.534 243.45 300.857 241.515 304.913C239.581 308.969 238.052 313.548 236.929 318.642C235.821 323.72 235.275 328.72 235.275 333.649C235.376 335.295 235.649 337.23 236.086 339.453C236.523 341.684 236.835 344.001 237.022 346.411C237.022 346.707 237.038 347.027 237.085 347.378C237.147 347.713 237.178 348.064 237.178 348.439C237.178 350.295 236.812 351.918 236.086 353.306C235.353 354.703 234.027 355.397 232.093 355.397C230.447 355.397 228.988 354.632 227.724 353.088C226.476 351.551 225.431 349.718 224.604 347.596C223.793 345.459 223.185 343.345 222.795 341.263C222.42 339.188 222.233 337.565 222.233 336.395C222.233 335.522 222.327 334.664 222.514 333.805C222.701 332.932 222.841 332.011 222.951 331.029C222.951 329.39 223.06 327.869 223.294 326.473C223.543 325.061 223.77 323.384 223.98 321.45C224.269 319.141 224.62 316.707 225.041 314.149C225.478 311.575 225.961 309.094 226.507 306.723C227.046 304.351 227.522 302.089 227.943 299.921C228.38 297.737 228.738 295.88 229.035 294.336C229.323 292.986 229.596 291.613 229.846 290.217C230.096 288.805 230.22 287.425 230.22 286.067C230.22 284.718 230.002 283.439 229.565 282.23C229.128 281.005 228.27 279.671 227.007 278.236L226.008 276.925C225.423 276.348 225.135 275.763 225.135 275.178C225.135 274.702 225.493 274.32 226.227 274.024C226.952 273.735 227.701 273.587 228.473 273.587C229.635 273.587 230.938 273.93 232.373 274.617C233.824 275.287 235.181 276.223 236.43 277.425C237.693 278.634 238.77 280.061 239.643 281.699C240.517 283.345 240.954 285.131 240.954 287.066C240.954 288.922 240.735 290.763 240.298 292.589C239.862 294.422 239.44 296.161 239.05 297.799L238.77 299.39C240.805 295.521 242.888 292.511 245.01 290.342C247.132 288.158 249.136 286.567 251.032 285.568C252.919 284.554 254.62 283.946 256.118 283.759C257.615 283.556 258.692 283.447 259.362 283.447Z" fill="#FAFAFA"/>
<path d="M417.784 321.606C417.784 323.353 417.543 324.718 417.067 325.693C416.583 326.653 416.022 327.37 415.382 327.846C414.758 328.33 414.173 328.618 413.635 328.72C413.112 328.806 412.8 328.845 412.699 328.845C411.341 328.845 410.047 328.174 408.798 326.817C407.628 325.569 406.084 324.632 404.149 324.008C402.215 323.369 400.132 323.041 397.909 323.041C395.015 323.041 392.714 323.509 391.014 324.445C389.329 325.366 388.018 326.497 387.082 327.846C386.162 329.203 385.561 330.701 385.273 332.339C385 333.985 384.867 335.483 384.867 336.832C384.867 337.129 384.883 337.667 384.929 338.455C384.968 339.227 385.031 340.358 385.117 341.856C385.218 343.353 385.413 345.342 385.709 347.815C385.998 350.272 386.341 353.384 386.739 357.144C386.926 358.502 387.067 359.828 387.176 361.138C387.277 362.448 387.371 363.728 387.457 364.976C390.366 365.959 393.213 367.121 396.006 368.47C398.814 369.828 401.326 371.356 403.557 373.057C405.78 374.742 407.589 376.575 408.986 378.548C410.398 380.53 411.107 382.683 411.107 385.007C411.107 385.405 411.053 385.943 410.951 386.63C410.866 387.3 410.624 387.94 410.234 388.564C409.859 389.188 409.376 389.75 408.798 390.249C408.213 390.725 407.394 390.966 406.334 390.966C405.273 390.966 404.126 390.631 402.901 389.968C401.692 389.282 400.413 388.018 399.064 386.161C397.706 384.149 395.975 382.222 393.853 380.389C391.731 378.541 389.407 376.832 386.895 375.272C386.31 378.08 385.288 380.654 383.837 382.979C382.379 385.288 380.592 387.316 378.471 389.063C376.349 390.81 373.954 392.16 371.294 393.119C368.627 394.094 365.748 394.586 362.652 394.586C360.53 394.586 358.159 394.243 355.538 393.556C352.932 392.885 350.468 391.879 348.143 390.53C345.811 389.18 343.845 387.464 342.246 385.381C340.663 383.307 339.875 380.857 339.875 378.049C339.875 376.013 340.351 374.009 341.31 372.027C342.285 370.03 343.814 368.283 345.897 366.785C347.971 365.288 350.678 364.087 354.009 363.166C357.355 362.253 361.349 361.793 365.99 361.793C367.925 361.793 369.828 361.848 371.7 361.949C373.588 362.035 375.413 362.277 377.16 362.667C377.051 360.842 376.981 358.72 376.942 356.302C376.895 353.868 376.879 351.395 376.879 348.876C376.879 343.946 377.098 339.765 377.535 336.333C377.972 332.901 378.954 329.906 380.499 327.347C382.036 324.773 384.282 322.472 387.238 320.451C390.187 318.416 394.181 316.38 399.22 314.336C399.984 314.047 400.592 313.806 401.029 313.618C401.466 313.431 401.685 313.104 401.685 312.62C401.685 312.043 401.076 310.834 399.875 309.001C398.666 307.152 396.7 305.553 393.978 304.196C392.145 303.431 391.232 302.698 391.232 302.012C391.232 301.247 392.145 300.857 393.978 300.857C396.599 300.857 399.313 301.387 402.121 302.448C404.929 303.509 407.488 304.991 409.797 306.879C412.121 308.774 414.04 310.982 415.538 313.494C417.036 315.99 417.784 318.696 417.784 321.606ZM376.287 292.308C376.287 293.166 375.92 294.149 375.195 295.272C374.461 296.38 373.26 297.487 371.575 298.611C369.89 299.718 367.613 300.826 364.742 301.949C361.887 303.057 358.346 304.04 354.103 304.913C349.251 317.105 345.187 326.957 341.903 334.461C338.611 341.949 335.803 347.799 333.478 351.996C331.17 356.2 329.212 359.032 327.613 360.483C326.006 361.941 324.383 362.667 322.745 362.667C321.497 362.667 320.452 362.136 319.625 361.076C318.814 360.015 318.408 358.47 318.408 356.427V356.146C318.408 355.569 318.549 354.726 318.845 353.619C319.134 352.495 319.5 351.31 319.937 350.062C320.374 348.798 320.873 347.581 321.435 346.411C322.012 345.249 322.597 344.375 323.182 343.79C325.031 341.778 326.942 339.321 328.923 336.427C330.897 333.517 332.854 330.397 334.789 327.066C336.723 323.72 338.564 320.256 340.312 316.676C342.059 313.104 343.556 309.617 344.805 306.224C343.744 306.333 342.722 306.403 341.747 306.442C340.787 306.489 339.82 306.505 338.845 306.505C334.976 306.505 331.778 306.052 329.266 305.132C326.77 304.219 324.773 303.065 323.276 301.668C321.778 300.256 320.701 298.704 320.062 297.019C319.438 295.319 319.126 293.642 319.126 291.996C319.126 291.621 319.266 291.434 319.563 291.434C319.664 291.434 319.906 291.528 320.28 291.715C322.418 293.361 325.179 294.57 328.549 295.334C331.934 296.107 335.569 296.489 339.438 296.489C340.787 296.489 342.191 296.45 343.65 296.364C345.101 296.263 346.505 296.114 347.862 295.927C348.627 292.058 349.087 289.469 349.235 288.158C349.376 286.848 349.454 286.099 349.454 285.912C349.454 284.664 349.251 283.681 348.861 282.948C348.486 282.222 348.003 281.668 347.425 281.294C346.84 280.904 346.224 280.607 345.585 280.42C344.961 280.217 344.368 280.061 343.806 279.952C342.347 279.664 341.622 279.188 341.622 278.517C341.622 277.752 342.293 276.762 343.65 275.553C345 274.328 346.934 273.712 349.454 273.712C350.99 273.712 352.511 273.985 354.009 274.523C355.507 275.069 356.856 275.756 358.065 276.582C359.29 277.394 360.257 278.33 360.967 279.391C361.692 280.451 362.059 281.567 362.059 282.729C362.059 283.79 361.669 284.944 360.904 286.192C360.132 287.94 359.36 289.781 358.596 291.715L358.003 293.182C359.352 292.682 360.686 292.082 361.996 291.372C363.307 290.646 364.539 289.89 365.709 289.094C366.872 288.221 368.369 287.784 370.202 287.784C371.739 287.784 373.135 288.205 374.383 289.032C375.647 289.866 376.287 290.958 376.287 292.308ZM376.879 371.216C374.945 370.553 372.792 370.093 370.421 369.843C368.05 369.594 365.897 369.469 363.962 369.469C357.472 369.469 352.948 370.233 350.39 371.746C347.831 373.244 346.552 374.859 346.552 376.583C346.552 378.915 347.925 380.787 350.67 382.199C353.432 383.595 357.043 384.289 361.497 384.289C364.009 384.289 366.162 383.884 367.956 383.073C369.742 382.246 371.263 381.2 372.511 379.952C373.775 378.689 374.742 377.285 375.413 375.74C376.099 374.18 376.583 372.675 376.879 371.216Z" fill="#FAFAFA"/>
<path d="M555.784 337.269C556.158 338.829 556.346 340.475 556.346 342.199C556.346 345.116 555.597 347.737 554.099 350.062C552.601 352.371 550.644 353.525 548.233 353.525C546.002 353.525 544.473 352.371 543.647 350.062C542.835 347.737 542.188 344.726 541.712 341.045C541.213 338.158 540.308 335.085 538.998 331.84C537.703 328.595 536.112 325.459 534.224 322.417C532.352 319.36 530.175 316.552 527.703 313.993C525.222 311.434 522.594 309.375 519.809 307.815C517.952 306.863 517.032 305.99 517.032 305.194C517.032 304.243 517.999 303.759 519.934 303.759C521.97 303.759 524.778 304.492 528.358 305.943C531.931 307.378 535.55 309.5 539.216 312.308C542.898 315.116 546.283 318.603 549.388 322.761C552.484 326.926 554.614 331.762 555.784 337.269ZM492.664 338.143C492.266 339.976 491.829 342.222 491.353 344.882C490.87 347.55 490.417 350.21 489.98 352.87C489.544 355.538 489.2 357.956 488.951 360.14C488.717 362.308 488.608 363.822 488.608 364.695C488.608 366.442 488.99 368.088 489.762 369.625C490.152 370.311 490.558 371.24 490.979 372.402C491.416 373.549 491.634 374.648 491.634 375.709C491.634 377.566 490.807 379.219 489.169 380.67C487.523 382.105 485.347 382.823 482.648 382.823C480.815 382.823 478.662 382.496 476.189 381.825C473.732 381.138 471.244 380.155 468.732 378.861C466.213 377.55 463.771 375.928 461.4 373.993C459.029 372.059 457.016 369.836 455.378 367.316C451.899 361.887 449.731 356.201 448.857 350.249C447.983 344.305 447.547 337.854 447.547 330.904C447.547 329.243 447.562 327.566 447.609 325.881C447.648 324.196 447.671 322.433 447.671 320.576C447.671 316.63 447.375 313.104 446.798 309.999C446.236 306.902 445.316 304.531 444.052 302.885C442.804 301.349 442.18 300.233 442.18 299.547C442.18 299.36 442.219 299.219 442.305 299.11C442.593 298.923 443.054 298.79 443.678 298.704C444.317 298.603 444.879 298.548 445.362 298.548C445.55 298.548 446.439 298.767 448.046 299.204C449.645 299.625 451.361 300.467 453.194 301.731C455.043 302.979 456.689 304.75 458.124 307.035C459.575 309.305 460.308 312.277 460.308 315.959C460.308 317.605 460.16 319.141 459.871 320.576C459.286 323.494 458.826 326.474 458.498 329.531C458.163 332.573 457.999 335.584 457.999 338.58C457.999 344.57 458.639 349.36 459.933 352.932C461.244 356.513 462.773 359.227 464.52 361.076C466.267 362.909 467.96 364.095 469.606 364.633C471.244 365.155 472.398 365.413 473.069 365.413C475.004 365.413 476.603 364.157 477.874 361.637C479.809 357.979 481.618 353.993 483.303 349.687C484.988 345.382 486.751 341.06 488.608 336.708C490.144 333.026 491.4 331.185 492.383 331.185C492.96 331.185 493.257 331.957 493.257 333.494C493.257 334.765 493.054 336.318 492.664 338.143Z" fill="#FAFAFA"/>
<path d="M681.834 321.606C681.834 323.353 681.592 324.718 681.116 325.693C680.632 326.653 680.071 327.37 679.431 327.846C678.807 328.33 678.222 328.618 677.684 328.72C677.161 328.806 676.849 328.845 676.748 328.845C675.39 328.845 674.096 328.174 672.848 326.817C671.677 325.569 670.133 324.632 668.199 324.008C666.264 323.369 664.181 323.041 661.958 323.041C659.064 323.041 656.763 323.509 655.063 324.445C653.378 325.366 652.067 326.497 651.131 327.846C650.211 329.203 649.61 330.701 649.322 332.339C649.049 333.985 648.916 335.483 648.916 336.832C648.916 337.129 648.932 337.667 648.979 338.455C649.018 339.227 649.08 340.358 649.166 341.856C649.267 343.353 649.462 345.342 649.759 347.815C650.047 350.272 650.39 353.384 650.788 357.144C650.975 358.502 651.116 359.828 651.225 361.138C651.326 362.448 651.42 363.728 651.506 364.976C654.415 365.959 657.262 367.121 660.055 368.47C662.863 369.828 665.375 371.356 667.606 373.057C669.829 374.742 671.638 376.575 673.035 378.548C674.447 380.53 675.156 382.683 675.156 385.007C675.156 385.405 675.102 385.943 675 386.63C674.915 387.3 674.673 387.94 674.283 388.564C673.908 389.188 673.425 389.75 672.848 390.249C672.262 390.725 671.443 390.966 670.383 390.966C669.322 390.966 668.175 390.631 666.95 389.968C665.741 389.282 664.462 388.018 663.113 386.161C661.755 384.149 660.024 382.222 657.902 380.389C655.78 378.541 653.456 376.832 650.944 375.272C650.359 378.08 649.337 380.654 647.886 382.979C646.428 385.288 644.642 387.316 642.52 389.063C640.398 390.81 638.003 392.16 635.344 393.119C632.676 394.094 629.797 394.586 626.701 394.586C624.579 394.586 622.208 394.243 619.587 393.556C616.982 392.885 614.517 391.879 612.192 390.53C609.86 389.18 607.894 387.464 606.295 385.381C604.712 383.307 603.924 380.857 603.924 378.049C603.924 376.013 604.4 374.009 605.359 372.027C606.334 370.03 607.863 368.283 609.946 366.785C612.021 365.288 614.727 364.087 618.058 363.166C621.404 362.253 625.398 361.793 630.039 361.793C631.974 361.793 633.877 361.848 635.749 361.949C637.637 362.035 639.462 362.277 641.209 362.667C641.1 360.842 641.03 358.72 640.991 356.302C640.944 353.868 640.929 351.395 640.929 348.876C640.929 343.946 641.147 339.765 641.584 336.333C642.021 332.901 643.003 329.906 644.548 327.347C646.085 324.773 648.331 322.472 651.287 320.451C654.236 318.416 658.23 316.38 663.269 314.336C664.033 314.047 664.642 313.806 665.078 313.618C665.515 313.431 665.734 313.104 665.734 312.62C665.734 312.043 665.125 310.834 663.924 309.001C662.715 307.152 660.749 305.553 658.027 304.196C656.194 303.431 655.281 302.698 655.281 302.012C655.281 301.247 656.194 300.857 658.027 300.857C660.648 300.857 663.362 301.387 666.17 302.448C668.979 303.509 671.537 304.991 673.846 306.879C676.17 308.774 678.089 310.982 679.587 313.494C681.085 315.99 681.834 318.696 681.834 321.606ZM640.336 292.308C640.336 293.166 639.969 294.149 639.244 295.272C638.51 296.38 637.309 297.487 635.624 298.611C633.939 299.718 631.662 300.826 628.791 301.949C625.936 303.057 622.395 304.04 618.152 304.913C613.3 317.105 609.236 326.957 605.952 334.461C602.66 341.949 599.852 347.799 597.528 351.996C595.219 356.2 593.261 359.032 591.662 360.483C590.055 361.941 588.432 362.667 586.794 362.667C585.546 362.667 584.501 362.136 583.674 361.076C582.863 360.015 582.457 358.47 582.457 356.427V356.146C582.457 355.569 582.598 354.726 582.894 353.619C583.183 352.495 583.549 351.31 583.986 350.062C584.423 348.798 584.922 347.581 585.484 346.411C586.061 345.249 586.646 344.375 587.231 343.79C589.08 341.778 590.991 339.321 592.972 336.427C594.946 333.517 596.903 330.397 598.838 327.066C600.772 323.72 602.613 320.256 604.361 316.676C606.108 313.104 607.606 309.617 608.854 306.224C607.793 306.333 606.771 306.403 605.796 306.442C604.836 306.489 603.869 306.505 602.894 306.505C599.025 306.505 595.827 306.052 593.315 305.132C590.819 304.219 588.822 303.065 587.325 301.668C585.827 300.256 584.751 298.704 584.111 297.019C583.487 295.319 583.175 293.642 583.175 291.996C583.175 291.621 583.315 291.434 583.612 291.434C583.713 291.434 583.955 291.528 584.329 291.715C586.467 293.361 589.228 294.57 592.598 295.334C595.983 296.107 599.618 296.489 603.487 296.489C604.836 296.489 606.24 296.45 607.699 296.364C609.15 296.263 610.554 296.114 611.911 295.927C612.676 292.058 613.136 289.469 613.284 288.158C613.425 286.848 613.503 286.099 613.503 285.912C613.503 284.664 613.3 283.681 612.91 282.948C612.535 282.222 612.052 281.668 611.475 281.294C610.889 280.904 610.273 280.607 609.634 280.42C609.01 280.217 608.417 280.061 607.855 279.952C606.396 279.664 605.671 279.188 605.671 278.517C605.671 277.752 606.342 276.762 607.699 275.553C609.049 274.328 610.983 273.712 613.503 273.712C615.039 273.712 616.56 273.985 618.058 274.523C619.556 275.069 620.905 275.756 622.114 276.582C623.339 277.394 624.306 278.33 625.016 279.391C625.741 280.451 626.108 281.567 626.108 282.729C626.108 283.79 625.718 284.944 624.953 286.192C624.181 287.94 623.409 289.781 622.645 291.715L622.052 293.182C623.401 292.682 624.735 292.082 626.046 291.372C627.356 290.646 628.588 289.89 629.758 289.094C630.921 288.221 632.418 287.784 634.251 287.784C635.788 287.784 637.184 288.205 638.432 289.032C639.696 289.866 640.336 290.958 640.336 292.308ZM640.929 371.216C638.994 370.553 636.841 370.093 634.47 369.843C632.099 369.594 629.946 369.469 628.011 369.469C621.521 369.469 616.997 370.233 614.439 371.746C611.88 373.244 610.601 374.859 610.601 376.583C610.601 378.915 611.974 380.787 614.719 382.199C617.481 383.595 621.092 384.289 625.546 384.289C628.058 384.289 630.211 383.884 632.005 383.073C633.791 382.246 635.312 381.2 636.56 379.952C637.824 378.689 638.791 377.285 639.462 375.74C640.149 374.18 640.632 372.675 640.929 371.216Z" fill="#FAFAFA"/>
<path d="M819.084 344.383C819.084 348.649 818.187 353.447 816.401 358.767C814.607 364.071 812.048 369.094 808.725 373.837C805.394 378.579 801.362 382.558 796.619 385.756C791.876 388.938 786.51 390.529 780.519 390.529C775.004 390.529 770.737 389.492 767.727 387.409C764.731 385.334 762.524 382.846 761.112 379.952C759.716 377.043 758.897 374.086 758.647 371.091C758.413 368.08 758.304 365.654 758.304 363.821C758.304 361.598 758.226 359.297 758.085 356.926C757.937 354.554 757.555 352.386 756.931 350.405C756.307 348.431 755.34 346.816 754.029 345.568C752.719 344.305 750.909 343.665 748.6 343.665C745.683 343.665 742.921 344.562 740.301 346.348C737.695 348.142 735.308 350.389 733.124 353.088C730.956 355.795 729.099 358.72 727.539 361.855C725.995 364.999 724.84 367.877 724.076 370.498C723.865 371.372 723.639 372.269 723.389 373.182C723.155 374.102 722.898 375.085 722.609 376.146C722.313 377.604 722.118 379.079 722.017 380.576C721.931 382.074 721.689 383.478 721.299 384.788C720.925 386.099 720.301 387.269 719.427 388.283C718.553 389.281 717.196 389.983 715.371 390.373C714.973 390.475 714.388 390.529 713.623 390.529C711.104 390.529 709.286 389.437 708.163 387.253C707.056 385.069 706.51 382.776 706.51 380.358C706.51 378.533 706.853 376.832 707.539 375.272C709.762 370.451 711.861 365.568 713.842 360.639C715.815 355.709 717.968 351.169 720.301 347.004C725.519 337.628 730.886 328.969 736.4 321.044C741.907 313.103 747.329 305.209 752.656 297.362C753.819 295.638 754.513 294.172 754.747 292.963C754.996 291.738 755.121 290.841 755.121 290.28C755.121 289.016 754.918 287.776 754.528 286.567C754.154 285.365 753.67 284.523 753.093 284.039C751.822 282.776 751.19 281.699 751.19 280.826C751.19 279.952 751.915 279.515 753.374 279.515C755.199 279.515 757.063 280.03 758.959 281.044C760.847 282.066 762.547 283.353 764.045 284.913C765.542 286.457 766.767 288.189 767.727 290.124C768.702 292.058 769.193 293.946 769.193 295.771C769.193 298.478 768.078 300.654 765.854 302.292C763.046 304.523 760.145 307.183 757.149 310.28C754.154 313.384 751.268 316.629 748.507 320.014C745.761 323.408 743.148 326.816 740.675 330.248C738.218 333.681 736.096 336.801 734.31 339.609C732.516 342.401 731.081 344.718 730.004 346.567C728.943 348.4 728.413 349.515 728.413 349.905V350.03C728.616 350.03 728.857 349.866 729.13 349.531C729.419 349.203 729.669 348.93 729.879 348.72C730.753 347.659 731.79 346.504 732.999 345.256C734.201 343.993 735.667 342.807 737.399 341.699C739.146 340.576 741.151 339.632 743.421 338.86C745.706 338.096 748.296 337.706 751.19 337.706C753.327 337.706 755.386 338.033 757.368 338.673C759.341 339.297 761.151 340.342 762.797 341.793C764.435 343.228 765.808 345.132 766.915 347.503C768.039 349.874 768.741 352.799 769.037 356.27C769.24 357.83 769.411 359.749 769.536 362.011C769.677 364.281 769.856 366.146 770.067 367.596C770.441 371.177 771.72 373.673 773.904 375.085C776.088 376.481 778.624 377.175 781.518 377.175C785.862 377.175 789.801 376.208 793.343 374.274C796.876 372.339 800.02 369.929 802.766 367.035C805.527 364.125 807.898 360.904 809.88 357.362C811.876 353.829 813.444 350.42 814.591 347.128C815.379 344.82 816.057 343.189 816.619 342.23C817.196 341.255 817.688 340.763 818.085 340.763C818.475 340.763 818.741 341.107 818.866 341.793C819.006 342.464 819.084 343.322 819.084 344.383Z" fill="#FAFAFA"/>
<path d="M924.838 285.038C925.711 285.038 927.115 285.217 929.05 285.569C930.984 285.904 932.919 286.458 934.853 287.222C936.788 287.994 938.48 288.985 939.939 290.186C941.39 291.395 942.123 292.87 942.123 294.617C942.123 296.161 941.483 297.441 940.22 298.455C938.972 299.476 937.178 299.984 934.853 299.984H933.98C933.394 299.984 932.833 299.968 932.295 299.921C931.772 299.859 931.273 299.828 930.797 299.828C928.964 299.828 927.193 299.937 925.493 300.14C923.808 300.327 922.139 300.514 920.501 300.701C917.006 301.099 913.028 302.409 908.582 304.633C904.151 306.863 899.97 309.796 896.039 313.431C892.123 317.051 888.839 321.325 886.179 326.255C883.511 331.185 882.185 336.606 882.185 342.511C882.185 348.213 883.441 352.979 885.961 356.801C888.472 360.608 891.397 363.681 894.728 366.006C898.075 368.314 901.468 369.984 904.9 370.998C908.332 372.02 910.922 372.527 912.669 372.527C913.145 372.527 913.574 372.511 913.948 372.464C914.338 372.402 914.923 372.277 915.696 372.09H916.569C917.731 372.09 919.112 372.293 920.719 372.683C922.318 373.057 923.839 373.665 925.274 374.492C926.725 375.304 927.965 376.294 928.987 377.456C930.001 378.626 930.516 379.976 930.516 381.513C930.516 383.369 930.001 384.804 928.987 385.818C927.965 386.817 926.749 387.589 925.337 388.127C923.94 388.673 922.513 389.017 921.062 389.157C919.627 389.282 918.472 389.344 917.599 389.344C913.543 389.344 908.964 388.361 903.87 386.38C898.792 384.407 894.026 381.536 889.58 377.768C885.126 373.985 881.405 369.367 878.41 363.915C875.415 358.447 873.917 352.176 873.917 345.101C873.917 340.069 874.642 335.335 876.101 330.904C877.552 326.458 879.471 322.292 881.842 318.424C884.213 314.555 886.897 311.029 889.892 307.846C892.887 304.648 895.929 301.824 899.034 299.391C893.519 300.764 887.786 302.659 881.842 305.069C875.89 307.487 870.305 310.093 865.087 312.901C863.152 313.962 861.327 314.913 859.627 315.74C857.942 316.551 855.929 316.957 853.605 316.957C851.772 316.957 849.642 316.645 847.209 316.021C844.791 315.397 842.497 314.461 840.313 313.213C838.145 311.949 836.319 310.436 834.822 308.689C833.324 306.941 832.575 305.007 832.575 302.885C832.575 301.349 832.864 300.342 833.449 299.859C834.026 299.359 834.51 299.11 834.884 299.11C835.173 299.11 835.61 299.258 836.195 299.547L836.912 299.984C841.07 302.503 845.477 303.759 850.142 303.759C852.926 303.759 855.633 303.322 858.254 302.448C863.184 300.998 867.77 299.625 872.014 298.33C876.273 297.019 880.602 295.818 884.993 294.71C889.401 293.587 894.073 292.495 899.003 291.434C903.948 290.374 909.471 289.305 915.571 288.221C916.047 288.143 916.616 287.987 917.287 287.753C917.973 287.503 918.55 287.238 919.034 286.941C919.72 286.551 920.571 286.13 921.593 285.693C922.607 285.256 923.691 285.038 924.838 285.038Z" fill="#FAFAFA"/>
<path d="M1001.46 392.558C1001.46 395.366 1000.73 397.589 999.28 399.235C997.821 400.873 996.175 401.7 994.35 401.7C991.355 401.7 988.64 399.469 986.206 395.023C983.687 390.093 980.419 385.311 976.409 380.67C972.392 376.013 968.063 372.277 963.429 369.469C962.259 368.704 961.682 367.987 961.682 367.316C961.682 366.255 962.603 365.725 964.459 365.725C965.411 365.725 967.298 366.185 970.106 367.097C972.915 368.018 976.004 369.219 979.373 370.717C982.759 372.214 986.097 373.931 989.389 375.865C992.696 377.8 995.356 379.789 997.376 381.824C998.539 383.182 999.506 384.82 1000.28 386.754C1001.07 388.689 1001.46 390.623 1001.46 392.558Z" fill="#FAFAFA"/>
<path d="M174.624 490.748C145.794 489.874 118.033 489.874 91.3478 490.748V479.297C118.243 480.732 145.997 480.732 174.624 479.297V490.748ZM196.964 509.188C186.707 508.899 176.106 508.681 165.17 508.533C154.25 508.392 143.275 508.314 132.253 508.314C121.223 508.314 110.349 508.392 99.6161 508.533C88.8829 508.681 78.5318 508.899 68.5708 509.188V497.706C78.6332 498.103 89.0545 498.376 99.8345 498.517C110.63 498.665 121.488 498.735 132.409 498.735C143.329 498.735 154.226 498.665 165.108 498.517C176.005 498.376 186.621 498.103 196.964 497.706V509.188ZM177.526 527.597C170.365 527.308 162.963 527.121 155.31 527.035C147.674 526.933 140.037 526.879 132.409 526.879C124.772 526.879 117.253 526.933 109.85 527.035C102.44 527.121 95.4039 527.308 88.7269 527.597V516.426C95.5053 516.723 102.588 516.972 109.975 517.175C117.377 517.362 124.897 517.456 132.534 517.456C140.186 517.456 147.807 517.362 155.404 517.175C162.994 516.972 170.365 516.723 177.526 516.426V527.597ZM177.526 546.598C170.365 546.31 162.963 546.122 155.31 546.037C147.674 545.935 140.037 545.88 132.409 545.88C124.772 545.88 117.253 545.935 109.85 546.037C102.44 546.122 95.4039 546.31 88.7269 546.598V535.428C95.5053 535.724 102.588 535.974 109.975 536.177C117.377 536.364 124.897 536.458 132.534 536.458C140.186 536.458 147.807 536.364 155.404 536.177C162.994 535.974 170.365 535.724 177.526 535.428V546.598ZM164.92 600.732C164.999 599.672 165.061 598.556 165.108 597.394C165.17 596.224 165.201 595.007 165.201 593.743H101.083C101.083 596.255 101.223 598.587 101.519 600.732H89.4757C89.6629 597.924 89.7721 594.75 89.8189 591.216C89.8813 587.682 89.9281 584.126 89.9749 580.545C90.0139 576.973 90.0373 573.572 90.0373 570.342C90.0373 567.097 90.0373 564.313 90.0373 561.98V555.896H176.215V561.856C176.215 564.164 176.215 566.926 176.215 570.124C176.215 573.306 176.231 576.692 176.278 580.264C176.34 583.845 176.41 587.425 176.496 590.998C176.598 594.57 176.699 597.815 176.808 600.732H164.92ZM165.482 565.6H100.771V570.842C100.771 572.487 100.786 574.422 100.833 576.645C100.895 578.876 100.927 581.341 100.927 584.04H165.357C165.435 581.232 165.482 578.72 165.482 576.489C165.482 574.266 165.482 572.292 165.482 570.561V565.6Z" fill="#FAFAFA"/>
<path d="M326.851 567.347C324.121 570.841 320.923 573.868 317.241 576.427C313.575 578.985 309.761 581.161 305.79 582.948C301.836 584.742 297.873 586.161 293.903 587.222C289.924 588.283 286.297 589.141 283.013 589.781C279.722 590.405 276.945 590.81 274.683 590.998C272.413 591.185 270.938 591.278 270.252 591.278C269.191 591.278 268.661 591.146 268.661 590.873C268.661 590.373 270.736 589.453 274.901 588.096C275.775 587.807 277.491 587.183 280.049 586.224C282.608 585.249 285.58 583.915 288.973 582.23C292.358 580.529 295.868 578.47 299.488 576.052C303.107 573.642 306.461 570.81 309.566 567.565C312.662 564.32 315.198 560.67 317.179 556.614C319.176 552.557 320.174 548.111 320.174 543.259C320.174 538.728 319.301 535.085 317.553 532.339C315.806 529.578 313.723 527.44 311.313 525.943C308.895 524.445 306.36 523.431 303.7 522.885C301.032 522.347 298.739 522.074 296.804 522.074C295.931 522.074 294.308 522.199 291.937 522.448C289.566 522.698 286.609 523.501 283.076 524.851C279.558 526.208 275.525 528.306 270.97 531.153C266.43 534.008 261.555 538.096 256.336 543.416C256.227 544.96 256.149 546.504 256.087 548.065C256.04 549.609 256.024 551.107 256.024 552.557C256.024 556.426 256.219 560.108 256.617 563.603C257.007 567.082 257.631 570.217 258.489 573.026C258.988 574.859 259.308 576.427 259.456 577.737C259.597 579.032 259.675 580.451 259.675 582.012C259.675 587.526 258.91 591.395 257.397 593.618C255.899 595.842 254.285 596.957 252.561 596.957C250.626 596.957 249.261 596.317 248.474 595.054C247.701 593.806 247.171 592.651 246.882 591.59C246.695 591.115 246.57 590.608 246.508 590.061C246.461 589.523 246.352 589.016 246.165 588.533C245.104 584.086 243.747 580.069 242.108 576.489C240.463 572.916 238.528 569.391 236.305 565.912C235.135 568.618 234.043 571.107 233.029 573.369C232.007 575.639 231.165 577.643 230.502 579.391C229.815 581.036 228.551 582.292 226.726 583.166C224.893 584.04 223.013 584.476 221.079 584.476C220.868 584.476 220.377 584.461 219.612 584.414C218.84 584.352 218.037 584.133 217.21 583.759C216.399 583.369 215.65 582.76 214.963 581.949C214.292 581.122 213.965 579.937 213.965 578.392C213.965 576.645 214.589 575.288 215.837 574.305C216.999 573.353 218.52 571.809 220.392 569.687C222.28 567.55 224.324 565.085 226.508 562.292C228.692 559.484 230.97 556.512 233.341 553.369C235.712 550.21 237.959 547.113 240.08 544.071C242.202 541.013 244.152 538.205 245.946 535.646C247.732 533.088 249.113 530.99 250.096 529.344C250.283 527.706 250.447 526.06 250.595 524.414C250.736 522.776 250.907 521.075 251.094 519.328H250.97C249.41 520.6 247.99 521.933 246.726 523.322C245.478 524.718 244.082 526.052 242.545 527.316C241.274 528.275 240.018 529.047 238.77 529.625C237.522 530.21 236.118 530.498 234.558 530.498C233.099 530.498 231.5 530.171 229.753 529.5C228.021 528.813 226.383 527.994 224.823 527.035C223.278 526.06 221.999 525.038 220.985 523.977C219.987 522.916 219.487 522.004 219.487 521.231C219.487 519.195 219.597 517.791 219.831 517.019C220.08 516.231 220.439 515.834 220.923 515.834C221.313 515.834 222.046 516.27 223.107 517.144C223.98 517.83 225.041 518.298 226.289 518.548C227.553 518.782 228.863 518.891 230.221 518.891C232.444 518.891 234.308 518.603 235.806 518.018C237.303 517.44 239.16 516.614 241.391 515.553C243.903 514.102 245.86 512.963 247.257 512.152C248.645 511.325 249.706 510.717 250.439 510.342C251.165 509.952 251.625 509.679 251.812 509.531C252.015 509.39 252.163 509.312 252.249 509.312C252.452 507.589 252.701 505.849 252.998 504.102C253.286 502.355 253.575 500.568 253.871 498.735C253.949 498.447 253.996 498.111 253.996 497.737C253.996 497.347 253.996 496.949 253.996 496.551C253.996 495.389 253.871 494.133 253.622 492.776C253.388 491.426 253.005 490.124 252.467 488.876C251.945 487.612 251.219 486.52 250.283 485.599C249.363 484.687 248.193 484.086 246.757 483.79C245.486 483.501 244.651 483.135 244.261 482.698C243.887 482.261 243.7 481.902 243.7 481.606V481.45C243.887 480.685 244.636 479.913 245.946 479.141C247.257 478.376 248.786 477.986 250.533 477.986C252.257 477.986 254.09 478.501 256.024 479.515C257.959 480.514 259.722 481.746 261.328 483.197C262.928 484.656 264.261 486.161 265.322 487.721C266.383 489.266 266.913 490.56 266.913 491.621C266.913 492.869 266.578 494.172 265.915 495.521C265.416 496.692 264.854 498.22 264.23 500.108C263.606 502.004 262.764 505.069 261.703 509.312C263.138 510.186 264.456 511.278 265.665 512.589C266.89 513.899 267.506 515.381 267.506 517.019C267.506 517.394 267.452 517.784 267.35 518.174C267.241 518.548 266.991 519.078 266.601 519.765C266.227 520.451 265.673 521.356 264.948 522.479C264.215 523.587 263.177 524.999 261.828 526.723C265.798 524.211 269.519 522.16 272.998 520.576C276.492 518.977 279.706 517.737 282.639 516.863C285.587 515.99 288.271 515.412 290.689 515.116C293.123 514.827 295.307 514.679 297.241 514.679C301.586 514.679 305.985 515.389 310.439 516.801C314.886 518.197 318.926 520.256 322.545 522.979C326.18 525.685 329.137 528.993 331.407 532.901C333.669 536.816 334.808 541.231 334.808 546.161C334.808 553.525 332.155 560.592 326.851 567.347ZM248.786 548.938C247.912 549.609 246.913 550.646 245.79 552.058C244.683 553.455 243.551 554.882 242.389 556.333C241.219 557.792 240.182 559.196 239.269 560.545C238.349 561.902 237.693 562.963 237.303 563.728H237.459C239.02 565.186 240.619 566.621 242.264 568.033C243.903 569.43 245.494 570.802 247.038 572.152C247.514 572.448 247.803 572.589 247.912 572.589C248.2 572.589 248.349 572.3 248.349 571.715C248.349 564.164 248.489 556.575 248.786 548.938Z" fill="#FAFAFA"/>
<path d="M466.254 512.807C467.978 512.807 469.858 513.026 471.902 513.463C473.938 513.899 475.802 514.539 477.487 515.366C479.172 516.177 480.56 517.168 481.668 518.33C482.791 519.477 483.353 520.725 483.353 522.074C483.353 523.244 483.009 524.149 482.323 524.789C481.652 525.413 480.888 525.873 480.014 526.161C479.156 526.458 478.337 526.622 477.549 526.661C476.777 526.708 476.348 526.723 476.27 526.723C475.685 526.723 475.069 526.708 474.429 526.661C473.805 526.622 473.158 526.551 472.495 526.442C469.101 526.154 466.442 525.912 464.507 525.725C462.573 525.522 461.075 525.374 460.014 525.288C458.953 525.186 458.204 525.132 457.768 525.132C457.331 525.132 456.91 525.132 456.52 525.132H456.364C456.176 525.132 455.771 525.163 455.147 525.225C454.523 525.272 453.501 525.366 452.089 525.506C450.693 525.654 448.688 525.818 446.067 526.005C445.981 526.59 445.833 527.706 445.63 529.344C445.443 530.99 445.178 532.831 444.85 534.867C444.515 536.887 444.148 538.97 443.758 541.107C443.36 543.229 442.924 545.116 442.448 546.754C442.339 547.339 441.98 548.58 441.356 550.467C440.732 552.339 439.835 554.297 438.672 556.333C437.502 558.353 436.005 560.163 434.179 561.762C432.346 563.369 430.123 564.165 427.502 564.165C426.831 564.165 426.176 564.001 425.537 563.665C424.913 563.314 424.211 562.714 423.446 561.856C422.463 560.483 421.777 558.884 421.387 557.051C421.012 555.226 420.147 553.525 418.797 551.965C417.44 550.53 416.09 549.157 414.741 547.846C413.384 546.536 412.416 545.647 411.839 545.163C411.067 544.586 410.505 543.977 410.154 543.353C409.819 542.714 409.655 542.152 409.655 541.669C409.655 540.904 410.092 540.514 410.966 540.514C411.543 540.514 412.604 540.904 414.148 541.669C414.437 541.778 415.162 542.137 416.332 542.761C417.494 543.385 418.828 544.063 420.326 544.789C421.824 545.522 423.298 546.154 424.757 546.692C426.207 547.215 427.362 547.472 428.22 547.472C428.797 547.472 429.406 547.308 430.03 546.973C430.669 546.645 431.285 546.021 431.87 545.101C432.448 544.165 433.002 542.807 433.524 541.013C434.062 539.227 434.523 536.887 434.897 533.993C435.186 531.957 435.474 529.773 435.771 527.441C423.103 529.297 411.73 531.918 401.668 535.303C401.668 536.162 401.621 536.832 401.543 537.332C401.434 539.851 401.356 542.277 401.293 544.601C401.246 546.91 401.231 549.126 401.231 551.247C401.231 554.539 401.426 557.8 401.824 561.045C402.214 564.289 403.235 567.191 404.881 569.75C406.519 572.308 409.008 574.391 412.338 575.99C415.685 577.597 420.264 578.392 426.067 578.392C428.002 578.392 429.905 578.322 431.777 578.174C433.665 578.034 435.435 577.854 437.081 577.644C439.406 577.269 441.246 576.973 442.604 576.739C443.953 576.489 445.014 576.318 445.786 576.208C446.551 576.107 447.128 576.052 447.502 576.052C447.892 576.052 448.29 576.052 448.688 576.052C449.749 576.052 450.95 576.13 452.307 576.271C453.657 576.419 454.991 576.708 456.301 577.144C457.612 577.581 458.704 578.26 459.577 579.173C460.451 580.093 460.888 581.279 460.888 582.729C460.888 584.563 460.154 586.037 458.704 587.16C457.245 588.268 455.349 589.11 453.025 589.687C450.716 590.272 448.103 590.67 445.193 590.873C442.3 591.06 439.452 591.154 436.644 591.154C426.098 591.154 417.799 589.711 411.746 586.817C405.708 583.907 401.215 580.062 398.267 575.272C395.31 570.467 393.446 564.929 392.682 558.642C391.909 552.363 391.473 545.834 391.371 539.048C389.437 539.843 387.549 540.67 385.724 541.544C383.891 542.402 382.104 543.26 380.357 544.133C377.736 545.491 375.552 546.411 373.805 546.91C372.073 547.394 370.536 547.628 369.187 547.628C367.44 547.628 365.427 547.316 363.165 546.692C360.895 546.052 358.688 545.194 356.55 544.133C354.429 543.073 352.635 541.793 351.184 540.296C349.725 538.798 349 537.176 349 535.428C349 534.664 349.195 533.946 349.593 533.275C349.983 532.589 350.326 532.152 350.622 531.965C350.997 531.762 351.324 531.559 351.621 531.372C351.909 531.185 352.252 531.091 352.65 531.091C352.939 531.091 353.228 531.239 353.524 531.528L353.805 531.965C354.967 533.213 356.753 534.087 359.171 534.586C361.582 535.069 363.953 535.303 366.285 535.303C367.346 535.303 368.282 535.257 369.093 535.147C369.92 535.046 371.16 534.804 372.806 534.43C374.444 534.04 376.691 533.431 379.546 532.62C382.393 531.793 386.293 530.647 391.246 529.188C391.137 525.615 391.059 522.324 390.997 519.328C390.95 516.333 390.934 513.868 390.934 511.934C390.934 509.422 390.349 507.097 389.187 504.976C388.04 502.838 386.207 501.481 383.696 500.92C382.136 500.631 381.356 499.999 381.356 499.016C381.356 498.626 381.738 498.041 382.51 497.269C383.298 496.505 385.045 496.115 387.752 496.115C389.288 496.115 391.044 496.388 393.025 496.926C395.022 497.448 396.878 498.221 398.61 499.235C400.357 500.257 401.831 501.497 403.04 502.948C404.265 504.383 404.881 506.068 404.881 508.002C404.881 509.087 404.772 510.14 404.569 511.154C404.382 512.152 404.195 513.143 404.008 514.118C403.711 516.052 403.446 518.041 403.196 520.077C402.962 522.098 402.744 524.071 402.541 526.005C407.198 524.757 412.253 523.478 417.705 522.168C423.173 520.857 429.39 519.625 436.363 518.455C436.441 516.146 436.488 513.806 436.488 511.434C436.488 509.063 436.488 506.661 436.488 504.227C436.488 502.792 436.395 501.325 436.207 499.828C436.02 498.33 435.654 496.926 435.115 495.615C434.593 494.305 433.821 493.143 432.807 492.121C431.785 491.107 430.451 490.405 428.813 490.03C427.065 489.64 426.192 489.001 426.192 488.127C426.192 487.753 426.551 487.207 427.284 486.473C428.009 485.748 429.484 485.381 431.714 485.381C433.462 485.381 435.342 485.693 437.362 486.317C439.398 486.941 441.309 487.799 443.103 488.876C444.889 489.937 446.363 491.177 447.534 492.589C448.696 493.985 449.281 495.506 449.281 497.144C449.281 498.392 448.984 499.843 448.407 501.481C448.298 501.879 448.22 502.246 448.158 502.573C448.111 502.909 448.048 503.322 447.97 503.821C447.76 505.842 447.58 507.924 447.44 510.062C447.315 512.183 447.144 514.36 446.941 516.583L449.718 516.146C450.966 515.943 451.972 515.795 452.744 515.709C453.509 515.608 454.211 515.483 454.835 515.335C455.474 515.194 456.091 515.046 456.676 514.898C457.253 514.757 457.877 514.539 458.548 514.243C459.421 513.954 460.622 513.642 462.167 513.307C463.727 512.979 465.084 512.807 466.254 512.807Z" fill="#FAFAFA"/>
<path d="M604.94 523.541C604.94 525.288 604.698 526.653 604.222 527.628C603.739 528.587 603.177 529.305 602.537 529.781C601.913 530.264 601.328 530.553 600.79 530.654C600.268 530.74 599.956 530.779 599.854 530.779C598.497 530.779 597.202 530.108 595.954 528.751C594.784 527.503 593.239 526.567 591.305 525.943C589.37 525.303 587.288 524.976 585.065 524.976C582.171 524.976 579.87 525.444 578.169 526.38C576.484 527.3 575.174 528.431 574.238 529.781C573.317 531.138 572.717 532.636 572.428 534.274C572.155 535.92 572.023 537.417 572.023 538.767C572.023 539.063 572.038 539.601 572.085 540.389C572.124 541.161 572.186 542.293 572.272 543.79C572.374 545.288 572.569 547.277 572.865 549.75C573.154 552.207 573.497 555.319 573.895 559.079C574.082 560.436 574.222 561.762 574.331 563.073C574.433 564.383 574.526 565.662 574.612 566.91C577.522 567.893 580.369 569.055 583.161 570.405C585.97 571.762 588.481 573.291 590.712 574.992C592.935 576.676 594.745 578.509 596.141 580.483C597.553 582.464 598.263 584.617 598.263 586.942C598.263 587.339 598.208 587.878 598.107 588.564C598.021 589.235 597.779 589.875 597.389 590.499C597.015 591.123 596.531 591.684 595.954 592.183C595.369 592.659 594.55 592.901 593.489 592.901C592.428 592.901 591.282 592.566 590.057 591.903C588.848 591.216 587.569 589.953 586.219 588.096C584.862 586.084 583.13 584.157 581.009 582.324C578.887 580.475 576.562 578.767 574.051 577.207C573.466 580.015 572.444 582.589 570.993 584.914C569.534 587.222 567.748 589.251 565.626 590.998C563.505 592.745 561.11 594.095 558.45 595.054C555.782 596.029 552.904 596.52 549.807 596.52C547.686 596.52 545.314 596.177 542.693 595.491C540.088 594.82 537.623 593.814 535.299 592.464C532.966 591.115 531.001 589.399 529.402 587.316C527.818 585.241 527.03 582.792 527.03 579.984C527.03 577.948 527.506 575.943 528.465 573.962C529.441 571.965 530.969 570.218 533.052 568.72C535.127 567.222 537.834 566.021 541.164 565.101C544.511 564.188 548.505 563.728 553.146 563.728C555.08 563.728 556.984 563.782 558.856 563.884C560.743 563.97 562.569 564.211 564.316 564.601C564.207 562.776 564.136 560.654 564.097 558.236C564.051 555.803 564.035 553.33 564.035 550.81C564.035 545.881 564.253 541.7 564.69 538.268C565.127 534.835 566.11 531.84 567.654 529.282C569.191 526.707 571.438 524.406 574.394 522.386C577.342 520.35 581.336 518.314 586.375 516.271C587.14 515.982 587.748 515.74 588.185 515.553C588.622 515.366 588.84 515.038 588.84 514.555C588.84 513.977 588.232 512.768 587.03 510.935C585.821 509.087 583.856 507.487 581.133 506.13C579.3 505.366 578.388 504.633 578.388 503.946C578.388 503.182 579.3 502.792 581.133 502.792C583.754 502.792 586.469 503.322 589.277 504.383C592.085 505.444 594.644 506.926 596.952 508.813C599.277 510.709 601.196 512.916 602.693 515.428C604.191 517.924 604.94 520.631 604.94 523.541ZM563.442 494.242C563.442 495.101 563.076 496.083 562.35 497.207C561.617 498.314 560.416 499.422 558.731 500.545C557.046 501.653 554.768 502.76 551.898 503.884C549.043 504.991 545.501 505.974 541.258 506.848C536.406 519.04 532.342 528.892 529.058 536.395C525.767 543.884 522.958 549.734 520.634 553.931C518.325 558.135 516.367 560.967 514.768 562.417C513.161 563.876 511.539 564.601 509.901 564.601C508.653 564.601 507.607 564.071 506.781 563.01C505.969 561.949 505.564 560.405 505.564 558.361V558.08C505.564 557.503 505.704 556.661 506.001 555.553C506.289 554.43 506.656 553.244 507.093 551.996C507.529 550.732 508.029 549.516 508.59 548.346C509.167 547.183 509.752 546.31 510.338 545.725C512.186 543.712 514.097 541.255 516.079 538.361C518.052 535.452 520.01 532.331 521.944 529.001C523.879 525.654 525.72 522.191 527.467 518.611C529.214 515.038 530.712 511.551 531.96 508.158C530.899 508.267 529.877 508.338 528.902 508.377C527.943 508.423 526.976 508.439 526.001 508.439C522.132 508.439 518.933 507.987 516.422 507.066C513.926 506.154 511.929 504.999 510.431 503.603C508.933 502.191 507.857 500.639 507.217 498.954C506.593 497.253 506.281 495.576 506.281 493.93C506.281 493.556 506.422 493.369 506.718 493.369C506.82 493.369 507.061 493.462 507.436 493.65C509.573 495.296 512.334 496.505 515.704 497.269C519.089 498.041 522.724 498.423 526.593 498.423C527.943 498.423 529.347 498.384 530.806 498.299C532.256 498.197 533.661 498.049 535.018 497.862C535.782 493.993 536.242 491.403 536.391 490.093C536.531 488.782 536.609 488.033 536.609 487.846C536.609 486.598 536.406 485.615 536.016 484.882C535.642 484.157 535.158 483.603 534.581 483.228C533.996 482.838 533.38 482.542 532.74 482.355C532.116 482.152 531.523 481.996 530.962 481.887C529.503 481.598 528.778 481.122 528.778 480.451C528.778 479.687 529.448 478.696 530.806 477.487C532.155 476.263 534.09 475.646 536.609 475.646C538.146 475.646 539.667 475.919 541.164 476.458C542.662 477.004 544.012 477.69 545.221 478.517C546.445 479.328 547.413 480.264 548.122 481.325C548.848 482.386 549.214 483.501 549.214 484.664C549.214 485.725 548.824 486.879 548.06 488.127C547.288 489.874 546.515 491.715 545.751 493.65L545.158 495.116C546.508 494.617 547.842 494.016 549.152 493.306C550.462 492.581 551.695 491.824 552.865 491.029C554.027 490.155 555.525 489.718 557.358 489.718C558.895 489.718 560.291 490.14 561.539 490.966C562.803 491.801 563.442 492.893 563.442 494.242ZM564.035 573.151C562.101 572.488 559.948 572.027 557.576 571.778C555.205 571.528 553.052 571.403 551.118 571.403C544.628 571.403 540.104 572.168 537.545 573.681C534.987 575.179 533.707 576.793 533.707 578.517C533.707 580.85 535.08 582.722 537.826 584.133C540.587 585.53 544.199 586.224 548.653 586.224C551.164 586.224 553.317 585.818 555.111 585.007C556.898 584.18 558.419 583.135 559.667 581.887C560.93 580.623 561.898 579.219 562.569 577.675C563.255 576.115 563.739 574.609 564.035 573.151Z" fill="#FAFAFA"/>
<path d="M742.94 539.203C743.314 540.763 743.501 542.409 743.501 544.133C743.501 547.05 742.753 549.671 741.255 551.995C739.757 554.304 737.799 555.459 735.389 555.459C733.158 555.459 731.629 554.304 730.802 551.995C729.991 549.671 729.344 546.66 728.868 542.978C728.369 540.092 727.464 537.019 726.153 533.774C724.859 530.529 723.267 527.393 721.38 524.351C719.508 521.293 717.331 518.485 714.859 515.927C712.378 513.368 709.749 511.309 706.965 509.749C705.108 508.797 704.188 507.923 704.188 507.128C704.188 506.176 705.155 505.693 707.089 505.693C709.125 505.693 711.933 506.426 715.514 507.877C719.086 509.312 722.706 511.434 726.372 514.242C730.054 517.05 733.439 520.537 736.543 524.694C739.64 528.86 741.77 533.696 742.94 539.203ZM679.819 540.076C679.422 541.909 678.985 544.156 678.509 546.816C678.025 549.484 677.573 552.144 677.136 554.803C676.699 557.471 676.356 559.889 676.106 562.073C675.872 564.242 675.763 565.755 675.763 566.629C675.763 568.376 676.145 570.022 676.918 571.559C677.308 572.245 677.713 573.173 678.135 574.335C678.571 575.482 678.79 576.582 678.79 577.643C678.79 579.499 677.963 581.153 676.325 582.604C674.679 584.039 672.503 584.757 669.804 584.757C667.971 584.757 665.818 584.429 663.345 583.758C660.888 583.072 658.4 582.089 655.888 580.794C653.369 579.484 650.927 577.861 648.556 575.927C646.184 573.992 644.172 571.769 642.534 569.25C639.055 563.821 636.886 558.134 636.013 552.183C635.139 546.239 634.702 539.788 634.702 532.838C634.702 531.176 634.718 529.499 634.765 527.814C634.804 526.129 634.827 524.367 634.827 522.51C634.827 518.563 634.531 515.037 633.953 511.933C633.392 508.836 632.471 506.465 631.208 504.819C629.96 503.282 629.336 502.167 629.336 501.48C629.336 501.293 629.375 501.153 629.46 501.044C629.749 500.856 630.209 500.724 630.833 500.638C631.473 500.537 632.035 500.482 632.518 500.482C632.705 500.482 633.595 500.7 635.202 501.137C636.801 501.558 638.517 502.401 640.35 503.664C642.198 504.913 643.844 506.683 645.28 508.969C646.73 511.239 647.464 514.211 647.464 517.892C647.464 519.538 647.315 521.075 647.027 522.51C646.442 525.427 645.982 528.407 645.654 531.465C645.319 534.507 645.155 537.518 645.155 540.513C645.155 546.504 645.794 551.293 647.089 554.866C648.4 558.446 649.929 561.161 651.676 563.009C653.423 564.842 655.116 566.028 656.762 566.566C658.4 567.089 659.554 567.346 660.225 567.346C662.159 567.346 663.759 566.091 665.03 563.571C666.964 559.913 668.774 555.927 670.459 551.621C672.144 547.315 673.907 542.994 675.763 538.641C677.3 534.959 678.556 533.119 679.539 533.119C680.116 533.119 680.412 533.891 680.412 535.427C680.412 536.699 680.209 538.251 679.819 540.076Z" fill="#FAFAFA"/>
<path d="M801.376 582.167C801.376 584.773 800.861 587.238 799.847 589.562C798.849 591.871 797.476 593.899 795.728 595.646C793.981 597.394 791.937 598.766 789.613 599.765C787.304 600.779 784.839 601.294 782.218 601.294C779.613 601.294 777.148 600.779 774.823 599.765C772.515 598.766 770.487 597.394 768.739 595.646C766.992 593.899 765.604 591.871 764.589 589.562C763.591 587.238 763.092 584.773 763.092 582.167C763.092 579.546 763.591 577.082 764.589 574.773C765.604 572.448 766.992 570.404 768.739 568.657C770.487 566.91 772.515 565.537 774.823 564.539C777.148 563.525 779.613 563.01 782.218 563.01C784.839 563.01 787.304 563.525 789.613 564.539C791.937 565.537 793.981 566.91 795.728 568.657C797.476 570.404 798.849 572.448 799.847 574.773C800.861 577.082 801.376 579.546 801.376 582.167ZM795.728 582.167C795.728 580.319 795.362 578.571 794.636 576.926C793.903 575.287 792.936 573.86 791.735 572.651C790.526 571.45 789.098 570.482 787.46 569.749C785.814 569.024 784.067 568.657 782.218 568.657C780.385 568.657 778.646 569.024 777.008 569.749C775.362 570.482 773.934 571.45 772.733 572.651C771.524 573.86 770.557 575.287 769.831 576.926C769.098 578.571 768.739 580.319 768.739 582.167C768.739 584 769.098 585.74 769.831 587.378C770.557 589.024 771.524 590.451 772.733 591.653C773.934 592.854 775.362 593.821 777.008 594.554C778.646 595.28 780.385 595.646 782.218 595.646C784.067 595.646 785.814 595.28 787.46 594.554C789.098 593.821 790.526 592.854 791.735 591.653C792.936 590.451 793.903 589.024 794.636 587.378C795.362 585.74 795.728 584 795.728 582.167Z" fill="#FAFAFA"/>
<mask id="mask3_1681_263" style="mask-type:luminance" maskUnits="userSpaceOnUse" x="107" y="0" width="247" height="72">
<path d="M107.832 0.974609H353.449V71.8874H107.832V0.974609Z" fill="white"/>
</mask>
<g mask="url(#mask3_1681_263)">
<mask id="mask4_1681_263" style="mask-type:luminance" maskUnits="userSpaceOnUse" x="107" y="0" width="247" height="72">
<path d="M353.449 0H107.832V71.8878H353.449V0Z" fill="white"/>
</mask>
<g mask="url(#mask4_1681_263)">
<path d="M171.297 26.3847C171.297 26.7201 171.25 26.9931 171.172 27.1959C171.11 27.4065 170.93 27.6483 170.642 27.9135C170.369 28.1631 169.963 28.4673 169.425 28.8184C168.902 29.1538 168.154 29.5984 167.178 30.16C166.718 30.394 166.367 30.6202 166.118 30.8464C165.283 31.5563 164.214 32.3987 162.904 33.3738C161.609 34.3566 160.221 35.394 158.723 36.4939C157.241 37.5781 155.673 38.7014 154.012 39.8636C152.366 41.0103 150.774 42.1257 149.238 43.2022C150.962 44.3254 152.311 45.4409 153.294 46.5407C154.269 47.625 154.987 48.6234 155.447 49.536C155.923 50.4331 156.203 51.2365 156.289 51.9385C156.391 52.625 156.445 53.1554 156.445 53.5298C156.445 55.1523 156.008 56.5095 155.135 57.586C154.277 58.6468 153.231 59.1772 151.983 59.1772C151.047 59.1772 150.096 58.8496 149.144 58.1788C148.185 57.4924 147.288 56.3613 146.461 54.7779C144.417 51.0571 142.139 47.8512 139.628 45.1679C137.108 42.4689 134.3 40.16 131.203 38.2412C129.745 37.3285 129.019 36.6811 129.019 36.3067C129.019 36.0181 129.394 35.8699 130.143 35.8699C130.704 35.8699 131.5 35.9947 132.545 36.2443C133.582 36.4783 134.799 36.7981 136.196 37.2115C137.607 37.6327 139.113 38.1476 140.72 38.7716C142.319 39.3956 143.91 40.1288 145.494 40.9557C147.116 39.2942 148.621 37.6639 150.018 36.0571C151.406 34.458 152.623 33.0149 153.668 31.7201C154.729 30.4096 155.548 29.3176 156.133 28.4439C156.71 27.5547 157.007 27.0321 157.007 26.8839C157.007 26.7825 156.929 26.7279 156.788 26.7279H156.57C152.904 27.2505 149.675 27.7263 146.866 28.1631C144.074 28.6 141.593 29.0368 139.409 29.4736C137.225 29.8948 135.267 30.3316 133.543 30.784C131.835 31.2443 130.213 31.7513 128.676 32.3129C127.568 32.7341 126.554 32.9369 125.618 32.9369C124.495 32.9369 123.224 32.7185 121.812 32.2817C120.392 31.8449 119.043 31.2209 117.756 30.4096C116.484 29.5984 115.4 28.6624 114.511 27.6015C113.637 26.5251 113.2 25.355 113.2 24.107C113.2 23.4439 113.247 22.8745 113.356 22.3909C113.481 21.8917 113.746 21.6421 114.167 21.6421C114.542 21.6421 115.103 21.9463 115.852 22.5469C116.64 23.2567 117.67 23.7793 118.941 24.107C120.228 24.419 121.422 24.575 122.529 24.575C123.567 24.575 124.573 24.5282 125.556 24.419C126.531 24.2942 127.412 24.1616 128.208 24.0134C130.556 23.6389 133.052 23.2957 135.696 22.9837C138.356 22.6561 140.977 22.3285 143.559 22.0165C146.133 21.6889 148.582 21.3924 150.891 21.1428C153.2 20.8776 155.182 20.6436 156.851 20.4564C157.264 20.4174 157.646 20.3004 158.005 20.1132C158.356 19.926 158.707 19.7388 159.066 19.5516C159.441 19.3644 159.815 19.2006 160.189 19.0523C160.564 18.8885 160.985 18.8027 161.469 18.8027C162.194 18.8027 163.122 19.0679 164.246 19.5828C165.369 20.082 166.445 20.706 167.491 21.4548C168.528 22.1881 169.425 22.9993 170.174 23.8886C170.923 24.7622 171.297 25.5968 171.297 26.3847Z" fill="black"/>
<path d="M277.344 5.94727C277.531 5.94727 277.952 6.00187 278.623 6.10327C279.286 6.18908 280.074 6.35288 280.994 6.60249C281.907 6.8365 282.874 7.12512 283.896 7.47613C284.91 7.81155 285.862 8.24056 286.735 8.75538C287.624 9.25461 288.342 9.86303 288.888 10.5651C289.45 11.2515 289.731 12.0471 289.731 12.9364C289.731 13.81 289.465 14.5744 288.951 15.2141C288.451 15.8381 287.859 16.1501 287.172 16.1501C286.751 16.1501 286.306 16.0253 285.83 15.7757C285.37 15.5105 284.933 15.0503 284.52 14.4028C283.436 12.7804 282.242 11.4543 280.932 10.4091C279.637 9.34821 278.319 8.49797 276.969 7.85055C276.174 7.37473 275.784 6.97691 275.784 6.6649C275.784 6.47769 275.862 6.34508 276.033 6.25928C276.197 6.15788 276.376 6.08767 276.564 6.04087C276.751 5.97847 276.938 5.94727 277.125 5.94727H277.344ZM270.011 10.6899L270.916 10.8459C271.517 10.9317 272.266 11.0799 273.163 11.2827C274.075 11.4933 275.05 11.7741 276.096 12.1251C277.156 12.4839 278.131 12.9286 279.029 13.4668C279.941 13.9894 280.698 14.6134 281.306 15.3389C281.907 16.0721 282.211 16.8911 282.211 17.8038C282.211 18.7008 281.93 19.4886 281.369 20.1751C280.807 20.8459 280.16 21.1735 279.434 21.1735C279.013 21.1735 278.568 21.0409 278.092 20.7679C277.632 20.4793 277.219 20.0113 276.844 19.3638C275.784 17.679 274.582 16.2593 273.256 15.0893C271.922 13.927 270.729 13.0924 269.668 12.5931C268.833 12.2187 268.42 11.8287 268.42 11.4075C268.42 11.3061 268.459 11.2125 268.545 11.1267C268.81 10.8381 269.302 10.6899 270.011 10.6899ZM263.677 22.7648C263.677 24.161 263.28 25.3389 262.492 26.2905C261.696 27.25 260.69 27.7258 259.465 27.7258C258.857 27.7258 258.233 27.562 257.593 27.2266C256.946 26.899 256.345 26.3841 255.784 25.6977C253.826 23.225 251.883 21.2827 249.949 19.8631C248.03 18.4512 246.4 17.4216 245.05 16.7741C244.255 16.3997 243.709 16.0877 243.397 15.8381C243.1 15.5729 242.96 15.3389 242.96 15.1517C242.96 14.8864 243.248 14.707 243.833 14.6212C244.411 14.5198 245.066 14.4652 245.799 14.4652C251.704 14.4652 256.158 15.2687 259.153 16.8677C262.164 18.4746 263.677 20.4403 263.677 22.7648ZM293.662 18.8022C293.662 19.2234 293.366 20.1283 292.788 21.5167C292.203 22.913 291.306 24.6369 290.105 26.6961C288.896 28.7398 287.344 31.0565 285.456 33.654C283.561 36.2594 281.314 39.0129 278.717 41.9224C276.111 44.8163 273.139 47.8038 269.793 50.8772C266.439 53.9349 262.679 56.9536 258.498 59.9256C257.999 60.3 257.562 60.7524 257.188 61.2672C256.813 61.7664 256.361 62.2267 255.846 62.6401C255.238 63.0769 254.473 63.2953 253.537 63.2953C252.102 63.2953 250.604 62.9677 249.044 62.3281C247.484 61.665 246.064 60.8538 244.801 59.8944C243.529 58.9427 242.468 57.9131 241.618 56.8054C240.784 55.6822 240.37 54.6837 240.37 53.8101C240.37 52.7336 240.628 51.8912 241.15 51.2828C241.688 50.6822 242.102 50.378 242.398 50.378C242.585 50.378 242.882 50.5886 243.303 51.002C243.381 51.1502 243.49 51.3062 243.615 51.47C243.74 51.6416 243.911 51.8132 244.145 52.0004C245.159 53.0223 246.532 53.5293 248.264 53.5293C249.699 53.5293 251.548 52.9911 253.818 51.9068C256.103 50.807 258.568 49.3717 261.213 47.601C263.872 45.8382 266.618 43.8413 269.45 41.6104C272.273 39.3639 274.988 37.1018 277.593 34.8085C280.214 32.4996 282.585 30.2687 284.707 28.1002C286.844 25.9395 288.553 24.044 289.824 22.4216C290.885 21.0331 291.704 20.0347 292.289 19.4262C292.866 18.8256 293.272 18.5214 293.506 18.5214C293.607 18.5214 293.662 18.615 293.662 18.8022ZM240.932 29.2547C242.929 29.2547 244.863 29.3795 246.735 29.6291C248.623 29.8787 250.3 30.2999 251.759 30.8771C253.233 31.4621 254.418 32.2422 255.316 33.2172C256.228 34.2001 256.688 35.4169 256.688 36.8678C256.688 38.1626 256.314 39.3171 255.565 40.3311C254.832 41.353 253.857 41.86 252.632 41.86C251.423 41.86 250.175 41.197 248.888 39.8631C247.866 38.7399 246.805 37.7414 245.706 36.8678C244.621 35.9785 243.56 35.1985 242.523 34.5277C241.501 33.8412 240.573 33.2796 239.746 32.8428C238.911 32.406 238.233 32.094 237.718 31.9068C236.844 31.5792 236.228 31.2983 235.877 31.0643C235.518 30.8381 235.347 30.6275 235.347 30.4403C235.347 30.2531 235.729 30.0191 236.501 29.7227C237.266 29.4107 238.748 29.2547 240.932 29.2547Z" fill="black"/>
</g>
</g>
</g>
</g>
</g>
<defs>
<clipPath id="clip0_1681_263">
<rect width="1248" height="641" fill="white"/>
</clipPath>
</defs>
</svg>
