<svg width="40" height="40" viewBox="0 0 40 40" fill="none" xmlns="http://www.w3.org/2000/svg">
<mask id="mask0_90_30" style="mask-type:alpha" maskUnits="userSpaceOnUse" x="0" y="0" width="40" height="40">
<rect width="40" height="40" fill="#D9D9D9"/>
</mask>
<g mask="url(#mask0_90_30)">
<path d="M19.8491 21.6367L7.76164 33.6858C7.56081 33.8867 7.31914 33.9912 7.03664 33.9996C6.75442 34.0076 6.5047 33.903 6.28747 33.6858C6.07581 33.4744 5.96997 33.2287 5.96997 32.9487C5.96997 32.6687 6.07581 32.423 6.28747 32.2117L22.7404 15.7587C22.1557 14.431 22.0257 13.0866 22.3504 11.7258C22.6751 10.3653 23.4312 9.09345 24.6187 7.9104C25.7859 6.75429 27.2222 5.98498 28.9275 5.60248C30.6325 5.21998 32.0473 5.58748 33.1721 6.70498C34.3009 7.83387 34.6666 9.24526 34.2691 10.9391C33.8716 12.6328 33.0743 14.0875 31.8771 15.3033C30.7537 16.4422 29.5193 17.1815 28.1737 17.5212C26.8279 17.861 25.5139 17.7591 24.2316 17.2158L21.3237 20.1237L33.4221 32.2117C33.6229 32.4125 33.7255 32.654 33.73 32.9362C33.7347 33.2187 33.6321 33.4686 33.4221 33.6858C33.2104 33.8975 32.9647 34.0005 32.685 33.995C32.405 33.9897 32.1591 33.8867 31.9475 33.6858L19.8491 21.6367ZM12.1783 20.0833L7.38789 15.3033C6.33789 14.2464 5.66553 12.9373 5.37081 11.3762C5.07581 9.81484 5.33109 8.38387 6.13664 7.08332C6.35831 6.72582 6.67345 6.51929 7.08206 6.46373C7.49095 6.40818 7.85039 6.53456 8.16039 6.8429L16.7808 15.4808L12.1783 20.0833Z" fill="#1C1B1F"/>
</g>
</svg>
