<svg width="846" height="566" viewBox="0 0 846 566" fill="none" xmlns="http://www.w3.org/2000/svg">
<path d="M423.338 2.40858C192.014 2.40858 4.48847 122.743 4.48847 271.184C4.48847 419.624 192.014 539.959 423.338 539.959C654.662 539.959 842.188 419.624 842.188 271.184C842.188 122.743 654.662 2.40858 423.338 2.40858Z" fill="#F5F5F5"/>
<path d="M422.744 542.548C397.807 542.548 373.373 541.153 349.615 538.494L297.356 565.449C295.685 566.312 293.237 566.141 291.893 565.068C290.548 563.995 290.814 562.425 292.486 561.562L347.482 533.196L349.222 533.396C373.083 536.134 397.651 537.562 422.744 537.562C537.349 537.562 641.067 507.761 716.175 459.569C791.276 411.371 837.716 344.815 837.718 271.275C837.716 197.734 791.276 131.178 716.175 82.9813C641.067 34.7895 537.349 4.98898 422.744 4.98824C308.141 4.98898 204.423 34.7895 129.315 82.9813C54.214 131.178 7.77484 197.733 7.77252 271.275C7.76672 386.994 122.807 485.472 283.491 522.198C285.512 522.66 286.567 524.086 285.848 525.384C285.128 526.682 282.904 527.359 280.882 526.897H280.883C117.18 489.487 0.00602147 389.161 0.000218613 271.276C0.00253976 121.453 189.267 0.00148947 422.744 0C656.223 0.00148947 845.489 121.453 845.49 271.275C845.489 421.096 656.223 542.546 422.744 542.548Z" fill="black"/>
<path d="M108.019 231.804C107.846 232.497 107.707 233.138 107.603 233.728C107.534 234.282 107.447 234.854 107.343 235.444C107.204 236.414 107.031 237.628 106.823 239.084C106.65 240.54 106.442 242.134 106.199 243.868C105.991 245.601 105.766 247.386 105.523 249.224C105.315 251.061 105.107 252.846 104.899 254.58C104.726 256.313 104.587 257.89 104.483 259.312C104.379 260.733 104.327 261.912 104.327 262.848C104.327 265.378 105.038 267.372 106.459 268.828C107.915 270.284 110.116 271.012 113.063 271.012C115.732 271.012 118.02 270.648 119.927 269.92C121.868 269.192 123.359 268.169 124.399 266.852C125.474 265.5 126.011 263.94 126.011 262.172C126.011 260.438 125.543 258.653 124.607 256.816C123.671 254.944 122.25 253.193 120.343 251.564L124.919 250.628C126.687 252.604 128.004 254.545 128.871 256.452C129.772 258.324 130.223 260.386 130.223 262.64C130.223 265.205 129.495 267.424 128.039 269.296C126.618 271.168 124.624 272.589 122.059 273.56C119.494 274.565 116.495 275.068 113.063 275.068C110.706 275.068 108.556 274.686 106.615 273.924C104.708 273.196 103.183 271.982 102.039 270.284C100.895 268.585 100.323 266.314 100.323 263.472C100.323 262.362 100.392 260.906 100.531 259.104C100.704 257.301 100.912 255.342 101.155 253.228C101.432 251.078 101.71 248.894 101.987 246.676C102.299 244.422 102.559 242.308 102.767 240.332C103.01 238.356 103.183 236.64 103.287 235.184C103.391 234.282 103.443 233.572 103.443 233.052C103.443 232.497 103.408 231.977 103.339 231.492L108.019 231.804ZM91.3271 238.72C92.8177 239.17 94.4471 239.552 96.2151 239.864C97.9831 240.176 99.7684 240.418 101.571 240.592C103.374 240.73 105.038 240.8 106.563 240.8C108.574 240.8 110.463 240.748 112.231 240.644C114.034 240.54 115.68 240.366 117.171 240.124L117.067 244.024C115.403 244.162 113.756 244.284 112.127 244.388C110.498 244.457 108.626 244.492 106.511 244.492C104.986 244.492 103.322 244.422 101.519 244.284C99.7164 244.11 97.9137 243.868 96.1111 243.556C94.3084 243.244 92.6444 242.897 91.1191 242.516L91.3271 238.72ZM90.0791 251.616C91.7431 252.205 93.4937 252.673 95.3311 253.02C97.2031 253.332 99.0404 253.557 100.843 253.696C102.646 253.834 104.362 253.904 105.991 253.904C107.759 253.904 109.544 253.869 111.347 253.8C113.184 253.696 115.004 253.505 116.807 253.228L116.703 257.18C115.004 257.388 113.323 257.526 111.659 257.596C109.995 257.665 108.279 257.7 106.511 257.7C103.703 257.7 100.808 257.526 97.8271 257.18C94.8804 256.833 92.2284 256.313 89.8711 255.62L90.0791 251.616ZM145.303 251.928C146.1 251.754 146.898 251.564 147.695 251.356C148.527 251.113 149.359 250.87 150.191 250.628C151.092 250.35 152.271 249.969 153.727 249.484C155.183 248.998 156.76 248.53 158.459 248.08C160.158 247.629 161.874 247.23 163.607 246.884C165.375 246.537 167.022 246.364 168.547 246.364C171.008 246.364 173.192 246.832 175.099 247.768C177.006 248.704 178.496 250.038 179.571 251.772C180.68 253.47 181.235 255.516 181.235 257.908C181.235 260.404 180.663 262.605 179.519 264.512C178.375 266.384 176.746 267.978 174.631 269.296C172.551 270.613 170.055 271.653 167.143 272.416C164.266 273.178 161.076 273.664 157.575 273.872L155.911 269.868C158.719 269.764 161.388 269.486 163.919 269.036C166.45 268.55 168.703 267.84 170.679 266.904C172.655 265.968 174.198 264.754 175.307 263.264C176.451 261.738 177.023 259.918 177.023 257.804C177.023 256.313 176.659 254.996 175.931 253.852C175.203 252.708 174.18 251.806 172.863 251.148C171.58 250.454 170.038 250.108 168.235 250.108C166.952 250.108 165.514 250.281 163.919 250.628C162.324 250.94 160.678 251.356 158.979 251.876C157.28 252.396 155.651 252.95 154.091 253.54C152.531 254.094 151.144 254.614 149.931 255.1C148.718 255.55 147.764 255.914 147.071 256.192L145.303 251.928ZM231.311 241.632C230.722 242.013 230.098 242.377 229.439 242.724C228.78 243.07 228.07 243.434 227.307 243.816C226.44 244.301 225.366 244.856 224.083 245.48C222.8 246.104 221.431 246.797 219.975 247.56C218.519 248.322 217.063 249.12 215.607 249.952C214.151 250.784 212.782 251.616 211.499 252.448C209.072 254.008 207.166 255.654 205.779 257.388C204.427 259.121 203.751 260.976 203.751 262.952C203.751 265.101 204.774 266.817 206.819 268.1C208.899 269.348 211.984 269.972 216.075 269.972C217.982 269.972 219.958 269.902 222.003 269.764C224.048 269.59 226.007 269.365 227.879 269.088C229.786 268.81 231.398 268.516 232.715 268.204V272.832C231.432 273.074 229.907 273.282 228.139 273.456C226.406 273.664 224.534 273.82 222.523 273.924C220.512 274.062 218.432 274.132 216.283 274.132C213.822 274.132 211.568 273.924 209.523 273.508C207.478 273.126 205.692 272.52 204.167 271.688C202.676 270.856 201.515 269.764 200.683 268.412C199.851 267.025 199.435 265.361 199.435 263.42C199.435 261.513 199.834 259.762 200.631 258.168C201.428 256.538 202.572 254.996 204.063 253.54C205.554 252.084 207.322 250.68 209.367 249.328C210.684 248.426 212.088 247.56 213.579 246.728C215.104 245.861 216.595 245.029 218.051 244.232C219.507 243.434 220.859 242.706 222.107 242.048C223.39 241.389 224.464 240.834 225.331 240.384C226.059 239.933 226.718 239.534 227.307 239.188C227.896 238.806 228.468 238.39 229.023 237.94L231.311 241.632ZM204.999 232.22C205.796 234.438 206.646 236.605 207.547 238.72C208.483 240.834 209.419 242.81 210.355 244.648C211.326 246.485 212.21 248.114 213.007 249.536L209.419 251.668C208.552 250.246 207.634 248.565 206.663 246.624C205.692 244.682 204.722 242.62 203.751 240.436C202.78 238.252 201.827 236.085 200.891 233.936L204.999 232.22ZM254.035 229.204L257.675 230.244C256.704 233.19 255.543 236.102 254.191 238.98C252.839 241.822 251.366 244.509 249.771 247.04C248.211 249.57 246.564 251.824 244.831 253.8C244.727 253.488 244.536 253.089 244.259 252.604C243.982 252.118 243.687 251.633 243.375 251.148C243.098 250.628 242.82 250.229 242.543 249.952C244.103 248.253 245.594 246.294 247.015 244.076C248.436 241.822 249.736 239.43 250.915 236.9C252.128 234.369 253.168 231.804 254.035 229.204ZM249.303 242.568L252.943 238.876L253.047 238.928V276.732H249.303V242.568ZM271.195 229.152H274.991V276.524H271.195V229.152ZM256.479 239.5H290.591V243.244H256.479V239.5ZM262.615 263.576H283.363V267.164H262.615V263.576ZM276.863 241.424C277.868 244.509 279.134 247.577 280.659 250.628C282.184 253.644 283.883 256.434 285.755 259C287.627 261.53 289.568 263.61 291.579 265.24C291.128 265.586 290.608 266.054 290.019 266.644C289.464 267.233 288.996 267.788 288.615 268.308C286.604 266.436 284.663 264.13 282.791 261.392C280.954 258.618 279.272 255.602 277.747 252.344C276.222 249.05 274.939 245.705 273.899 242.308L276.863 241.424ZM269.531 241.216L272.443 242.048C271.368 245.549 270.034 248.964 268.439 252.292C266.879 255.585 265.146 258.636 263.239 261.444C261.332 264.217 259.339 266.557 257.259 268.464C257.051 268.152 256.774 267.805 256.427 267.424C256.115 267.042 255.786 266.678 255.439 266.332C255.092 265.985 254.763 265.708 254.451 265.5C256.496 263.87 258.472 261.756 260.379 259.156C262.286 256.556 264.036 253.713 265.631 250.628C267.226 247.508 268.526 244.37 269.531 241.216ZM295.687 272H342.331V275.172H295.687V272ZM295.999 238.2H342.071V241.424H295.999V238.2ZM299.587 264.356H339.055V267.476H299.587V264.356ZM316.851 232.948H320.751V273.508H316.851V232.948ZM334.947 229.308L337.027 232.324C334.704 232.74 332.07 233.121 329.123 233.468C326.211 233.78 323.143 234.057 319.919 234.3C316.695 234.508 313.454 234.698 310.195 234.872C306.936 235.01 303.782 235.097 300.731 235.132C300.731 234.681 300.627 234.161 300.419 233.572C300.246 232.948 300.072 232.445 299.899 232.064C302.915 231.96 306.035 231.838 309.259 231.7C312.518 231.526 315.707 231.336 318.827 231.128C321.982 230.885 324.928 230.608 327.667 230.296C330.44 229.984 332.867 229.654 334.947 229.308ZM305.047 253.956V257.908H333.127V253.956H305.047ZM305.047 247.404V251.304H333.127V247.404H305.047ZM301.251 244.596H337.079V260.768H301.251V244.596ZM368.903 231.544C368.695 232.584 368.418 233.814 368.071 235.236C367.759 236.622 367.239 238.2 366.511 239.968C365.887 241.528 365.107 243.14 364.171 244.804C363.27 246.468 362.299 247.976 361.259 249.328C361.918 248.912 362.663 248.565 363.495 248.288C364.327 247.976 365.176 247.75 366.043 247.612C366.944 247.473 367.759 247.404 368.487 247.404C370.498 247.404 372.196 247.976 373.583 249.12C374.97 250.229 375.663 251.858 375.663 254.008C375.663 254.666 375.663 255.516 375.663 256.556C375.663 257.561 375.663 258.636 375.663 259.78C375.698 260.889 375.732 261.981 375.767 263.056C375.802 264.13 375.819 265.066 375.819 265.864H371.815C371.85 265.17 371.884 264.356 371.919 263.42C371.954 262.484 371.971 261.496 371.971 260.456C372.006 259.416 372.006 258.428 371.971 257.492C371.971 256.556 371.971 255.758 371.971 255.1C371.971 253.574 371.503 252.465 370.567 251.772C369.666 251.044 368.522 250.68 367.135 250.68C365.506 250.68 363.894 251.044 362.299 251.772C360.739 252.465 359.37 253.366 358.191 254.476C357.428 255.204 356.666 256.036 355.903 256.972C355.175 257.873 354.36 258.844 353.459 259.884L349.923 257.284C352.419 254.857 354.499 252.586 356.163 250.472C357.827 248.357 359.179 246.398 360.219 244.596C361.259 242.758 362.074 241.112 362.663 239.656C363.218 238.2 363.668 236.744 364.015 235.288C364.362 233.797 364.57 232.428 364.639 231.18L368.903 231.544ZM351.119 237.16C352.506 237.333 354.014 237.472 355.643 237.576C357.272 237.68 358.694 237.732 359.907 237.732C362.23 237.732 364.726 237.68 367.395 237.576C370.064 237.437 372.751 237.246 375.455 237.004C378.194 236.761 380.794 236.414 383.255 235.964L383.203 239.812C381.4 240.124 379.476 240.384 377.431 240.592C375.386 240.765 373.306 240.921 371.191 241.06C369.076 241.164 367.031 241.25 365.055 241.32C363.114 241.354 361.311 241.372 359.647 241.372C358.919 241.372 358.07 241.372 357.099 241.372C356.163 241.337 355.175 241.302 354.135 241.268C353.095 241.198 352.09 241.129 351.119 241.06V237.16ZM390.847 249.744C390.396 249.848 389.894 250.004 389.339 250.212C388.819 250.385 388.282 250.576 387.727 250.784C387.207 250.992 386.704 251.2 386.219 251.408C384.416 252.101 382.319 252.95 379.927 253.956C377.535 254.961 375.091 256.122 372.595 257.44C370.862 258.306 369.336 259.225 368.019 260.196C366.702 261.132 365.662 262.12 364.899 263.16C364.136 264.165 363.755 265.274 363.755 266.488C363.755 267.493 363.98 268.308 364.431 268.932C364.916 269.556 365.592 270.041 366.459 270.388C367.326 270.7 368.314 270.908 369.423 271.012C370.567 271.116 371.815 271.168 373.167 271.168C375.178 271.168 377.466 271.064 380.031 270.856C382.631 270.613 385.075 270.301 387.363 269.92L387.259 274.08C385.942 274.253 384.451 274.409 382.787 274.548C381.158 274.686 379.494 274.79 377.795 274.86C376.131 274.964 374.536 275.016 373.011 275.016C370.55 275.016 368.296 274.79 366.251 274.34C364.24 273.889 362.628 273.092 361.415 271.948C360.202 270.804 359.595 269.174 359.595 267.06C359.595 265.5 359.959 264.078 360.687 262.796C361.415 261.478 362.386 260.282 363.599 259.208C364.847 258.133 366.216 257.145 367.707 256.244C369.198 255.308 370.723 254.458 372.283 253.696C373.947 252.794 375.507 252.014 376.963 251.356C378.454 250.697 379.858 250.09 381.175 249.536C382.492 248.981 383.723 248.426 384.867 247.872C385.63 247.525 386.358 247.196 387.051 246.884C387.744 246.572 388.438 246.225 389.131 245.844L390.847 249.744ZM419.395 230.244L422.723 229.048C423.52 230.053 424.283 231.197 425.011 232.48C425.739 233.728 426.259 234.802 426.571 235.704L423.087 237.108C422.775 236.172 422.255 235.062 421.527 233.78C420.834 232.497 420.123 231.318 419.395 230.244ZM438.427 228.892L442.379 230.036C441.651 231.249 440.888 232.497 440.091 233.78C439.294 235.028 438.566 236.085 437.907 236.952L434.787 235.912C435.411 234.941 436.07 233.78 436.763 232.428C437.456 231.076 438.011 229.897 438.427 228.892ZM420.279 246.572V250.992H441.547V246.572H420.279ZM420.279 239.344V243.712H441.547V239.344H420.279ZM416.691 236.328H445.239V254.06H416.691V236.328ZM428.911 238.2H432.603V252.5H428.911V238.2ZM418.979 257.18H443.419V276.68H439.675V260.404H422.619V276.836H418.979V257.18ZM420.903 271.688H441.495V274.912H420.903V271.688ZM420.903 264.408H441.495V267.372H420.903V264.408ZM399.687 241.684H415.027V245.376H399.687V241.684ZM405.771 229.62H409.463V263.524H405.771V229.62ZM398.751 264.408C400.138 263.957 401.732 263.402 403.535 262.744C405.372 262.085 407.314 261.392 409.359 260.664C411.404 259.901 413.45 259.138 415.495 258.376L416.223 261.964C413.415 263.073 410.607 264.2 407.799 265.344C404.991 266.453 402.443 267.441 400.155 268.308L398.751 264.408ZM477.843 239.656C477.15 238.997 476.352 238.252 475.451 237.42C474.55 236.553 473.631 235.721 472.695 234.924C471.759 234.092 470.927 233.398 470.199 232.844L473.163 230.712C473.752 231.128 474.515 231.734 475.451 232.532C476.422 233.329 477.392 234.161 478.363 235.028C479.334 235.86 480.148 236.622 480.807 237.316L477.843 239.656ZM461.307 235.184C461.446 235.461 461.619 235.808 461.827 236.224C462.035 236.64 462.26 237.073 462.503 237.524C462.746 237.974 462.954 238.356 463.127 238.668C464.132 240.505 465.224 242.654 466.403 245.116C467.582 247.542 468.691 249.952 469.731 252.344C470.459 253.938 471.187 255.706 471.915 257.648C472.678 259.589 473.406 261.565 474.099 263.576C474.792 265.552 475.451 267.458 476.075 269.296C476.699 271.098 477.219 272.728 477.635 274.184L473.163 275.38C472.643 273.334 472.019 271.098 471.291 268.672C470.563 266.21 469.766 263.732 468.899 261.236C468.032 258.74 467.096 256.348 466.091 254.06C465.294 252.257 464.496 250.524 463.699 248.86C462.936 247.161 462.208 245.618 461.515 244.232C460.822 242.81 460.18 241.597 459.591 240.592C459.279 240.072 458.88 239.465 458.395 238.772C457.91 238.044 457.459 237.42 457.043 236.9L461.307 235.184ZM452.103 250.368C452.831 250.16 453.594 249.917 454.391 249.64C455.223 249.362 455.882 249.137 456.367 248.964C457.788 248.374 459.4 247.681 461.203 246.884C463.04 246.052 464.964 245.185 466.975 244.284C469.02 243.382 471.083 242.55 473.163 241.788C475.243 240.99 477.271 240.349 479.247 239.864C481.258 239.344 483.13 239.084 484.863 239.084C487.29 239.084 489.352 239.5 491.051 240.332C492.784 241.164 494.119 242.325 495.055 243.816C495.991 245.272 496.459 246.953 496.459 248.86C496.459 250.836 496.026 252.621 495.159 254.216C494.292 255.81 492.975 257.076 491.207 258.012C489.474 258.913 487.238 259.364 484.499 259.364C483.043 259.364 481.622 259.208 480.235 258.896C478.883 258.584 477.704 258.254 476.699 257.908L476.855 253.852C477.86 254.302 478.987 254.701 480.235 255.048C481.518 255.36 482.852 255.516 484.239 255.516C486.146 255.516 487.688 255.204 488.867 254.58C490.046 253.956 490.912 253.124 491.467 252.084C492.022 251.044 492.299 249.9 492.299 248.652C492.299 247.646 492.022 246.693 491.467 245.792C490.912 244.89 490.08 244.162 488.971 243.608C487.862 243.053 486.458 242.776 484.759 242.776C482.991 242.776 481.015 243.088 478.831 243.712C476.682 244.336 474.428 245.133 472.071 246.104C469.748 247.074 467.46 248.114 465.207 249.224C462.954 250.298 460.856 251.321 458.915 252.292C457.008 253.262 455.396 254.042 454.079 254.632L452.103 250.368ZM518.663 232.168C518.524 233.034 518.42 233.918 518.351 234.82C518.282 235.686 518.23 236.553 518.195 237.42C518.126 238.876 518.056 240.678 517.987 242.828C517.918 244.977 517.848 247.265 517.779 249.692C517.71 252.084 517.658 254.476 517.623 256.868C517.588 259.26 517.571 261.409 517.571 263.316C517.571 265.222 517.935 266.748 518.663 267.892C519.391 269.036 520.396 269.85 521.679 270.336C522.962 270.821 524.435 271.064 526.099 271.064C528.456 271.064 530.588 270.769 532.495 270.18C534.402 269.556 536.1 268.741 537.591 267.736C539.082 266.696 540.399 265.534 541.543 264.252C542.722 262.969 543.779 261.652 544.715 260.3L547.679 263.836C546.778 265.084 545.668 266.384 544.351 267.736C543.068 269.053 541.543 270.284 539.775 271.428C538.007 272.572 535.962 273.508 533.639 274.236C531.351 274.964 528.786 275.328 525.943 275.328C523.482 275.328 521.298 274.946 519.391 274.184C517.484 273.421 515.994 272.19 514.919 270.492C513.844 268.793 513.307 266.54 513.307 263.732C513.307 262.172 513.324 260.456 513.359 258.584C513.394 256.677 513.446 254.718 513.515 252.708C513.584 250.697 513.636 248.738 513.671 246.832C513.706 244.89 513.74 243.105 513.775 241.476C513.81 239.846 513.827 238.494 513.827 237.42C513.827 236.449 513.792 235.513 513.723 234.612C513.654 233.71 513.55 232.878 513.411 232.116L518.663 232.168ZM555.829 238.148C556.834 238.113 557.736 238.078 558.533 238.044C559.33 237.974 559.972 237.922 560.457 237.888C561.289 237.784 562.485 237.662 564.045 237.524C565.64 237.35 567.46 237.177 569.505 237.004C571.55 236.796 573.752 236.588 576.109 236.38C578.466 236.172 580.841 235.964 583.233 235.756C585.14 235.582 586.942 235.444 588.641 235.34C590.34 235.201 591.917 235.097 593.373 235.028C594.829 234.924 596.129 234.854 597.273 234.82V238.98C596.302 238.945 595.193 238.945 593.945 238.98C592.697 239.014 591.466 239.101 590.253 239.24C589.04 239.344 587.982 239.534 587.081 239.812C585.244 240.401 583.58 241.302 582.089 242.516C580.633 243.694 579.385 245.064 578.345 246.624C577.305 248.149 576.508 249.761 575.953 251.46C575.433 253.124 575.173 254.718 575.173 256.244C575.173 258.289 575.52 260.074 576.213 261.6C576.906 263.09 577.842 264.356 579.021 265.396C580.234 266.436 581.604 267.285 583.129 267.944C584.689 268.602 586.318 269.088 588.017 269.4C589.716 269.712 591.414 269.902 593.113 269.972L591.605 274.288C589.698 274.218 587.757 273.941 585.781 273.456C583.84 273.005 581.985 272.346 580.217 271.48C578.449 270.578 576.872 269.452 575.485 268.1C574.098 266.748 573.006 265.17 572.209 263.368C571.412 261.565 571.013 259.502 571.013 257.18C571.013 254.476 571.481 251.98 572.417 249.692C573.388 247.369 574.618 245.341 576.109 243.608C577.6 241.874 579.142 240.54 580.737 239.604C579.628 239.742 578.258 239.898 576.629 240.072C575 240.245 573.232 240.436 571.325 240.644C569.453 240.817 567.581 241.025 565.709 241.268C563.837 241.51 562.069 241.753 560.405 241.996C558.776 242.204 557.406 242.429 556.297 242.672L555.829 238.148ZM635.649 229.1H639.341V265.24H635.649V229.1ZM617.501 250.472L648.805 238.356L650.261 241.788L619.009 253.956L617.501 250.472ZM624.105 234.196H627.953V268.932C627.953 269.937 628.057 270.7 628.265 271.22C628.473 271.74 628.889 272.104 629.513 272.312C630.171 272.485 631.107 272.572 632.321 272.572C632.667 272.572 633.274 272.572 634.141 272.572C635.042 272.572 636.047 272.572 637.157 272.572C638.266 272.572 639.393 272.572 640.537 272.572C641.681 272.572 642.703 272.572 643.605 272.572C644.541 272.572 645.234 272.572 645.685 272.572C646.759 272.572 647.574 272.381 648.129 272C648.683 271.584 649.082 270.838 649.325 269.764C649.567 268.654 649.741 267.077 649.845 265.032C650.33 265.344 650.919 265.656 651.613 265.968C652.306 266.245 652.93 266.453 653.485 266.592C653.277 268.984 652.93 270.89 652.445 272.312C651.994 273.698 651.249 274.686 650.209 275.276C649.203 275.865 647.73 276.16 645.789 276.16C645.511 276.16 644.905 276.16 643.969 276.16C643.067 276.16 642.01 276.16 640.797 276.16C639.583 276.16 638.37 276.16 637.157 276.16C635.978 276.16 634.921 276.16 633.985 276.16C633.083 276.16 632.494 276.16 632.217 276.16C630.137 276.16 628.49 275.952 627.277 275.536C626.098 275.12 625.266 274.392 624.781 273.352C624.33 272.312 624.105 270.838 624.105 268.932V234.196ZM647.453 239.24H647.037L647.921 238.46L648.649 237.888L651.353 238.98L651.145 239.656C651.145 242.776 651.127 245.653 651.093 248.288C651.058 250.922 650.989 253.158 650.885 254.996C650.815 256.798 650.694 258.081 650.521 258.844C650.313 260.022 649.931 260.889 649.377 261.444C648.857 261.998 648.198 262.397 647.401 262.64C646.673 262.813 645.806 262.934 644.801 263.004C643.795 263.038 642.894 263.038 642.097 263.004C642.062 262.449 641.958 261.825 641.785 261.132C641.611 260.404 641.403 259.814 641.161 259.364C641.889 259.398 642.651 259.416 643.449 259.416C644.246 259.416 644.801 259.416 645.113 259.416C645.563 259.416 645.927 259.329 646.205 259.156C646.517 258.982 646.759 258.549 646.933 257.856C647.071 257.301 647.175 256.209 647.245 254.58C647.314 252.916 647.366 250.801 647.401 248.236C647.435 245.636 647.453 242.637 647.453 239.24ZM617.241 229.204L620.881 230.296C619.771 233.208 618.454 236.102 616.929 238.98C615.403 241.822 613.757 244.509 611.989 247.04C610.221 249.536 608.401 251.754 606.529 253.696C606.425 253.418 606.234 253.037 605.957 252.552C605.714 252.066 605.437 251.581 605.125 251.096C604.847 250.61 604.587 250.229 604.345 249.952C606.078 248.253 607.742 246.294 609.337 244.076C610.931 241.857 612.405 239.482 613.757 236.952C615.143 234.386 616.305 231.804 617.241 229.204ZM611.729 242.568L615.525 238.824L615.577 238.876V276.732H611.729V242.568ZM684.737 237.16C684.39 239.864 683.939 242.689 683.385 245.636C682.865 248.582 682.189 251.442 681.357 254.216C680.317 257.786 679.155 260.768 677.873 263.16C676.625 265.552 675.273 267.354 673.817 268.568C672.361 269.781 670.835 270.388 669.241 270.388C667.715 270.388 666.242 269.833 664.821 268.724C663.399 267.614 662.238 266.02 661.337 263.94C660.435 261.825 659.985 259.346 659.985 256.504C659.985 253.661 660.557 250.974 661.701 248.444C662.879 245.913 664.491 243.677 666.537 241.736C668.617 239.76 671.043 238.2 673.817 237.056C676.59 235.912 679.554 235.34 682.709 235.34C685.759 235.34 688.498 235.842 690.925 236.848C693.386 237.853 695.483 239.24 697.217 241.008C698.95 242.741 700.285 244.769 701.221 247.092C702.157 249.38 702.625 251.841 702.625 254.476C702.625 258.116 701.845 261.322 700.285 264.096C698.759 266.869 696.541 269.122 693.629 270.856C690.751 272.589 687.25 273.733 683.125 274.288L680.681 270.44C681.513 270.336 682.31 270.232 683.073 270.128C683.835 270.024 684.529 269.902 685.153 269.764C686.817 269.382 688.429 268.793 689.989 267.996C691.583 267.164 693.005 266.124 694.253 264.876C695.501 263.593 696.489 262.085 697.217 260.352C697.979 258.584 698.361 256.573 698.361 254.32C698.361 252.205 698.014 250.246 697.321 248.444C696.627 246.606 695.605 244.994 694.253 243.608C692.901 242.221 691.254 241.129 689.313 240.332C687.371 239.534 685.153 239.136 682.657 239.136C679.814 239.136 677.231 239.656 674.909 240.696C672.621 241.736 670.662 243.105 669.033 244.804C667.438 246.468 666.207 248.305 665.341 250.316C664.474 252.292 664.041 254.233 664.041 256.14C664.041 258.324 664.318 260.126 664.873 261.548C665.462 262.934 666.155 263.957 666.953 264.616C667.785 265.274 668.599 265.604 669.397 265.604C670.229 265.604 671.078 265.205 671.945 264.408C672.811 263.576 673.695 262.258 674.597 260.456C675.498 258.618 676.382 256.244 677.249 253.332C678.011 250.836 678.653 248.184 679.173 245.376C679.727 242.568 680.126 239.812 680.369 237.108L684.737 237.16ZM730.705 230.608H735.073C735.003 231.96 734.882 233.745 734.709 235.964C734.535 238.182 734.206 240.696 733.721 243.504C733.27 246.277 732.559 249.172 731.589 252.188C730.618 255.204 729.318 258.185 727.689 261.132C726.059 264.078 723.979 266.869 721.449 269.504C718.953 272.138 715.902 274.426 712.297 276.368C711.985 275.882 711.534 275.362 710.945 274.808C710.355 274.253 709.749 273.768 709.125 273.352C712.695 271.514 715.694 269.365 718.121 266.904C720.547 264.442 722.541 261.808 724.101 259C725.661 256.192 726.874 253.366 727.741 250.524C728.607 247.646 729.249 244.908 729.665 242.308C730.081 239.708 730.341 237.402 730.445 235.392C730.583 233.346 730.67 231.752 730.705 230.608ZM734.865 231.648C734.899 232.237 734.969 233.26 735.073 234.716C735.211 236.137 735.454 237.87 735.801 239.916C736.147 241.961 736.65 244.18 737.309 246.572C737.967 248.964 738.851 251.425 739.961 253.956C741.07 256.486 742.439 258.948 744.069 261.34C745.698 263.732 747.657 265.95 749.945 267.996C752.233 270.006 754.919 271.705 758.005 273.092C757.415 273.542 756.843 274.062 756.289 274.652C755.769 275.276 755.335 275.848 754.989 276.368C751.869 274.877 749.113 273.057 746.721 270.908C744.363 268.724 742.335 266.366 740.637 263.836C738.973 261.27 737.569 258.653 736.425 255.984C735.315 253.314 734.414 250.714 733.721 248.184C733.027 245.618 732.507 243.244 732.161 241.06C731.814 238.841 731.571 236.952 731.433 235.392C731.294 233.797 731.207 232.653 731.173 231.96L734.865 231.648ZM261.17 304.632C260.581 305.013 259.957 305.377 259.298 305.724C258.64 306.07 257.929 306.434 257.166 306.816C256.3 307.301 255.225 307.856 253.942 308.48C252.66 309.104 251.29 309.797 249.834 310.56C248.378 311.322 246.922 312.12 245.466 312.952C244.01 313.784 242.641 314.616 241.358 315.448C238.932 317.008 237.025 318.654 235.638 320.388C234.286 322.121 233.61 323.976 233.61 325.952C233.61 328.101 234.633 329.817 236.678 331.1C238.758 332.348 241.844 332.972 245.934 332.972C247.841 332.972 249.817 332.902 251.862 332.764C253.908 332.59 255.866 332.365 257.738 332.088C259.645 331.81 261.257 331.516 262.574 331.204V335.832C261.292 336.074 259.766 336.282 257.998 336.456C256.265 336.664 254.393 336.82 252.382 336.924C250.372 337.062 248.292 337.132 246.142 337.132C243.681 337.132 241.428 336.924 239.382 336.508C237.337 336.126 235.552 335.52 234.026 334.688C232.536 333.856 231.374 332.764 230.542 331.412C229.71 330.025 229.294 328.361 229.294 326.42C229.294 324.513 229.693 322.762 230.49 321.168C231.288 319.538 232.432 317.996 233.922 316.54C235.413 315.084 237.181 313.68 239.226 312.328C240.544 311.426 241.948 310.56 243.438 309.728C244.964 308.861 246.454 308.029 247.91 307.232C249.366 306.434 250.718 305.706 251.966 305.048C253.249 304.389 254.324 303.834 255.19 303.384C255.918 302.933 256.577 302.534 257.166 302.188C257.756 301.806 258.328 301.39 258.882 300.94L261.17 304.632ZM234.858 295.22C235.656 297.438 236.505 299.605 237.406 301.72C238.342 303.834 239.278 305.81 240.214 307.648C241.185 309.485 242.069 311.114 242.866 312.536L239.278 314.668C238.412 313.246 237.493 311.565 236.522 309.624C235.552 307.682 234.581 305.62 233.61 303.436C232.64 301.252 231.686 299.085 230.75 296.936L234.858 295.22ZM276.094 299.016H317.954V302.448H276.094V299.016ZM278.642 307.024H315.354V310.352H278.642V307.024ZM283.426 335.104H318.89V338.536H283.426V335.104ZM273.754 315.032H319.93V318.568H273.754V315.032ZM288.418 322.52H315.406V325.952H288.418V322.52ZM294.762 300.68H298.766V317.528H294.762V300.68ZM298.974 324.184H302.926V336.56H298.974V324.184ZM283.218 293.504L286.546 292.152C287.413 293.122 288.245 294.214 289.042 295.428C289.84 296.641 290.412 297.716 290.758 298.652L287.222 300.212C286.876 299.276 286.321 298.184 285.558 296.936C284.796 295.653 284.016 294.509 283.218 293.504ZM306.774 291.892L310.882 293.14C310.12 294.353 309.322 295.566 308.49 296.78C307.658 297.993 306.896 299.05 306.202 299.952L302.926 298.808C303.377 298.184 303.845 297.473 304.33 296.676C304.816 295.844 305.266 295.012 305.682 294.18C306.133 293.348 306.497 292.585 306.774 291.892ZM284.778 316.488L288.886 317.164C287.812 322.156 286.2 326.576 284.05 330.424C281.901 334.237 279.266 337.392 276.146 339.888C275.904 339.61 275.574 339.298 275.158 338.952C274.777 338.605 274.378 338.258 273.962 337.912C273.546 337.6 273.182 337.34 272.87 337.132C275.99 334.982 278.521 332.14 280.462 328.604C282.438 325.033 283.877 320.994 284.778 316.488ZM346.762 294.544C346.554 295.584 346.277 296.814 345.93 298.236C345.618 299.622 345.098 301.2 344.37 302.968C343.746 304.528 342.966 306.14 342.03 307.804C341.129 309.468 340.158 310.976 339.118 312.328C339.777 311.912 340.522 311.565 341.354 311.288C342.186 310.976 343.036 310.75 343.902 310.612C344.804 310.473 345.618 310.404 346.346 310.404C348.357 310.404 350.056 310.976 351.442 312.12C352.829 313.229 353.522 314.858 353.522 317.008C353.522 317.666 353.522 318.516 353.522 319.556C353.522 320.561 353.522 321.636 353.522 322.78C353.557 323.889 353.592 324.981 353.626 326.056C353.661 327.13 353.678 328.066 353.678 328.864H349.674C349.709 328.17 349.744 327.356 349.778 326.42C349.813 325.484 349.83 324.496 349.83 323.456C349.865 322.416 349.865 321.428 349.83 320.492C349.83 319.556 349.83 318.758 349.83 318.1C349.83 316.574 349.362 315.465 348.426 314.772C347.525 314.044 346.381 313.68 344.994 313.68C343.365 313.68 341.753 314.044 340.158 314.772C338.598 315.465 337.229 316.366 336.05 317.476C335.288 318.204 334.525 319.036 333.762 319.972C333.034 320.873 332.22 321.844 331.318 322.884L327.782 320.284C330.278 317.857 332.358 315.586 334.022 313.472C335.686 311.357 337.038 309.398 338.078 307.596C339.118 305.758 339.933 304.112 340.522 302.656C341.077 301.2 341.528 299.744 341.874 298.288C342.221 296.797 342.429 295.428 342.498 294.18L346.762 294.544ZM328.978 300.16C330.365 300.333 331.873 300.472 333.502 300.576C335.132 300.68 336.553 300.732 337.766 300.732C340.089 300.732 342.585 300.68 345.254 300.576C347.924 300.437 350.61 300.246 353.314 300.004C356.053 299.761 358.653 299.414 361.114 298.964L361.062 302.812C359.26 303.124 357.336 303.384 355.29 303.592C353.245 303.765 351.165 303.921 349.05 304.06C346.936 304.164 344.89 304.25 342.914 304.32C340.973 304.354 339.17 304.372 337.506 304.372C336.778 304.372 335.929 304.372 334.958 304.372C334.022 304.337 333.034 304.302 331.994 304.268C330.954 304.198 329.949 304.129 328.978 304.06V300.16ZM368.706 312.744C368.256 312.848 367.753 313.004 367.198 313.212C366.678 313.385 366.141 313.576 365.586 313.784C365.066 313.992 364.564 314.2 364.078 314.408C362.276 315.101 360.178 315.95 357.786 316.956C355.394 317.961 352.95 319.122 350.454 320.44C348.721 321.306 347.196 322.225 345.878 323.196C344.561 324.132 343.521 325.12 342.758 326.16C341.996 327.165 341.614 328.274 341.614 329.488C341.614 330.493 341.84 331.308 342.29 331.932C342.776 332.556 343.452 333.041 344.318 333.388C345.185 333.7 346.173 333.908 347.282 334.012C348.426 334.116 349.674 334.168 351.026 334.168C353.037 334.168 355.325 334.064 357.89 333.856C360.49 333.613 362.934 333.301 365.222 332.92L365.118 337.08C363.801 337.253 362.31 337.409 360.646 337.548C359.017 337.686 357.353 337.79 355.654 337.86C353.99 337.964 352.396 338.016 350.87 338.016C348.409 338.016 346.156 337.79 344.11 337.34C342.1 336.889 340.488 336.092 339.274 334.948C338.061 333.804 337.454 332.174 337.454 330.06C337.454 328.5 337.818 327.078 338.546 325.796C339.274 324.478 340.245 323.282 341.458 322.208C342.706 321.133 344.076 320.145 345.566 319.244C347.057 318.308 348.582 317.458 350.142 316.696C351.806 315.794 353.366 315.014 354.822 314.356C356.313 313.697 357.717 313.09 359.034 312.536C360.352 311.981 361.582 311.426 362.726 310.872C363.489 310.525 364.217 310.196 364.91 309.884C365.604 309.572 366.297 309.225 366.99 308.844L368.706 312.744ZM378.638 308.532C379.574 308.358 380.51 308.15 381.446 307.908C382.417 307.63 383.388 307.336 384.358 307.024C385.468 306.677 386.889 306.226 388.622 305.672C390.356 305.082 392.245 304.51 394.29 303.956C396.336 303.366 398.416 302.881 400.53 302.5C402.68 302.084 404.69 301.876 406.562 301.876C409.474 301.876 412.092 302.413 414.414 303.488C416.737 304.562 418.592 306.122 419.978 308.168C421.365 310.213 422.058 312.692 422.058 315.604C422.058 318.1 421.573 320.336 420.602 322.312C419.666 324.288 418.332 326.038 416.598 327.564C414.9 329.054 412.872 330.32 410.514 331.36C408.157 332.365 405.54 333.18 402.662 333.804C399.82 334.393 396.804 334.774 393.614 334.948L391.742 330.632C395.174 330.562 398.433 330.233 401.518 329.644C404.604 329.02 407.342 328.118 409.734 326.94C412.161 325.761 414.068 324.236 415.454 322.364C416.841 320.457 417.534 318.169 417.534 315.5C417.534 313.697 417.101 312.068 416.234 310.612C415.368 309.121 414.102 307.942 412.438 307.076C410.809 306.209 408.816 305.776 406.458 305.776C404.76 305.776 402.905 305.984 400.894 306.4C398.884 306.781 396.856 307.284 394.81 307.908C392.765 308.497 390.806 309.138 388.934 309.832C387.097 310.525 385.45 311.166 383.994 311.756C382.538 312.345 381.394 312.796 380.562 313.108L378.638 308.532ZM466.414 295.116C466.345 295.566 466.293 296.052 466.258 296.572C466.258 297.057 466.258 297.594 466.258 298.184C466.224 298.565 466.206 299.189 466.206 300.056C466.241 300.922 466.258 301.91 466.258 303.02C466.293 304.094 466.31 305.204 466.31 306.348C466.345 307.492 466.362 308.549 466.362 309.52C466.362 310.456 466.362 311.218 466.362 311.808C466.362 314.789 466.293 317.562 466.154 320.128C466.05 322.693 465.669 325.085 465.01 327.304C464.352 329.522 463.26 331.585 461.734 333.492C460.244 335.364 458.112 337.114 455.338 338.744L451.542 335.78C452.374 335.433 453.258 334.965 454.194 334.376C455.165 333.786 455.962 333.18 456.586 332.556C457.973 331.342 459.065 330.042 459.862 328.656C460.66 327.269 461.232 325.744 461.578 324.08C461.96 322.416 462.202 320.578 462.306 318.568C462.41 316.557 462.462 314.304 462.462 311.808C462.462 310.976 462.445 309.918 462.41 308.636C462.376 307.318 462.341 305.966 462.306 304.58C462.272 303.158 462.237 301.876 462.202 300.732C462.168 299.588 462.116 298.756 462.046 298.236C462.012 297.646 461.942 297.092 461.838 296.572C461.734 296.017 461.648 295.532 461.578 295.116H466.414ZM447.434 305.88C448.197 305.984 449.046 306.088 449.982 306.192C450.918 306.296 451.889 306.365 452.894 306.4C453.934 306.434 454.905 306.452 455.806 306.452C457.956 306.452 460.157 306.4 462.41 306.296C464.698 306.192 466.9 306.018 469.014 305.776C471.164 305.533 473.088 305.221 474.786 304.84V309.104C473.122 309.346 471.233 309.572 469.118 309.78C467.038 309.988 464.854 310.144 462.566 310.248C460.313 310.317 458.077 310.352 455.858 310.352C455.026 310.352 454.09 310.334 453.05 310.3C452.045 310.265 451.04 310.23 450.034 310.196C449.064 310.161 448.197 310.109 447.434 310.04V305.88ZM440.102 295.896C439.964 296.381 439.808 296.953 439.634 297.612C439.496 298.236 439.357 298.79 439.218 299.276C438.802 301.148 438.404 303.228 438.022 305.516C437.641 307.804 437.346 310.178 437.138 312.64C436.93 315.101 436.861 317.528 436.93 319.92C437 322.312 437.277 324.582 437.762 326.732C438.144 325.622 438.577 324.34 439.062 322.884C439.582 321.428 440.085 320.058 440.57 318.776L442.806 320.128C442.39 321.306 441.957 322.641 441.506 324.132C441.056 325.588 440.64 326.992 440.258 328.344C439.877 329.661 439.6 330.753 439.426 331.62C439.322 332.001 439.236 332.417 439.166 332.868C439.132 333.318 439.132 333.682 439.166 333.96C439.201 334.237 439.218 334.532 439.218 334.844C439.253 335.156 439.288 335.45 439.322 335.728L435.786 336.144C435.44 335.104 435.041 333.7 434.59 331.932C434.174 330.164 433.81 328.222 433.498 326.108C433.186 323.958 433.03 321.809 433.03 319.66C433.03 316.817 433.152 314.096 433.394 311.496C433.672 308.896 433.966 306.504 434.278 304.32C434.59 302.136 434.833 300.333 435.006 298.912C435.11 298.288 435.18 297.664 435.214 297.04C435.249 296.416 435.266 295.878 435.266 295.428L440.102 295.896ZM501.878 294.752C501.705 295.341 501.532 296.052 501.358 296.884C501.185 297.716 501.046 298.392 500.942 298.912C500.7 300.16 500.405 301.616 500.058 303.28C499.746 304.909 499.382 306.625 498.966 308.428C498.585 310.23 498.152 311.998 497.666 313.732C497.216 315.569 496.661 317.58 496.002 319.764C495.344 321.913 494.65 324.08 493.922 326.264C493.194 328.448 492.449 330.51 491.686 332.452C490.924 334.393 490.213 336.092 489.554 337.548L484.978 335.988C485.776 334.636 486.573 333.024 487.37 331.152C488.202 329.245 489 327.217 489.762 325.068C490.56 322.918 491.288 320.786 491.946 318.672C492.64 316.522 493.229 314.546 493.714 312.744C494.061 311.53 494.39 310.248 494.702 308.896C495.014 307.544 495.309 306.226 495.586 304.944C495.864 303.626 496.089 302.43 496.262 301.356C496.47 300.246 496.626 299.345 496.73 298.652C496.834 297.924 496.904 297.161 496.938 296.364C496.973 295.566 496.956 294.89 496.886 294.336L501.878 294.752ZM490.334 303.436C492.276 303.436 494.356 303.349 496.574 303.176C498.828 302.968 501.116 302.673 503.438 302.292C505.761 301.91 507.997 301.442 510.146 300.888V304.996C507.997 305.481 505.744 305.897 503.386 306.244C501.029 306.59 498.706 306.868 496.418 307.076C494.165 307.249 492.12 307.336 490.282 307.336C489.138 307.336 488.081 307.318 487.11 307.284C486.14 307.214 485.186 307.162 484.25 307.128L484.094 303.072C485.342 303.21 486.452 303.314 487.422 303.384C488.428 303.418 489.398 303.436 490.334 303.436ZM506.766 310.612C508.153 310.473 509.661 310.369 511.29 310.3C512.954 310.196 514.618 310.144 516.282 310.144C517.808 310.144 519.333 310.178 520.858 310.248C522.418 310.317 523.892 310.438 525.278 310.612L525.174 314.564C523.857 314.39 522.453 314.252 520.962 314.148C519.472 314.009 517.964 313.94 516.438 313.94C514.809 313.94 513.18 313.992 511.55 314.096C509.956 314.165 508.361 314.286 506.766 314.46V310.612ZM507.858 323.248C507.65 324.08 507.477 324.894 507.338 325.692C507.2 326.489 507.13 327.234 507.13 327.928C507.13 328.552 507.234 329.158 507.442 329.748C507.685 330.302 508.118 330.805 508.742 331.256C509.366 331.706 510.25 332.07 511.394 332.348C512.573 332.625 514.081 332.764 515.918 332.764C517.617 332.764 519.333 332.677 521.066 332.504C522.8 332.33 524.464 332.07 526.058 331.724L525.902 335.936C524.516 336.144 522.973 336.317 521.274 336.456C519.576 336.594 517.773 336.664 515.866 336.664C511.776 336.664 508.638 336.04 506.454 334.792C504.27 333.509 503.178 331.585 503.178 329.02C503.178 328.014 503.248 327.009 503.386 326.004C503.56 324.998 503.75 323.958 503.958 322.884L507.858 323.248ZM542.438 299.38C542.369 299.796 542.3 300.316 542.23 300.94C542.196 301.564 542.144 302.188 542.074 302.812C542.04 303.436 542.022 303.973 542.022 304.424C541.988 305.498 541.97 306.729 541.97 308.116C542.005 309.468 542.04 310.889 542.074 312.38C542.144 313.836 542.248 315.292 542.386 316.748C542.664 319.625 543.132 322.156 543.79 324.34C544.449 326.489 545.246 328.17 546.182 329.384C547.153 330.597 548.245 331.204 549.458 331.204C550.117 331.204 550.758 330.909 551.382 330.32C552.006 329.696 552.596 328.881 553.15 327.876C553.74 326.836 554.26 325.692 554.71 324.444C555.196 323.161 555.594 321.878 555.906 320.596L559.182 324.288C558.142 327.234 557.085 329.574 556.01 331.308C554.97 333.006 553.896 334.237 552.786 335C551.712 335.762 550.585 336.144 549.406 336.144C547.777 336.144 546.2 335.554 544.674 334.376C543.149 333.162 541.832 331.221 540.722 328.552C539.613 325.848 538.816 322.26 538.33 317.788C538.157 316.262 538.018 314.616 537.914 312.848C537.845 311.08 537.793 309.398 537.758 307.804C537.758 306.209 537.758 304.909 537.758 303.904C537.758 303.314 537.741 302.552 537.706 301.616C537.672 300.68 537.568 299.9 537.394 299.276L542.438 299.38ZM569.53 300.836C570.466 302.014 571.35 303.401 572.182 304.996C573.049 306.556 573.829 308.237 574.522 310.04C575.25 311.808 575.892 313.645 576.446 315.552C577.036 317.458 577.504 319.365 577.85 321.272C578.232 323.144 578.509 324.946 578.682 326.68L574.522 328.396C574.314 326.038 573.95 323.646 573.43 321.22C572.91 318.758 572.269 316.384 571.506 314.096C570.744 311.773 569.86 309.589 568.854 307.544C567.849 305.498 566.722 303.73 565.474 302.24L569.53 300.836ZM590.007 335.971C589.096 335.971 588.314 335.645 587.662 334.993C587.01 334.34 586.683 333.558 586.683 332.647C586.683 331.736 587.01 330.955 587.662 330.302C588.314 329.65 589.096 329.324 590.007 329.324C590.918 329.324 591.7 329.65 592.352 330.302C593.005 330.955 593.331 331.736 593.331 332.647C593.331 333.251 593.177 333.805 592.869 334.309C592.574 334.814 592.174 335.22 591.669 335.528C591.177 335.824 590.623 335.971 590.007 335.971ZM604.189 335.971C603.278 335.971 602.496 335.645 601.844 334.993C601.191 334.34 600.865 333.558 600.865 332.647C600.865 331.736 601.191 330.955 601.844 330.302C602.496 329.65 603.278 329.324 604.189 329.324C605.1 329.324 605.882 329.65 606.534 330.302C607.187 330.955 607.513 331.736 607.513 332.647C607.513 333.251 607.359 333.805 607.051 334.309C606.756 334.814 606.356 335.22 605.851 335.528C605.359 335.824 604.805 335.971 604.189 335.971ZM618.371 335.971C617.46 335.971 616.678 335.645 616.026 334.993C615.373 334.34 615.047 333.558 615.047 332.647C615.047 331.736 615.373 330.955 616.026 330.302C616.678 329.65 617.46 329.324 618.371 329.324C619.282 329.324 620.064 329.65 620.716 330.302C621.368 330.955 621.695 331.736 621.695 332.647C621.695 333.251 621.541 333.805 621.233 334.309C620.938 334.814 620.537 335.22 620.033 335.528C619.54 335.824 618.986 335.971 618.371 335.971Z" fill="black"/>
</svg>
