<svg width="846" height="566" viewBox="0 0 846 566" fill="none" xmlns="http://www.w3.org/2000/svg">
<path d="M423.338 2.40858C192.014 2.40858 4.48847 122.743 4.48847 271.184C4.48847 419.624 192.014 539.959 423.338 539.959C654.662 539.959 842.188 419.624 842.188 271.184C842.188 122.743 654.662 2.40858 423.338 2.40858Z" fill="#F5F5F5"/>
<path d="M422.744 542.548C397.807 542.548 373.373 541.153 349.615 538.494L297.356 565.449C295.685 566.312 293.237 566.141 291.893 565.068C290.548 563.995 290.814 562.425 292.486 561.562L347.482 533.196L349.222 533.396C373.083 536.134 397.651 537.562 422.744 537.562C537.349 537.562 641.067 507.761 716.175 459.569C791.276 411.371 837.716 344.815 837.718 271.275C837.716 197.734 791.276 131.178 716.175 82.9813C641.067 34.7895 537.349 4.98898 422.744 4.98824C308.141 4.98898 204.423 34.7895 129.315 82.9813C54.214 131.178 7.77484 197.733 7.77252 271.275C7.76672 386.994 122.807 485.472 283.491 522.198C285.512 522.66 286.567 524.086 285.848 525.384C285.128 526.682 282.904 527.359 280.882 526.897H280.883C117.18 489.487 0.00602147 389.161 0.000218613 271.276C0.00253976 121.453 189.267 0.00148947 422.744 0C656.223 0.00148947 845.489 121.453 845.49 271.275C845.489 421.096 656.223 542.546 422.744 542.548Z" fill="black"/>
<path d="M106.076 231.128C106.006 231.44 105.954 231.804 105.92 232.22C105.885 232.601 105.85 233.017 105.816 233.468C105.781 233.918 105.746 234.334 105.712 234.716C105.677 235.513 105.625 236.553 105.556 237.836C105.521 239.118 105.486 240.54 105.452 242.1C105.417 243.625 105.382 245.185 105.348 246.78C105.313 248.34 105.296 249.796 105.296 251.148C105.296 252.5 105.296 253.99 105.296 255.62C105.33 257.214 105.365 258.809 105.4 260.404C105.469 261.964 105.504 263.42 105.504 264.772C105.538 266.089 105.556 267.146 105.556 267.944C105.556 269.538 105.365 270.804 104.984 271.74C104.602 272.676 104.065 273.334 103.372 273.716C102.713 274.132 101.916 274.34 100.98 274.34C99.9744 274.34 98.8478 274.097 97.5998 273.612C96.3518 273.161 95.1558 272.537 94.0118 271.74C92.9024 270.942 91.9838 270.024 91.2558 268.984C90.5278 267.944 90.1638 266.852 90.1638 265.708C90.1638 264.148 90.7531 262.622 91.9318 261.132C93.1451 259.641 94.7051 258.254 96.6118 256.972C98.5531 255.689 100.598 254.649 102.748 253.852C105.105 252.916 107.514 252.222 109.976 251.772C112.437 251.286 114.69 251.044 116.736 251.044C119.266 251.044 121.502 251.477 123.444 252.344C125.42 253.21 126.962 254.424 128.072 255.984C129.216 257.509 129.788 259.312 129.788 261.392C129.788 263.472 129.354 265.309 128.488 266.904C127.656 268.498 126.408 269.833 124.744 270.908C123.114 271.982 121.104 272.814 118.712 273.404C117.568 273.646 116.424 273.802 115.28 273.872C114.17 273.976 113.165 274.062 112.264 274.132L110.808 269.92C111.778 269.954 112.784 269.954 113.824 269.92C114.898 269.885 115.921 269.764 116.892 269.556C118.417 269.278 119.838 268.81 121.156 268.152C122.508 267.458 123.582 266.557 124.38 265.448C125.212 264.338 125.628 263.004 125.628 261.444C125.628 259.953 125.229 258.705 124.432 257.7C123.634 256.694 122.56 255.932 121.208 255.412C119.856 254.892 118.348 254.632 116.684 254.632C114.396 254.632 112.16 254.874 109.976 255.36C107.792 255.845 105.573 256.538 103.32 257.44C101.656 258.064 100.13 258.844 98.7438 259.78C97.3571 260.681 96.2478 261.634 95.4158 262.64C94.6184 263.645 94.2198 264.598 94.2198 265.5C94.2198 266.089 94.4104 266.661 94.7918 267.216C95.2078 267.736 95.7104 268.204 96.2998 268.62C96.8891 269.036 97.5131 269.365 98.1718 269.608C98.8304 269.816 99.4024 269.92 99.8878 269.92C100.477 269.92 100.928 269.712 101.24 269.296C101.586 268.88 101.76 268.238 101.76 267.372C101.76 266.366 101.742 264.98 101.708 263.212C101.673 261.409 101.638 259.468 101.604 257.388C101.569 255.273 101.552 253.262 101.552 251.356C101.552 249.865 101.552 248.27 101.552 246.572C101.586 244.873 101.604 243.226 101.604 241.632C101.638 240.037 101.656 238.633 101.656 237.42C101.69 236.206 101.708 235.34 101.708 234.82C101.708 234.473 101.69 234.074 101.656 233.624C101.656 233.138 101.638 232.67 101.604 232.22C101.569 231.769 101.517 231.405 101.448 231.128H106.076ZM122.196 236.9C123.444 237.558 124.83 238.356 126.356 239.292C127.881 240.193 129.337 241.112 130.724 242.048C132.145 242.984 133.272 243.798 134.104 244.492L131.972 247.82C131.348 247.196 130.55 246.537 129.58 245.844C128.609 245.116 127.569 244.405 126.46 243.712C125.35 242.984 124.258 242.308 123.184 241.684C122.109 241.025 121.156 240.47 120.324 240.02L122.196 236.9ZM90.9958 240.488C92.4171 240.661 93.6304 240.782 94.6358 240.852C95.6758 240.886 96.6811 240.904 97.6518 240.904C98.9344 240.904 100.373 240.834 101.968 240.696C103.562 240.557 105.209 240.384 106.908 240.176C108.606 239.933 110.253 239.656 111.848 239.344C113.477 238.997 114.933 238.633 116.216 238.252L116.32 242.308C114.968 242.62 113.46 242.932 111.796 243.244C110.132 243.521 108.433 243.764 106.7 243.972C105.001 244.18 103.372 244.353 101.812 244.492C100.252 244.63 98.8998 244.7 97.7558 244.7C96.2651 244.7 94.9998 244.682 93.9598 244.648C92.9544 244.613 92.0011 244.544 91.0998 244.44L90.9958 240.488ZM159.48 232.116C159.376 232.566 159.272 233.069 159.168 233.624C159.064 234.144 158.96 234.664 158.856 235.184C158.752 235.808 158.596 236.657 158.388 237.732C158.214 238.806 158.024 239.95 157.816 241.164C157.608 242.342 157.365 243.469 157.088 244.544C156.741 246.034 156.308 247.716 155.788 249.588C155.268 251.425 154.678 253.384 154.02 255.464C153.361 257.544 152.616 259.676 151.784 261.86C150.952 264.009 150.033 266.158 149.028 268.308C148.022 270.422 146.93 272.416 145.752 274.288L141.488 272.624C142.701 271.029 143.81 269.244 144.816 267.268C145.856 265.292 146.809 263.246 147.676 261.132C148.542 258.982 149.322 256.868 150.016 254.788C150.744 252.708 151.35 250.784 151.836 249.016C152.321 247.248 152.702 245.722 152.98 244.44C153.465 242.36 153.864 240.21 154.176 237.992C154.488 235.738 154.644 233.606 154.644 231.596L159.48 232.116ZM177.368 237.628C178.2 238.702 179.066 240.037 179.968 241.632C180.904 243.226 181.805 244.925 182.672 246.728C183.573 248.53 184.388 250.264 185.116 251.928C185.844 253.592 186.433 255.03 186.884 256.244L182.828 258.168C182.446 256.85 181.926 255.342 181.268 253.644C180.609 251.91 179.846 250.16 178.98 248.392C178.148 246.589 177.264 244.908 176.328 243.348C175.426 241.753 174.508 240.418 173.572 239.344L177.368 237.628ZM140.76 243.504C141.557 243.573 142.32 243.608 143.048 243.608C143.776 243.573 144.556 243.538 145.388 243.504C146.185 243.469 147.19 243.417 148.404 243.348C149.617 243.244 150.934 243.14 152.356 243.036C153.812 242.932 155.233 242.828 156.62 242.724C158.041 242.585 159.341 242.481 160.52 242.412C161.733 242.308 162.686 242.256 163.38 242.256C164.94 242.256 166.344 242.498 167.592 242.984C168.874 243.469 169.897 244.353 170.66 245.636C171.422 246.918 171.804 248.721 171.804 251.044C171.804 253.089 171.7 255.308 171.492 257.7C171.318 260.057 171.006 262.31 170.556 264.46C170.105 266.609 169.516 268.394 168.788 269.816C167.99 271.584 166.95 272.745 165.668 273.3C164.385 273.889 162.894 274.184 161.196 274.184C160.225 274.184 159.168 274.097 158.024 273.924C156.88 273.785 155.892 273.612 155.06 273.404L154.384 269.088C155.146 269.296 155.909 269.486 156.672 269.66C157.469 269.833 158.232 269.954 158.96 270.024C159.688 270.093 160.294 270.128 160.78 270.128C161.716 270.128 162.565 269.972 163.328 269.66C164.125 269.313 164.784 268.585 165.304 267.476C165.858 266.297 166.309 264.824 166.656 263.056C167.037 261.253 167.314 259.346 167.488 257.336C167.696 255.325 167.8 253.401 167.8 251.564C167.8 249.934 167.574 248.738 167.124 247.976C166.673 247.178 166.032 246.641 165.2 246.364C164.368 246.052 163.397 245.896 162.288 245.896C161.386 245.896 160.19 245.965 158.7 246.104C157.209 246.208 155.614 246.346 153.916 246.52C152.252 246.693 150.692 246.866 149.236 247.04C147.78 247.178 146.653 247.3 145.856 247.404C145.266 247.473 144.504 247.577 143.568 247.716C142.666 247.82 141.869 247.924 141.176 248.028L140.76 243.504ZM219.8 232.064C219.8 232.237 219.765 232.549 219.696 233C219.661 233.45 219.626 233.901 219.592 234.352C219.592 234.802 219.574 235.132 219.54 235.34C219.505 235.998 219.488 236.9 219.488 238.044C219.488 239.188 219.488 240.436 219.488 241.788C219.488 243.14 219.488 244.509 219.488 245.896C219.522 247.282 219.54 248.6 219.54 249.848C219.574 251.061 219.592 252.084 219.592 252.916L215.64 250.888C215.64 250.402 215.64 249.674 215.64 248.704C215.64 247.698 215.622 246.554 215.588 245.272C215.588 243.989 215.57 242.706 215.536 241.424C215.536 240.106 215.518 238.91 215.484 237.836C215.484 236.761 215.466 235.929 215.432 235.34C215.397 234.646 215.345 233.988 215.276 233.364C215.206 232.705 215.137 232.272 215.068 232.064H219.8ZM192.188 239.292C193.609 239.292 195.221 239.274 197.024 239.24C198.861 239.17 200.785 239.118 202.796 239.084C204.841 239.014 206.904 238.962 208.984 238.928C211.064 238.858 213.057 238.806 214.964 238.772C216.905 238.737 218.673 238.72 220.268 238.72C221.862 238.72 223.422 238.737 224.948 238.772C226.508 238.772 227.964 238.772 229.316 238.772C230.702 238.772 231.916 238.772 232.956 238.772C234.03 238.772 234.88 238.772 235.504 238.772L235.452 242.672C233.996 242.602 232.037 242.55 229.576 242.516C227.149 242.446 224.029 242.412 220.216 242.412C217.997 242.412 215.657 242.429 213.196 242.464C210.769 242.498 208.325 242.568 205.864 242.672C203.402 242.741 201.01 242.845 198.688 242.984C196.4 243.088 194.285 243.209 192.344 243.348L192.188 239.292ZM219.488 254.424C219.488 256.746 219.141 258.688 218.448 260.248C217.789 261.773 216.853 262.917 215.64 263.68C214.461 264.442 213.092 264.824 211.532 264.824C210.422 264.824 209.348 264.65 208.308 264.304C207.302 263.922 206.384 263.368 205.552 262.64C204.754 261.877 204.113 260.958 203.628 259.884C203.177 258.774 202.952 257.526 202.952 256.14C202.952 254.406 203.368 252.864 204.2 251.512C205.032 250.16 206.141 249.085 207.528 248.288C208.949 247.49 210.492 247.092 212.156 247.092C214.166 247.092 215.848 247.56 217.2 248.496C218.552 249.397 219.557 250.645 220.216 252.24C220.909 253.8 221.256 255.585 221.256 257.596C221.256 259.329 221.013 261.097 220.528 262.9C220.042 264.702 219.21 266.436 218.032 268.1C216.853 269.764 215.258 271.289 213.248 272.676C211.272 274.028 208.776 275.154 205.76 276.056L202.276 272.624C204.633 272.104 206.73 271.41 208.568 270.544C210.44 269.642 212.017 268.568 213.3 267.32C214.617 266.072 215.605 264.616 216.264 262.952C216.922 261.288 217.252 259.381 217.252 257.232C217.252 254.874 216.749 253.176 215.744 252.136C214.773 251.096 213.56 250.576 212.104 250.576C211.202 250.576 210.353 250.801 209.556 251.252C208.758 251.702 208.1 252.344 207.58 253.176C207.094 253.973 206.852 254.944 206.852 256.088C206.852 257.717 207.372 258.982 208.412 259.884C209.486 260.785 210.734 261.236 212.156 261.236C213.23 261.236 214.149 260.941 214.912 260.352C215.709 259.728 216.264 258.809 216.576 257.596C216.888 256.348 216.922 254.805 216.68 252.968L219.488 254.424ZM226.976 231.024C227.6 231.89 228.276 232.913 229.004 234.092C229.732 235.27 230.356 236.345 230.876 237.316L227.912 238.616C227.392 237.576 226.785 236.484 226.092 235.34C225.433 234.161 224.774 233.121 224.116 232.22L226.976 231.024ZM233.32 229.672C233.909 230.538 234.568 231.544 235.296 232.688C236.024 233.832 236.665 234.906 237.22 235.912L234.256 237.212C233.701 236.137 233.077 235.045 232.384 233.936C231.725 232.792 231.066 231.786 230.408 230.92L233.32 229.672ZM270.032 237.16C269.685 239.864 269.234 242.689 268.68 245.636C268.16 248.582 267.484 251.442 266.652 254.216C265.612 257.786 264.45 260.768 263.168 263.16C261.92 265.552 260.568 267.354 259.112 268.568C257.656 269.781 256.13 270.388 254.536 270.388C253.01 270.388 251.537 269.833 250.116 268.724C248.694 267.614 247.533 266.02 246.632 263.94C245.73 261.825 245.28 259.346 245.28 256.504C245.28 253.661 245.852 250.974 246.996 248.444C248.174 245.913 249.786 243.677 251.832 241.736C253.912 239.76 256.338 238.2 259.112 237.056C261.885 235.912 264.849 235.34 268.004 235.34C271.054 235.34 273.793 235.842 276.22 236.848C278.681 237.853 280.778 239.24 282.512 241.008C284.245 242.741 285.58 244.769 286.516 247.092C287.452 249.38 287.92 251.841 287.92 254.476C287.92 258.116 287.14 261.322 285.58 264.096C284.054 266.869 281.836 269.122 278.924 270.856C276.046 272.589 272.545 273.733 268.42 274.288L265.976 270.44C266.808 270.336 267.605 270.232 268.368 270.128C269.13 270.024 269.824 269.902 270.448 269.764C272.112 269.382 273.724 268.793 275.284 267.996C276.878 267.164 278.3 266.124 279.548 264.876C280.796 263.593 281.784 262.085 282.512 260.352C283.274 258.584 283.656 256.573 283.656 254.32C283.656 252.205 283.309 250.246 282.616 248.444C281.922 246.606 280.9 244.994 279.548 243.608C278.196 242.221 276.549 241.129 274.608 240.332C272.666 239.534 270.448 239.136 267.952 239.136C265.109 239.136 262.526 239.656 260.204 240.696C257.916 241.736 255.957 243.105 254.328 244.804C252.733 246.468 251.502 248.305 250.636 250.316C249.769 252.292 249.336 254.233 249.336 256.14C249.336 258.324 249.613 260.126 250.168 261.548C250.757 262.934 251.45 263.957 252.248 264.616C253.08 265.274 253.894 265.604 254.692 265.604C255.524 265.604 256.373 265.205 257.24 264.408C258.106 263.576 258.99 262.258 259.892 260.456C260.793 258.618 261.677 256.244 262.544 253.332C263.306 250.836 263.948 248.184 264.468 245.376C265.022 242.568 265.421 239.812 265.664 237.108L270.032 237.16ZM332.484 232.168C332.934 232.757 333.42 233.485 333.94 234.352C334.46 235.184 334.962 236.033 335.448 236.9C335.968 237.766 336.401 238.564 336.748 239.292L333.94 240.54C333.42 239.465 332.761 238.252 331.964 236.9C331.166 235.513 330.421 234.317 329.728 233.312L332.484 232.168ZM338.204 230.088C338.689 230.712 339.192 231.457 339.712 232.324C340.266 233.19 340.804 234.057 341.324 234.924C341.844 235.756 342.26 236.501 342.572 237.16L339.764 238.408C339.209 237.264 338.533 236.033 337.736 234.716C336.973 233.364 336.21 232.202 335.448 231.232L338.204 230.088ZM304.04 257.024C304.594 255.672 305.132 254.198 305.652 252.604C306.206 251.009 306.709 249.362 307.16 247.664C307.645 245.93 308.061 244.232 308.408 242.568C308.754 240.869 308.997 239.257 309.136 237.732L313.764 238.72C313.694 239.101 313.59 239.517 313.452 239.968C313.313 240.384 313.192 240.817 313.088 241.268C312.984 241.718 312.897 242.134 312.828 242.516C312.654 243.313 312.412 244.353 312.1 245.636C311.788 246.918 311.424 248.322 311.008 249.848C310.592 251.373 310.141 252.916 309.656 254.476C309.17 256.001 308.65 257.422 308.096 258.74C307.472 260.334 306.744 261.981 305.912 263.68C305.114 265.344 304.248 266.973 303.312 268.568C302.376 270.162 301.422 271.653 300.452 273.04L296.032 271.168C297.661 268.984 299.169 266.626 300.556 264.096C301.977 261.53 303.138 259.173 304.04 257.024ZM329.624 255.048C329.104 253.696 328.532 252.274 327.908 250.784C327.284 249.293 326.625 247.802 325.932 246.312C325.238 244.786 324.562 243.365 323.904 242.048C323.28 240.696 322.673 239.552 322.084 238.616L326.296 237.212C326.816 238.113 327.388 239.222 328.012 240.54C328.67 241.857 329.346 243.261 330.04 244.752C330.733 246.242 331.409 247.75 332.068 249.276C332.726 250.801 333.333 252.257 333.888 253.644C334.408 254.926 334.962 256.365 335.552 257.96C336.141 259.52 336.713 261.114 337.268 262.744C337.857 264.338 338.394 265.898 338.88 267.424C339.365 268.914 339.781 270.249 340.128 271.428L335.5 272.936C335.084 271.168 334.546 269.261 333.888 267.216C333.264 265.136 332.588 263.056 331.86 260.976C331.132 258.861 330.386 256.885 329.624 255.048ZM385.056 233.208C385.021 233.866 384.986 234.577 384.952 235.34C384.917 236.068 384.9 236.865 384.9 237.732C384.9 238.425 384.9 239.309 384.9 240.384C384.9 241.458 384.9 242.533 384.9 243.608C384.9 244.648 384.9 245.497 384.9 246.156C384.9 249.276 384.778 251.928 384.536 254.112C384.328 256.296 383.998 258.168 383.548 259.728C383.132 261.253 382.577 262.605 381.884 263.784C381.19 264.962 380.376 266.106 379.44 267.216C378.33 268.533 377.048 269.694 375.592 270.7C374.17 271.67 372.714 272.485 371.224 273.144C369.733 273.837 368.346 274.392 367.064 274.808L363.684 271.22C366.076 270.63 368.329 269.798 370.444 268.724C372.593 267.614 374.482 266.141 376.112 264.304C377.048 263.229 377.793 262.137 378.348 261.028C378.937 259.884 379.37 258.618 379.648 257.232C379.96 255.845 380.168 254.233 380.272 252.396C380.376 250.558 380.428 248.409 380.428 245.948C380.428 245.254 380.428 244.388 380.428 243.348C380.428 242.308 380.428 241.268 380.428 240.228C380.428 239.153 380.428 238.321 380.428 237.732C380.428 236.865 380.393 236.068 380.324 235.34C380.289 234.577 380.237 233.866 380.168 233.208H385.056ZM360.928 233.624C360.893 234.109 360.841 234.698 360.772 235.392C360.737 236.085 360.72 236.744 360.72 237.368C360.72 237.61 360.72 238.165 360.72 239.032C360.72 239.864 360.72 240.869 360.72 242.048C360.72 243.226 360.72 244.474 360.72 245.792C360.72 247.109 360.72 248.392 360.72 249.64C360.72 250.853 360.72 251.91 360.72 252.812C360.72 253.713 360.72 254.354 360.72 254.736C360.72 255.394 360.737 256.105 360.772 256.868C360.841 257.596 360.893 258.202 360.928 258.688H356.144C356.213 258.272 356.265 257.7 356.3 256.972C356.369 256.209 356.404 255.446 356.404 254.684C356.404 254.337 356.404 253.713 356.404 252.812C356.404 251.876 356.404 250.801 356.404 249.588C356.404 248.374 356.404 247.109 356.404 245.792C356.404 244.474 356.404 243.226 356.404 242.048C356.404 240.869 356.404 239.864 356.404 239.032C356.404 238.165 356.404 237.61 356.404 237.368C356.404 236.917 356.386 236.31 356.352 235.548C356.317 234.75 356.265 234.109 356.196 233.624H360.928ZM404.244 237.888C404.937 237.992 405.7 238.078 406.532 238.148C407.398 238.182 408.092 238.2 408.612 238.2H437.212C438.009 238.2 438.789 238.165 439.552 238.096C440.314 238.026 441.008 237.957 441.632 237.888V242.464C440.973 242.394 440.245 242.342 439.448 242.308C438.685 242.273 437.94 242.256 437.212 242.256H408.612C408.126 242.256 407.433 242.273 406.532 242.308C405.665 242.342 404.902 242.394 404.244 242.464V237.888ZM420.312 268.412V240.488H424.732V268.412H420.312ZM401.072 265.864C401.834 265.968 402.597 266.054 403.36 266.124C404.157 266.158 404.92 266.176 405.648 266.176H440.02C440.817 266.176 441.562 266.141 442.256 266.072C442.984 266.002 443.677 265.933 444.336 265.864V270.596C443.642 270.526 442.88 270.474 442.048 270.44C441.216 270.405 440.54 270.388 440.02 270.388H405.648C404.954 270.388 404.209 270.405 403.412 270.44C402.649 270.474 401.869 270.526 401.072 270.596V265.864ZM454.008 250.16C454.528 250.194 455.169 250.246 455.932 250.316C456.694 250.35 457.526 250.385 458.428 250.42C459.364 250.42 460.3 250.42 461.236 250.42C461.79 250.42 462.64 250.42 463.784 250.42C464.962 250.42 466.332 250.42 467.892 250.42C469.452 250.42 471.098 250.42 472.832 250.42C474.6 250.42 476.35 250.42 478.084 250.42C479.852 250.42 481.516 250.42 483.076 250.42C484.67 250.42 486.04 250.42 487.184 250.42C488.328 250.42 489.177 250.42 489.732 250.42C491.049 250.42 492.176 250.385 493.112 250.316C494.048 250.246 494.793 250.194 495.348 250.16V255.256C494.828 255.221 494.048 255.169 493.008 255.1C492.002 255.03 490.928 254.996 489.784 254.996C489.229 254.996 488.362 254.996 487.184 254.996C486.005 254.996 484.636 254.996 483.076 254.996C481.55 254.996 479.904 254.996 478.136 254.996C476.368 254.996 474.6 254.996 472.832 254.996C471.098 254.996 469.452 254.996 467.892 254.996C466.366 254.996 465.014 254.996 463.836 254.996C462.657 254.996 461.79 254.996 461.236 254.996C459.814 254.996 458.462 255.03 457.18 255.1C455.897 255.134 454.84 255.186 454.008 255.256V250.16ZM515.34 232.74C516.103 233.156 517.004 233.693 518.044 234.352C519.084 235.01 520.159 235.704 521.268 236.432C522.377 237.16 523.4 237.853 524.336 238.512C525.307 239.136 526.069 239.656 526.624 240.072L524.18 243.608C523.556 243.157 522.776 242.602 521.84 241.944C520.904 241.285 519.899 240.609 518.824 239.916C517.749 239.188 516.692 238.512 515.652 237.888C514.647 237.229 513.763 236.674 513 236.224L515.34 232.74ZM507.54 269.92C509.447 269.573 511.405 269.122 513.416 268.568C515.427 267.978 517.42 267.302 519.396 266.54C521.372 265.742 523.227 264.841 524.96 263.836C527.837 262.172 530.507 260.334 532.968 258.324C535.429 256.313 537.648 254.164 539.624 251.876C541.6 249.588 543.281 247.23 544.668 244.804L547.164 249.068C544.911 252.569 542.051 255.932 538.584 259.156C535.152 262.38 531.356 265.222 527.196 267.684C525.428 268.689 523.504 269.625 521.424 270.492C519.379 271.324 517.351 272.052 515.34 272.676C513.364 273.3 511.561 273.785 509.932 274.132L507.54 269.92ZM507.488 244.44C508.251 244.821 509.169 245.341 510.244 246C511.319 246.624 512.411 247.282 513.52 247.976C514.629 248.634 515.669 249.276 516.64 249.9C517.611 250.524 518.373 251.044 518.928 251.46L516.536 255.1C515.877 254.614 515.063 254.06 514.092 253.436C513.156 252.777 512.151 252.118 511.076 251.46C510.001 250.766 508.944 250.108 507.904 249.484C506.864 248.86 505.963 248.357 505.2 247.976L507.488 244.44ZM563.284 244.128C563.596 244.162 564.081 244.197 564.74 244.232C565.433 244.266 566.127 244.301 566.82 244.336C567.548 244.336 568.137 244.336 568.588 244.336C569.177 244.336 570.096 244.336 571.344 244.336C572.627 244.336 574.083 244.336 575.712 244.336C577.341 244.336 578.988 244.336 580.652 244.336C582.316 244.336 583.859 244.336 585.28 244.336C586.701 244.336 587.845 244.336 588.712 244.336C589.301 244.336 589.891 244.336 590.48 244.336C591.069 244.301 591.537 244.266 591.884 244.232C591.849 244.509 591.832 244.908 591.832 245.428C591.832 245.913 591.832 246.398 591.832 246.884C591.832 247.196 591.832 247.941 591.832 249.12C591.832 250.298 591.832 251.737 591.832 253.436C591.832 255.134 591.832 256.954 591.832 258.896C591.832 260.802 591.832 262.692 591.832 264.564C591.832 266.401 591.832 268.048 591.832 269.504C591.832 270.96 591.832 272.052 591.832 272.78C591.832 273.196 591.832 273.664 591.832 274.184C591.867 274.738 591.901 275.206 591.936 275.588H587.828C587.863 275.276 587.88 274.842 587.88 274.288C587.88 273.733 587.88 273.196 587.88 272.676C587.88 271.774 587.88 270.578 587.88 269.088C587.88 267.597 587.88 265.968 587.88 264.2C587.88 262.432 587.88 260.664 587.88 258.896C587.88 257.093 587.88 255.429 587.88 253.904C587.88 252.344 587.88 251.044 587.88 250.004C587.88 248.964 587.88 248.305 587.88 248.028C587.568 248.028 586.944 248.028 586.008 248.028C585.107 248.028 584.015 248.028 582.732 248.028C581.449 248.028 580.08 248.028 578.624 248.028C577.203 248.028 575.816 248.028 574.464 248.028C573.112 248.028 571.916 248.028 570.876 248.028C569.836 248.028 569.073 248.028 568.588 248.028C568.137 248.028 567.548 248.045 566.82 248.08C566.127 248.08 565.433 248.097 564.74 248.132C564.081 248.166 563.596 248.184 563.284 248.184V244.128ZM564.428 256.504C564.948 256.538 565.624 256.573 566.456 256.608C567.323 256.642 568.189 256.66 569.056 256.66C569.507 256.66 570.287 256.66 571.396 256.66C572.505 256.66 573.805 256.66 575.296 256.66C576.787 256.66 578.329 256.66 579.924 256.66C581.519 256.66 583.027 256.66 584.448 256.66C585.869 256.66 587.065 256.66 588.036 256.66C589.007 256.66 589.631 256.66 589.908 256.66V260.404C589.631 260.404 589.007 260.404 588.036 260.404C587.065 260.404 585.869 260.404 584.448 260.404C583.027 260.404 581.519 260.404 579.924 260.404C578.329 260.404 576.787 260.404 575.296 260.404C573.805 260.404 572.505 260.404 571.396 260.404C570.287 260.404 569.524 260.404 569.108 260.404C568.207 260.404 567.323 260.421 566.456 260.456C565.624 260.456 564.948 260.473 564.428 260.508V256.504ZM562.66 269.452C563.076 269.486 563.665 269.538 564.428 269.608C565.191 269.642 566.023 269.66 566.924 269.66C567.409 269.66 568.259 269.66 569.472 269.66C570.685 269.66 572.089 269.66 573.684 269.66C575.279 269.66 576.943 269.66 578.676 269.66C580.409 269.66 582.056 269.66 583.616 269.66C585.176 269.66 586.511 269.66 587.62 269.66C588.764 269.66 589.527 269.66 589.908 269.66V273.508C589.492 273.508 588.712 273.508 587.568 273.508C586.424 273.508 585.055 273.508 583.46 273.508C581.9 273.508 580.271 273.508 578.572 273.508C576.873 273.508 575.227 273.508 573.632 273.508C572.037 273.508 570.651 273.508 569.472 273.508C568.293 273.508 567.461 273.508 566.976 273.508C566.144 273.508 565.312 273.525 564.48 273.56C563.683 273.594 563.076 273.612 562.66 273.612V269.452ZM615.492 234.56C616.428 235.184 617.503 235.964 618.716 236.9C619.929 237.801 621.16 238.772 622.408 239.812C623.691 240.817 624.887 241.805 625.996 242.776C627.105 243.746 628.024 244.596 628.752 245.324L625.476 248.6C624.817 247.941 623.968 247.126 622.928 246.156C621.888 245.185 620.744 244.18 619.496 243.14C618.248 242.065 617.017 241.06 615.804 240.124C614.591 239.153 613.499 238.356 612.528 237.732L615.492 234.56ZM611.02 269.4C614.071 268.949 616.844 268.325 619.34 267.528C621.871 266.73 624.176 265.829 626.256 264.824C628.336 263.818 630.191 262.813 631.82 261.808C634.489 260.144 636.951 258.237 639.204 256.088C641.457 253.904 643.433 251.65 645.132 249.328C646.831 247.005 648.183 244.786 649.188 242.672L651.684 247.092C650.505 249.241 649.049 251.425 647.316 253.644C645.583 255.862 643.624 257.994 641.44 260.04C639.256 262.085 636.847 263.94 634.212 265.604C632.479 266.678 630.572 267.736 628.492 268.776C626.447 269.816 624.193 270.769 621.732 271.636C619.305 272.468 616.653 273.144 613.776 273.664L611.02 269.4ZM677.736 232.272C677.667 232.757 677.58 233.277 677.476 233.832C677.372 234.352 677.268 234.872 677.164 235.392C677.025 235.981 676.869 236.813 676.696 237.888C676.523 238.962 676.315 240.106 676.072 241.32C675.864 242.498 675.639 243.642 675.396 244.752C675.015 246.208 674.564 247.872 674.044 249.744C673.559 251.581 672.969 253.557 672.276 255.672C671.617 257.752 670.872 259.884 670.04 262.068C669.208 264.217 668.289 266.349 667.284 268.464C666.279 270.578 665.187 272.589 664.008 274.496L659.796 272.78C660.975 271.22 662.084 269.452 663.124 267.476C664.164 265.5 665.117 263.454 665.984 261.34C666.851 259.19 667.631 257.076 668.324 254.996C669.017 252.916 669.607 250.992 670.092 249.224C670.612 247.421 671.011 245.878 671.288 244.596C671.773 242.55 672.172 240.401 672.484 238.148C672.796 235.894 672.952 233.78 672.952 231.804L677.736 232.272ZM695.624 238.304C696.456 239.344 697.323 240.661 698.224 242.256C699.16 243.85 700.061 245.532 700.928 247.3C701.829 249.068 702.644 250.784 703.372 252.448C704.135 254.112 704.724 255.55 705.14 256.764L701.136 258.688C700.755 257.336 700.217 255.81 699.524 254.112C698.865 252.413 698.103 250.697 697.236 248.964C696.404 247.196 695.52 245.532 694.584 243.972C693.683 242.377 692.764 241.06 691.828 240.02L695.624 238.304ZM659.016 243.712C659.848 243.746 660.628 243.764 661.356 243.764C662.084 243.764 662.864 243.746 663.696 243.712C664.459 243.677 665.447 243.625 666.66 243.556C667.908 243.452 669.243 243.348 670.664 243.244C672.085 243.105 673.507 242.984 674.928 242.88C676.349 242.741 677.649 242.637 678.828 242.568C680.007 242.464 680.943 242.412 681.636 242.412C683.196 242.412 684.6 242.672 685.848 243.192C687.131 243.677 688.153 244.561 688.916 245.844C689.713 247.092 690.112 248.894 690.112 251.252C690.112 253.297 690.008 255.516 689.8 257.908C689.592 260.265 689.263 262.518 688.812 264.668C688.396 266.782 687.824 268.568 687.096 270.024C686.299 271.757 685.259 272.901 683.976 273.456C682.693 274.045 681.203 274.34 679.504 274.34C678.499 274.34 677.424 274.253 676.28 274.08C675.171 273.941 674.2 273.785 673.368 273.612L672.692 269.244C673.42 269.486 674.183 269.694 674.98 269.868C675.777 270.006 676.54 270.128 677.268 270.232C677.996 270.301 678.585 270.336 679.036 270.336C680.007 270.336 680.873 270.18 681.636 269.868C682.399 269.521 683.057 268.776 683.612 267.632C684.167 266.453 684.617 264.98 684.964 263.212C685.345 261.444 685.623 259.554 685.796 257.544C685.969 255.533 686.056 253.592 686.056 251.72C686.056 250.125 685.831 248.929 685.38 248.132C684.929 247.334 684.288 246.797 683.456 246.52C682.624 246.242 681.653 246.104 680.544 246.104C679.677 246.104 678.499 246.173 677.008 246.312C675.517 246.416 673.923 246.554 672.224 246.728C670.525 246.866 668.948 247.022 667.492 247.196C666.071 247.369 664.961 247.49 664.164 247.56C663.54 247.629 662.76 247.733 661.824 247.872C660.923 247.976 660.143 248.08 659.484 248.184L659.016 243.712ZM696.248 230.764C696.699 231.353 697.167 232.081 697.652 232.948C698.172 233.78 698.692 234.646 699.212 235.548C699.732 236.414 700.165 237.194 700.512 237.888L697.652 239.136C697.34 238.442 696.941 237.662 696.456 236.796C695.971 235.929 695.468 235.062 694.948 234.196C694.428 233.329 693.925 232.566 693.44 231.908L696.248 230.764ZM701.968 228.632C702.419 229.29 702.921 230.053 703.476 230.92C704.031 231.786 704.568 232.653 705.088 233.52C705.608 234.352 706.024 235.097 706.336 235.756L703.528 237.004C702.973 235.86 702.297 234.629 701.5 233.312C700.703 231.96 699.94 230.798 699.212 229.828L701.968 228.632ZM732.232 231.492C732.093 231.804 731.972 232.185 731.868 232.636C731.799 233.052 731.712 233.45 731.608 233.832C731.331 235.253 731.053 237.056 730.776 239.24C730.499 241.424 730.273 243.764 730.1 246.26C729.927 248.721 729.84 251.148 729.84 253.54C729.84 255.758 729.979 257.925 730.256 260.04C730.568 262.154 730.949 264.182 731.4 266.124C731.885 268.03 732.388 269.798 732.908 271.428L729.164 272.572C728.644 271.012 728.159 269.209 727.708 267.164C727.257 265.084 726.893 262.917 726.616 260.664C726.339 258.376 726.2 256.14 726.2 253.956C726.2 252.153 726.252 250.316 726.356 248.444C726.495 246.572 726.651 244.752 726.824 242.984C726.997 241.181 727.153 239.5 727.292 237.94C727.465 236.38 727.621 235.028 727.76 233.884C727.795 233.433 727.829 232.982 727.864 232.532C727.899 232.081 727.899 231.7 727.864 231.388L732.232 231.492ZM723.808 237.94C726.859 237.94 729.875 237.853 732.856 237.68C735.837 237.506 738.697 237.246 741.436 236.9C744.209 236.553 746.809 236.102 749.236 235.548L749.288 239.396C747.416 239.708 745.388 240.002 743.204 240.28C741.055 240.522 738.853 240.748 736.6 240.956C734.347 241.129 732.128 241.268 729.944 241.372C727.76 241.476 725.697 241.528 723.756 241.528C723.028 241.528 722.144 241.51 721.104 241.476C720.064 241.406 719.024 241.354 717.984 241.32C716.944 241.25 716.06 241.198 715.332 241.164L715.228 237.264C715.852 237.368 716.701 237.472 717.776 237.576C718.851 237.68 719.943 237.766 721.052 237.836C722.161 237.905 723.08 237.94 723.808 237.94ZM745.492 244.024C745.388 244.232 745.267 244.526 745.128 244.908C745.024 245.254 744.903 245.618 744.764 246C744.66 246.346 744.556 246.676 744.452 246.988C743.412 250.177 742.164 253.106 740.708 255.776C739.252 258.41 737.675 260.768 735.976 262.848C734.277 264.893 732.527 266.609 730.724 267.996C729.025 269.278 727.188 270.353 725.212 271.22C723.236 272.086 721.329 272.52 719.492 272.52C718.383 272.52 717.36 272.277 716.424 271.792C715.488 271.306 714.743 270.578 714.188 269.608C713.633 268.637 713.356 267.424 713.356 265.968C713.356 264.2 713.737 262.449 714.5 260.716C715.263 258.948 716.303 257.284 717.62 255.724C718.972 254.164 720.497 252.777 722.196 251.564C723.929 250.316 725.767 249.31 727.708 248.548C729.407 247.924 731.244 247.421 733.22 247.04C735.231 246.658 737.068 246.468 738.732 246.468C742.025 246.468 744.868 247.04 747.26 248.184C749.652 249.328 751.489 250.888 752.772 252.864C754.089 254.805 754.748 256.989 754.748 259.416C754.748 261.288 754.419 263.073 753.76 264.772C753.136 266.47 752.131 268.03 750.744 269.452C749.392 270.838 747.641 272.034 745.492 273.04C743.343 274.045 740.76 274.79 737.744 275.276L735.508 271.792C738.663 271.48 741.367 270.752 743.62 269.608C745.873 268.464 747.624 267.008 748.872 265.24C750.12 263.472 750.744 261.461 750.744 259.208C750.744 257.509 750.276 255.949 749.34 254.528C748.404 253.106 747.035 251.962 745.232 251.096C743.464 250.194 741.28 249.744 738.68 249.744C736.496 249.744 734.468 250.004 732.596 250.524C730.759 251.044 729.181 251.598 727.864 252.188C725.923 253.054 724.137 254.216 722.508 255.672C720.913 257.128 719.648 258.705 718.712 260.404C717.776 262.068 717.308 263.697 717.308 265.292C717.308 266.366 717.551 267.181 718.036 267.736C718.556 268.256 719.301 268.516 720.272 268.516C721.555 268.516 722.993 268.152 724.588 267.424C726.217 266.696 727.881 265.586 729.58 264.096C731.903 262.085 734.052 259.624 736.028 256.712C738.039 253.8 739.633 250.229 740.812 246C740.881 245.722 740.951 245.41 741.02 245.064C741.089 244.717 741.159 244.353 741.228 243.972C741.332 243.59 741.384 243.261 741.384 242.984L745.492 244.024ZM139.49 331.724C138.104 333.11 136.613 334.185 135.018 334.948C133.424 335.676 131.725 336.04 129.922 336.04C128.224 336.04 126.837 335.485 125.762 334.376C124.688 333.266 124.15 331.637 124.15 329.488C124.15 328.032 124.254 326.454 124.462 324.756C124.67 323.057 124.896 321.324 125.138 319.556C125.381 317.753 125.606 316.054 125.814 314.46C126.022 312.83 126.126 311.374 126.126 310.092C126.126 308.601 125.762 307.526 125.034 306.868C124.306 306.174 123.266 305.828 121.914 305.828C120.701 305.828 119.349 306.192 117.858 306.92C116.368 307.613 114.842 308.566 113.282 309.78C111.722 310.958 110.197 312.293 108.706 313.784C107.216 315.24 105.846 316.696 104.598 318.152L104.702 313.004C105.361 312.31 106.193 311.496 107.198 310.56C108.238 309.624 109.382 308.653 110.63 307.648C111.913 306.642 113.265 305.706 114.686 304.84C116.108 303.973 117.512 303.28 118.898 302.76C120.32 302.24 121.672 301.98 122.954 301.98C124.584 301.98 125.936 302.274 127.01 302.864C128.085 303.418 128.882 304.233 129.402 305.308C129.922 306.348 130.182 307.561 130.182 308.948C130.182 310.23 130.078 311.721 129.87 313.42C129.697 315.084 129.472 316.817 129.194 318.62C128.952 320.422 128.726 322.173 128.518 323.872C128.345 325.57 128.258 327.078 128.258 328.396C128.258 329.262 128.466 330.008 128.882 330.632C129.333 331.256 130.026 331.568 130.962 331.568C132.21 331.568 133.493 331.204 134.81 330.476C136.162 329.713 137.497 328.638 138.814 327.252L139.49 331.724ZM104.546 306.868C104.13 306.902 103.489 306.989 102.622 307.128C101.79 307.232 100.837 307.353 99.7624 307.492C98.6878 307.63 97.5958 307.786 96.4864 307.96C95.3771 308.098 94.3371 308.237 93.3664 308.376L92.9504 304.112C93.5051 304.146 94.0424 304.164 94.5624 304.164C95.1171 304.129 95.7064 304.094 96.3304 304.06C97.0584 304.025 97.9424 303.956 98.9824 303.852C100.057 303.713 101.166 303.574 102.31 303.436C103.489 303.262 104.581 303.089 105.586 302.916C106.626 302.708 107.441 302.5 108.03 302.292L109.538 304.112C109.226 304.528 108.88 305.048 108.498 305.672C108.117 306.261 107.736 306.868 107.354 307.492C106.973 308.116 106.644 308.67 106.366 309.156L104.754 316.228C104.165 317.164 103.437 318.273 102.57 319.556C101.704 320.838 100.785 322.19 99.8144 323.612C98.8784 324.998 97.9251 326.385 96.9544 327.772C95.9838 329.124 95.0998 330.372 94.3024 331.516L91.6504 327.928C92.3091 327.13 93.0718 326.16 93.9384 325.016C94.8398 323.837 95.7758 322.572 96.7464 321.22C97.7518 319.868 98.7224 318.55 99.6584 317.268C100.629 315.95 101.478 314.737 102.206 313.628C102.969 312.518 103.541 311.617 103.922 310.924L104.13 308.272L104.546 306.868ZM104.078 298.236C104.078 297.646 104.061 297.022 104.026 296.364C104.026 295.705 103.974 295.046 103.87 294.388L108.758 294.544C108.62 295.237 108.446 296.329 108.238 297.82C108.03 299.276 107.822 301.009 107.614 303.02C107.441 305.03 107.25 307.145 107.042 309.364C106.869 311.582 106.73 313.784 106.626 315.968C106.522 318.117 106.47 320.11 106.47 321.948C106.47 323.508 106.47 324.964 106.47 326.316C106.47 327.633 106.488 328.95 106.522 330.268C106.557 331.55 106.609 332.954 106.678 334.48C106.713 334.93 106.748 335.45 106.782 336.04C106.817 336.629 106.869 337.166 106.938 337.652H102.414C102.484 337.166 102.518 336.629 102.518 336.04C102.553 335.485 102.57 335 102.57 334.584C102.605 332.92 102.622 331.446 102.622 330.164C102.622 328.881 102.622 327.564 102.622 326.212C102.657 324.825 102.692 323.178 102.726 321.272C102.726 320.509 102.761 319.469 102.83 318.152C102.9 316.8 102.986 315.326 103.09 313.732C103.194 312.102 103.298 310.456 103.402 308.792C103.506 307.128 103.61 305.568 103.714 304.112C103.818 302.621 103.905 301.356 103.974 300.316C104.044 299.276 104.078 298.582 104.078 298.236ZM160.342 305.516C161.833 305.654 163.289 305.758 164.71 305.828C166.166 305.897 167.64 305.932 169.13 305.932C172.285 305.932 175.405 305.81 178.49 305.568C181.576 305.325 184.436 304.944 187.07 304.424V308.428C184.297 308.844 181.368 309.173 178.282 309.416C175.197 309.624 172.129 309.728 169.078 309.728C167.588 309.728 166.132 309.71 164.71 309.676C163.324 309.606 161.868 309.52 160.342 309.416V305.516ZM178.542 296.156C178.438 296.71 178.352 297.248 178.282 297.768C178.248 298.253 178.213 298.773 178.178 299.328C178.144 299.952 178.109 300.749 178.074 301.72C178.074 302.656 178.074 303.678 178.074 304.788C178.074 305.897 178.074 306.972 178.074 308.012C178.074 309.988 178.109 311.964 178.178 313.94C178.248 315.916 178.334 317.84 178.438 319.712C178.542 321.584 178.629 323.334 178.698 324.964C178.802 326.593 178.854 328.084 178.854 329.436C178.854 330.51 178.698 331.55 178.386 332.556C178.109 333.561 177.624 334.48 176.93 335.312C176.272 336.109 175.353 336.733 174.174 337.184C173.03 337.669 171.592 337.912 169.858 337.912C166.357 337.912 163.688 337.236 161.85 335.884C160.013 334.566 159.094 332.729 159.094 330.372C159.094 328.95 159.51 327.65 160.342 326.472C161.174 325.258 162.388 324.305 163.982 323.612C165.577 322.918 167.501 322.572 169.754 322.572C171.938 322.572 173.966 322.814 175.838 323.3C177.71 323.785 179.426 324.444 180.986 325.276C182.581 326.073 184.037 326.974 185.354 327.98C186.672 328.985 187.868 329.973 188.942 330.944L186.706 334.428C184.904 332.694 183.084 331.186 181.246 329.904C179.444 328.621 177.572 327.616 175.63 326.888C173.689 326.16 171.609 325.796 169.39 325.796C167.449 325.796 165.854 326.177 164.606 326.94C163.393 327.702 162.786 328.725 162.786 330.008C162.786 331.325 163.376 332.33 164.554 333.024C165.733 333.717 167.258 334.064 169.13 334.064C170.621 334.064 171.765 333.838 172.562 333.388C173.36 332.902 173.932 332.244 174.278 331.412C174.625 330.545 174.798 329.54 174.798 328.396C174.798 327.46 174.764 326.212 174.694 324.652C174.625 323.057 174.538 321.306 174.434 319.4C174.33 317.493 174.244 315.569 174.174 313.628C174.105 311.652 174.07 309.797 174.07 308.064C174.07 306.261 174.07 304.597 174.07 303.072C174.07 301.512 174.07 300.281 174.07 299.38C174.07 298.929 174.053 298.409 174.018 297.82C173.984 297.196 173.932 296.641 173.862 296.156H178.542ZM152.854 296.52C152.75 296.797 152.629 297.161 152.49 297.612C152.386 298.028 152.282 298.461 152.178 298.912C152.109 299.328 152.04 299.692 151.97 300.004C151.762 301.009 151.537 302.188 151.294 303.54C151.052 304.857 150.809 306.296 150.566 307.856C150.358 309.381 150.15 310.941 149.942 312.536C149.769 314.096 149.63 315.604 149.526 317.06C149.422 318.516 149.37 319.816 149.37 320.96C149.37 322.242 149.405 323.456 149.474 324.6C149.578 325.744 149.717 326.957 149.89 328.24C150.168 327.442 150.48 326.593 150.826 325.692C151.173 324.79 151.52 323.889 151.866 322.988C152.248 322.086 152.577 321.289 152.854 320.596L154.986 322.26C154.57 323.438 154.102 324.773 153.582 326.264C153.097 327.72 152.629 329.124 152.178 330.476C151.762 331.793 151.45 332.885 151.242 333.752C151.173 334.098 151.121 334.497 151.086 334.948C151.052 335.364 151.034 335.745 151.034 336.092C151.069 336.334 151.086 336.629 151.086 336.976C151.121 337.322 151.156 337.634 151.19 337.912L147.55 338.172C147.03 336.3 146.562 333.977 146.146 331.204C145.765 328.396 145.574 325.224 145.574 321.688C145.574 319.781 145.661 317.788 145.834 315.708C146.042 313.593 146.268 311.53 146.51 309.52C146.788 307.509 147.048 305.672 147.29 304.008C147.568 302.309 147.793 300.922 147.966 299.848C148.036 299.224 148.105 298.6 148.174 297.976C148.244 297.317 148.278 296.693 148.278 296.104L152.854 296.52ZM183.014 294.492C183.326 295.081 183.673 295.826 184.054 296.728C184.436 297.594 184.817 298.478 185.198 299.38C185.58 300.246 185.874 301.026 186.082 301.72L183.43 302.656C183.188 301.893 182.893 301.078 182.546 300.212C182.2 299.345 181.853 298.478 181.506 297.612C181.16 296.745 180.813 295.965 180.466 295.272L183.014 294.492ZM188.214 292.88C188.561 293.504 188.925 294.249 189.306 295.116C189.688 295.982 190.052 296.849 190.398 297.716C190.78 298.582 191.109 299.362 191.386 300.056L188.734 300.992C188.318 299.848 187.833 298.6 187.278 297.248C186.758 295.861 186.221 294.682 185.666 293.712L188.214 292.88ZM215.878 294.804C215.705 295.497 215.566 296.138 215.462 296.728C215.393 297.282 215.306 297.854 215.202 298.444C215.064 299.414 214.89 300.628 214.682 302.084C214.509 303.54 214.301 305.134 214.058 306.868C213.85 308.601 213.625 310.386 213.382 312.224C213.174 314.061 212.966 315.846 212.758 317.58C212.585 319.313 212.446 320.89 212.342 322.312C212.238 323.733 212.186 324.912 212.186 325.848C212.186 328.378 212.897 330.372 214.318 331.828C215.774 333.284 217.976 334.012 220.922 334.012C223.592 334.012 225.88 333.648 227.786 332.92C229.728 332.192 231.218 331.169 232.258 329.852C233.333 328.5 233.87 326.94 233.87 325.172C233.87 323.438 233.402 321.653 232.466 319.816C231.53 317.944 230.109 316.193 228.202 314.564L232.778 313.628C234.546 315.604 235.864 317.545 236.73 319.452C237.632 321.324 238.082 323.386 238.082 325.64C238.082 328.205 237.354 330.424 235.898 332.296C234.477 334.168 232.484 335.589 229.918 336.56C227.353 337.565 224.354 338.068 220.922 338.068C218.565 338.068 216.416 337.686 214.474 336.924C212.568 336.196 211.042 334.982 209.898 333.284C208.754 331.585 208.182 329.314 208.182 326.472C208.182 325.362 208.252 323.906 208.39 322.104C208.564 320.301 208.772 318.342 209.014 316.228C209.292 314.078 209.569 311.894 209.846 309.676C210.158 307.422 210.418 305.308 210.626 303.332C210.869 301.356 211.042 299.64 211.146 298.184C211.25 297.282 211.302 296.572 211.302 296.052C211.302 295.497 211.268 294.977 211.198 294.492L215.878 294.804ZM199.186 301.72C200.677 302.17 202.306 302.552 204.074 302.864C205.842 303.176 207.628 303.418 209.43 303.592C211.233 303.73 212.897 303.8 214.422 303.8C216.433 303.8 218.322 303.748 220.09 303.644C221.893 303.54 223.54 303.366 225.03 303.124L224.926 307.024C223.262 307.162 221.616 307.284 219.986 307.388C218.357 307.457 216.485 307.492 214.37 307.492C212.845 307.492 211.181 307.422 209.378 307.284C207.576 307.11 205.773 306.868 203.97 306.556C202.168 306.244 200.504 305.897 198.978 305.516L199.186 301.72ZM197.938 314.616C199.602 315.205 201.353 315.673 203.19 316.02C205.062 316.332 206.9 316.557 208.702 316.696C210.505 316.834 212.221 316.904 213.85 316.904C215.618 316.904 217.404 316.869 219.206 316.8C221.044 316.696 222.864 316.505 224.666 316.228L224.562 320.18C222.864 320.388 221.182 320.526 219.518 320.596C217.854 320.665 216.138 320.7 214.37 320.7C211.562 320.7 208.668 320.526 205.686 320.18C202.74 319.833 200.088 319.313 197.73 318.62L197.938 314.616ZM253.162 314.928C253.96 314.754 254.757 314.564 255.554 314.356C256.386 314.113 257.218 313.87 258.05 313.628C258.952 313.35 260.13 312.969 261.586 312.484C263.042 311.998 264.62 311.53 266.318 311.08C268.017 310.629 269.733 310.23 271.466 309.884C273.234 309.537 274.881 309.364 276.406 309.364C278.868 309.364 281.052 309.832 282.958 310.768C284.865 311.704 286.356 313.038 287.43 314.772C288.54 316.47 289.094 318.516 289.094 320.908C289.094 323.404 288.522 325.605 287.378 327.512C286.234 329.384 284.605 330.978 282.49 332.296C280.41 333.613 277.914 334.653 275.002 335.416C272.125 336.178 268.936 336.664 265.434 336.872L263.77 332.868C266.578 332.764 269.248 332.486 271.778 332.036C274.309 331.55 276.562 330.84 278.538 329.904C280.514 328.968 282.057 327.754 283.166 326.264C284.31 324.738 284.882 322.918 284.882 320.804C284.882 319.313 284.518 317.996 283.79 316.852C283.062 315.708 282.04 314.806 280.722 314.148C279.44 313.454 277.897 313.108 276.094 313.108C274.812 313.108 273.373 313.281 271.778 313.628C270.184 313.94 268.537 314.356 266.838 314.876C265.14 315.396 263.51 315.95 261.95 316.54C260.39 317.094 259.004 317.614 257.79 318.1C256.577 318.55 255.624 318.914 254.93 319.192L253.162 314.928ZM339.17 304.632C338.581 305.013 337.957 305.377 337.298 305.724C336.64 306.07 335.929 306.434 335.166 306.816C334.3 307.301 333.225 307.856 331.942 308.48C330.66 309.104 329.29 309.797 327.834 310.56C326.378 311.322 324.922 312.12 323.466 312.952C322.01 313.784 320.641 314.616 319.358 315.448C316.932 317.008 315.025 318.654 313.638 320.388C312.286 322.121 311.61 323.976 311.61 325.952C311.61 328.101 312.633 329.817 314.678 331.1C316.758 332.348 319.844 332.972 323.934 332.972C325.841 332.972 327.817 332.902 329.862 332.764C331.908 332.59 333.866 332.365 335.738 332.088C337.645 331.81 339.257 331.516 340.574 331.204V335.832C339.292 336.074 337.766 336.282 335.998 336.456C334.265 336.664 332.393 336.82 330.382 336.924C328.372 337.062 326.292 337.132 324.142 337.132C321.681 337.132 319.428 336.924 317.382 336.508C315.337 336.126 313.552 335.52 312.026 334.688C310.536 333.856 309.374 332.764 308.542 331.412C307.71 330.025 307.294 328.361 307.294 326.42C307.294 324.513 307.693 322.762 308.49 321.168C309.288 319.538 310.432 317.996 311.922 316.54C313.413 315.084 315.181 313.68 317.226 312.328C318.544 311.426 319.948 310.56 321.438 309.728C322.964 308.861 324.454 308.029 325.91 307.232C327.366 306.434 328.718 305.706 329.966 305.048C331.249 304.389 332.324 303.834 333.19 303.384C333.918 302.933 334.577 302.534 335.166 302.188C335.756 301.806 336.328 301.39 336.882 300.94L339.17 304.632ZM312.858 295.22C313.656 297.438 314.505 299.605 315.406 301.72C316.342 303.834 317.278 305.81 318.214 307.648C319.185 309.485 320.069 311.114 320.866 312.536L317.278 314.668C316.412 313.246 315.493 311.565 314.522 309.624C313.552 307.682 312.581 305.62 311.61 303.436C310.64 301.252 309.686 299.085 308.75 296.936L312.858 295.22ZM374.634 295.428C373.178 297.265 371.306 299.154 369.018 301.096C366.73 303.002 364.2 304.84 361.426 306.608C358.688 308.376 355.862 309.918 352.95 311.236C352.812 310.958 352.604 310.629 352.326 310.248C352.084 309.832 351.824 309.45 351.546 309.104C351.269 308.722 350.992 308.393 350.714 308.116C353.661 306.833 356.521 305.308 359.294 303.54C362.102 301.737 364.65 299.83 366.938 297.82C369.226 295.809 371.064 293.85 372.45 291.944H376.35C377.772 293.573 379.384 295.168 381.186 296.728C382.989 298.253 384.878 299.692 386.854 301.044C388.865 302.396 390.91 303.626 392.99 304.736C395.105 305.81 397.168 306.729 399.178 307.492C398.762 307.977 398.329 308.549 397.878 309.208C397.428 309.832 397.046 310.421 396.734 310.976C394.134 309.797 391.448 308.376 388.674 306.712C385.901 305.013 383.284 303.193 380.822 301.252C378.396 299.31 376.333 297.369 374.634 295.428ZM362.31 313.888H387.218V316.904H362.31V313.888ZM372.71 301.096H376.714V308.168H372.71V301.096ZM354.094 335.728C356.036 335.554 358.254 335.364 360.75 335.156C363.281 334.948 365.95 334.705 368.758 334.428C371.601 334.15 374.461 333.873 377.338 333.596V337.132C374.634 337.409 371.913 337.686 369.174 337.964C366.47 338.241 363.87 338.501 361.374 338.744C358.913 338.986 356.677 339.212 354.666 339.42L354.094 335.728ZM375.102 323.196C377.044 326.836 380.025 329.765 384.046 331.984C388.102 334.168 392.904 335.658 398.45 336.456C398.173 336.698 397.878 337.01 397.566 337.392C397.254 337.808 396.96 338.224 396.682 338.64C396.44 339.09 396.214 339.489 396.006 339.836C392.228 339.142 388.778 338.12 385.658 336.768C382.538 335.416 379.8 333.7 377.442 331.62C375.12 329.54 373.213 327.061 371.722 324.184L375.102 323.196ZM392.626 322.312L395.538 324.6C394.221 325.57 392.765 326.541 391.17 327.512C389.576 328.482 387.964 329.401 386.334 330.268C384.74 331.134 383.232 331.914 381.81 332.608L379.314 330.476C380.77 329.782 382.296 328.968 383.89 328.032C385.52 327.096 387.097 326.142 388.622 325.172C390.182 324.166 391.517 323.213 392.626 322.312ZM362.362 306.296H389.766V324.652H362.362V321.48H385.866V309.52H362.362V306.296ZM360.022 306.296H363.87V336.196L360.022 336.612V306.296ZM403.286 322.364C403.945 321.878 404.552 321.376 405.106 320.856C405.696 320.301 406.337 319.66 407.03 318.932C407.724 318.238 408.486 317.389 409.318 316.384C410.185 315.344 411.069 314.252 411.97 313.108C412.906 311.929 413.825 310.768 414.726 309.624C415.628 308.48 416.46 307.457 417.222 306.556C418.748 304.753 420.221 303.782 421.642 303.644C423.098 303.47 424.693 304.25 426.426 305.984C427.466 307.058 428.576 308.306 429.754 309.728C430.933 311.114 432.129 312.518 433.342 313.94C434.59 315.361 435.752 316.678 436.826 317.892C437.624 318.758 438.525 319.729 439.53 320.804C440.536 321.878 441.61 323.005 442.754 324.184C443.898 325.328 445.06 326.489 446.238 327.668C447.452 328.846 448.648 329.956 449.826 330.996L446.498 334.74C445.181 333.492 443.812 332.105 442.39 330.58C440.969 329.02 439.565 327.46 438.178 325.9C436.792 324.34 435.509 322.884 434.33 321.532C433.186 320.249 432.008 318.897 430.794 317.476C429.616 316.02 428.472 314.65 427.362 313.368C426.288 312.05 425.352 310.958 424.554 310.092C423.826 309.26 423.185 308.74 422.63 308.532C422.11 308.324 421.608 308.376 421.122 308.688C420.672 308.965 420.152 309.485 419.562 310.248C418.938 311.01 418.228 311.912 417.43 312.952C416.633 313.957 415.801 315.014 414.934 316.124C414.068 317.233 413.218 318.325 412.386 319.4C411.554 320.44 410.809 321.358 410.15 322.156C409.63 322.849 409.093 323.577 408.538 324.34C407.984 325.102 407.498 325.761 407.082 326.316L403.286 322.364ZM436.826 300.576C437.277 301.2 437.797 302.014 438.386 303.02C439.01 303.99 439.634 305.013 440.258 306.088C440.882 307.128 441.385 308.064 441.766 308.896L438.698 310.248C438.282 309.346 437.797 308.393 437.242 307.388C436.722 306.382 436.168 305.412 435.578 304.476C434.989 303.505 434.417 302.638 433.862 301.876L436.826 300.576ZM443.534 297.924C444.02 298.513 444.574 299.31 445.198 300.316C445.822 301.286 446.446 302.292 447.07 303.332C447.729 304.337 448.249 305.256 448.63 306.088L445.666 307.544C445.181 306.608 444.661 305.654 444.106 304.684C443.552 303.713 442.98 302.76 442.39 301.824C441.801 300.888 441.212 300.038 440.622 299.276L443.534 297.924ZM470.262 294.908C471.372 295.254 472.81 295.636 474.578 296.052C476.381 296.468 478.27 296.884 480.246 297.3C482.257 297.681 484.164 298.028 485.966 298.34C487.769 298.617 489.242 298.808 490.386 298.912L489.398 302.916C488.428 302.777 487.232 302.586 485.81 302.344C484.424 302.101 482.933 301.824 481.338 301.512C479.744 301.2 478.166 300.888 476.606 300.576C475.046 300.229 473.625 299.917 472.342 299.64C471.06 299.328 470.02 299.068 469.222 298.86L470.262 294.908ZM469.118 304.372C468.945 305.273 468.754 306.382 468.546 307.7C468.373 308.982 468.182 310.334 467.974 311.756C467.766 313.177 467.576 314.529 467.402 315.812C467.229 317.094 467.073 318.152 466.934 318.984C469.465 316.8 472.134 315.205 474.942 314.2C477.785 313.16 480.766 312.64 483.886 312.64C486.556 312.64 488.878 313.125 490.854 314.096C492.83 315.032 494.373 316.332 495.482 317.996C496.592 319.625 497.146 321.462 497.146 323.508C497.146 325.83 496.609 327.945 495.534 329.852C494.494 331.724 492.848 333.301 490.594 334.584C488.376 335.866 485.533 336.768 482.066 337.288C478.6 337.842 474.44 337.912 469.586 337.496L468.338 333.232C473.85 333.89 478.409 333.873 482.014 333.18C485.62 332.452 488.306 331.238 490.074 329.54C491.877 327.806 492.778 325.761 492.778 323.404C492.778 322.017 492.38 320.786 491.582 319.712C490.785 318.637 489.693 317.805 488.306 317.216C486.954 316.592 485.394 316.28 483.626 316.28C480.229 316.28 477.144 316.904 474.37 318.152C471.632 319.365 469.344 321.064 467.506 323.248C467.125 323.698 466.813 324.149 466.57 324.6C466.328 325.016 466.12 325.432 465.946 325.848L462.098 324.912C462.306 323.941 462.514 322.78 462.722 321.428C462.93 320.041 463.138 318.568 463.346 317.008C463.554 315.413 463.745 313.818 463.918 312.224C464.126 310.629 464.3 309.104 464.438 307.648C464.577 306.157 464.681 304.874 464.75 303.8L469.118 304.372ZM555.49 331.724C554.104 333.11 552.613 334.185 551.018 334.948C549.424 335.676 547.725 336.04 545.922 336.04C544.224 336.04 542.837 335.485 541.762 334.376C540.688 333.266 540.15 331.637 540.15 329.488C540.15 328.032 540.254 326.454 540.462 324.756C540.67 323.057 540.896 321.324 541.138 319.556C541.381 317.753 541.606 316.054 541.814 314.46C542.022 312.83 542.126 311.374 542.126 310.092C542.126 308.601 541.762 307.526 541.034 306.868C540.306 306.174 539.266 305.828 537.914 305.828C536.701 305.828 535.349 306.192 533.858 306.92C532.368 307.613 530.842 308.566 529.282 309.78C527.722 310.958 526.197 312.293 524.706 313.784C523.216 315.24 521.846 316.696 520.598 318.152L520.702 313.004C521.361 312.31 522.193 311.496 523.198 310.56C524.238 309.624 525.382 308.653 526.63 307.648C527.913 306.642 529.265 305.706 530.686 304.84C532.108 303.973 533.512 303.28 534.898 302.76C536.32 302.24 537.672 301.98 538.954 301.98C540.584 301.98 541.936 302.274 543.01 302.864C544.085 303.418 544.882 304.233 545.402 305.308C545.922 306.348 546.182 307.561 546.182 308.948C546.182 310.23 546.078 311.721 545.87 313.42C545.697 315.084 545.472 316.817 545.194 318.62C544.952 320.422 544.726 322.173 544.518 323.872C544.345 325.57 544.258 327.078 544.258 328.396C544.258 329.262 544.466 330.008 544.882 330.632C545.333 331.256 546.026 331.568 546.962 331.568C548.21 331.568 549.493 331.204 550.81 330.476C552.162 329.713 553.497 328.638 554.814 327.252L555.49 331.724ZM520.546 306.868C520.13 306.902 519.489 306.989 518.622 307.128C517.79 307.232 516.837 307.353 515.762 307.492C514.688 307.63 513.596 307.786 512.486 307.96C511.377 308.098 510.337 308.237 509.366 308.376L508.95 304.112C509.505 304.146 510.042 304.164 510.562 304.164C511.117 304.129 511.706 304.094 512.33 304.06C513.058 304.025 513.942 303.956 514.982 303.852C516.057 303.713 517.166 303.574 518.31 303.436C519.489 303.262 520.581 303.089 521.586 302.916C522.626 302.708 523.441 302.5 524.03 302.292L525.538 304.112C525.226 304.528 524.88 305.048 524.498 305.672C524.117 306.261 523.736 306.868 523.354 307.492C522.973 308.116 522.644 308.67 522.366 309.156L520.754 316.228C520.165 317.164 519.437 318.273 518.57 319.556C517.704 320.838 516.785 322.19 515.814 323.612C514.878 324.998 513.925 326.385 512.954 327.772C511.984 329.124 511.1 330.372 510.302 331.516L507.65 327.928C508.309 327.13 509.072 326.16 509.938 325.016C510.84 323.837 511.776 322.572 512.746 321.22C513.752 319.868 514.722 318.55 515.658 317.268C516.629 315.95 517.478 314.737 518.206 313.628C518.969 312.518 519.541 311.617 519.922 310.924L520.13 308.272L520.546 306.868ZM520.078 298.236C520.078 297.646 520.061 297.022 520.026 296.364C520.026 295.705 519.974 295.046 519.87 294.388L524.758 294.544C524.62 295.237 524.446 296.329 524.238 297.82C524.03 299.276 523.822 301.009 523.614 303.02C523.441 305.03 523.25 307.145 523.042 309.364C522.869 311.582 522.73 313.784 522.626 315.968C522.522 318.117 522.47 320.11 522.47 321.948C522.47 323.508 522.47 324.964 522.47 326.316C522.47 327.633 522.488 328.95 522.522 330.268C522.557 331.55 522.609 332.954 522.678 334.48C522.713 334.93 522.748 335.45 522.782 336.04C522.817 336.629 522.869 337.166 522.938 337.652H518.414C518.484 337.166 518.518 336.629 518.518 336.04C518.553 335.485 518.57 335 518.57 334.584C518.605 332.92 518.622 331.446 518.622 330.164C518.622 328.881 518.622 327.564 518.622 326.212C518.657 324.825 518.692 323.178 518.726 321.272C518.726 320.509 518.761 319.469 518.83 318.152C518.9 316.8 518.986 315.326 519.09 313.732C519.194 312.102 519.298 310.456 519.402 308.792C519.506 307.128 519.61 305.568 519.714 304.112C519.818 302.621 519.905 301.356 519.974 300.316C520.044 299.276 520.078 298.582 520.078 298.236ZM569.218 297.352C569.808 297.421 570.432 297.473 571.09 297.508C571.784 297.542 572.39 297.56 572.91 297.56C573.43 297.56 574.28 297.542 575.458 297.508C576.672 297.473 578.024 297.438 579.514 297.404C581.04 297.334 582.548 297.282 584.038 297.248C585.564 297.178 586.916 297.109 588.094 297.04C589.308 296.97 590.192 296.918 590.746 296.884C591.509 296.814 592.098 296.745 592.514 296.676C592.93 296.606 593.277 296.537 593.554 296.468L595.946 299.484C595.496 299.796 595.01 300.125 594.49 300.472C594.005 300.818 593.52 301.2 593.034 301.616C592.376 302.101 591.492 302.812 590.382 303.748C589.273 304.649 588.042 305.672 586.69 306.816C585.373 307.925 584.073 309.017 582.79 310.092C581.508 311.166 580.346 312.137 579.306 313.004C580.52 312.588 581.733 312.31 582.946 312.172C584.194 311.998 585.39 311.912 586.534 311.912C589.412 311.912 591.96 312.449 594.178 313.524C596.432 314.564 598.182 316.002 599.43 317.84C600.713 319.677 601.354 321.774 601.354 324.132C601.354 326.905 600.626 329.332 599.17 331.412C597.714 333.492 595.652 335.086 592.982 336.196C590.313 337.34 587.141 337.912 583.466 337.912C581.109 337.912 579.081 337.6 577.382 336.976C575.684 336.352 574.366 335.485 573.43 334.376C572.529 333.266 572.078 331.984 572.078 330.528C572.078 329.349 572.408 328.24 573.066 327.2C573.725 326.16 574.661 325.328 575.874 324.704C577.088 324.08 578.492 323.768 580.086 323.768C582.409 323.768 584.333 324.253 585.858 325.224C587.384 326.16 588.562 327.408 589.394 328.968C590.226 330.493 590.694 332.14 590.798 333.908L587.054 334.532C586.916 332.313 586.222 330.493 584.974 329.072C583.761 327.616 582.114 326.888 580.034 326.888C578.856 326.888 577.868 327.217 577.07 327.876C576.273 328.534 575.874 329.314 575.874 330.216C575.874 331.464 576.516 332.452 577.798 333.18C579.081 333.908 580.745 334.272 582.79 334.272C585.737 334.272 588.285 333.873 590.434 333.076C592.618 332.278 594.282 331.117 595.426 329.592C596.605 328.066 597.194 326.229 597.194 324.08C597.194 322.381 596.692 320.856 595.686 319.504C594.681 318.152 593.294 317.094 591.526 316.332C589.793 315.534 587.8 315.136 585.546 315.136C583.362 315.136 581.404 315.378 579.67 315.864C577.937 316.314 576.308 316.973 574.782 317.84C573.292 318.706 571.801 319.798 570.31 321.116C568.854 322.398 567.294 323.872 565.63 325.536L562.666 322.468C563.741 321.601 564.92 320.63 566.202 319.556C567.52 318.446 568.837 317.354 570.154 316.28C571.472 315.17 572.685 314.148 573.794 313.212C574.938 312.241 575.892 311.444 576.654 310.82C577.382 310.23 578.284 309.485 579.358 308.584C580.468 307.648 581.612 306.677 582.79 305.672C583.969 304.666 585.078 303.713 586.118 302.812C587.193 301.91 588.06 301.182 588.718 300.628C588.164 300.628 587.349 300.662 586.274 300.732C585.2 300.766 584.004 300.818 582.686 300.888C581.369 300.922 580.052 300.974 578.734 301.044C577.452 301.113 576.273 301.182 575.198 301.252C574.158 301.286 573.361 301.321 572.806 301.356C572.252 301.39 571.68 301.425 571.09 301.46C570.501 301.494 569.929 301.564 569.374 301.668L569.218 297.352ZM638.17 300.16C637.824 302.864 637.373 305.689 636.818 308.636C636.298 311.582 635.622 314.442 634.79 317.216C633.75 320.786 632.589 323.768 631.306 326.16C630.058 328.552 628.706 330.354 627.25 331.568C625.794 332.781 624.269 333.388 622.674 333.388C621.149 333.388 619.676 332.833 618.254 331.724C616.833 330.614 615.672 329.02 614.77 326.94C613.869 324.825 613.418 322.346 613.418 319.504C613.418 316.661 613.99 313.974 615.134 311.444C616.313 308.913 617.925 306.677 619.97 304.736C622.05 302.76 624.477 301.2 627.25 300.056C630.024 298.912 632.988 298.34 636.142 298.34C639.193 298.34 641.932 298.842 644.358 299.848C646.82 300.853 648.917 302.24 650.65 304.008C652.384 305.741 653.718 307.769 654.654 310.092C655.59 312.38 656.058 314.841 656.058 317.476C656.058 321.116 655.278 324.322 653.718 327.096C652.193 329.869 649.974 332.122 647.062 333.856C644.185 335.589 640.684 336.733 636.558 337.288L634.114 333.44C634.946 333.336 635.744 333.232 636.506 333.128C637.269 333.024 637.962 332.902 638.586 332.764C640.25 332.382 641.862 331.793 643.422 330.996C645.017 330.164 646.438 329.124 647.686 327.876C648.934 326.593 649.922 325.085 650.65 323.352C651.413 321.584 651.794 319.573 651.794 317.32C651.794 315.205 651.448 313.246 650.754 311.444C650.061 309.606 649.038 307.994 647.686 306.608C646.334 305.221 644.688 304.129 642.746 303.332C640.805 302.534 638.586 302.136 636.09 302.136C633.248 302.136 630.665 302.656 628.342 303.696C626.054 304.736 624.096 306.105 622.466 307.804C620.872 309.468 619.641 311.305 618.774 313.316C617.908 315.292 617.474 317.233 617.474 319.14C617.474 321.324 617.752 323.126 618.306 324.548C618.896 325.934 619.589 326.957 620.386 327.616C621.218 328.274 622.033 328.604 622.83 328.604C623.662 328.604 624.512 328.205 625.378 327.408C626.245 326.576 627.129 325.258 628.03 323.456C628.932 321.618 629.816 319.244 630.682 316.332C631.445 313.836 632.086 311.184 632.606 308.376C633.161 305.568 633.56 302.812 633.802 300.108L638.17 300.16ZM684.554 300.576C685.976 300.784 687.622 300.957 689.494 301.096C691.401 301.2 693.36 301.252 695.37 301.252C697.416 301.217 699.357 301.148 701.194 301.044C703.066 300.905 704.644 300.732 705.926 300.524V304.736C704.54 304.874 702.91 304.996 701.038 305.1C699.201 305.169 697.277 305.204 695.266 305.204C693.29 305.204 691.366 305.169 689.494 305.1C687.622 304.996 685.976 304.874 684.554 304.736V300.576ZM686.582 321.74C686.34 322.676 686.149 323.525 686.01 324.288C685.872 325.05 685.802 325.796 685.802 326.524C685.802 327.113 685.924 327.702 686.166 328.292C686.444 328.846 686.894 329.349 687.518 329.8C688.177 330.216 689.078 330.562 690.222 330.84C691.366 331.082 692.822 331.204 694.59 331.204C696.948 331.204 699.166 331.1 701.246 330.892C703.326 330.649 705.406 330.302 707.486 329.852L707.59 334.22C705.961 334.566 704.054 334.844 701.87 335.052C699.721 335.225 697.294 335.312 694.59 335.312C690.222 335.312 687.016 334.618 684.97 333.232C682.96 331.845 681.954 329.938 681.954 327.512C681.954 326.645 682.024 325.726 682.162 324.756C682.336 323.75 682.561 322.624 682.838 321.376L686.582 321.74ZM674.622 296.572C674.553 296.849 674.449 297.213 674.31 297.664C674.206 298.08 674.085 298.513 673.946 298.964C673.842 299.38 673.756 299.744 673.686 300.056C673.513 301.026 673.305 302.153 673.062 303.436C672.82 304.684 672.577 306.036 672.334 307.492C672.126 308.913 671.918 310.369 671.71 311.86C671.537 313.316 671.381 314.737 671.242 316.124C671.138 317.51 671.086 318.793 671.086 319.972C671.086 321.254 671.121 322.468 671.19 323.612C671.294 324.756 671.416 325.969 671.554 327.252C671.866 326.454 672.196 325.605 672.542 324.704C672.889 323.802 673.236 322.918 673.582 322.052C673.964 321.15 674.293 320.353 674.57 319.66L676.754 321.324C676.304 322.572 675.818 323.941 675.298 325.432C674.778 326.922 674.31 328.361 673.894 329.748C673.513 331.1 673.236 332.174 673.062 332.972C672.993 333.353 672.924 333.769 672.854 334.22C672.785 334.67 672.768 335.034 672.802 335.312C672.837 335.589 672.854 335.884 672.854 336.196C672.889 336.542 672.924 336.854 672.958 337.132L669.214 337.392C668.694 335.554 668.244 333.197 667.862 330.32C667.481 327.408 667.29 324.201 667.29 320.7C667.29 318.793 667.377 316.852 667.55 314.876C667.724 312.865 667.949 310.924 668.226 309.052C668.504 307.145 668.764 305.412 669.006 303.852C669.284 302.257 669.492 300.922 669.63 299.848C669.734 299.224 669.821 298.6 669.89 297.976C669.96 297.317 669.994 296.71 669.994 296.156L674.622 296.572ZM720.007 335.971C719.096 335.971 718.314 335.645 717.662 334.993C717.01 334.34 716.683 333.558 716.683 332.647C716.683 331.736 717.01 330.955 717.662 330.302C718.314 329.65 719.096 329.324 720.007 329.324C720.918 329.324 721.7 329.65 722.352 330.302C723.005 330.955 723.331 331.736 723.331 332.647C723.331 333.251 723.177 333.805 722.869 334.309C722.574 334.814 722.174 335.22 721.669 335.528C721.177 335.824 720.623 335.971 720.007 335.971ZM734.189 335.971C733.278 335.971 732.496 335.645 731.844 334.993C731.191 334.34 730.865 333.558 730.865 332.647C730.865 331.736 731.191 330.955 731.844 330.302C732.496 329.65 733.278 329.324 734.189 329.324C735.1 329.324 735.882 329.65 736.534 330.302C737.187 330.955 737.513 331.736 737.513 332.647C737.513 333.251 737.359 333.805 737.051 334.309C736.756 334.814 736.356 335.22 735.851 335.528C735.359 335.824 734.805 335.971 734.189 335.971ZM748.371 335.971C747.46 335.971 746.678 335.645 746.026 334.993C745.373 334.34 745.047 333.558 745.047 332.647C745.047 331.736 745.373 330.955 746.026 330.302C746.678 329.65 747.46 329.324 748.371 329.324C749.282 329.324 750.064 329.65 750.716 330.302C751.368 330.955 751.695 331.736 751.695 332.647C751.695 333.251 751.541 333.805 751.233 334.309C750.938 334.814 750.537 335.22 750.033 335.528C749.54 335.824 748.986 335.971 748.371 335.971Z" fill="black"/>
</svg>
