<svg width="32" height="32" viewBox="0 0 32 32" fill="none" xmlns="http://www.w3.org/2000/svg">
<g clip-path="url(#clip0_826_22869)">
<rect width="32" height="32" rx="16" fill="#F4D6DA"/>
<path d="M22.8086 22.8002H14.8086V11.9731L21.7259 15.7626L22.8086 22.8002Z" fill="#1F1F1F"/>
<path d="M16.2867 20.8893C19.1552 20.8893 21.4806 18.5639 21.4806 15.6954C21.4806 12.8269 19.1552 10.5015 16.2867 10.5015C13.4182 10.5015 11.0928 12.8269 11.0928 15.6954C11.0928 18.5639 13.4182 20.8893 16.2867 20.8893Z" fill="#E8C1A0"/>
<path d="M13.3048 21.6573L13.0701 19.2854L17.7559 18.4092L20.5228 25.146L15.7108 30.6799L12.2822 23.943L13.3048 21.6573Z" fill="#E8C1A0"/>
<path d="M27.4906 27.1334C27.4323 27.1942 27.3727 27.2543 27.3132 27.3139C27.1243 27.5027 26.9318 27.6862 26.7352 27.8642C23.7878 30.5373 20.0061 32.0002 15.9995 32.0002C12.3057 32.0002 8.80312 30.7569 5.96944 28.4682C5.96763 28.4669 5.96643 28.4657 5.96462 28.4639C5.87861 28.3948 5.7938 28.3244 5.70898 28.2528C5.72402 28.2095 5.74026 28.1668 5.75651 28.1247C6.66778 25.7506 8.46748 24.5891 9.55981 24.0808C10.1012 23.8288 10.4687 23.7367 10.4687 23.7367L11.7511 21.4269L12.6539 23.1112L13.3192 24.3527L16.0488 29.4456L18.4037 23.5821L19.1333 21.7644L19.3204 21.2988L20.21 21.9912L21.0521 22.6462L22.7478 23.0203L24.1234 23.3241L25.9917 23.7367C26.7472 24.3521 27.2067 25.5226 27.4636 26.977C27.4732 27.0288 27.4822 27.0811 27.4906 27.1334Z" fill="#0072B2"/>
<path d="M13.5546 9.79277C14.1872 8.73003 15.3492 8.00087 16.5813 7.8934C17.8135 7.78593 19.0841 8.30291 19.8912 9.24007C20.3722 9.79852 20.6875 10.4824 21.1563 11.0511C22.1652 12.2749 23.8855 12.9905 24.3262 14.514C24.5185 15.1789 24.4227 15.8887 24.3254 16.5739C24.242 17.1612 24.1586 17.7485 24.0752 18.3358C24.0103 18.7929 23.948 19.2747 24.1194 19.7034C24.3205 20.2063 24.8017 20.5357 25.1128 20.979C25.6421 21.7334 25.6034 22.8379 25.0226 23.5534C24.7707 23.8636 24.4367 24.0976 24.1726 24.3976C23.9085 24.6976 23.7126 25.1077 23.8232 25.4918C24.0351 26.2275 25.1889 26.4039 25.3154 27.159C25.3801 27.5451 25.1135 27.9306 24.7641 28.1071C24.4147 28.2837 24.0034 28.2888 23.6149 28.2416C22.138 28.0621 20.7705 27.1392 20.0515 25.8368C19.3324 24.5343 19.28 22.8855 19.915 21.54C20.4365 20.435 21.4059 19.4585 21.3953 18.2366C21.3895 17.5709 21.0842 16.9492 20.7856 16.3542C20.1746 15.1364 19.5635 13.9186 18.9524 12.7008C18.6251 12.0485 18.2452 11.3455 17.5713 11.0653C17.0505 10.8487 16.4595 10.9327 15.9024 11.0213C15.3454 11.1099 14.7553 11.1961 14.2329 10.9833C13.7105 10.7705 13.3158 10.1382 13.5647 9.63201" fill="#C07C4A"/>
<path d="M14.4648 9.84821C13.4614 9.5179 12.3357 10.0482 11.6563 10.8572C10.977 11.6662 10.6475 12.7042 10.3335 13.7129C10.1537 14.2907 9.97388 14.8685 9.79406 15.4463C9.6249 15.9898 9.45574 16.5333 9.28658 17.0769C9.08762 17.7162 8.88702 18.3954 9.05031 19.0447C9.16837 19.5142 9.47212 19.9405 9.47866 20.4245C9.48549 20.9301 9.16886 21.374 8.89138 21.7967C8.6139 22.2194 8.35342 22.7216 8.48563 23.2097C8.68672 23.952 9.71883 24.3601 9.66225 25.1271C9.64337 25.3831 9.49534 25.6199 9.49803 25.8765C9.50145 26.2031 9.75713 26.4853 10.0567 26.6154C10.3562 26.7455 10.6932 26.7526 11.0197 26.7468C12.0213 26.7292 13.0211 26.6103 13.9988 26.3924C14.375 26.3086 14.7575 26.2057 15.0707 25.981C15.3838 25.7564 15.6174 25.3841 15.5767 25.0008C15.5132 24.4036 14.871 24.0648 14.547 23.5592C14.2287 23.0625 14.2361 22.4332 14.0989 21.8594C13.9102 21.071 13.4444 20.3826 13.0947 19.6512C11.78 16.9013 12.2402 13.3963 14.2203 11.0791C14.3953 10.8742 14.5866 10.6681 14.6596 10.4087C14.7327 10.1493 14.6385 9.81877 14.3848 9.72803" fill="#C07C4A"/>
<path d="M27.3137 4.68631C24.2917 1.66436 20.2737 0 16 0C11.7263 0 7.70827 1.66436 4.68631 4.68631C1.66436 7.70827 0 11.7263 0 16C0 19.9008 1.38647 23.5886 3.92722 26.5004C4.16962 26.7789 4.42286 27.0502 4.68631 27.3137C4.74827 27.3756 4.81083 27.4376 4.87399 27.4977C5.04241 27.6608 5.21383 27.8201 5.38827 27.9747C5.49414 28.0692 5.6012 28.1618 5.70947 28.2526C5.79429 28.3242 5.8791 28.3946 5.96511 28.4638C5.96692 28.4656 5.96812 28.4668 5.96993 28.468C8.80361 30.7567 12.3062 32 16 32C20.0066 32 23.7883 30.5371 26.7356 27.8641C26.9323 27.686 27.1248 27.5026 27.3137 27.3137C27.3732 27.2541 27.4328 27.194 27.4911 27.1332C27.6535 26.966 27.8111 26.7958 27.9651 26.6232C30.5738 23.6926 32 19.9561 32 16C32 11.7263 30.3356 7.70827 27.3137 4.68631ZM27.926 26.4734C27.7756 26.6442 27.6217 26.8126 27.4641 26.9768C27.2186 27.2325 26.9654 27.4803 26.7038 27.7191C26.6045 27.8105 26.5041 27.8995 26.4024 27.988C25.3756 28.8812 24.2328 29.6439 23.0003 30.2514C22.5678 30.465 22.1245 30.6592 21.671 30.8331C19.9092 31.5092 17.997 31.8797 16 31.8797C14.0728 31.8797 12.225 31.5344 10.5149 30.9029C9.81293 30.6442 9.13444 30.3368 8.48301 29.985C8.38737 29.9332 8.29233 29.8809 8.19789 29.8274C7.70105 29.5459 7.22045 29.2385 6.7591 28.9065C6.41444 28.6592 6.08 28.3988 5.75699 28.1245C5.64391 28.0289 5.53203 27.932 5.42196 27.8328C5.24271 27.6734 5.06707 27.5092 4.89564 27.3407C4.57083 27.0226 4.26045 26.6911 3.96391 26.3465C1.56933 23.5651 0.120301 19.9489 0.120301 16C0.120301 7.24391 7.24391 0.120301 16 0.120301C24.7561 0.120301 31.8797 7.24391 31.8797 16C31.8797 20.0096 30.3862 23.6764 27.926 26.4734Z" fill="#1F1F1F"/>
</g>
<defs>
<clipPath id="clip0_826_22869">
<rect width="32" height="32" rx="16" fill="white"/>
</clipPath>
</defs>
</svg>
