<svg width="32" height="32" viewBox="0 0 32 32" fill="none" xmlns="http://www.w3.org/2000/svg">
<g clip-path="url(#clip0_826_22907)">
<rect width="32" height="32" rx="16" fill="#C6A8DC"/>
<path d="M17.8671 23.2915L18.6286 18.5318L13.4881 16.4375L12.7266 23.6723L17.8671 23.2915Z" fill="#E8C1A0"/>
<path d="M23.0339 30.3258C22.5925 30.5409 22.1428 30.7352 21.6863 30.9075C20.7733 31.253 19.831 31.5136 18.8642 31.6877C17.9193 31.8583 16.9492 31.9449 15.979 31.9449C14.6684 31.9449 13.3654 31.7876 12.1052 31.4766C11.6118 31.3556 11.1141 31.2076 10.6248 31.0352C10.5735 31.0168 10.5214 30.9983 10.4701 30.9797C9.86319 30.7596 9.26631 30.5014 8.69215 30.2098C8.6148 30.1711 8.53746 30.1315 8.46013 30.0895C8.37438 30.0458 8.28947 29.9996 8.20372 29.9517C8.09443 29.892 7.98598 29.8297 7.87753 29.7667C7.51438 29.5565 7.1571 29.3295 6.81578 29.0933L6.79308 29.0782C6.77291 29.0639 6.75273 29.0505 6.7334 29.0362C6.746 28.9698 6.75778 28.9092 6.7687 28.8554C6.81073 28.6444 6.83848 28.5284 6.83848 28.5284L9.14021 23.7736L9.78165 22.4487L10.0944 22.3201L12.4567 21.3491H18.2303L20.052 22.1024C20.052 22.1024 20.0613 22.1368 20.0798 22.2032C20.2614 22.8548 21.3206 26.5537 22.9641 30.1727C22.9868 30.2231 23.0104 30.2745 23.0339 30.3258Z" fill="#E69F00"/>
<path d="M16.5683 20.0618C19.4634 20.0618 21.8104 17.7149 21.8104 14.8197C21.8104 11.9246 19.4634 9.57764 16.5683 9.57764C13.6731 9.57764 11.3262 11.9246 11.3262 14.8197C11.3262 17.7149 13.6731 20.0618 16.5683 20.0618Z" fill="#E8C1A0"/>
<path d="M10.1036 22.2749L10.0946 22.32L8.49638 29.9188L8.48255 29.985L8.46029 30.0896C8.37428 30.0457 8.28947 29.9994 8.20405 29.9519C8.09458 29.8917 7.98631 29.8298 7.87743 29.7666C7.51473 29.5567 7.15744 29.3293 6.81578 29.0935L6.79293 29.0779C6.77307 29.0641 6.75263 29.0502 6.73338 29.0364C6.47232 28.8542 6.21789 28.6641 5.96947 28.468C5.96766 28.4668 5.96646 28.4656 5.96465 28.4638C5.52135 28.1065 5.09428 27.7221 4.68586 27.3137C4.4224 27.0502 4.16917 26.779 3.92676 26.5005L3.96345 26.3465L3.96706 26.3308L4.01277 26.1348C4.41939 24.4175 5.79503 23.0996 7.52796 22.7675L9.83052 22.3266L10.1036 22.2749Z" fill="#E69F00"/>
<path d="M26.429 28.1038C25.7505 28.6814 25.0234 29.2043 24.2558 29.6633C24.181 29.7087 24.1045 29.7532 24.028 29.7978C23.7018 29.9861 23.3698 30.1618 23.0335 30.3258C22.5921 30.541 22.1424 30.7352 21.6859 30.9075L21.6506 30.741L19.8457 22.1587L20.0794 22.2033L22.4215 22.6522C24.1541 22.9842 25.5303 24.3024 25.9363 26.0198L26.3844 27.9172L26.429 28.1038Z" fill="#E69F00"/>
<path d="M22.6056 16.2212C22.4694 16.729 21.7842 18.9979 20.0298 19.4754C19.6851 19.5696 18.8629 19.678 19.0807 19.4754C19.1303 19.4292 19.1782 19.3838 19.2261 19.3392C21.1302 17.5486 21.907 16.4541 21.5522 14.0245C21.3269 12.4777 18.7612 11.0729 17.3178 10.9334C16.7091 10.8746 15.9324 11.0805 15.4196 11.611C14.573 12.4852 14.7126 15.1687 14.2435 16.745C14.1174 17.1669 13.9484 17.5099 13.7054 17.7176C13.5541 17.847 13.4575 17.6823 13.386 17.4124C13.2338 16.839 13.1943 15.7891 12.9783 16.0858C12.3537 16.9459 12.9488 18.0858 13.1288 18.5255C13.1657 18.6154 13.2036 18.702 13.2414 18.7844V18.7852C13.2633 18.8323 13.286 18.8794 13.3078 18.924V18.9248C13.908 20.1488 14.6293 20.5867 15.2649 21.3492C15.5146 21.6477 15.7508 21.9948 15.9618 22.4589C16.1064 22.7767 16.2106 23.0962 16.2821 23.4097C16.6461 24.9818 16.214 26.4101 16.0971 26.7985C15.8525 27.6072 15.4322 28.9967 14.1989 29.7811C12.6504 30.7664 11.2373 29.898 10.5614 30.8336C10.5529 30.8446 10.5454 30.8555 10.5378 30.8664C10.5126 30.9043 10.4899 30.9421 10.4706 30.9799C9.86361 30.7597 9.26673 30.5016 8.69257 30.2099C8.61521 30.1712 8.53788 30.1316 8.46054 30.0896C8.3748 30.0459 8.28989 29.9997 8.20414 29.9518C8.20077 29.8862 8.19741 29.8207 8.19488 29.7542C8.1453 28.6168 8.22011 27.3667 8.50342 26.12C8.685 25.3239 8.86491 24.5345 9.14063 23.7737C9.32054 23.2778 9.54079 22.7935 9.83081 22.3269C10.0629 21.952 10.3386 21.588 10.6732 21.2382C11.4079 20.4707 12.0611 20.1505 12.1645 19.34C12.3125 18.1833 11.1078 17.8353 10.6732 16.0858C10.3764 14.8896 10.0662 13.1654 10.3672 12.0036C10.6513 10.9057 10.8985 9.95323 11.7232 9.02004C11.9216 8.79641 13.5499 7.24118 15.4364 6.98561C16.3056 6.86879 17.0807 7.98185 18.1316 8.22141C19.3396 8.49635 20.0314 8.65356 20.7073 9.17052C21.8498 10.0431 22.1718 11.3479 22.4702 12.5601C22.7039 13.5084 23.0066 14.7349 22.6056 16.2212Z" fill="#C07C4A"/>
<path d="M27.3137 4.68631C24.2917 1.66436 20.2737 0 16 0C11.7263 0 7.70827 1.66436 4.68631 4.68631C1.66436 7.70827 0 11.7263 0 16C0 19.9008 1.38647 23.5886 3.92722 26.5005C4.16962 26.7789 4.42286 27.0502 4.68631 27.3137C5.09474 27.7221 5.5218 28.1065 5.96511 28.4638C5.96692 28.4656 5.96812 28.4668 5.96993 28.468C8.80361 30.7567 12.3062 32 16 32C20.2737 32 24.2917 30.3356 27.3137 27.3137C30.3356 24.2917 32 20.2737 32 16C32 11.7263 30.3356 7.70827 27.3137 4.68631ZM26.4024 27.988C25.3756 28.8812 24.2328 29.6439 23.0003 30.2514C22.5678 30.465 22.1245 30.6592 21.671 30.8331C19.9092 31.5092 17.997 31.8797 16 31.8797C14.0728 31.8797 12.225 31.5344 10.5149 30.9029C9.81293 30.6442 9.13444 30.3368 8.48301 29.985C8.38737 29.9332 8.29233 29.8809 8.19789 29.8274C7.70105 29.5459 7.22045 29.2385 6.7591 28.9065C5.72812 28.1666 4.78917 27.3065 3.96391 26.3465C1.56933 23.5651 0.120301 19.9489 0.120301 16C0.120301 7.24391 7.24391 0.120301 16 0.120301C24.7561 0.120301 31.8797 7.24391 31.8797 16C31.8797 20.7808 29.7564 25.0749 26.4024 27.988Z" fill="#1F1F1F"/>
</g>
<defs>
<clipPath id="clip0_826_22907">
<rect width="32" height="32" rx="16" fill="white"/>
</clipPath>
</defs>
</svg>
