<svg width="32" height="32" viewBox="0 0 32 32" fill="none" xmlns="http://www.w3.org/2000/svg">
<g clip-path="url(#clip0_826_22895)">
<rect width="32" height="32" rx="16" fill="#FAF0E6"/>
<path d="M12.6187 16.445C12.6187 16.445 13.6468 20.1515 12.6328 21.2076C11.6188 22.2637 11.8544 23.0734 11.8544 23.0734C11.8544 23.0734 9.29293 23.891 8.91875 20.8639L9.54344 23.174C9.54344 23.174 7.1387 22.9843 7.84163 19.9801C8.54456 16.976 9.4159 16.9729 8.91875 16.0522C8.42159 15.1315 8.42159 10.4586 11.2499 10.2127C14.0782 9.96677 13.7093 11.4424 13.7093 11.4424L12.6187 16.445Z" fill="#8C5A3C"/>
<path d="M24.3412 30.039C23.9144 30.266 23.227 30.4271 22.7248 30.5222H22.724C22.6796 30.5434 22.6353 30.5636 22.5905 30.5838C22.5633 30.5963 22.5362 30.6084 22.5086 30.6204C22.3829 30.6764 22.2558 30.7311 22.1283 30.7841C22.0758 30.8056 22.0233 30.8272 21.9707 30.8483L22.1124 30.7044L22.2059 30.6097L23.8253 28.9653C23.8253 28.9653 23.9777 29.2638 24.2021 29.7401C24.246 29.8331 24.2925 29.9331 24.3412 30.039Z" fill="#E8C1A0"/>
<path d="M12.8429 16.9313C12.7269 14.4422 14.6507 12.3304 17.1398 12.2145C19.6289 12.0985 21.7407 14.0223 21.8566 16.5114C21.9506 18.53 20.703 20.3003 18.9003 20.9593L18.2973 26.7578L13.6833 23.2634C13.6833 23.2634 14.5859 21.9966 15.0363 20.5945C13.7825 19.8441 12.916 18.5003 12.8429 16.9313Z" fill="#E8C1A0"/>
<path d="M24.7151 29.7033C24.6652 29.8278 24.5282 29.9393 24.3413 30.0388C23.9145 30.2658 23.2271 30.4269 22.7249 30.5221H22.7241C22.5027 30.5643 22.317 30.5931 22.2059 30.6095C22.1866 30.6125 22.1698 30.6151 22.1551 30.6168C22.1254 30.6211 22.1056 30.6237 22.0978 30.625L22.094 30.6254C22.1009 30.6517 22.1069 30.6784 22.1125 30.7043C22.1185 30.731 22.1241 30.7576 22.1284 30.7839C22.0759 30.8054 22.0233 30.827 21.9708 30.8481C21.4583 31.0548 20.9328 31.2353 20.3958 31.3882C20.2011 31.4437 20.0051 31.4958 19.8075 31.5436C18.9297 31.7581 18.0235 31.9002 17.0959 31.9627C16.7336 31.9873 16.3684 31.9998 16.0002 31.9998C14.7146 31.9998 13.4647 31.8481 12.267 31.5618C12.1417 31.532 12.0163 31.5006 11.8923 31.467C11.7683 31.4347 11.6446 31.4002 11.5219 31.3645C11.4289 31.3373 11.3363 31.3094 11.2437 31.2805C11.1825 31.262 11.1214 31.2421 11.0602 31.2223L9.58984 24.6613L14.2477 22.0771C14.2856 22.1013 14.3231 22.1254 14.3606 22.1491C19.0378 25.1148 18.6747 22.8149 18.6747 22.8149C18.6747 22.8149 18.6855 22.8214 18.7053 22.8335C18.931 22.9696 20.3579 23.8206 21.149 24.0467C21.9071 24.2633 24.0958 28.4858 24.607 29.4901C24.6768 29.6262 24.7151 29.7033 24.7151 29.7033Z" fill="#999999"/>
<path d="M22.0322 30.6301C22.0308 30.6105 21.8817 28.6702 21.4045 27.9543C20.9059 27.2064 21.0205 26.115 21.0256 26.0688L21.1479 26.0824C21.1467 26.0933 21.0334 27.1761 21.5068 27.8861C22.0019 28.6289 22.1489 30.5401 22.1549 30.621L22.0322 30.6301Z" fill="#1F1F1F"/>
<path d="M19.7995 11.4858C19.7995 11.4858 16.2917 9.10585 13.7094 11.4423C11.127 13.7787 10.9533 18.0646 15.0367 20.5945L14.6931 18.8204C14.6931 18.8204 13.7094 17.3448 15.308 17.4678C16.9066 17.5907 16.6606 16.1151 16.6606 16.1151C16.6606 16.1151 20.0844 14.5718 20.0941 13.4989L21.3707 15.5048C21.3707 15.5048 23.9221 13.3739 19.7995 11.4858Z" fill="#8C5A3C"/>
<path d="M14.4466 11.4424C14.4466 11.4424 13.8281 10.0062 13.0306 11.0932C12.2331 12.1803 12.8376 12.959 12.8376 12.959L14.4466 11.4424Z" fill="#999999"/>
<path d="M9.76209 30.7385C8.89211 30.3698 8.06132 29.9262 7.27832 29.4162V29.4158C7.44542 29.132 7.54922 28.9653 7.54922 28.9653L9.76209 30.7385Z" fill="#E8C1A0"/>
<path d="M12.6322 28.5662L11.2433 31.2809C11.1821 31.2623 11.121 31.2425 11.0598 31.2227C10.6278 31.0827 10.2036 30.9247 9.78841 30.7498C9.77979 30.7459 9.77075 30.7425 9.76213 30.7386C8.89215 30.3699 8.06136 29.9263 7.27836 29.4164V29.416C7.07164 29.2816 6.86879 29.1425 6.66895 28.9986C7.37657 27.3952 9.58943 24.6616 9.58943 24.6616L10.8806 24.7232L12.6322 28.5662Z" fill="#999999"/>
<path d="M27.3137 4.68632C24.2917 1.66436 20.2737 0 16 0C11.7263 0 7.70827 1.66436 4.68632 4.68632C1.66436 7.70827 0 11.7263 0 16C0 19.9008 1.38647 23.5886 3.92722 26.5005C4.16962 26.7789 4.42286 27.0502 4.68632 27.3137C4.74827 27.3756 4.81083 27.4376 4.87399 27.4977C5.04241 27.6608 5.21384 27.8202 5.38827 27.9747C5.49414 28.0692 5.60121 28.1618 5.70948 28.2526C5.79429 28.3242 5.8791 28.3946 5.96512 28.4638C5.96692 28.4656 5.96812 28.4668 5.96993 28.468C6.20873 28.6605 6.45173 28.8457 6.69955 29.0238C9.39489 30.957 12.6171 32 16 32C19.7047 32 23.2162 30.7495 26.0547 28.4481C26.2863 28.2605 26.5131 28.0656 26.7356 27.8641C26.9323 27.686 27.1248 27.5026 27.3137 27.3137C27.3732 27.2541 27.4328 27.194 27.4911 27.1332C27.6535 26.966 27.8111 26.7958 27.9651 26.6232C30.5738 23.6926 32 19.9561 32 16C32 11.7263 30.3356 7.70827 27.3137 4.68632ZM27.926 26.4734C27.7756 26.6442 27.6217 26.8126 27.4641 26.9768C27.2186 27.2325 26.9654 27.4803 26.7038 27.7191C26.6045 27.8105 26.5041 27.8996 26.4024 27.988C26.2869 28.0884 26.1702 28.1871 26.0517 28.2839C25.1176 29.0508 24.0944 29.7125 23.0003 30.2514C22.5678 30.465 22.1245 30.6593 21.671 30.8331C19.9092 31.5092 17.997 31.8797 16 31.8797C14.0728 31.8797 12.225 31.5344 10.5149 30.9029C9.81293 30.6442 9.13444 30.3368 8.48301 29.985C8.38737 29.9332 8.29233 29.8809 8.1979 29.8274C7.70105 29.5459 7.22045 29.2385 6.7591 28.9065C6.74406 28.8956 6.72842 28.8842 6.71339 28.8734C6.38496 28.6364 6.06557 28.3868 5.75699 28.1245C5.64391 28.0289 5.53203 27.932 5.42196 27.8328C5.24271 27.6734 5.06707 27.5092 4.89564 27.3408C4.57083 27.0226 4.26045 26.6911 3.96391 26.3465C1.56933 23.5651 0.120301 19.9489 0.120301 16C0.120301 7.24391 7.24391 0.120301 16 0.120301C24.7561 0.120301 31.8797 7.24391 31.8797 16C31.8797 20.0096 30.3862 23.6764 27.926 26.4734Z" fill="#1F1F1F"/>
</g>
<defs>
<clipPath id="clip0_826_22895">
<rect width="32" height="32" rx="16" fill="white"/>
</clipPath>
</defs>
</svg>
