<svg width="32" height="32" viewBox="0 0 32 32" fill="none" xmlns="http://www.w3.org/2000/svg">
<g clip-path="url(#clip0_826_22853)">
<rect width="32" height="32" rx="16" fill="#F0F0F0"/>
<path d="M16.2857 20.8893C19.1542 20.8893 21.4796 18.5639 21.4796 15.6954C21.4796 12.8269 19.1542 10.5015 16.2857 10.5015C13.4172 10.5015 11.0918 12.8269 11.0918 15.6954C11.0918 18.5639 13.4172 20.8893 16.2857 20.8893Z" fill="#E8C1A0"/>
<path d="M11.9863 22.0524L13.069 19.2855L18.663 18.4434L19.2641 24.5683L13.6099 24.6886L11.9863 22.0524Z" fill="#E8C1A0"/>
<path d="M21.5301 16.6535C21.4627 16.9236 21.3264 17.5666 21.1136 17.5697C20.9398 17.5723 20.7734 14.7827 20.9471 14.3213C21.1465 13.7912 20.6223 13.1206 20.2274 12.7764C19.5174 12.1575 17.9413 13.4865 16.3386 12.8845C16.2961 12.8685 16.3046 12.8703 15.7985 12.6684C14.2412 12.0471 14.1594 12.0291 14.0701 12.0203C13.3152 11.9456 12.3939 12.5633 12.0177 13.3165C11.6267 14.0995 11.9534 14.771 11.5856 16.6652C11.5428 16.886 11.4755 17.2007 11.3696 17.2053C11.176 17.2138 10.987 16.1799 10.9375 15.9091C10.7301 14.7745 10.5302 13.6807 10.9375 12.4524C10.9819 12.3184 11.2558 11.8211 11.8017 10.832C12.5881 9.40717 12.9837 8.69206 13.0979 8.56357C13.9177 7.64169 15.4099 6.80072 16.6627 7.15928C17.2959 7.34052 17.1823 7.63188 17.9589 7.91544C19.3429 8.42073 20.5457 7.80277 20.7675 8.2395C20.885 8.47084 20.5562 8.66157 20.5515 9.10368C20.5433 9.86226 21.5027 10.0815 22.0638 10.832C22.3654 11.2355 22.8817 11.2399 21.5301 16.6535Z" fill="#8C5A3C"/>
<path d="M27.9652 26.6231C27.7558 26.8583 27.5387 27.0886 27.3137 27.3136C24.2918 30.3355 20.2737 31.9999 16 31.9999C12.3062 31.9999 8.80365 30.7566 5.96996 28.4679C5.96816 28.4667 5.96695 28.4655 5.96516 28.4636C5.58922 28.1605 5.22531 27.8381 4.87402 27.4977C4.88063 27.4447 4.88786 27.3924 4.89567 27.3406C4.945 26.9918 4.99974 26.6591 5.06108 26.353C5.56334 23.8435 12.1721 21.2089 12.3441 21.1403C12.3465 21.1397 12.3477 21.1392 12.3477 21.1392C12.3477 21.1392 13.1982 24.2742 16.8427 24.2339C19.3252 24.2068 18.8439 21.1392 18.8439 21.1392C18.8439 21.1392 18.874 21.1452 18.9306 21.1572C19.6475 21.3094 24.6256 22.4029 26.5895 23.8953C27.188 24.35 27.6175 25.3184 27.9261 26.4733C27.9393 26.5226 27.9519 26.5731 27.9652 26.6231Z" fill="#CC79A7"/>
<path d="M27.3137 4.68633C24.2917 1.66441 20.2737 0 16 0C11.7263 0 7.70828 1.66441 4.68631 4.68633C1.66437 7.70829 0 11.7263 0 16C0 19.9008 1.38647 23.5886 3.92722 26.5005C4.16963 26.779 4.42286 27.0502 4.68631 27.3137C4.74827 27.3756 4.81083 27.4376 4.87399 27.4978C5.22527 27.8382 5.58918 28.1607 5.96512 28.4638C5.96692 28.4656 5.96812 28.4668 5.96992 28.468C8.80362 30.7567 12.3062 32 16 32C20.2737 32 24.2917 30.3356 27.3137 27.3137C27.5387 27.0888 27.7558 26.8584 27.9651 26.6232C30.5738 23.6927 32 19.9561 32 16C32 11.7263 30.3356 7.70829 27.3137 4.68633ZM27.926 26.4734C27.4526 27.0117 26.9438 27.5182 26.4024 27.988C25.3756 28.8812 24.2328 29.6439 23.0003 30.2515C22.5678 30.465 22.1245 30.6592 21.671 30.8331C19.9092 31.5092 17.997 31.8797 16 31.8797C14.0728 31.8797 12.225 31.5345 10.5149 30.9029C9.81293 30.6442 9.13444 30.3369 8.48301 29.985C8.38736 29.9333 8.29234 29.8809 8.1979 29.8274C7.70105 29.5459 7.22045 29.2385 6.7591 28.9065C6.09805 28.4325 5.47489 27.9086 4.89563 27.3408C4.57083 27.0226 4.26046 26.6911 3.96392 26.3465C1.56933 23.5651 0.120301 19.9489 0.120301 16C0.120301 7.24395 7.24391 0.120301 16 0.120301C24.7561 0.120301 31.8797 7.24395 31.8797 16C31.8797 20.0096 30.3862 23.6764 27.926 26.4734Z" fill="#1F1F1F"/>
</g>
<defs>
<clipPath id="clip0_826_22853">
<rect width="32" height="32" rx="16" fill="white"/>
</clipPath>
</defs>
</svg>
