<svg width="32" height="32" viewBox="0 0 32 32" fill="none" xmlns="http://www.w3.org/2000/svg">
<g clip-path="url(#clip0_826_22839)">
<rect width="32" height="32" rx="16" fill="#F4D6DA"/>
<mask id="mask0_826_22839" style="mask-type:luminance" maskUnits="userSpaceOnUse" x="0" y="0" width="32" height="32">
<path d="M16 32C24.8366 32 32 24.8366 32 16C32 7.16344 24.8366 0 16 0C7.16344 0 0 7.16344 0 16C0 24.8366 7.16344 32 16 32Z" fill="white"/>
</mask>
<g mask="url(#mask0_826_22839)">
<path d="M20.5646 15.9498C20.798 15.1882 20.8158 14.3767 20.6159 13.6056C20.4161 12.8345 20.0064 12.1338 19.4324 11.5815C18.8584 11.0291 18.1426 10.6466 17.3644 10.4764C16.5862 10.3063 15.776 10.3551 15.0239 10.6176C14.2718 10.88 13.6071 11.3457 13.1036 11.9631C12.6002 12.5804 12.2777 13.3252 12.1719 14.1148C12.0662 14.9043 12.1813 15.7077 12.5045 16.4358C12.8278 17.1639 13.3465 17.7881 14.003 18.2392L11.3721 24.8339L24.2964 23.7386C24.2964 23.7386 17.7492 20.2236 17.6652 18.8191C18.348 18.6178 18.9703 18.2504 19.4763 17.7496C19.9823 17.2489 20.3562 16.6305 20.5646 15.9498Z" fill="#E8C1A0"/>
<path d="M23.6564 22.1329L24.6575 21.6704C24.6575 21.6704 25.8011 21.8162 26.1422 23.1065C26.4833 24.3967 28.0407 31.3089 28.0407 31.3089C28.0407 31.3089 28.953 32.2093 28.4301 33.4508C28.4301 33.4508 28.6123 34.8258 28.0407 35.033C27.4691 35.2401 23.6396 38.1962 23.6396 38.1962L23.6565 22.1329L23.6564 22.1329Z" fill="#007F5F"/>
<path d="M20.6417 20.3317L17.7252 18.8096C17.1285 21.7788 14.3789 21.8883 13.7822 18.9191L11.8793 20.3317L7.86328 21.6703L8.44743 37.2415L16.5991 37.218L16.5997 37.2415H24.0736L24.6577 21.6703L20.6417 20.3317Z" fill="#007F5F"/>
<path d="M8.86402 22.1329L7.86297 21.6704C7.86297 21.6704 6.71937 21.8162 6.37827 23.1065C6.03717 24.3967 6.67032 31.8565 6.67032 31.8565C6.67032 31.8565 5.75797 32.7568 6.28087 33.9984C6.28087 33.9984 6.09872 35.3734 6.67032 35.5805C7.24192 35.7877 8.86397 35.8792 8.86397 35.8792V22.1329H8.86402Z" fill="#007F5F"/>
<path d="M12.8157 12.6284L12.5185 15.6599C12.5185 15.6599 9.40033 9.60948 13.2781 8.49068C13.2781 8.49068 12.9005 7.97933 13.4485 7.80918C13.9966 7.63903 19.1922 6.82318 19.6064 9.36688C19.6064 9.36688 22.3206 11.0491 21.4992 12.849L20.5313 14.9648L19.6551 15.0135C19.6551 15.0135 19.6304 10.985 18.2921 11.1191C16.9538 11.2532 12.8157 12.6284 12.8157 12.6284Z" fill="#5A4038"/>
</g>
<path d="M27.3137 4.68632C24.2917 1.66436 20.2737 0 16 0C11.7263 0 7.70827 1.66436 4.68632 4.68632C1.66436 7.70827 0 11.7263 0 16C0 19.9008 1.38647 23.5886 3.92722 26.5005C4.16962 26.7789 4.42286 27.0502 4.68632 27.3137C4.74827 27.3756 4.81083 27.4376 4.87399 27.4977C5.04241 27.6608 5.21384 27.8202 5.38827 27.9747C5.49414 28.0692 5.60121 28.1618 5.70948 28.2526C5.79429 28.3242 5.8791 28.3946 5.96512 28.4638C5.96692 28.4656 5.96812 28.4668 5.96993 28.468C6.20873 28.6605 6.45173 28.8457 6.69955 29.0238C9.39489 30.957 12.6171 32 16 32C19.7047 32 23.2162 30.7495 26.0547 28.4481C26.2863 28.2605 26.5131 28.0656 26.7356 27.8641C26.9323 27.686 27.1248 27.5026 27.3137 27.3137C27.3732 27.2541 27.4328 27.194 27.4911 27.1332C27.6535 26.966 27.8111 26.7958 27.9651 26.6232C30.5738 23.6926 32 19.9561 32 16C32 11.7263 30.3356 7.70827 27.3137 4.68632ZM27.926 26.4734C27.7756 26.6442 27.6217 26.8126 27.4641 26.9768C27.2186 27.2325 26.9654 27.4803 26.7038 27.7191C26.6045 27.8105 26.5041 27.8996 26.4024 27.988C26.2869 28.0884 26.1702 28.1871 26.0517 28.2839C25.1176 29.0508 24.0944 29.7125 23.0003 30.2514C22.5678 30.465 22.1245 30.6593 21.671 30.8331C19.9092 31.5092 17.997 31.8797 16 31.8797C14.0728 31.8797 12.225 31.5344 10.5149 30.9029C9.81293 30.6442 9.13444 30.3368 8.48301 29.985C8.38737 29.9332 8.29233 29.8809 8.1979 29.8274C7.70105 29.5459 7.22045 29.2385 6.7591 28.9065C6.74406 28.8956 6.72842 28.8842 6.71339 28.8734C6.38496 28.6364 6.06557 28.3868 5.75699 28.1245C5.64391 28.0289 5.53203 27.932 5.42196 27.8328C5.24271 27.6734 5.06707 27.5092 4.89564 27.3408C4.57083 27.0226 4.26045 26.6911 3.96391 26.3465C1.56933 23.5651 0.120301 19.9489 0.120301 16C0.120301 7.24391 7.24391 0.120301 16 0.120301C24.7561 0.120301 31.8797 7.24391 31.8797 16C31.8797 20.0096 30.3862 23.6764 27.926 26.4734Z" fill="#1F1F1F"/>
</g>
<defs>
<clipPath id="clip0_826_22839">
<rect width="32" height="32" rx="16" fill="white"/>
</clipPath>
</defs>
</svg>
